<?xml version="1.0" encoding="UTF-8"?>
<svg width="234px" height="60px" viewBox="0 0 234 60" version="1.1" xmlns="http://www.w3.org/2000/svg" xmlns:xlink="http://www.w3.org/1999/xlink">
    <title>Group 2</title>
    <g id="Logo" stroke="none" stroke-width="1" fill="none" fill-rule="evenodd">
        <g id="reinserir-vertical" transform="translate(-30.000000, -30.000000)">
            <g id="Group-2" transform="translate(30.000000, 30.000000)">
                <g id="reinserir1">
                    <g id="Group" transform="translate(22.608696, 26.956522)" fill="#18777A">
                        <path d="M13.0434783,30.4347826 C8.15143179,27.205005 6.85463238,14.5035378 6.24227843,-6.17863248e-15 C5.44969566,15.2362985 3.47650806,28.2142317 0,30.3969681 L13.0434783,30.4347826 Z" id="Path"></path>
                    </g>
                    <g id="Group" transform="translate(4.956522, 54.782609)" fill="#18777A">
                        <path d="M44.3478261,5.2173913 C44.3478261,5.2173913 33.9581294,0 22.7940367,0 C11.6304108,0 0,5.21247261 0,5.21247261 C15.198514,1.7009733 29.9820562,1.69784323 44.3478261,5.2173913 Z" id="Path"></path>
                    </g>
                    <g id="Path" transform="translate(45.086957, 27.956522)" fill="#CCD470" fill-rule="nonzero">
                        <path d="M0,1.26695827 C0,1.26695827 1.40270602,0.00186180495 3.94407929,0 C6.90832716,0 9.56521739,2.27140204 9.56521739,2.27140204 C9.56521739,2.27140204 6.74020872,3.75246788 3.72335937,3.43316833 C1.23046197,3.16879202 0,1.26695827 0,1.26695827 Z"></path>
                    </g>
                    <g id="Path1" transform="translate(31.304348, 29.565217)" fill="#694115" fill-rule="nonzero">
                        <path d="M0,2.09666864 C0,2.09666864 1.75057781,-0.227869448 4.52631808,0.0182504941 C7.77152527,0.306469901 9.56521739,2.59279463 9.56521739,2.59279463 C9.56521739,2.59279463 7.76536608,4.63688552 3.88234086,4.31304349 C1.82996289,4.14075953 0,2.09666864 0,2.09666864 Z" id="Path"></path>
                    </g>
                    <g id="Path2" transform="translate(19.130435, 29.565217)" fill="#18777A" fill-rule="nonzero">
                        <path d="M0,1.94552983 C0,1.94552983 1.58545256,-0.0979267269 3.81186765,0.00366635756 C6.03773585,0.105259442 7.82608696,1.7384787 7.82608696,1.7384787 C7.82608696,1.7384787 5.46568225,3.477156 3.91249658,3.47826087 C1.88898004,3.47936455 0,1.94552983 0,1.94552983 Z" id="Path"></path>
                    </g>
                    <g id="Path3" transform="translate(20.869565, 0.000000)" fill="#18777A" fill-rule="nonzero">
                        <path d="M1.38783649,0 C1.38783649,0 7.15650462,2.68615188 7.71872702,6.88733754 C8.28094943,11.0895259 6.45193447,13.9130435 6.45193447,13.9130435 C6.45193447,13.9130435 1.24651283,11.9849098 0.262367598,8.26500558 C-0.723825799,4.546104 1.38783649,0 1.38783649,0 Z" id="Path"></path>
                    </g>
                    <g id="Path4" transform="translate(32.173913, 0.869565)" fill="#D91E23" fill-rule="nonzero">
                        <path d="M0.0980194483,11.3043478 C0.0980194483,11.3043478 -0.599363411,5.93095429 1.72619494,3.60647568 C4.05270211,1.28199707 7.77112854,0 7.77112854,0 C7.77112854,0 8.3138537,5.65315553 5.98829535,8.17690321 C4.05080447,10.2805171 0.0980194483,11.3043478 0.0980194483,11.3043478 Z" id="Path"></path>
                    </g>
                    <g id="Path5" transform="translate(13.043478, 7.826087)" fill="#D2DE3C" fill-rule="nonzero">
                        <path d="M0.0078480101,0.00974496904 C0.244721373,-0.0693080056 6.60839677,0.259591407 8.85240932,3.75646558 C10.5472624,6.39546858 10.4331765,10.2144104 10.4331765,10.2144104 C10.4331765,10.2144104 6.48464253,11.4899936 3.08816855,7.90333088 C-0.309272247,4.3176441 0.0078480101,0.00974496904 0.0078480101,0.00974496904 Z" id="Path"></path>
                    </g>
                    <g id="Path6" transform="translate(25.217391, 14.782609)" fill="#D91E23" fill-rule="nonzero">
                        <path d="M0.112588052,6.94811603 C0.112588052,6.94811603 -0.436162643,3.71779275 0.889297213,2.13375638 C2.21475707,0.5487623 6.08695652,0 6.08695652,0 C6.08695652,0 6.08695652,4.45043352 4.24884799,5.79025631 C2.41073946,7.1310368 0.112588052,6.94811603 0.112588052,6.94811603 Z" id="Path"></path>
                    </g>
                    <g id="Path7" transform="translate(33.043478, 10.434783)" fill="#694115" fill-rule="nonzero">
                        <path d="M0,8.58614487 C0,8.58614487 1.09940423,4.58205645 3.8644545,2.54325014 C8.39049739,-0.793159023 14.7826087,0.111983546 14.7826087,0.111983546 C14.7826087,0.111983546 13.0585872,7.45148756 7.39130435,8.35663013 C3.69224694,8.94780447 0,8.58614487 0,8.58614487 Z" id="Path"></path>
                    </g>
                    <g id="Path8" transform="translate(1.739130, 13.913043)" fill="#D91E23" fill-rule="nonzero">
                        <path d="M0,0.000591926412 C0,0.000591926412 7.80059482,-0.0946630089 10.7970424,2.13155285 C14.5548907,4.92438827 14.7826087,9.37878401 14.7826087,9.37878401 C14.7826087,9.37878401 7.97815465,10.4462285 4.19021149,7.47270329 C0.96403956,4.93813641 0,0.000591926412 0,0.000591926412 Z" id="Path"></path>
                    </g>
                    <g id="Path9" transform="translate(0.000000, 24.347826)" fill="#D91E23" fill-rule="nonzero">
                        <path d="M0,2.60273096 C0.108486516,2.4324783 2.51165658,-0.116333363 5.25965878,0.00413781331 C8.00862961,0.12361336 9.56521739,1.98245374 9.56521739,1.98245374 C9.56521739,1.98245374 7.25697303,4.2783755 4.78212438,4.34607831 C2.30824436,4.41178986 0,2.60273096 0,2.60273096 Z" id="Path"></path>
                    </g>
                    <g id="Path10" transform="translate(34.782609, 20.869565)" fill="#D91E23" fill-rule="nonzero">
                        <path d="M0,6.34681138 C0,6.34681138 2.10736178,1.34461008 5.67904126,0.408005443 C10.2684519,-0.796499515 13.9130435,1.04950113 13.9130435,1.04950113 C13.9130435,1.04950113 11.5555527,7.12121074 6.95601541,7.71456809 C2.35749074,8.30687896 0,6.34681138 0,6.34681138 Z" id="Path"></path>
                    </g>
                    <g id="Path11" transform="translate(3.478261, 31.304348)" fill="#694115" fill-rule="nonzero">
                        <path d="M13.0434783,3.51794812 C13.0434783,3.51794812 10.9685409,-0.0396720645 6.53138292,0.000334909792 C2.09422489,0.0413420584 0,1.77664457 0,1.77664457 C0,1.77664457 3.65144302,5.43428219 6.99225451,5.20724261 C10.3361114,4.98220338 13.0434783,3.51794812 13.0434783,3.51794812 Z" id="Path"></path>
                    </g>
                    <g id="Path12" transform="translate(10.434783, 26.086957)" fill="#CCD470" fill-rule="nonzero">
                        <path d="M9.56521739,2.59244615 C9.56521739,2.59244615 7.65848557,-0.115026394 4.47924186,0.00379993065 C1.29999815,0.12164422 0,1.89225467 0,1.89225467 C0,1.89225467 1.76217447,4.38760749 4.99842671,4.34734403 C7.79489885,4.31297278 9.56521739,2.59244615 9.56521739,2.59244615 Z" id="Path"></path>
                    </g>
                    <g id="Path13" transform="translate(20.000000, 21.739130)" fill="#694115" fill-rule="nonzero">
                        <path d="M6.95652174,5.14019801 C6.95652174,5.14019801 3.56238185,5.62265612 1.92249527,4.17528178 C0.282608696,2.72684476 0,0 0,0 C0,0 3.85822306,0.0127521968 5.37901701,1.58020972 C6.89981096,3.14979262 6.95652174,5.14019801 6.95652174,5.14019801 Z" id="Path"></path>
                    </g>
                    <g id="Path14" transform="translate(42.478261, 32.913043)" fill="#18777A" fill-rule="nonzero">
                        <path d="M6.95652174,5.14019801 C6.95652174,5.14019801 3.56238185,5.62265612 1.92249527,4.17528178 C0.282608696,2.72684476 0,0 0,0 C0,0 3.85822306,0.0127521968 5.37901701,1.58020972 C6.89981096,3.14979262 6.95652174,5.14019801 6.95652174,5.14019801 Z" id="Path"></path>
                    </g>
                    <g id="Path15" transform="translate(29.565217, 20.869565)" fill="#CCD470" fill-rule="nonzero">
                        <path d="M1.60898209,6.95652174 C1.60898209,6.95652174 -0.0535947221,6.27041281 0.00133157654,4.14277194 C0.0710457248,1.49778685 2.250141,0 2.250141,0 C2.250141,0 3.68773124,3.04379218 3.45218192,4.39491446 C3.10572373,6.36785434 1.60898209,6.95652174 1.60898209,6.95652174 Z" id="Path"></path>
                    </g>
                    <g id="Path16" transform="translate(12.173913, 35.652174)" fill="#D91E23" fill-rule="nonzero">
                        <path d="M14.7826087,0.91983298 C14.7826087,0.91983298 14.4251228,4.95404971 10.479385,7.42179399 C6.68199875,9.79651021 0,8.12300548 0,8.12300548 C0,8.12300548 2.6332391,2.34226199 5.99896372,0.91983298 C10.893533,-1.14979122 14.7826087,0.91983298 14.7826087,0.91983298 Z" id="Path"></path>
                    </g>
                    <g id="Path17" transform="translate(32.173913, 35.652174)" fill="#D91E23" fill-rule="nonzero">
                        <path d="M0.00058974918,0.0354634091 C0.00058974918,0.0354634091 6.90170897,-0.50859655 9.12685013,2.66524876 C11.3519913,5.83909407 11.3043478,8.69565217 11.3043478,8.69565217 C11.3043478,8.69565217 4.1694981,8.69565217 2.0388111,5.83909407 C-0.0918759024,2.98253596 0.00058974918,0.0354634091 0.00058974918,0.0354634091 Z" id="Path"></path>
                    </g>
                </g>
                <g id="Group-3" transform="translate(67.000000, 7.000000)" fill="#000000" fill-rule="nonzero">
                    <path d="M13.2516044,46.5972028 L13.6607143,44.6583775 L12.4511719,44.6583775 C12.0717076,44.6583775 11.7189244,44.6435547 11.3928223,44.613909 C11.0667201,44.5842634 10.7850865,44.5249721 10.5479213,44.4360352 C10.3107561,44.3470982 10.1269531,44.2225865 9.99651228,44.0625 C9.86607143,43.9024135 9.800851,43.6919294 9.800851,43.4310477 C9.800851,43.3361816 9.81863839,43.1790597 9.85421317,42.9596819 C9.88978795,42.7403041 9.95500837,42.4112374 10.0498744,41.9724819 L10.0498744,41.9724819 L11.4728655,35.3022112 L13.9808873,35.3022112 L16.2754604,42.4527414 C16.5482003,43.3183943 16.9039481,44.0209961 17.3427037,44.5605469 C17.7814593,45.1000977 18.3328683,45.5210658 18.9969308,45.8234515 C19.6609933,46.1258371 20.4584612,46.330392 21.3893345,46.4371164 C22.3202079,46.5438407 23.4200614,46.5972028 24.6888951,46.5972028 L24.6888951,46.5972028 L25.0624302,46.5972028 L25.4537528,44.6583775 L25.3114537,44.6583775 C24.8964146,44.6583775 24.5317732,44.5961217 24.2175293,44.4716099 C23.9032854,44.3470982 23.6127581,44.1395787 23.3459473,43.8490513 C23.0791364,43.558524 22.8271484,43.1760951 22.5899833,42.7017648 C22.3528181,42.2274344 22.1097238,41.6463797 21.8607003,40.9586007 L21.8607003,40.9586007 L19.3348912,34.1816057 C20.0819615,34.0037319 20.8408901,33.7428502 21.6116769,33.3989607 C22.3824637,33.0550711 23.0791364,32.5896345 23.701695,32.0026507 C24.3242536,31.4156669 24.8341588,30.6893485 25.2314104,29.8236956 C25.6286621,28.9580427 25.8272879,27.9085868 25.8272879,26.6753278 C25.8272879,24.6357073 25.1098633,23.111921 23.675014,22.103969 C22.2401646,21.096017 20.0701032,20.592041 17.1648298,20.592041 L17.1648298,20.592041 L5.46072824,20.592041 L5.06940569,22.513079 L5.53187779,22.513079 C5.91134208,22.513079 6.26412528,22.5279018 6.5902274,22.5575474 C6.91632952,22.5871931 7.1949986,22.6464844 7.42623465,22.7354213 C7.6574707,22.8243583 7.83830915,22.9518345 7.96875,23.1178502 C8.09919085,23.2838658 8.16441127,23.4973145 8.16441127,23.7581961 C8.16441127,23.9597866 8.08733259,24.3748256 7.93317522,25.0033133 L7.93317522,25.0033133 L4.21561105,42.4883161 C4.12074498,42.9626465 3.96362305,43.3421108 3.74424526,43.626709 C3.52486747,43.9113072 3.26695033,44.130685 2.97049386,44.2848424 C2.67403739,44.4389997 2.3449707,44.5397949 1.98329381,44.587228 C1.62161691,44.634661 1.25104632,44.6583775 0.871582031,44.6583775 L0.871582031,44.6583775 L0.391322545,44.6583775 L0,46.5972028 L13.2516044,46.5972028 Z M14.1409738,33.185512 L11.8819754,33.185512 L14.2121233,22.744315 L16.0620117,22.744315 C16.6667829,22.744315 17.1944754,22.8184291 17.6450893,22.9666574 C18.0957031,23.1148856 18.4692383,23.363909 18.7656948,23.7137277 C19.0621512,24.0635463 19.281529,24.5171247 19.4238281,25.0744629 C19.5661272,25.6318011 19.6372768,26.3195801 19.6372768,27.1377999 C19.6372768,28.2287598 19.4949777,29.1566685 19.2103795,29.9215262 C18.9257812,30.6863839 18.5374233,31.3089425 18.0453055,31.789202 C17.5531878,32.2694615 16.9721331,32.6222447 16.3021415,32.8475516 C15.6321498,33.0728585 14.9117606,33.185512 14.1409738,33.185512 L14.1409738,33.185512 Z M35.1081194,46.9529506 C36.3532366,46.9529506 37.4293736,46.8195452 38.3365304,46.5527344 C39.2436872,46.2859235 39.9907575,45.9479632 40.5777414,45.5388532 C41.1647252,45.1297433 41.6005162,44.682094 41.8851144,44.1959054 C42.1697126,43.7097168 42.3120117,43.2472447 42.3120117,42.8084891 C42.3120117,42.5001744 42.2705078,42.2066825 42.1875,41.9280134 C42.1044922,41.6493443 41.9918387,41.4210728 41.8495396,41.2431989 C41.5886579,41.610805 41.2773786,41.9695173 40.9157017,42.3193359 C40.5540248,42.6691546 40.1449149,42.9833984 39.6883719,43.2620675 C39.231829,43.5407366 38.7367467,43.7660435 38.203125,43.9379883 C37.6695033,44.109933 37.106236,44.1959054 36.5133231,44.1959054 C35.1851981,44.1959054 34.1920689,43.8134766 33.5339355,43.0486189 C32.8758022,42.2837612 32.5467355,41.1957659 32.5467355,39.7846331 C32.5467355,39.5830427 32.5497001,39.3607003 32.5556292,39.117606 C32.5615583,38.8745117 32.5823103,38.634382 32.617885,38.3972168 C32.843192,38.4209333 33.074428,38.4327916 33.3115932,38.4327916 L33.3115932,38.4327916 L33.9697266,38.4327916 C35.5350167,38.4327916 36.9817243,38.2312012 38.3098493,37.8280204 C39.6379743,37.4248396 40.7822963,36.8823242 41.7428153,36.2004743 C42.7033343,35.5186244 43.4563337,34.7270857 44.0018136,33.825858 C44.5472935,32.9246303 44.8200335,31.9818987 44.8200335,30.9976632 C44.8200335,29.6458217 44.339774,28.5934012 43.379255,27.8404018 C42.418736,27.0874023 41.0668945,26.7109026 39.3237305,26.7109026 C37.9837472,26.7109026 36.7475237,26.8976702 35.61506,27.2712054 C34.4825963,27.6447405 33.4598214,28.1516811 32.5467355,28.7920271 C31.6336496,29.432373 30.8302525,30.1764788 30.1365444,31.0243443 C29.4428362,31.8722098 28.8617815,32.7675084 28.3933803,33.71024 C27.9249791,34.6529715 27.5721959,35.6164551 27.3350307,36.6006906 C27.0978655,37.5849261 26.9792829,38.5276576 26.9792829,39.4288853 C26.9792829,40.697719 27.1927316,41.8035017 27.6196289,42.7462333 C28.0465262,43.6889648 28.6305455,44.4716099 29.3716867,45.0941685 C30.1128278,45.7167271 30.9755162,46.1821638 31.9597517,46.4904785 C32.9439872,46.7987932 33.9934431,46.9529506 35.1081194,46.9529506 Z M33.2048689,36.3160924 L32.8846959,36.3160924 C33.026995,35.4504395 33.2523019,34.5758929 33.5606166,33.6924526 C33.8689314,32.8090123 34.2365374,32.0115444 34.6634347,31.3000488 C35.090332,30.5885533 35.5705915,30.0104632 36.1042132,29.5657785 C36.6378348,29.1210938 37.2011021,28.8987514 37.7940151,28.8987514 C38.3632115,28.8987514 38.8049316,29.1062709 39.1191755,29.52131 C39.4334194,29.9363491 39.5905413,30.5174037 39.5905413,31.2644741 C39.5905413,32.0352609 39.4274902,32.728969 39.1013881,33.3455985 C38.775286,33.962228 38.3246722,34.492885 37.7495466,34.9375698 C37.174421,35.3822545 36.4985003,35.7231794 35.7217843,35.9603446 C34.9450684,36.1975098 34.1060965,36.3160924 33.2048689,36.3160924 L33.2048689,36.3160924 Z M52.4644252,23.7937709 C52.9031808,23.7937709 53.3300781,23.7344796 53.7451172,23.615897 C54.1601562,23.4973145 54.5307268,23.316476 54.856829,23.0733817 C55.1829311,22.8302874 55.4438128,22.5219727 55.6394741,22.1484375 C55.8351353,21.7749023 55.932966,21.3391113 55.932966,20.8410645 C55.932966,20.4378836 55.8529227,20.0910296 55.6928362,19.8005022 C55.5327497,19.5099749 55.3193011,19.2698451 55.0524902,19.080113 C54.7856794,18.8903809 54.4773647,18.7540109 54.127546,18.6710031 C53.7777274,18.5879953 53.4071568,18.5464914 53.0158343,18.5464914 C52.5652204,18.5464914 52.132394,18.6028181 51.7173549,18.7154715 C51.3023158,18.828125 50.940639,19.0059989 50.6323242,19.2490932 C50.3240095,19.4921875 50.0779506,19.8005022 49.8941476,20.1740374 C49.7103446,20.5475725 49.6184431,21.0011509 49.6184431,21.5347726 C49.6184431,21.9142369 49.6925572,22.2462681 49.8407854,22.5308664 C49.9890137,22.8154646 50.1906041,23.0526297 50.4455566,23.2423619 C50.7005092,23.432094 50.9999302,23.5714286 51.3438198,23.6603655 C51.6877093,23.7493025 52.0612444,23.7937709 52.4644252,23.7937709 Z M50.6856864,46.9529506 C51.3497489,46.9529506 51.9574847,46.8818011 52.5088937,46.739502 C53.0603027,46.5972028 53.5672433,46.4074707 54.0297154,46.1703055 C54.4921875,45.9331403 54.9072266,45.663365 55.2748326,45.3609794 C55.6424386,45.0585938 55.9685407,44.7532436 56.253139,44.4449289 L56.253139,44.4449289 L55.3815569,43.2175991 C54.9665179,43.490339 54.5989118,43.6978585 54.2787388,43.8401576 C53.9585658,43.9824568 53.6087472,44.0536063 53.2292829,44.0536063 C52.8261021,44.0536063 52.5148228,43.9113072 52.295445,43.626709 C52.0760672,43.3421108 51.9663783,42.9330008 51.9663783,42.3993792 C51.9663783,41.8894741 52.0138114,41.3469587 52.1086775,40.7718331 C52.2035435,40.1967076 52.3221261,39.5771136 52.4644252,38.9130511 L52.4644252,38.9130511 L54.9902344,27.0666504 L46.3455636,27.0666504 L46.0253906,29.0054757 L46.683524,29.0054757 C47.0274135,29.0054757 47.3209054,29.0232631 47.5639997,29.0588379 C47.807094,29.0944127 48.0057199,29.1655622 48.1598772,29.2722866 C48.3140346,29.3790109 48.4266881,29.5331682 48.4978376,29.7347586 C48.5689872,29.9363491 48.6045619,30.2031599 48.6045619,30.5351911 C48.6045619,30.5826242 48.5986328,30.6597028 48.5867746,30.7664272 C48.5749163,30.8731515 48.5571289,31.0006278 48.5334124,31.148856 C48.5096959,31.2970843 48.4830148,31.4542062 48.4533691,31.6202218 C48.4237235,31.7862374 48.3911133,31.9463239 48.3555385,32.1004813 L48.3555385,32.1004813 L46.9325474,38.8774763 C46.730957,39.8024205 46.5827288,40.6265695 46.4878627,41.3499233 C46.3929967,42.0732771 46.3455636,42.6958357 46.3455636,43.2175991 C46.3455636,44.3915667 46.7190988,45.3076172 47.4661691,45.9657506 C48.2132394,46.6238839 49.2864118,46.9529506 50.6856864,46.9529506 Z M74.0897042,46.9529506 C74.7537667,46.9529506 75.3644671,46.8818011 75.9218052,46.739502 C76.4791434,46.5972028 76.986084,46.4074707 77.442627,46.1703055 C77.8991699,45.9331403 78.3112444,45.663365 78.6788504,45.3609794 C79.0464565,45.0585938 79.3725586,44.7532436 79.6571568,44.4449289 L79.6571568,44.4449289 L78.7855748,43.2175991 C78.3705357,43.490339 78.0058943,43.6978585 77.6916504,43.8401576 C77.3774065,43.9824568 77.0305525,44.0536063 76.6510882,44.0536063 C76.2360491,44.0536063 75.9188407,43.9113072 75.6994629,43.626709 C75.4800851,43.3421108 75.3703962,42.9330008 75.3703962,42.3993792 C75.3703962,41.8894741 75.4178292,41.3469587 75.5126953,40.7718331 C75.6075614,40.1967076 75.726144,39.5771136 75.8684431,38.9130511 L75.8684431,38.9130511 L76.6866629,35.017613 C76.7459542,34.69744 76.8141392,34.3594796 76.8912179,34.0037319 C76.9682966,33.6479841 77.0394461,33.2922363 77.1046666,32.9364886 C77.169887,32.5807408 77.2232492,32.2279576 77.2647531,31.878139 C77.306257,31.5283203 77.3270089,31.1992536 77.3270089,30.8909389 C77.3270089,30.3336007 77.2558594,29.8029436 77.1135603,29.2989676 C76.9712612,28.7949916 76.7370605,28.3503069 76.4109584,27.9649135 C76.0848563,27.5795201 75.657959,27.2741699 75.1302665,27.048863 C74.6025739,26.8235561 73.9533343,26.7109026 73.1825474,26.7109026 C72.3761858,26.7109026 71.6380092,26.796875 70.9680176,26.9688198 C70.2980259,27.1407645 69.6784319,27.4016462 69.1092355,27.7514648 C68.5400391,28.1012835 68.009382,28.5430036 67.5172642,29.0766253 C67.0251465,29.6102469 66.5478516,30.2387347 66.0853795,30.9620884 L66.0853795,30.9620884 L65.8541434,30.9620884 L66.2632533,27.0666504 L58.1699916,27.0666504 L57.8498186,29.0054757 L58.507952,29.0054757 C58.8518415,29.0054757 59.1453334,29.0232631 59.3884277,29.0588379 C59.631522,29.0944127 59.8301479,29.1655622 59.9843052,29.2722866 C60.1384626,29.3790109 60.2511161,29.5331682 60.3222656,29.7347586 C60.3934152,29.9363491 60.42899,30.2031599 60.42899,30.5351911 C60.42899,30.5826242 60.4230608,30.6597028 60.4112026,30.7664272 C60.3993443,30.8731515 60.3815569,31.0006278 60.3578404,31.148856 C60.3341239,31.2970843 60.3074428,31.4542062 60.2777972,31.6202218 C60.2481515,31.7862374 60.2155413,31.9463239 60.1799665,32.1004813 L60.1799665,32.1004813 L57.1205357,46.5972028 L62.581264,46.5972028 L64.4311523,38.1481934 C64.5378767,37.673863 64.692034,37.1402414 64.8936244,36.5473284 C65.0952148,35.9544155 65.3353446,35.3496443 65.6140137,34.7330148 C65.8926828,34.1163853 66.2039621,33.5145787 66.5478516,32.9275949 C66.8917411,32.340611 67.253418,31.8188477 67.6328823,31.3623047 C68.0123465,30.9057617 68.4066336,30.5381557 68.8157436,30.2594866 C69.2248535,29.9808175 69.636928,29.841483 70.0519671,29.841483 C70.3721401,29.841483 70.6300572,29.9067034 70.8257185,30.0371443 C71.0213797,30.1675851 71.1755371,30.3336007 71.2881906,30.5351911 C71.400844,30.7367815 71.4779227,30.9620884 71.5194266,31.2111119 C71.5609305,31.4601353 71.5816825,31.6973005 71.5816825,31.9226074 C71.5816825,32.2190639 71.5550014,32.5540597 71.5016392,32.9275949 C71.4482771,33.30113 71.3860212,33.6746652 71.3148717,34.0482003 C71.2437221,34.4217355 71.1725725,34.7804478 71.101423,35.1243373 C71.0302734,35.4682268 70.9709821,35.7587542 70.9235491,35.9959194 L70.9235491,35.9959194 L70.3365653,38.8774763 C69.9452427,40.7273647 69.7495815,42.1740723 69.7495815,43.2175991 C69.7495815,44.3915667 70.1231166,45.3076172 70.8701869,45.9657506 C71.6172573,46.6238839 72.6904297,46.9529506 74.0897042,46.9529506 Z M86.67899,46.9529506 C88.1375558,46.9529506 89.4182478,46.8076869 90.5210658,46.5171596 C91.6238839,46.2266323 92.5488281,45.8086286 93.2958984,45.2631487 C94.0429687,44.7176688 94.6032715,44.0536063 94.9768066,43.2709612 C95.3503418,42.4883161 95.5371094,41.6048758 95.5371094,40.6206403 C95.5371094,39.9447196 95.4452079,39.3310547 95.2614049,38.7796456 C95.0776018,38.2282366 94.7989328,37.7183315 94.4253976,37.2499302 C94.0518624,36.781529 93.5804967,36.3487026 93.0113002,35.9514509 C92.4421038,35.5541992 91.766183,35.1776995 90.9835379,34.8219517 C90.2720424,34.5017787 89.6554129,34.214216 89.1336496,33.9592634 C88.6118862,33.7043108 88.1820243,33.4463937 87.8440639,33.185512 C87.5061035,32.9246303 87.2570801,32.6459612 87.0969936,32.3495047 C86.9369071,32.0530483 86.8568638,31.7032296 86.8568638,31.3000488 C86.8568638,30.9443011 86.9280134,30.6122698 87.0703125,30.3039551 C87.2126116,29.9956403 87.4171666,29.725865 87.6839774,29.4946289 C87.9507882,29.2633929 88.2709612,29.0795898 88.6444964,28.9432199 C89.0180315,28.8068499 89.4419643,28.7386649 89.9162946,28.7386649 C90.438058,28.7386649 90.8768136,28.8631766 91.2325614,29.1122001 C91.5883092,29.3612235 91.8788365,29.6873256 92.1041434,30.0905064 C92.3294503,30.4936872 92.4895368,30.9413365 92.5844029,31.4334542 C92.679269,31.925572 92.726702,32.4147252 92.726702,32.9009138 C94.0192522,32.9009138 95.0390625,32.681536 95.7861328,32.2427804 C96.5332031,31.8040248 96.9067383,31.0984584 96.9067383,30.1260812 C96.9067383,29.6873256 96.7911203,29.2604283 96.5598842,28.8453892 C96.3286482,28.4303502 95.9491839,28.0657087 95.4214914,27.7514648 C94.8937988,27.437221 94.2060198,27.185233 93.3581543,26.9955008 C92.5102888,26.8057687 91.4756557,26.7109026 90.254255,26.7109026 C88.9735631,26.7109026 87.8262765,26.844308 86.8123954,27.1111189 C85.7985142,27.3779297 84.9358259,27.7633231 84.2243304,28.2672991 C83.5128348,28.7712751 82.9673549,29.3790109 82.5878906,30.0905064 C82.2084263,30.802002 82.0186942,31.6024344 82.0186942,32.4918039 C82.0186942,33.2032994 82.1283831,33.8436454 82.3477609,34.4128418 C82.5671387,34.9820382 82.878418,35.4978725 83.2815988,35.9603446 C83.6847796,36.4228167 84.1739328,36.8437849 84.7490583,37.2232492 C85.3241839,37.6027134 85.9674944,37.9584612 86.67899,38.2904925 C87.3904855,38.634382 88.0041504,38.9426967 88.5199847,39.2154367 C89.0358189,39.4881766 89.4627162,39.7638811 89.8006766,40.0425502 C90.138637,40.3212193 90.3876604,40.6206403 90.5477469,40.9408133 C90.7078334,41.2609863 90.7878767,41.6285924 90.7878767,42.0436314 C90.7878767,42.482387 90.6989397,42.870745 90.5210658,43.2087054 C90.343192,43.5466657 90.1000977,43.831264 89.7917829,44.0625 C89.4834682,44.293736 89.1158622,44.4716099 88.6889648,44.5961217 C88.2620675,44.7206334 87.7995954,44.7828892 87.3015485,44.7828892 C86.637486,44.7828892 86.0771833,44.6494838 85.6206403,44.382673 C85.1640974,44.1158622 84.7935268,43.7541853 84.5089286,43.2976423 C84.2243304,42.8410993 84.0168108,42.3163714 83.88637,41.7234584 C83.7559291,41.1305455 83.6907087,40.5079869 83.6907087,39.8557826 C83.2045201,39.8557826 82.7272252,39.9121094 82.2588239,40.0247628 C81.7904227,40.1374163 81.3753836,40.3152902 81.0137068,40.5583845 C80.6520299,40.8014788 80.3585379,41.1186872 80.133231,41.5100098 C79.9079241,41.9013323 79.7952706,42.3815918 79.7952706,42.9507882 C79.7952706,43.5792759 79.9583217,44.1425432 80.2844238,44.6405901 C80.6105259,45.138637 81.072998,45.5596052 81.6718401,45.9034947 C82.2706822,46.2473842 82.994036,46.5082659 83.8419015,46.6861398 C84.689767,46.8640137 85.6354632,46.9529506 86.67899,46.9529506 Z M106.418806,46.9529506 C107.663923,46.9529506 108.74006,46.8195452 109.647217,46.5527344 C110.554374,46.2859235 111.301444,45.9479632 111.888428,45.5388532 C112.475412,45.1297433 112.911203,44.682094 113.195801,44.1959054 C113.480399,43.7097168 113.622698,43.2472447 113.622698,42.8084891 C113.622698,42.5001744 113.581194,42.2066825 113.498186,41.9280134 C113.415179,41.6493443 113.302525,41.4210728 113.160226,41.2431989 C112.899344,41.610805 112.588065,41.9695173 112.226388,42.3193359 C111.864711,42.6691546 111.455601,42.9833984 110.999058,43.2620675 C110.542515,43.5407366 110.047433,43.7660435 109.513811,43.9379883 C108.98019,44.109933 108.416922,44.1959054 107.824009,44.1959054 C106.495884,44.1959054 105.502755,43.8134766 104.844622,43.0486189 C104.186489,42.2837612 103.857422,41.1957659 103.857422,39.7846331 C103.857422,39.5830427 103.860386,39.3607003 103.866316,39.117606 C103.872245,38.8745117 103.892997,38.634382 103.928571,38.3972168 C104.153878,38.4209333 104.385114,38.4327916 104.62228,38.4327916 L104.62228,38.4327916 L105.280413,38.4327916 C106.845703,38.4327916 108.292411,38.2312012 109.620536,37.8280204 C110.948661,37.4248396 112.092983,36.8823242 113.053502,36.2004743 C114.014021,35.5186244 114.76702,34.7270857 115.3125,33.825858 C115.85798,32.9246303 116.13072,31.9818987 116.13072,30.9976632 C116.13072,29.6458217 115.65046,28.5934012 114.689941,27.8404018 C113.729422,27.0874023 112.377581,26.7109026 110.634417,26.7109026 C109.294434,26.7109026 108.05821,26.8976702 106.925746,27.2712054 C105.793283,27.6447405 104.770508,28.1516811 103.857422,28.7920271 C102.944336,29.432373 102.140939,30.1764788 101.447231,31.0243443 C100.753523,31.8722098 100.172468,32.7675084 99.7040667,33.71024 C99.2356655,34.6529715 98.8828823,35.6164551 98.6457171,36.6006906 C98.4085519,37.5849261 98.2899693,38.5276576 98.2899693,39.4288853 C98.2899693,40.697719 98.503418,41.8035017 98.9303153,42.7462333 C99.3572126,43.6889648 99.9412319,44.4716099 100.682373,45.0941685 C101.423514,45.7167271 102.286203,46.1821638 103.270438,46.4904785 C104.254674,46.7987932 105.304129,46.9529506 106.418806,46.9529506 Z M104.515555,36.3160924 L104.195382,36.3160924 C104.337681,35.4504395 104.562988,34.5758929 104.871303,33.6924526 C105.179618,32.8090123 105.547224,32.0115444 105.974121,31.3000488 C106.401018,30.5885533 106.881278,30.0104632 107.4149,29.5657785 C107.948521,29.1210938 108.511789,28.8987514 109.104701,28.8987514 C109.673898,28.8987514 110.115618,29.1062709 110.429862,29.52131 C110.744106,29.9363491 110.901228,30.5174037 110.901228,31.2644741 C110.901228,32.0352609 110.738177,32.728969 110.412074,33.3455985 C110.085972,33.962228 109.635359,34.492885 109.060233,34.9375698 C108.485107,35.3822545 107.809187,35.7231794 107.032471,35.9603446 C106.255755,36.1975098 105.416783,36.3160924 104.515555,36.3160924 L104.515555,36.3160924 Z M122.103097,46.5972028 L123.490513,40.3004674 C123.680246,39.4110979 123.911482,38.5335868 124.184222,37.6679339 C124.456961,36.802281 124.759347,35.9751674 125.091378,35.1865932 C125.42341,34.398019 125.770264,33.668736 126.131941,32.9987444 C126.493617,32.3287528 126.864188,31.7506627 127.243652,31.2644741 C127.623117,30.7782854 128.002581,30.3958566 128.382045,30.1171875 C128.761509,29.8385184 129.123186,29.6991839 129.467076,29.6991839 C129.810965,29.6991839 130.098528,29.7821917 130.329764,29.9482073 C130.561,30.1142229 130.744803,30.3543527 130.881173,30.6685965 C131.017543,30.9828404 131.112409,31.3623047 131.165771,31.8069894 C131.219134,32.2516741 131.245815,32.7467564 131.245815,33.2922363 C132.645089,33.2922363 133.712333,32.9839216 134.447545,32.3672921 C135.182757,31.7506627 135.550363,30.8138602 135.550363,29.5568848 C135.550363,28.6319406 135.236119,27.9263742 134.607631,27.4401855 C133.979143,26.9539969 133.018624,26.7109026 131.726074,26.7109026 C130.87228,26.7109026 130.125209,26.8265206 129.484863,27.0577567 C128.844517,27.2889927 128.272356,27.6299177 127.76838,28.0805315 C127.264404,28.5311454 126.801932,29.0884835 126.380964,29.752546 C125.959996,30.4166085 125.541992,31.1873954 125.126953,32.0649065 L125.126953,32.0649065 L124.949079,32.0649065 L125.713937,27.0666504 L117.65625,27.0666504 L117.336077,29.0054757 L117.99421,29.0054757 C118.681989,29.0054757 119.174107,29.1033064 119.470564,29.2989676 C119.76702,29.4946289 119.915248,29.8177665 119.915248,30.2683803 C119.915248,30.529262 119.888567,30.8257185 119.835205,31.1577497 C119.781843,31.489781 119.737374,31.7565918 119.7018,31.9581822 L119.7018,31.9581822 L116.606794,46.5972028 L122.103097,46.5972028 Z M142.767857,23.7937709 C143.206613,23.7937709 143.63351,23.7344796 144.048549,23.615897 C144.463588,23.4973145 144.834159,23.316476 145.160261,23.0733817 C145.486363,22.8302874 145.747245,22.5219727 145.942906,22.1484375 C146.138567,21.7749023 146.236398,21.3391113 146.236398,20.8410645 C146.236398,20.4378836 146.156355,20.0910296 145.996268,19.8005022 C145.836182,19.5099749 145.622733,19.2698451 145.355922,19.080113 C145.089111,18.8903809 144.780797,18.7540109 144.430978,18.6710031 C144.081159,18.5879953 143.710589,18.5464914 143.319266,18.5464914 C142.868652,18.5464914 142.435826,18.6028181 142.020787,18.7154715 C141.605748,18.828125 141.244071,19.0059989 140.935756,19.2490932 C140.627441,19.4921875 140.381383,19.8005022 140.19758,20.1740374 C140.013777,20.5475725 139.921875,21.0011509 139.921875,21.5347726 C139.921875,21.9142369 139.995989,22.2462681 140.144217,22.5308664 C140.292446,22.8154646 140.494036,23.0526297 140.748989,23.2423619 C141.003941,23.432094 141.303362,23.5714286 141.647252,23.6603655 C141.991141,23.7493025 142.364676,23.7937709 142.767857,23.7937709 Z M140.989118,46.9529506 C141.653181,46.9529506 142.260917,46.8818011 142.812326,46.739502 C143.363735,46.5972028 143.870675,46.4074707 144.333147,46.1703055 C144.795619,45.9331403 145.210658,45.663365 145.578265,45.3609794 C145.945871,45.0585938 146.271973,44.7532436 146.556571,44.4449289 L146.556571,44.4449289 L145.684989,43.2175991 C145.26995,43.490339 144.902344,43.6978585 144.582171,43.8401576 C144.261998,43.9824568 143.912179,44.0536063 143.532715,44.0536063 C143.129534,44.0536063 142.818255,43.9113072 142.598877,43.626709 C142.379499,43.3421108 142.26981,42.9330008 142.26981,42.3993792 C142.26981,41.8894741 142.317243,41.3469587 142.412109,40.7718331 C142.506975,40.1967076 142.625558,39.5771136 142.767857,38.9130511 L142.767857,38.9130511 L145.293666,27.0666504 L136.648996,27.0666504 L136.328823,29.0054757 L136.986956,29.0054757 C137.330845,29.0054757 137.624337,29.0232631 137.867432,29.0588379 C138.110526,29.0944127 138.309152,29.1655622 138.463309,29.2722866 C138.617467,29.3790109 138.73012,29.5331682 138.80127,29.7347586 C138.872419,29.9363491 138.907994,30.2031599 138.907994,30.5351911 C138.907994,30.5826242 138.902065,30.6597028 138.890206,30.7664272 C138.878348,30.8731515 138.860561,31.0006278 138.836844,31.148856 C138.813128,31.2970843 138.786447,31.4542062 138.756801,31.6202218 C138.727155,31.7862374 138.694545,31.9463239 138.65897,32.1004813 L138.65897,32.1004813 L137.235979,38.8774763 C137.034389,39.8024205 136.886161,40.6265695 136.791295,41.3499233 C136.696429,42.0732771 136.648996,42.6958357 136.648996,43.2175991 C136.648996,44.3915667 137.022531,45.3076172 137.769601,45.9657506 C138.516671,46.6238839 139.589844,46.9529506 140.989118,46.9529506 Z M152.920271,46.5972028 L154.307687,40.3004674 C154.497419,39.4110979 154.728655,38.5335868 155.001395,37.6679339 C155.274135,36.802281 155.576521,35.9751674 155.908552,35.1865932 C156.240583,34.398019 156.587437,33.668736 156.949114,32.9987444 C157.310791,32.3287528 157.681362,31.7506627 158.060826,31.2644741 C158.44029,30.7782854 158.819754,30.3958566 159.199219,30.1171875 C159.578683,29.8385184 159.94036,29.6991839 160.284249,29.6991839 C160.628139,29.6991839 160.915702,29.7821917 161.146938,29.9482073 C161.378174,30.1142229 161.561977,30.3543527 161.698347,30.6685965 C161.834717,30.9828404 161.929583,31.3623047 161.982945,31.8069894 C162.036307,32.2516741 162.062988,32.7467564 162.062988,33.2922363 C163.462263,33.2922363 164.529506,32.9839216 165.264718,32.3672921 C165.99993,31.7506627 166.367536,30.8138602 166.367536,29.5568848 C166.367536,28.6319406 166.053292,27.9263742 165.424805,27.4401855 C164.796317,26.9539969 163.835798,26.7109026 162.543248,26.7109026 C161.689453,26.7109026 160.942383,26.8265206 160.302037,27.0577567 C159.661691,27.2889927 159.08953,27.6299177 158.585554,28.0805315 C158.081578,28.5311454 157.619106,29.0884835 157.198138,29.752546 C156.777169,30.4166085 156.359166,31.1873954 155.944127,32.0649065 L155.944127,32.0649065 L155.766253,32.0649065 L156.53111,27.0666504 L148.473424,27.0666504 L148.153251,29.0054757 L148.811384,29.0054757 C149.499163,29.0054757 149.991281,29.1033064 150.287737,29.2989676 C150.584194,29.4946289 150.732422,29.8177665 150.732422,30.2683803 C150.732422,30.529262 150.705741,30.8257185 150.652379,31.1577497 C150.599016,31.489781 150.554548,31.7565918 150.518973,31.9581822 L150.518973,31.9581822 L147.423968,46.5972028 L152.920271,46.5972028 Z" id="Reinserir"></path>
                    <path d="M11.5874372,13.3672224 C12.3700823,13.3672224 13.0845424,13.2990374 13.7308175,13.1626674 C14.3770926,13.0262974 15.0055804,12.8158133 15.6162807,12.5312151 L15.6162807,12.5312151 L15.6162807,9.25833566 C15.6162807,8.97373744 15.6488909,8.74398368 15.7141113,8.56907436 C15.7793318,8.39416504 15.8682687,8.26075963 15.9809222,8.16885812 C16.0935756,8.07695661 16.226981,8.01618304 16.3811384,7.98653739 C16.5352958,7.95689174 16.6983468,7.94206892 16.8702916,7.94206892 L16.8702916,7.94206892 L16.9414411,7.94206892 L16.9414411,7.17721122 L12.2099958,7.17721122 L12.2099958,7.94206892 L12.2811454,7.94206892 C12.4827358,7.94206892 12.6739502,7.95689174 12.8547886,7.98653739 C13.0356271,8.01618304 13.1942313,8.07399205 13.3306013,8.15996443 C13.4669713,8.2459368 13.5751779,8.37044852 13.6552211,8.53349958 C13.7352644,8.69655064 13.775286,8.91148158 13.775286,9.17829241 L13.775286,9.17829241 L13.775286,12.1132115 C13.5203334,12.1902902 13.2283238,12.2466169 12.8992571,12.2821917 C12.5701904,12.3177665 12.2307478,12.3355539 11.8809291,12.3355539 C11.050851,12.3355539 10.3482492,12.2110421 9.7731236,11.9620187 C9.19799805,11.7129953 8.72959682,11.3483538 8.36791992,10.8680943 C8.00624302,10.3878348 7.74536133,9.79492188 7.58527483,9.08935547 C7.42518834,8.38378906 7.34514509,7.57742746 7.34514509,6.67027065 C7.34514509,5.75718471 7.42222377,4.94637626 7.57638114,4.23784528 C7.7305385,3.52931431 7.97956194,2.9334368 8.32345145,2.45021275 C8.66734096,1.9669887 9.11054339,1.59938267 9.65305873,1.34739467 C10.1955741,1.09540667 10.8522252,0.969412667 11.623012,0.969412667 C12.0676967,0.969412667 12.4441964,1.03907994 12.7525112,1.17841448 C13.0608259,1.31774902 13.3098493,1.49858747 13.4995815,1.72092983 C13.6893136,1.94327218 13.8256836,2.1937779 13.9086914,2.47244699 C13.9916992,2.75111607 14.0332031,3.03274972 14.0332031,3.31734794 C14.2703683,3.31734794 14.4912284,3.28770229 14.6957833,3.22841099 C14.9003383,3.1691197 15.0782122,3.0846296 15.229405,2.97494071 C15.3805978,2.86525181 15.5006627,2.7318464 15.5895996,2.57472447 C15.6785366,2.41760254 15.723005,2.24121094 15.723005,2.04554967 C15.723005,1.75502232 15.6399972,1.48524693 15.4739816,1.23622349 C15.307966,0.987200056 15.0574602,0.77078683 14.7224644,0.586983817 C14.3874686,0.403180804 13.969465,0.259399414 13.4684535,0.155639648 C12.9674421,0.0518798828 12.378976,0 11.7030552,0 C10.6535993,0 9.7316197,0.16305106 8.93711635,0.489153181 C8.142613,0.815255301 7.47706822,1.27179827 6.940482,1.85878209 C6.40389579,2.4457659 6.00071498,3.14836775 5.73093959,3.96658761 C5.4611642,4.78480748 5.32627651,5.68603516 5.32627651,6.67027065 C5.32627651,7.67229353 5.45375279,8.58537946 5.70870536,9.40952846 C5.96365792,10.2336775 6.35053362,10.9392439 6.86933245,11.5262277 C7.38813128,12.1132115 8.04033552,12.5667899 8.82594517,12.8869629 C9.61155483,13.2071359 10.5320522,13.3672224 11.5874372,13.3672224 Z M22.6135254,13.1893485 L22.6135254,12.4244908 L22.1065848,12.4244908 C21.9049944,12.4244908 21.71378,12.4111503 21.5329415,12.3844692 C21.3521031,12.3577881 21.1934989,12.3029436 21.0571289,12.2199358 C20.9207589,12.136928 20.8125523,12.0138986 20.7325091,11.8508475 C20.6524658,11.6877965 20.6124442,11.4728655 20.6124442,11.2060547 L20.6124442,11.2060547 L20.6124442,8.34228516 C20.6124442,8.11104911 20.6243025,7.85313198 20.648019,7.56853376 C20.6717355,7.28393555 20.7117571,6.99785505 20.7680838,6.71029227 C20.8244106,6.42272949 20.8985247,6.14257812 20.9904262,5.86983817 C21.0823277,5.59709821 21.1949812,5.35548619 21.3283866,5.14500209 C21.461792,4.934518 21.6174316,4.76553781 21.7953055,4.63806152 C21.9731794,4.51058524 22.1747698,4.4468471 22.4000767,4.4468471 C22.7558245,4.4468471 23.0048479,4.55801828 23.147147,4.78036063 C23.2894461,5.00270299 23.3605957,5.36586217 23.3605957,5.86983817 C23.6689104,5.86983817 23.9297921,5.83871024 24.1432408,5.77645438 C24.3566895,5.71419852 24.5315988,5.62526158 24.6679687,5.50964355 C24.8043387,5.39402553 24.9036516,5.25617327 24.9659075,5.09608677 C25.0281634,4.93600028 25.0592913,4.76109096 25.0592913,4.57135882 C25.0592913,4.15039062 24.8977225,3.8242885 24.574585,3.59305246 C24.2514474,3.36181641 23.7578474,3.24619838 23.0937849,3.24619838 C22.6906041,3.24619838 22.3556083,3.29807826 22.0887974,3.40183803 C21.8219866,3.5055978 21.598162,3.6478969 21.4173235,3.82873535 C21.2364851,4.0095738 21.08381,4.2200579 20.9592983,4.46018764 C20.8347866,4.70031738 20.7132394,4.95675223 20.5946568,5.22949219 L20.5946568,5.22949219 L20.5057199,5.22949219 L20.1588658,3.42407227 L17.3573521,3.42407227 L17.3573521,4.18892997 L17.4107143,4.18892997 C17.6123047,4.18892997 17.8035191,4.20375279 17.9843576,4.23339844 C18.165196,4.26304408 18.3238002,4.32233538 18.4601702,4.41127232 C18.5965402,4.50020926 18.7047468,4.62620326 18.78479,4.78925432 C18.8648333,4.95230539 18.9048549,5.16723633 18.9048549,5.43404715 L18.9048549,5.43404715 L18.9048549,11.1171177 C18.9048549,11.401716 18.8648333,11.6299874 18.78479,11.8019322 C18.7047468,11.973877 18.5980225,12.1058001 18.464617,12.1977016 C18.3312116,12.2896031 18.1740897,12.3503767 17.9932513,12.3800223 C17.8124128,12.409668 17.6182338,12.4244908 17.4107143,12.4244908 L17.4107143,12.4244908 L17.3573521,12.4244908 L17.3573521,13.1893485 L22.6135254,13.1893485 Z M29.7708566,13.3672224 C30.0673131,13.3672224 30.3519113,13.3449881 30.6246512,13.3005197 C30.8973912,13.2560512 31.1582729,13.1730434 31.4072963,13.0514962 C31.6563198,12.9299491 31.8920027,12.7624512 32.114345,12.5490025 C32.3366874,12.3355539 32.53976,12.0568848 32.7235631,11.7129953 L32.7235631,11.7129953 L32.8125,11.7129953 L33.0526297,13.1893485 L35.9430804,13.1893485 L35.9430804,12.4244908 L35.8897182,12.4244908 C35.6881278,12.4244908 35.4969134,12.4111503 35.3160749,12.3844692 C35.1352365,12.3577881 34.9766323,12.3029436 34.8402623,12.2199358 C34.7038923,12.136928 34.5956857,12.0138986 34.5156424,11.8508475 C34.4355992,11.6877965 34.3955776,11.4728655 34.3955776,11.2060547 L34.3955776,11.2060547 L34.3955776,3.42407227 L31.1404855,3.42407227 L31.1404855,4.18892997 L31.1938477,4.18892997 C31.4013672,4.18892997 31.5955462,4.20375279 31.7763846,4.23339844 C31.9572231,4.26304408 32.114345,4.32381766 32.2477504,4.41571917 C32.3811558,4.50762068 32.4878802,4.64102609 32.5679234,4.81593541 C32.6479667,4.99084473 32.6879883,5.22059849 32.6879883,5.50519671 L32.6879883,5.50519671 L32.6879883,9.25833566 C32.6879883,9.69709124 32.6435198,10.0973075 32.5545829,10.4589844 C32.4656459,10.8206613 32.3277937,11.1304583 32.1410261,11.3883754 C31.9542585,11.6462926 31.7170933,11.8464007 31.4295306,11.9886998 C31.1419678,12.1309989 30.796596,12.2021484 30.3934152,12.2021484 C30.0258092,12.2021484 29.7189767,12.147304 29.4729178,12.0376151 C29.226859,11.9279262 29.0311977,11.7663574 28.885934,11.5529088 C28.7406703,11.3394601 28.6369106,11.0785784 28.5746547,10.7702637 C28.5123989,10.4619489 28.4812709,10.1091657 28.4812709,9.71191406 L28.4812709,9.71191406 L28.4812709,3.42407227 L25.2172852,3.42407227 L25.2172852,4.18892997 L25.2706473,4.18892997 C25.4722377,4.18892997 25.6634521,4.20375279 25.8442906,4.23339844 C26.025129,4.26304408 26.1837333,4.32233538 26.3201032,4.41127232 C26.4564732,4.50020926 26.5646798,4.62620326 26.6447231,4.78925432 C26.7247663,4.95230539 26.7647879,5.16723633 26.7647879,5.43404715 L26.7647879,5.43404715 L26.7647879,9.800851 C26.7647879,10.4234096 26.8314907,10.9599958 26.9648961,11.4106097 C27.0983015,11.8612235 27.2924805,12.2317941 27.547433,12.5223214 C27.8023856,12.8128488 28.1166295,13.0262974 28.4901646,13.1626674 C28.8636998,13.2990374 29.2905971,13.3672224 29.7708566,13.3672224 Z M41.0548619,17.565046 L41.0548619,16.8001883 L41.0014997,16.8001883 C40.7999093,16.8001883 40.6086949,16.7868478 40.4278564,16.7601667 C40.247018,16.7334856 40.0884138,16.6771589 39.9520438,16.5911865 C39.8156738,16.5052141 39.7074672,16.3807024 39.627424,16.2176514 C39.5473807,16.0546003 39.5073591,15.8396694 39.5073591,15.5728585 L39.5073591,15.5728585 L39.506865,13.7758382 C39.5062062,13.7356519 39.5048886,13.6869013 39.5029122,13.6295864 C39.4999477,13.543614 39.4969831,13.4472656 39.4940186,13.3405413 C39.491054,13.233817 39.4880894,13.1196812 39.4851249,12.9981341 C39.4821603,12.8765869 39.4777134,12.7594866 39.4717843,12.6468331 C39.4599261,12.3740932 39.4480678,12.0806013 39.4362095,11.7663574 L39.4362095,11.7663574 L39.5073591,11.7663574 C39.6377999,12.0035226 39.790475,12.2199358 39.9653843,12.4155971 C40.1402937,12.6112584 40.3418841,12.7802386 40.5701556,12.9225377 C40.798427,13.0648368 41.0548619,13.1745257 41.3394601,13.2516044 C41.6240583,13.328683 41.9412667,13.3672224 42.2910854,13.3672224 C42.8899275,13.3672224 43.4205845,13.2679095 43.8830566,13.0692836 C44.3455287,12.8706578 44.7338867,12.5638253 45.0481306,12.1487863 C45.3623744,11.7337472 45.6010219,11.2060547 45.764073,10.5657087 C45.927124,9.92536272 46.0086496,9.16643415 46.0086496,8.28892299 C46.0086496,7.41734096 45.927124,6.66434152 45.764073,6.02992467 C45.6010219,5.39550781 45.3623744,4.87226214 45.0481306,4.46018764 C44.7338867,4.04811314 44.3455287,3.74276297 43.8830566,3.54413714 C43.4205845,3.3455113 42.8899275,3.24619838 42.2910854,3.24619838 C41.9353376,3.24619838 41.6151646,3.28918457 41.3305664,3.37515695 C41.0459682,3.46112932 40.7910156,3.58267648 40.5657087,3.73979841 C40.3404018,3.89692034 40.1417759,4.08813477 39.9698312,4.31344169 C39.7978864,4.5387486 39.6437291,4.79073661 39.5073591,5.06940569 L39.5073591,5.06940569 L39.4362095,5.06940569 L39.249442,3.42407227 L36.0654994,3.42407227 L36.0654994,4.18892997 L36.2967355,4.18892997 C36.4983259,4.18892997 36.6895403,4.20375279 36.8703788,4.23339844 C37.0512172,4.26304408 37.2098214,4.32233538 37.3461914,4.41127232 C37.4825614,4.50020926 37.590768,4.62620326 37.6708112,4.78925432 C37.7508545,4.95230539 37.7908761,5.16723633 37.7908761,5.43404715 L37.7908761,5.43404715 L37.7908761,15.4839216 C37.7908761,15.7685198 37.7508545,15.9982736 37.6708112,16.1731829 C37.590768,16.3480922 37.4840437,16.4814976 37.3506383,16.5733991 C37.2172328,16.6653006 37.0601109,16.7260742 36.8792725,16.7557199 C36.698434,16.7853655 36.504255,16.8001883 36.2967355,16.8001883 L36.2967355,16.8001883 L36.1544364,16.8001883 L36.1544364,17.565046 L41.0548619,17.565046 Z M41.9975935,12.2021484 C41.517334,12.2021484 41.1186,12.1176583 40.8013916,11.9486782 C40.4841832,11.779698 40.2292306,11.5291922 40.0365339,11.197161 C39.8438372,10.8651297 39.7074672,10.4560198 39.627424,9.96983119 C39.5473807,9.48364258 39.5073591,8.92333984 39.5073591,8.28892299 C39.5073591,7.63078962 39.5473807,7.05862863 39.627424,6.57244001 C39.7074672,6.0862514 39.8423549,5.68307059 40.0320871,5.3628976 C40.2218192,5.04272461 40.4752895,4.80407715 40.7924979,4.64695522 C41.1097063,4.48983329 41.5054757,4.41127232 41.9798061,4.41127232 C42.3829869,4.41127232 42.7283587,4.49131557 43.0159215,4.65140206 C43.3034842,4.81148856 43.5376848,5.0516183 43.7185233,5.37179129 C43.8993617,5.69196429 44.0312849,6.09366281 44.1142927,6.57688686 C44.1973005,7.06011091 44.2388044,7.62486049 44.2388044,8.2711356 C44.2388044,8.91148158 44.1973005,9.47623117 44.1142927,9.96538435 C44.0312849,10.4545375 43.8993617,10.8651297 43.7185233,11.197161 C43.5376848,11.5291922 43.3064488,11.779698 43.0248152,11.9486782 C42.7431815,12.1176583 42.4007743,12.2021484 41.9975935,12.2021484 Z M51.6985212,13.3672224 C53.0977958,13.3672224 54.1605922,12.9492188 54.8869106,12.1132115 C55.6132289,11.2772042 55.9763881,10.0024414 55.9763881,8.28892299 C55.9763881,7.43512835 55.8800398,6.69250488 55.6873431,6.06105259 C55.4946463,5.42960031 55.2159773,4.90487235 54.8513358,4.48686872 C54.4866943,4.06886509 54.0434919,3.7575858 53.5217285,3.55303083 C52.9999651,3.34847586 52.4100167,3.24619838 51.7518834,3.24619838 C50.3407506,3.24619838 49.2749895,3.66123744 48.5546003,4.49131557 C47.8342111,5.32139369 47.4740165,6.58726283 47.4740165,8.28892299 C47.4740165,9.14271763 47.5703648,9.88830566 47.7630615,10.5256871 C47.9557582,11.1630685 48.2344273,11.6922433 48.5990688,12.1132115 C48.9637102,12.5341797 49.4069127,12.8484235 49.9286761,13.0559431 C50.4504395,13.2634626 51.0403878,13.3672224 51.6985212,13.3672224 Z M51.734096,12.4244908 C51.277553,12.4244908 50.8906773,12.3355539 50.5734689,12.15768 C50.2562605,11.9798061 49.9983433,11.7174421 49.7997175,11.370588 C49.6010917,11.023734 49.4573103,10.5923898 49.3683733,10.0765555 C49.2794364,9.56072126 49.2349679,8.96484375 49.2349679,8.28892299 C49.2349679,7.61300223 49.2794364,7.02008929 49.3683733,6.51018415 C49.4573103,6.00027902 49.5996094,5.57486398 49.7952706,5.23393903 C49.9909319,4.89301409 50.2458845,4.63657924 50.5601283,4.46463449 C50.8743722,4.29268973 51.2597656,4.20671735 51.7163086,4.20671735 C52.1728516,4.20671735 52.5597273,4.29268973 52.8769357,4.46463449 C53.1941441,4.63657924 53.450579,4.89301409 53.6462402,5.23393903 C53.8419015,5.57486398 53.9842006,6.00027902 54.0731376,6.51018415 C54.1620745,7.02008929 54.206543,7.61300223 54.206543,8.28892299 C54.206543,8.96484375 54.1635568,9.56072126 54.0775844,10.0765555 C53.991612,10.5923898 53.8507952,11.023734 53.6551339,11.370588 C53.4594727,11.7174421 53.2045201,11.9798061 52.8902762,12.15768 C52.5760324,12.3355539 52.190639,12.4244908 51.734096,12.4244908 Z" id="Grupo"></path>
                </g>
            </g>
        </g>
    </g>
</svg>