<svg xmlns="http://www.w3.org/2000/svg" width="56" height="60"><path fill="#D91E23" fill-rule="evenodd" d="M55.42 41.06c-.02-1.5-.17-2.99-.33-4.47-.14-1.29-.34-2.56-.52-3.84-.2-1.32-.4-2.65-.65-3.96-.26-1.4-.52-2.8-.85-4.17-.21-.89-.43-1.76-.66-2.64a36.4 36.4 0 00-1.97-5.56c-.36-.77-.71-1.54-1.09-2.29l-.43-.82c-.16-.27-.3-.56-.47-.82l-.69-1.06c-.18-.28-.4-.54-.6-.81-.24-.33-.49-.66-.75-.98l-.64-.8c-.48-.52-.95-1.04-1.45-1.54-.46-.46-.92-.92-1.42-1.32-1.1-.91-2.22-1.83-3.48-2.52-.32-.18-.64-.38-.97-.54l-1.07-.52c-.63-.3-1.29-.58-1.94-.85-.33-.12-.65-.26-.98-.36-.37-.13-.74-.26-1.1-.37-.33-.1-.68-.18-1-.27a10.1 10.1 0 00-.8-.15c-.33-.07-.64-.13-.97-.17-.33-.04-.68-.1-1.02-.13-.82-.03-1.65-.07-2.48-.08-.91-.01-1.85-.06-2.76.05-.97.12-1.9.37-2.83.68a13 13 0 00-2.52 1.1c-.6.35-1.19.7-1.77 1.07-.57.38-1.12.8-1.67 1.2-.37.27-.71.57-1.06.86a57.74 57.74 0 00-4.89 4.79 32.06 32.06 0 00-2.69 3.47c-.73 1.12-1.48 2.25-2.05 3.47-.2.47-.43.92-.6 1.4l-.37.96c-.13.34-.21.68-.32 1.02l-.28 1c-.35 1.25-.77 2.5-1.09 3.76a68.77 68.77 0 00-.83 3.86c-.28 1.5-.6 3-.8 4.5A52.73 52.73 0 000 41.13a354.38 354.38 0 00.04 6.12l.01.35c.04.66.1 1.31.2 1.96.1.65.24 1.27.35 1.9l.3 1.87c.1.72.23 1.4.41 2.1.07.3.18.58.3.85a3.69 3.69 0 001.55 1.83 12.28 12.28 0 002.08.74h-.11l.18.02.32.1c.63.16 1.27.3 1.92.38a32.48 32.48 0 004 .33c.74.04 1.5.1 2.24.1h.1c1.34 0 2.68-.11 4.02-.22.16 0 .32-.04.49-.05l.8-.04c.51-.04 1.03-.04 1.54-.06.25-.01.51-.03.76-.07.26-.04.52-.1.78-.13.53-.09 1.06-.15 1.6-.21l.2-.05 3.49-.1c2.7-.05 5.39-.12 8.07-.37a55.3 55.3 0 008.07-1.23l1.97-.41c.61-.12 1.24-.23 1.84-.4 1.37-.34 2.72-.78 4-1.35.78-.35 1.5-.74 2.16-1.28a4.61 4.61 0 001.54-2.65c.13-.67.17-1.35.2-2.04.03-1.3.01-2.62.01-3.93 0-1.37 0-2.75-.02-4.13z"/></svg>