<svg xmlns="http://www.w3.org/2000/svg" width="69" height="60"><path fill="#694115" fill-rule="evenodd" d="M68.34 47.15c-.22-.99-.5-1.96-.9-2.88a40.56 40.56 0 00-4.3-7.68c-.52-.77-1.08-1.53-1.62-2.3-.54-.73-1.04-1.5-1.55-2.27-.54-.8-1.05-1.64-1.57-2.45-.5-.78-1.04-1.54-1.6-2.3a84.54 84.54 0 00-3.65-4.51c-1.3-1.53-2.61-3.04-3.9-4.58a120.32 120.32 0 01-3.31-4.13c-.84-1.14-1.67-2.3-2.56-3.41-.45-.56-.9-1.13-1.37-1.65-.5-.54-.98-1.07-1.49-1.58a89.87 89.87 0 00-1.57-1.53c-.44-.41-.9-.8-1.33-1.21-.58-.54-1.14-1.1-1.7-1.66-.63-.65-1.22-1.33-1.92-1.9-.38-.31-.71-.58-1.17-.76-.34-.16-.6-.27-.96-.31a2.56 2.56 0 00-1.11.05c-.33.1-.72.22-1 .43-.51.39-.99.8-1.45 1.25-.68.67-1.4 1.3-2.05 1.98-.66.7-1.3 1.4-1.89 2.15-.68.87-1.28 1.8-1.85 2.74-.98 1.62-1.76 3.36-2.54 5.08a51.1 51.1 0 00-.96 2.32l-.12.17-.65 1.02-.62.97c-.41.7-.8 1.43-1.2 2.14-.42.73-.8 1.48-1.2 2.24-.18.38-.4.74-.56 1.13l-.13.33a40.26 40.26 0 00-3.53 6.31c-.42.86-.87 1.71-1.33 2.55-.43.8-.91 1.57-1.37 2.34-.49.8-.95 1.64-1.4 2.45-.44.8-.86 1.6-1.2 2.44L4.7 42.77c-.6 1.44-1.22 2.85-1.75 4.32-.22.6-.4 1.22-.59 1.83-.15.47-.32.94-.49 1.4l-.27.65c-.17.42-.37.81-.55 1.22l-.29.64c-.2.48-.43.95-.54 1.46a7.5 7.5 0 00-.17.97c-.06.34-.05.69.01 1.04.02.41.11.8.25 1.18.33.9 1.04 1.89 2.05 2.07.16.02.32.04.5.04.36 0 .75-.06 1.09-.11.85-.15 1.69-.37 2.54-.52.9-.17 1.81-.31 2.72-.43 1.82-.24 3.62-.54 5.44-.73 1.84-.2 3.68-.36 5.52-.52 1.93-.15 3.87-.23 5.8-.35 1.83-.11 3.66-.3 5.48-.43 3.81-.25 7.62-.5 11.42-.88 1.86-.19 3.72-.39 5.58-.47 1.9-.1 3.78-.15 5.67-.21 1.84-.06 3.7-.1 5.54-.2a46 46 0 002.75-.23c.95-.11 1.9-.2 2.83-.38.79-.16 1.67-.29 2.3-.81.44-.38.72-.97.84-1.54.12-.51.2-1.04.2-1.57.01-1.03 0-2.06-.23-3.06z"/></svg>
