<svg xmlns="http://www.w3.org/2000/svg" width="59" height="60"><path fill="#D2DE3C" fill-rule="evenodd" d="M58.84 26.7a31.22 31.22 0 00-.46-4.52l-.3-1.63a25.86 25.86 0 00-2.36-7.24 21.92 21.92 0 00-2.24-3.53L52.4 8.42a18.66 18.66 0 00-5.7-4.74 43.5 43.5 0 00-1.98-1c-.55-.27-1.14-.48-1.71-.7-.91-.38-1.86-.63-2.8-.89-.92-.22-1.84-.4-2.77-.54-.99-.14-1.98-.3-2.98-.36a68.23 68.23 0 00-3.42-.16c-.78-.01-1.56-.05-2.34-.02-1.37.05-2.71.34-4.03.74a43.3 43.3 0 00-3.32 1.14l-1.77.7c-.46.16-.9.4-1.36.59-.84.36-1.67.76-2.49 1.2-.47.24-.95.45-1.4.73-.44.25-.9.49-1.32.78l-1.26.86c-.55.38-1.05.86-1.57 1.27-.76.62-1.46 1.35-2.16 2.05-.64.64-1.27 1.3-1.85 1.99-.65.77-1.3 1.52-1.9 2.32-.83 1.1-1.7 2.23-2.31 3.48a15.52 15.52 0 00-1.33 4.18c-.12.7-.22 1.41-.32 2.1-.14 1-.18 1.99-.24 2.97a26.8 26.8 0 00.3 6.44c.4 2.18.92 4.35 1.5 6.5.1.42.26.84.42 1.24.18.46.35.91.55 1.35.48 1.08.96 2.2 1.62 3.19a38.2 38.2 0 002.2 2.98c.61.73 1.3 1.4 1.96 2.08.62.66 1.22 1.34 1.84 1.98a27.4 27.4 0 002.06 1.92c.9.75 1.78 1.52 2.76 2.14.97.6 2.05 1.03 3.1 1.47 1.91.77 4.01 1.18 6.07 1.22l1.67.02c1.34 0 2.68-.06 4-.34 1.83-.41 3.68-.76 5.5-1.24 1.9-.49 3.85-.93 5.7-1.63a7.9 7.9 0 001.7-.85c.49-.33.94-.7 1.4-1.08.72-.61 1.39-1.3 2.06-1.96.73-.7 1.43-1.44 2.12-2.2.65-.7 1.34-1.34 1.97-2.08.74-.87 1.35-1.83 1.86-2.84l.72-.94c.34-.45.65-.9.95-1.36.28-.44.58-.85.85-1.28l.4-.72c.48-.76.84-1.58 1.23-2.38.26-.53.52-1.05.72-1.61.17-.46.28-.92.37-1.4.32-.93.6-1.87.76-2.86.16-1.02.3-2.04.35-3.07.05-1.03.1-2.07.06-3.1z"/></svg>