<svg xmlns="http://www.w3.org/2000/svg" width="233" height="60"><g fill="none" fill-rule="nonzero"><path fill="#CCD470" d="M46.03 28s1.36-1.35 3.82-1.35c2.88 0 5.45 2.44 5.45 2.44s-2.74 1.59-5.66 1.24c-2.42-.28-3.61-2.32-3.61-2.32z"/><path fill="#18777A" d="M27.9 39.83s3.25 17.63 3.9 19.32H23.99c1.42-2.6 3.9-19.32 3.9-19.32zM35.21 33.3s2.56-3.59 6.62-3.2c4.74.44 7.36 3.97 7.36 3.97s-2.63 3.15-8.3 2.65c-3-.26-5.68-3.42-5.68-3.42zM19 32.07s2.9-3.7 6.97-3.51c4.07.18 7.34 3.14 7.34 3.14s-4.32 3.15-7.16 3.15c-3.7 0-7.15-2.78-7.15-2.78zM22.5 0s5.64 2.68 6.19 6.87c.55 4.2-1.24 7-1.24 7s-5.08-1.92-6.04-5.62C20.45 4.54 22.5 0 22.5 0z"/><path fill="#D91E23" d="M32.1 12.45s-.74-5.48 1.7-7.85C36.27 2.24 40.19.93 40.19.93s.57 5.76-1.88 8.33c-2.04 2.14-6.2 3.19-6.2 3.19z"/><path fill="#D2DE3C" d="M12.49 7.95c.24-.08 6.82.26 9.15 3.84 1.75 2.7 1.63 6.62 1.63 6.62s-4.08 1.3-7.6-2.37c-3.51-3.67-3.18-8.09-3.18-8.09z"/><path fill="#D91E23" d="M25.4 21.73s-.53-3.37.75-5.03c1.29-1.65 5.04-2.23 5.04-2.23s0 4.65-1.78 6.05c-1.78 1.4-4.01 1.2-4.01 1.2z"/><path fill="#694115" d="M33.3 18.86s1.14-4.02 3.98-6.08c4.65-3.35 11.22-2.44 11.22-2.44s-1.77 7.38-7.6 8.3c-3.8.59-7.6.22-7.6.22z"/><path fill="#D91E23" d="M2.22 14.13S10 14.03 13 16.3c3.74 2.84 3.97 7.38 3.97 7.38s-6.78 1.09-10.56-1.94c-3.21-2.58-4.18-7.61-4.18-7.61zM.05 26.8c.1-.17 2.59-2.73 5.43-2.6 2.84.11 4.44 1.98 4.44 1.98s-2.38 2.3-4.94 2.37C2.43 28.62.05 26.8.05 26.8zM34.96 26.8s2.08-4.78 5.6-5.67a12.8 12.8 0 018.14.6s-2.33 5.81-6.87 6.38c-4.55.56-6.87-1.3-6.87-1.3z"/><path fill="#694115" d="M16.74 35.22s-2.05-3.56-6.42-3.52c-4.37.04-6.43 1.77-6.43 1.77s3.6 3.66 6.88 3.43c3.3-.22 5.97-1.68 5.97-1.68z"/><path fill="#CCD470" d="M19.57 28.3s-1.87-2.75-5-2.63c-3.12.12-4.4 1.92-4.4 1.92s1.74 2.54 4.92 2.5c2.74-.03 4.48-1.78 4.48-1.78z"/><path fill="#694115" d="M26.94 26.57s-3.6.46-5.33-.9c-1.74-1.37-2.04-3.93-2.04-3.93s4.09 0 5.7 1.48a5.18 5.18 0 011.67 3.35z"/><path fill="#CCD470" d="M31.2 27.65s-1.58-.68-1.53-2.8c.07-2.63 2.13-4.12 2.13-4.12s1.36 3.03 1.14 4.37c-.33 1.97-1.75 2.55-1.75 2.55z"/><path fill="#D91E23" d="M26.5 36.92s-.35 4.03-4.18 6.5c-3.68 2.37-10.17.7-10.17.7s2.56-5.78 5.82-7.2c4.76-2.07 8.53 0 8.53 0zM28.88 35.45s6.94-.55 9.18 2.7c2.23 3.27 2.18 6.2 2.18 6.2s-7.17 0-9.31-2.93c-2.15-2.94-2.05-5.97-2.05-5.97z"/><g fill="#000"><path d="M79.25 52.6l.41-1.94h-1.2c-.39 0-.74-.02-1.07-.05-.32-.03-.6-.09-.84-.17a1.26 1.26 0 01-.55-.38.97.97 0 01-.2-.63c0-.1.02-.25.05-.47.04-.22.1-.55.2-.99l1.42-6.67h2.51l2.3 7.15c.27.87.62 1.57 1.06 2.11.44.54 1 .96 1.66 1.26.66.3 1.46.51 2.39.62.93.1 2.03.16 3.3.16h.37l.4-1.94h-.15c-.41 0-.78-.06-1.1-.19-.3-.12-.6-.33-.86-.62a5 5 0 01-.76-1.15c-.24-.47-.48-1.05-.73-1.74l-2.53-6.78c.75-.18 1.51-.44 2.28-.78a6.92 6.92 0 004.22-6.72c0-2.04-.72-3.57-2.15-4.58-1.44-1-3.61-1.5-6.52-1.5h-11.7l-.4 1.91h.47c.38 0 .73.02 1.06.05.33.03.6.09.84.18.23.08.4.21.54.38a1 1 0 01.2.64c0 .2-.08.61-.24 1.24L70.22 48.5c-.1.47-.26.85-.48 1.14-.22.28-.47.5-.77.65-.3.16-.63.26-.99.3-.36.05-.73.08-1.1.08h-.49L66 52.6h13.25zm.9-13.41h-2.27l2.33-10.45h1.85c.6 0 1.13.08 1.59.23.45.14.82.4 1.12.74.3.35.51.8.65 1.36.15.56.22 1.25.22 2.07 0 1.09-.15 2.02-.43 2.78a4.53 4.53 0 01-2.9 2.93c-.68.22-1.4.34-2.17.34zm20.96 13.76c1.24 0 2.32-.13 3.23-.4.9-.26 1.65-.6 2.24-1.01.58-.41 1.02-.86 1.3-1.34a2.76 2.76 0 00.3-2.27 2 2 0 00-.33-.69 7.72 7.72 0 01-2.16 2.02c-.46.28-.95.5-1.49.68-.53.17-1.1.26-1.69.26-1.32 0-2.32-.39-2.98-1.15a4.86 4.86 0 01-.98-3.27v-.66c.01-.25.03-.49.07-.72.22.02.45.03.7.03h.65c1.57 0 3.01-.2 4.34-.6 1.33-.4 2.47-.95 3.43-1.63a8 8 0 002.26-2.37c.55-.9.82-1.85.82-2.83 0-1.35-.48-2.4-1.44-3.16-.96-.75-2.31-1.13-4.06-1.13a11.78 11.78 0 00-6.77 2.08 12 12 0 00-2.41 2.23 14.25 14.25 0 00-2.8 5.58c-.24.98-.36 1.93-.36 2.83 0 1.27.21 2.37.64 3.32a6.53 6.53 0 001.75 2.34c.74.63 1.6 1.1 2.59 1.4.98.3 2.03.46 3.15.46zm-1.9-10.63h-.33a15.68 15.68 0 011.78-5.02c.43-.71.91-1.29 1.44-1.73a2.6 2.6 0 011.7-.67c.56 0 1 .2 1.32.62.31.42.47 1 .47 1.74 0 .78-.16 1.47-.49 2.09a4.88 4.88 0 01-1.35 1.59c-.58.44-1.25.78-2.03 1.02-.77.24-1.61.36-2.52.36zm19.25-12.53c.44 0 .87-.06 1.29-.17.41-.12.78-.3 1.1-.55a2.7 2.7 0 00.84-3.27c-.16-.29-.37-.53-.64-.72a2.62 2.62 0 00-.92-.4 4.8 4.8 0 00-2.41.04 3 3 0 00-1.09.53c-.3.24-.55.55-.74.92-.18.38-.27.83-.27 1.36 0 .38.07.72.22 1 .15.29.35.52.6.71.26.2.56.33.9.42.35.09.72.13 1.12.13zm-1.77 23.16a7.3 7.3 0 005.56-2.5l-.87-1.23c-.41.27-.78.48-1.1.62-.32.14-.67.21-1.05.21-.4 0-.72-.14-.93-.42-.22-.29-.33-.7-.33-1.23 0-.51.04-1.05.14-1.63.1-.57.21-1.2.35-1.86L121 33.07h-8.64l-.32 1.94h.65c.35 0 .64.01.88.05.25.03.45.1.6.21.15.1.27.26.34.46a2.46 2.46 0 01.09 1.04 8.22 8.22 0 01-.14.85 9.8 9.8 0 01-.1.48l-1.42 6.78c-.2.92-.35 1.75-.44 2.47-.1.72-.14 1.35-.14 1.87 0 1.17.37 2.09 1.12 2.75.74.65 1.82.98 3.22.98zm23.4 0a7.4 7.4 0 003.35-.78c.46-.24.87-.5 1.24-.8.37-.31.7-.62.98-.93l-.87-1.22c-.42.27-.78.48-1.1.62a2.5 2.5 0 01-1.04.21c-.41 0-.73-.14-.95-.42-.22-.29-.33-.7-.33-1.23 0-.51.05-1.05.14-1.63.1-.57.22-1.2.36-1.86l.82-3.9.2-1a33.96 33.96 0 00.37-2.13 5.83 5.83 0 00-.15-2.58 3.38 3.38 0 00-1.98-2.25 4.96 4.96 0 00-1.95-.34c-.8 0-1.54.09-2.21.26a6.72 6.72 0 00-3.45 2.1c-.5.54-.97 1.17-1.43 1.9h-.24l.41-3.9h-8.09l-.32 1.94h.66c.34 0 .64.01.88.05.24.03.44.1.6.21.15.1.26.26.33.46a2.46 2.46 0 01.1 1.04 8.22 8.22 0 01-.14.85 9.8 9.8 0 01-.1.48l-3.06 14.5h5.46l1.85-8.45a20.2 20.2 0 012.12-5.22c.34-.59.7-1.11 1.08-1.57.38-.45.78-.82 1.19-1.1.4-.28.82-.42 1.23-.42.32 0 .58.07.78.2.2.13.35.3.46.5.11.2.19.42.23.67.04.25.06.49.06.71 0 .3-.02.63-.08 1a24.52 24.52 0 01-.4 2.2l-.18.88-.58 2.88c-.4 1.85-.59 3.3-.59 4.34 0 1.17.37 2.09 1.12 2.75.75.65 1.82.98 3.22.98zm12.59 0c1.46 0 2.74-.14 3.84-.43a8.2 8.2 0 002.78-1.26 5.25 5.25 0 001.68-1.99c.37-.78.56-1.67.56-2.65 0-.68-.1-1.29-.28-1.84a4.95 4.95 0 00-.83-1.53c-.38-.47-.85-.9-1.42-1.3a12.8 12.8 0 00-2.03-1.13c-.7-.32-1.32-.6-1.85-.86a7.54 7.54 0 01-1.29-.77 2.7 2.7 0 01-.74-.84c-.16-.3-.24-.65-.24-1.05a2.35 2.35 0 01.82-1.8c.27-.24.6-.42.96-.56.38-.13.8-.2 1.28-.2.52 0 .96.12 1.31.37.36.25.65.58.87.98.23.4.39.85.48 1.34.1.5.15.98.15 1.47 1.29 0 2.3-.22 3.06-.66.74-.44 1.12-1.14 1.12-2.11 0-.44-.12-.87-.35-1.28a3.03 3.03 0 00-1.14-1.1 7.08 7.08 0 00-2.06-.75c-.85-.2-1.88-.29-3.1-.29-1.29 0-2.43.13-3.45.4a7.93 7.93 0 00-2.59 1.16 5.02 5.02 0 00-2.2 4.22 5.16 5.16 0 001.26 3.47c.4.46.9.88 1.47 1.26s1.22.74 1.93 1.07c.71.34 1.32.65 1.84.93.52.27.94.54 1.28.82.34.28.59.58.75.9.16.32.24.69.24 1.1a2.46 2.46 0 01-1 2.02c-.3.23-.67.41-1.1.54-.43.12-.89.18-1.39.18-.66 0-1.22-.13-1.68-.4a3.2 3.2 0 01-1.11-1.08c-.29-.46-.5-.98-.62-1.58-.13-.59-.2-1.21-.2-1.86-.49 0-.96.05-1.43.16-.47.12-.88.3-1.25.54-.36.24-.65.56-.88.95-.22.4-.33.87-.33 1.44 0 .63.16 1.2.48 1.7a4 4 0 001.4 1.25c.6.35 1.31.6 2.16.79.85.17 1.8.26 2.84.26zm19.74 0c1.24 0 2.32-.13 3.23-.4.9-.26 1.65-.6 2.24-1.01.59-.41 1.02-.86 1.3-1.34a2.76 2.76 0 00.3-2.27 2 2 0 00-.33-.69 7.72 7.72 0 01-2.16 2.02c-.46.28-.95.5-1.49.68-.53.17-1.1.26-1.69.26-1.32 0-2.32-.39-2.98-1.15a4.86 4.86 0 01-.98-3.27v-.66c.01-.25.03-.49.07-.72.22.02.46.03.7.03h.65c1.57 0 3.01-.2 4.34-.6 1.33-.4 2.47-.95 3.43-1.63a8 8 0 002.26-2.37c.55-.9.82-1.85.82-2.83 0-1.35-.48-2.4-1.44-3.16-.96-.75-2.31-1.13-4.06-1.13a11.78 11.78 0 00-6.77 2.08 12 12 0 00-2.41 2.23 14.25 14.25 0 00-2.8 5.58c-.24.98-.36 1.93-.36 2.83 0 1.27.21 2.37.64 3.32a6.53 6.53 0 001.75 2.34c.74.63 1.6 1.1 2.59 1.4.98.3 2.03.46 3.15.46zm-1.9-10.63h-.32a15.68 15.68 0 011.77-5.02c.43-.71.91-1.29 1.44-1.73a2.6 2.6 0 011.7-.67c.56 0 1 .2 1.32.62.31.42.47 1 .47 1.74 0 .78-.16 1.47-.49 2.09a4.88 4.88 0 01-1.35 1.59c-.57.44-1.25.78-2.03 1.02-.77.24-1.61.36-2.51.36zM188.1 52.6l1.4-6.3a28.64 28.64 0 012.63-7.3c.36-.67.73-1.25 1.11-1.74.38-.48.76-.86 1.14-1.14.38-.28.74-.42 1.09-.42.34 0 .63.08.86.25.23.16.41.4.55.72.14.31.23.7.29 1.14.05.44.08.94.08 1.48 1.4 0 2.46-.3 3.2-.92.73-.62 1.1-1.56 1.1-2.81 0-.93-.31-1.63-.94-2.12-.63-.49-1.6-.73-2.88-.73-.86 0-1.6.12-2.25.35a5.2 5.2 0 00-1.71 1.02c-.5.45-.97 1-1.39 1.67-.42.67-.84 1.44-1.25 2.31h-.18l.76-5h-8.05l-.32 1.95h.65c.7 0 1.18.1 1.48.29.3.2.45.52.45.97 0 .26-.03.56-.08.89l-.14.8-3.1 14.64h5.5zm20.67-22.8c.44 0 .86-.07 1.28-.18.41-.12.78-.3 1.11-.55a2.7 2.7 0 00.84-3.27c-.16-.29-.38-.53-.64-.72a2.62 2.62 0 00-.93-.4 4.8 4.8 0 00-2.4.04 3 3 0 00-1.1.53c-.3.24-.55.55-.73.92-.19.38-.28.83-.28 1.36 0 .38.08.72.22 1 .15.29.35.52.6.71.26.2.56.33.9.42.35.09.72.13 1.13.13zm-1.78 23.15a7.3 7.3 0 005.57-2.5l-.88-1.23c-.41.27-.78.48-1.1.62-.32.14-.67.21-1.05.21-.4 0-.71-.14-.93-.42-.22-.29-.33-.7-.33-1.23 0-.51.05-1.05.14-1.63.1-.57.22-1.2.36-1.86l2.52-11.84h-8.64l-.32 1.94h.66c.34 0 .63.01.88.05.24.03.44.1.6.21.15.1.26.26.33.46a2.46 2.46 0 01.09 1.04 8.21 8.21 0 01-.13.85 9.8 9.8 0 01-.1.48l-1.42 6.78c-.2.92-.35 1.75-.45 2.47-.1.72-.14 1.35-.14 1.87 0 1.17.37 2.09 1.12 2.75.75.65 1.82.98 3.22.98zm11.93-.35l1.39-6.3a28.64 28.64 0 012.64-7.3c.36-.67.73-1.25 1.11-1.74.38-.48.76-.86 1.14-1.14.38-.28.74-.42 1.08-.42.35 0 .64.08.87.25.23.16.41.4.55.72.13.31.23.7.28 1.14.06.44.08.94.08 1.48 1.4 0 2.47-.3 3.2-.92.74-.62 1.1-1.56 1.1-2.81 0-.93-.3-1.63-.94-2.12-.62-.49-1.58-.73-2.88-.73-.85 0-1.6.12-2.24.35a5.2 5.2 0 00-1.71 1.02c-.5.45-.97 1-1.4 1.67-.41.67-.83 1.44-1.25 2.31h-.17l.76-5h-8.06l-.32 1.95h.66c.69 0 1.18.1 1.48.29.3.2.44.52.44.97 0 .26-.02.56-.08.89l-.13.8-3.1 14.64h5.5zM77.59 19.37a8.7 8.7 0 004.03-.84v-3.27c0-.29.03-.52.1-.7.06-.17.15-.3.26-.4.11-.08.25-.14.4-.17.16-.03.32-.05.49-.05h.07v-.76h-4.73v.76h.07c.2 0 .4.02.57.05.19.03.34.08.48.17a.9.9 0 01.33.37c.08.17.12.38.12.65v2.93c-.26.08-.55.14-.88.17-.33.04-.67.06-1.02.06a5.3 5.3 0 01-2.1-.38 3.43 3.43 0 01-1.41-1.1 4.61 4.61 0 01-.78-1.77c-.16-.7-.24-1.51-.24-2.42 0-.91.07-1.72.23-2.43.15-.71.4-1.3.74-1.79.35-.48.8-.85 1.33-1.1.55-.25 1.2-.38 1.97-.38.45 0 .82.07 1.13.2a2.05 2.05 0 011.16 1.3c.08.28.12.56.12.85.24 0 .46-.03.67-.1.2-.05.38-.14.53-.25.15-.1.27-.24.36-.4.09-.15.13-.33.13-.52 0-.3-.08-.56-.25-.81a2.08 2.08 0 00-.75-.65 4.52 4.52 0 00-1.25-.43 8.8 8.8 0 00-4.53.33 5.48 5.48 0 00-3.2 3.48 8.6 8.6 0 00-.41 2.7c0 1 .12 1.92.38 2.74a5.17 5.17 0 003.12 3.48c.78.32 1.7.48 2.76.48zm11.02-.18v-.77h-.5c-.2 0-.4 0-.58-.04a1.26 1.26 0 01-.47-.16.86.86 0 01-.33-.37 1.47 1.47 0 01-.12-.64v-2.87a9.4 9.4 0 01.16-1.63c.05-.29.13-.57.22-.84.1-.27.2-.51.34-.72.13-.22.29-.38.47-.51.17-.13.37-.2.6-.2.36 0 .6.12.75.34.14.22.21.59.21 1.09.3 0 .57-.03.78-.1.22-.06.4-.14.53-.26s.23-.25.3-.41c.06-.16.09-.34.09-.53 0-.42-.16-.75-.49-.98a2.56 2.56 0 00-1.48-.34c-.4 0-.73.05-1 .15-.27.1-.5.25-.67.43-.18.18-.34.39-.46.63-.13.24-.25.5-.37.77h-.08l-.35-1.8h-2.8v.76h.05c.2 0 .4.01.57.04.19.03.34.1.48.18.14.09.24.22.32.38.08.16.12.38.12.64v5.69c0 .28-.04.51-.12.68a.96.96 0 01-.32.4c-.13.09-.29.15-.47.18a3.6 3.6 0 01-.58.04h-.05v.77h5.25zm7.16.18c.3 0 .58-.03.85-.07a2.8 2.8 0 002.1-1.59h.1l.23 1.48h2.9v-.77h-.06c-.2 0-.4 0-.57-.04a1.26 1.26 0 01-.48-.16.86.86 0 01-.32-.37 1.47 1.47 0 01-.12-.64V9.42h-3.26v.77h.05c.21 0 .4.01.59.04.18.03.33.1.47.19.13.09.24.22.32.4.08.17.12.4.12.69v3.75c0 .44-.05.84-.14 1.2-.08.36-.22.67-.4.93-.2.26-.43.46-.72.6-.29.14-.63.21-1.04.21-.36 0-.67-.05-.92-.16a1.37 1.37 0 01-.58-.49 2.12 2.12 0 01-.32-.78c-.06-.3-.09-.66-.09-1.06V9.42h-3.26v.77h.05c.2 0 .4.01.57.04.19.03.34.1.48.18.14.09.24.22.32.38.08.16.12.38.12.64v4.37c0 .62.07 1.16.2 1.61.14.45.33.82.59 1.11.25.3.57.5.94.64s.8.2 1.28.2zm11.28 4.2v-.77H107c-.2 0-.4-.01-.57-.04a1.21 1.21 0 01-.48-.17.9.9 0 01-.32-.37 1.47 1.47 0 01-.12-.65v-1.8a8.29 8.29 0 00-.02-.43 101.48 101.48 0 01-.02-.7l-.03-.87h.07c.13.23.28.45.46.65a2.78 2.78 0 001.37.83 4 4 0 002.54-.18c.47-.2.85-.5 1.17-.92.31-.42.55-.94.71-1.58.17-.64.25-1.4.25-2.28 0-.87-.08-1.63-.25-2.26a4.34 4.34 0 00-.71-1.57c-.32-.41-.7-.72-1.17-.92a4 4 0 00-2.55-.16 2.68 2.68 0 00-1.36.93 4.5 4.5 0 00-.46.76h-.07l-.2-1.65h-3.17v.77h.23c.2 0 .39.01.57.04.18.03.34.1.48.18.13.09.24.22.32.38.08.16.12.38.12.64v10.05c0 .29-.04.52-.12.7a.95.95 0 01-.32.4c-.13.09-.29.15-.47.18a3.6 3.6 0 01-.58.04h-.15v.77h4.9zm.95-5.37c-.48 0-.88-.08-1.2-.25a1.92 1.92 0 01-.76-.75 3.6 3.6 0 01-.41-1.23c-.08-.49-.12-1.05-.12-1.68 0-.66.04-1.23.12-1.72.08-.48.21-.89.4-1.2.2-.33.45-.57.76-.72.32-.16.72-.24 1.19-.24.4 0 .75.08 1.04.24.28.16.52.4.7.72.18.32.31.72.4 1.2.08.49.12 1.05.12 1.7 0 .64-.04 1.2-.13 1.7-.08.48-.21.9-.4 1.23-.17.33-.4.58-.69.75-.28.17-.62.25-1.02.25zm9.7 1.17c1.4 0 2.46-.42 3.19-1.26.72-.83 1.09-2.1 1.09-3.82 0-.85-.1-1.6-.3-2.23a4.24 4.24 0 00-.83-1.57c-.36-.42-.8-.73-1.33-.94-.52-.2-1.11-.3-1.77-.3-1.4 0-2.48.41-3.2 1.24-.72.83-1.08 2.1-1.08 3.8 0 .85.1 1.6.3 2.24.19.63.46 1.16.83 1.58.36.42.8.74 1.33.95.52.2 1.11.3 1.77.3zm.03-.95c-.45 0-.84-.08-1.16-.26a2.04 2.04 0 01-.77-.79c-.2-.35-.34-.78-.43-1.3-.1-.5-.14-1.1-.14-1.78 0-.68.05-1.27.14-1.78.09-.51.23-.94.43-1.28.2-.34.45-.6.76-.77.31-.17.7-.25 1.16-.25.45 0 .84.08 1.16.25.31.18.57.43.77.77.2.34.33.77.42 1.28a10.98 10.98 0 010 3.57c-.08.51-.22.94-.41 1.3-.2.34-.46.6-.77.78-.31.18-.7.26-1.16.26z"/></g></g></svg>