<?xml version="1.0" encoding="UTF-8"?>
<svg width="167px" height="108px" viewBox="0 0 167 108" version="1.1" xmlns="http://www.w3.org/2000/svg" xmlns:xlink="http://www.w3.org/1999/xlink">
    <title>Group 3</title>
    <g id="Logo" stroke="none" stroke-width="1" fill="none" fill-rule="evenodd">
        <g id="reinserir-quadrado" transform="translate(-30.000000, -46.000000)">
            <g id="Group-2" transform="translate(30.000000, 46.000000)">
                <g id="reinserir1" transform="translate(98.000000, 0.000000)">
                    <path d="M35.6338061,33 C36.2751048,48.1963584 37.5216944,61.798289 41.5473039,68.075532 C52.3175279,69.6378391 61,74 61,74 C52.6463546,71.9524157 44.1788039,70.8657457 35.597706,70.7381598 L32.8668882,70.7298983 C24.0308128,70.8075125 15.0750542,71.8961725 6,73.9938969 C6,73.9938969 17.7350969,68.73199 30.1955532,67.7005273 C33.0987818,61.6492378 34.8416985,48.2344499 35.6338061,33 Z" id="Combined-Shape" fill="#18777A"></path>
                    <g id="Path" transform="translate(56.000000, 35.000000)" fill="#CCD470" fill-rule="nonzero">
                        <path d="M0,1.45700201 C0,1.45700201 1.75975846,0.00214107569 4.94802674,0 C8.66681044,0 12,2.61211234 12,2.61211234 C12,2.61211234 8.45589821,4.31533806 4.67112357,3.94814358 C1.54367048,3.64411083 0,1.45700201 0,1.45700201 Z"></path>
                    </g>
                    <g id="Path1" transform="translate(39.000000, 37.000000)" fill="#694115" fill-rule="nonzero">
                        <path d="M0,2.41116894 C0,2.41116894 2.19617944,-0.262049866 5.67847178,0.0209880683 C9.7497317,0.352440386 12,2.98171383 12,2.98171383 C12,2.98171383 9.74200472,5.33241835 4.87057308,4.96000002 C2.29577162,4.76187346 0,2.41116894 0,2.41116894 Z" id="Path"></path>
                    </g>
                    <g id="Path2" transform="translate(23.000000, 37.000000)" fill="#18777A" fill-rule="nonzero">
                        <path d="M0,2.2373593 C0,2.2373593 2.02585604,-0.112615736 4.87071978,0.0042163112 C7.7148847,0.121048358 10,1.99925051 10,1.99925051 C10,1.99925051 6.98392732,3.9987294 4.99930119,4 C2.41369672,4.00126923 0,2.2373593 0,2.2373593 Z" id="Path"></path>
                    </g>
                    <g id="Path3" transform="translate(26.000000, 0.000000)" fill="#18777A" fill-rule="nonzero">
                        <path d="M1.77334663,0 C1.77334663,0 9.14442257,3.28214183 9.86281786,8.41546555 C10.5812132,13.5500144 8.24413848,17 8.24413848,17 C8.24413848,17 1.59276639,14.6440617 0.335247486,10.0988037 C-0.924888521,5.55477083 1.77334663,0 1.77334663,0 Z" id="Path"></path>
                    </g>
                    <g id="Path4" transform="translate(40.000000, 1.000000)" fill="#D91E23" fill-rule="nonzero">
                        <path d="M0.125247073,14 C0.125247073,14 -0.765853247,7.34525877 2.20569353,4.46648142 C5.1784527,1.58770406 9.92977536,0 9.92977536,0 C9.92977536,0 10.6232575,7.0012157 7.65171073,10.1267801 C5.17602793,12.732025 0.125247073,14 0.125247073,14 Z" id="Path"></path>
                    </g>
                    <g id="Path5" transform="translate(16.000000, 10.000000)" fill="#D2DE3C" fill-rule="nonzero">
                        <path d="M0.00977731259,0.0121406073 C0.304882044,-0.0863462236 8.23296098,0.323407628 11.0286266,4.67993004 C13.1401311,7.96768794 12.997999,12.725453 12.997999,12.725453 C12.997999,12.725453 8.07878381,14.314617 3.84734332,9.84623305 C-0.385301674,5.37906495 0.00977731259,0.0121406073 0.00977731259,0.0121406073 Z" id="Path"></path>
                    </g>
                    <g id="Path6" transform="translate(31.000000, 18.000000)" fill="#D91E23" fill-rule="nonzero">
                        <path d="M0.147972869,8.98912511 C0.147972869,8.98912511 -0.573242331,4.80989438 1.16879062,2.76054731 C2.91082358,0.709961225 8,0 8,0 C8,0 8,5.75774837 5.58420022,7.4911441 C3.16840043,9.22577886 0.147972869,8.98912511 0.147972869,8.98912511 Z" id="Path"></path>
                    </g>
                    <g id="Path7" transform="translate(41.000000, 13.000000)" fill="#694115" fill-rule="nonzero">
                        <path d="M0,10.8614733 C0,10.8614733 1.33868632,5.79630141 4.70554166,3.21721143 C10.2166645,-1.00334616 18,0.141659186 18,0.141659186 C18,0.141659186 15.9007503,9.42613176 9,10.5711371 C4.49585363,11.3189727 0,10.8614733 0,10.8614733 Z" id="Path"></path>
                    </g>
                    <g id="Path8" transform="translate(2.000000, 17.000000)" fill="#D91E23" fill-rule="nonzero">
                        <path d="M0,0.00074259859 C0,0.00074259859 9.49837134,-0.118759047 13.146987,2.67412994 C17.7227199,6.17786892 18,11.7661108 18,11.7661108 C18,11.7661108 9.71457655,13.1052685 5.1021987,9.37484595 C1.17385993,6.19511658 0,0.00074259859 0,0.00074259859 Z" id="Path"></path>
                    </g>
                    <g id="Path9" transform="translate(0.000000, 30.000000)" fill="#D91E23" fill-rule="nonzero">
                        <path d="M0,2.9931406 C0.136101266,2.79735005 3.15098734,-0.133783368 6.59848101,0.0047584853 C10.0471899,0.142155364 12,2.27982181 12,2.27982181 C12,2.27982181 9.10420253,4.92013183 5.99939241,4.99799006 C2.89579747,5.07355834 0,2.9931406 0,2.9931406 Z" id="Path"></path>
                    </g>
                    <g id="Path10" transform="translate(43.000000, 26.000000)" fill="#D91E23" fill-rule="nonzero">
                        <path d="M0,8.10981454 C0,8.10981454 2.57493267,1.71811288 6.93907854,0.521340288 C12.5467647,-1.01774938 17,1.34102922 17,1.34102922 C17,1.34102922 14.119441,9.09932484 8.49938132,9.85750368 C2.88055899,10.6143453 0,8.10981454 0,8.10981454 Z" id="Path"></path>
                    </g>
                    <g id="Path11" transform="translate(4.000000, 39.000000)" fill="#694115" fill-rule="nonzero">
                        <path d="M16,4.04564034 C16,4.04564034 13.4547436,-0.0456228742 8.01182971,0.000385146261 C2.56891587,0.0475433672 0,2.04314125 0,2.04314125 C0,2.04314125 4.47910343,6.24942452 8.57716554,5.98832901 C12.6789633,5.72953389 16,4.04564034 16,4.04564034 Z" id="Path"></path>
                    </g>
                    <g id="Path12" transform="translate(13.000000, 32.000000)" fill="#CCD470" fill-rule="nonzero">
                        <path d="M12,2.98131307 C12,2.98131307 9.60791826,-0.132280354 5.61941252,0.00436992025 C1.63090677,0.139890853 0,2.17609287 0,2.17609287 C0,2.17609287 2.21072797,5.04574862 6.27075351,4.99944563 C9.77905492,4.95991869 12,2.98131307 12,2.98131307 Z" id="Path"></path>
                    </g>
                    <g id="Path13" transform="translate(24.000000, 27.000000)" fill="#694115" fill-rule="nonzero">
                        <path d="M9,5.91122771 C9,5.91122771 4.60883152,6.46605454 2.48722826,4.80157405 C0.365625,3.13587147 0,0 0,0 C0,0 4.99157609,0.0146650264 6.95910326,1.81724118 C8.92663043,3.62226151 9,5.91122771 9,5.91122771 Z" id="Path"></path>
                    </g>
                    <g id="Path14" transform="translate(52.000000, 41.000000)" fill="#18777A" fill-rule="nonzero">
                        <path d="M9,5.91122771 C9,5.91122771 4.60883152,6.46605454 2.48722826,4.80157405 C0.365625,3.13587147 0,0 0,0 C0,0 4.99157609,0.0146650264 6.95910326,1.81724118 C8.92663043,3.62226151 9,5.91122771 9,5.91122771 Z" id="Path"></path>
                    </g>
                    <g id="Path15" transform="translate(37.000000, 26.000000)" fill="#CCD470" fill-rule="nonzero">
                        <path d="M1.8503294,9 C1.8503294,9 -0.0616339304,8.11234657 0.00153131302,5.35971119 C0.0817025836,1.93776173 2.58766215,0 2.58766215,0 C2.58766215,0 4.24089092,3.93790614 3.9700092,5.68592058 C3.57158228,8.23841155 1.8503294,9 1.8503294,9 Z" id="Path"></path>
                    </g>
                    <g id="Path16" transform="translate(15.000000, 44.000000)" fill="#D91E23" fill-rule="nonzero">
                        <path d="M18,1.16358872 C18,1.16358872 17.5647083,6.26687288 12.7601923,9.3885694 C8.13631612,12.3925854 0,10.2756019 0,10.2756019 C0,10.2756019 3.20635584,2.96296141 7.30462053,1.16358872 C13.2644784,-1.4544859 18,1.16358872 18,1.16358872 Z" id="Path"></path>
                    </g>
                    <g id="Path17" transform="translate(40.000000, 44.000000)" fill="#D91E23" fill-rule="nonzero">
                        <path d="M0.000730381677,0.0448612125 C0.000730381677,0.0448612125 8.54750111,-0.643374636 11.3032529,3.37153968 C14.0590046,7.386454 14,11 14,11 C14,11 5.16376304,11 2.52498913,7.386454 C-0.113784771,3.77290799 0.000730381677,0.0448612125 0.000730381677,0.0448612125 Z" id="Path"></path>
                    </g>
                </g>
                <path d="M13.2516044,107.597203 L13.6607143,105.658378 L12.4511719,105.658378 C12.0717076,105.658378 11.7189244,105.643555 11.3928223,105.613909 C11.0667201,105.584263 10.7850865,105.524972 10.5479213,105.436035 C10.3107561,105.347098 10.1269531,105.222586 9.99651228,105.0625 C9.86607143,104.902414 9.800851,104.691929 9.800851,104.431048 C9.800851,104.336182 9.81863839,104.17906 9.85421317,103.959682 C9.88978795,103.740304 9.95500837,103.411237 10.0498744,102.972482 L10.0498744,102.972482 L11.4728655,96.3022112 L13.9808873,96.3022112 L16.2754604,103.452741 C16.5482003,104.318394 16.9039481,105.020996 17.3427037,105.560547 C17.7814593,106.100098 18.3328683,106.521066 18.9969308,106.823451 C19.6609933,107.125837 20.4584612,107.330392 21.3893345,107.437116 C22.3202079,107.543841 23.4200614,107.597203 24.6888951,107.597203 L24.6888951,107.597203 L25.0624302,107.597203 L25.4537528,105.658378 L25.3114537,105.658378 C24.8964146,105.658378 24.5317732,105.596122 24.2175293,105.47161 C23.9032854,105.347098 23.6127581,105.139579 23.3459473,104.849051 C23.0791364,104.558524 22.8271484,104.176095 22.5899833,103.701765 C22.3528181,103.227434 22.1097238,102.64638 21.8607003,101.958601 L21.8607003,101.958601 L19.3348912,95.1816057 C20.0819615,95.0037319 20.8408901,94.7428502 21.6116769,94.3989607 C22.3824637,94.0550711 23.0791364,93.5896345 23.701695,93.0026507 C24.3242536,92.4156669 24.8341588,91.6893485 25.2314104,90.8236956 C25.6286621,89.9580427 25.8272879,88.9085868 25.8272879,87.6753278 C25.8272879,85.6357073 25.1098633,84.111921 23.675014,83.103969 C22.2401646,82.096017 20.0701032,81.592041 17.1648298,81.592041 L17.1648298,81.592041 L5.46072824,81.592041 L5.06940569,83.513079 L5.53187779,83.513079 C5.91134208,83.513079 6.26412528,83.5279018 6.5902274,83.5575474 C6.91632952,83.5871931 7.1949986,83.6464844 7.42623465,83.7354213 C7.6574707,83.8243583 7.83830915,83.9518345 7.96875,84.1178502 C8.09919085,84.2838658 8.16441127,84.4973145 8.16441127,84.7581961 C8.16441127,84.9597866 8.08733259,85.3748256 7.93317522,86.0033133 L7.93317522,86.0033133 L4.21561105,103.488316 C4.12074498,103.962646 3.96362305,104.342111 3.74424526,104.626709 C3.52486747,104.911307 3.26695033,105.130685 2.97049386,105.284842 C2.67403739,105.439 2.3449707,105.539795 1.98329381,105.587228 C1.62161691,105.634661 1.25104632,105.658378 0.871582031,105.658378 L0.871582031,105.658378 L0.391322545,105.658378 L0,107.597203 L13.2516044,107.597203 Z M14.1409738,94.185512 L11.8819754,94.185512 L14.2121233,83.744315 L16.0620117,83.744315 C16.6667829,83.744315 17.1944754,83.8184291 17.6450893,83.9666574 C18.0957031,84.1148856 18.4692383,84.363909 18.7656948,84.7137277 C19.0621512,85.0635463 19.281529,85.5171247 19.4238281,86.0744629 C19.5661272,86.6318011 19.6372768,87.3195801 19.6372768,88.1377999 C19.6372768,89.2287598 19.4949777,90.1566685 19.2103795,90.9215262 C18.9257812,91.6863839 18.5374233,92.3089425 18.0453055,92.789202 C17.5531878,93.2694615 16.9721331,93.6222447 16.3021415,93.8475516 C15.6321498,94.0728585 14.9117606,94.185512 14.1409738,94.185512 L14.1409738,94.185512 Z M35.1081194,107.952951 C36.3532366,107.952951 37.4293736,107.819545 38.3365304,107.552734 C39.2436872,107.285924 39.9907575,106.947963 40.5777414,106.538853 C41.1647252,106.129743 41.6005162,105.682094 41.8851144,105.195905 C42.1697126,104.709717 42.3120117,104.247245 42.3120117,103.808489 C42.3120117,103.500174 42.2705078,103.206682 42.1875,102.928013 C42.1044922,102.649344 41.9918387,102.421073 41.8495396,102.243199 C41.5886579,102.610805 41.2773786,102.969517 40.9157017,103.319336 C40.5540248,103.669155 40.1449149,103.983398 39.6883719,104.262068 C39.231829,104.540737 38.7367467,104.766044 38.203125,104.937988 C37.6695033,105.109933 37.106236,105.195905 36.5133231,105.195905 C35.1851981,105.195905 34.1920689,104.813477 33.5339355,104.048619 C32.8758022,103.283761 32.5467355,102.195766 32.5467355,100.784633 C32.5467355,100.583043 32.5497001,100.3607 32.5556292,100.117606 C32.5615583,99.8745117 32.5823103,99.634382 32.617885,99.3972168 C32.843192,99.4209333 33.074428,99.4327916 33.3115932,99.4327916 L33.3115932,99.4327916 L33.9697266,99.4327916 C35.5350167,99.4327916 36.9817243,99.2312012 38.3098493,98.8280204 C39.6379743,98.4248396 40.7822963,97.8823242 41.7428153,97.2004743 C42.7033343,96.5186244 43.4563337,95.7270857 44.0018136,94.825858 C44.5472935,93.9246303 44.8200335,92.9818987 44.8200335,91.9976632 C44.8200335,90.6458217 44.339774,89.5934012 43.379255,88.8404018 C42.418736,88.0874023 41.0668945,87.7109026 39.3237305,87.7109026 C37.9837472,87.7109026 36.7475237,87.8976702 35.61506,88.2712054 C34.4825963,88.6447405 33.4598214,89.1516811 32.5467355,89.7920271 C31.6336496,90.432373 30.8302525,91.1764788 30.1365444,92.0243443 C29.4428362,92.8722098 28.8617815,93.7675084 28.3933803,94.71024 C27.9249791,95.6529715 27.5721959,96.6164551 27.3350307,97.6006906 C27.0978655,98.5849261 26.9792829,99.5276576 26.9792829,100.428885 C26.9792829,101.697719 27.1927316,102.803502 27.6196289,103.746233 C28.0465262,104.688965 28.6305455,105.47161 29.3716867,106.094169 C30.1128278,106.716727 30.9755162,107.182164 31.9597517,107.490479 C32.9439872,107.798793 33.9934431,107.952951 35.1081194,107.952951 Z M33.2048689,97.3160924 L32.8846959,97.3160924 C33.026995,96.4504395 33.2523019,95.5758929 33.5606166,94.6924526 C33.8689314,93.8090123 34.2365374,93.0115444 34.6634347,92.3000488 C35.090332,91.5885533 35.5705915,91.0104632 36.1042132,90.5657785 C36.6378348,90.1210937 37.2011021,89.8987514 37.7940151,89.8987514 C38.3632115,89.8987514 38.8049316,90.1062709 39.1191755,90.52131 C39.4334194,90.9363491 39.5905413,91.5174037 39.5905413,92.2644741 C39.5905413,93.0352609 39.4274902,93.728969 39.1013881,94.3455985 C38.775286,94.962228 38.3246722,95.492885 37.7495466,95.9375698 C37.174421,96.3822545 36.4985003,96.7231794 35.7217843,96.9603446 C34.9450684,97.1975098 34.1060965,97.3160924 33.2048689,97.3160924 L33.2048689,97.3160924 Z M52.4644252,84.7937709 C52.9031808,84.7937709 53.3300781,84.7344796 53.7451172,84.615897 C54.1601562,84.4973145 54.5307268,84.316476 54.856829,84.0733817 C55.1829311,83.8302874 55.4438128,83.5219727 55.6394741,83.1484375 C55.8351353,82.7749023 55.932966,82.3391113 55.932966,81.8410645 C55.932966,81.4378836 55.8529227,81.0910296 55.6928362,80.8005022 C55.5327497,80.5099749 55.3193011,80.2698451 55.0524902,80.080113 C54.7856794,79.8903809 54.4773647,79.7540109 54.127546,79.6710031 C53.7777274,79.5879953 53.4071568,79.5464914 53.0158343,79.5464914 C52.5652204,79.5464914 52.132394,79.6028181 51.7173549,79.7154715 C51.3023158,79.828125 50.940639,80.0059989 50.6323242,80.2490932 C50.3240095,80.4921875 50.0779506,80.8005022 49.8941476,81.1740374 C49.7103446,81.5475725 49.6184431,82.0011509 49.6184431,82.5347726 C49.6184431,82.9142369 49.6925572,83.2462681 49.8407854,83.5308664 C49.9890137,83.8154646 50.1906041,84.0526297 50.4455566,84.2423619 C50.7005092,84.432094 50.9999302,84.5714286 51.3438198,84.6603655 C51.6877093,84.7493025 52.0612444,84.7937709 52.4644252,84.7937709 Z M50.6856864,107.952951 C51.3497489,107.952951 51.9574847,107.881801 52.5088937,107.739502 C53.0603027,107.597203 53.5672433,107.407471 54.0297154,107.170306 C54.4921875,106.93314 54.9072266,106.663365 55.2748326,106.360979 C55.6424386,106.058594 55.9685407,105.753244 56.253139,105.444929 L56.253139,105.444929 L55.3815569,104.217599 C54.9665179,104.490339 54.5989118,104.697859 54.2787388,104.840158 C53.9585658,104.982457 53.6087472,105.053606 53.2292829,105.053606 C52.8261021,105.053606 52.5148228,104.911307 52.295445,104.626709 C52.0760672,104.342111 51.9663783,103.933001 51.9663783,103.399379 C51.9663783,102.889474 52.0138114,102.346959 52.1086775,101.771833 C52.2035435,101.196708 52.3221261,100.577114 52.4644252,99.9130511 L52.4644252,99.9130511 L54.9902344,88.0666504 L46.3455636,88.0666504 L46.0253906,90.0054757 L46.683524,90.0054757 C47.0274135,90.0054757 47.3209054,90.0232631 47.5639997,90.0588379 C47.807094,90.0944127 48.0057199,90.1655622 48.1598772,90.2722866 C48.3140346,90.3790109 48.4266881,90.5331682 48.4978376,90.7347586 C48.5689872,90.9363491 48.6045619,91.2031599 48.6045619,91.5351911 C48.6045619,91.5826242 48.5986328,91.6597028 48.5867746,91.7664272 C48.5749163,91.8731515 48.5571289,92.0006278 48.5334124,92.148856 C48.5096959,92.2970843 48.4830148,92.4542062 48.4533691,92.6202218 C48.4237235,92.7862374 48.3911133,92.9463239 48.3555385,93.1004813 L48.3555385,93.1004813 L46.9325474,99.8774763 C46.730957,100.80242 46.5827288,101.626569 46.4878627,102.349923 C46.3929967,103.073277 46.3455636,103.695836 46.3455636,104.217599 C46.3455636,105.391567 46.7190988,106.307617 47.4661691,106.965751 C48.2132394,107.623884 49.2864118,107.952951 50.6856864,107.952951 Z M74.0897042,107.952951 C74.7537667,107.952951 75.3644671,107.881801 75.9218052,107.739502 C76.4791434,107.597203 76.986084,107.407471 77.442627,107.170306 C77.8991699,106.93314 78.3112444,106.663365 78.6788504,106.360979 C79.0464565,106.058594 79.3725586,105.753244 79.6571568,105.444929 L79.6571568,105.444929 L78.7855748,104.217599 C78.3705357,104.490339 78.0058943,104.697859 77.6916504,104.840158 C77.3774065,104.982457 77.0305525,105.053606 76.6510882,105.053606 C76.2360491,105.053606 75.9188407,104.911307 75.6994629,104.626709 C75.4800851,104.342111 75.3703962,103.933001 75.3703962,103.399379 C75.3703962,102.889474 75.4178292,102.346959 75.5126953,101.771833 C75.6075614,101.196708 75.726144,100.577114 75.8684431,99.9130511 L75.8684431,99.9130511 L76.6866629,96.017613 C76.7459542,95.69744 76.8141392,95.3594796 76.8912179,95.0037319 C76.9682966,94.6479841 77.0394461,94.2922363 77.1046666,93.9364886 C77.169887,93.5807408 77.2232492,93.2279576 77.2647531,92.878139 C77.306257,92.5283203 77.3270089,92.1992536 77.3270089,91.8909389 C77.3270089,91.3336007 77.2558594,90.8029436 77.1135603,90.2989676 C76.9712612,89.7949916 76.7370605,89.3503069 76.4109584,88.9649135 C76.0848563,88.5795201 75.657959,88.2741699 75.1302665,88.048863 C74.6025739,87.8235561 73.9533343,87.7109026 73.1825474,87.7109026 C72.3761858,87.7109026 71.6380092,87.796875 70.9680176,87.9688198 C70.2980259,88.1407645 69.6784319,88.4016462 69.1092355,88.7514648 C68.5400391,89.1012835 68.009382,89.5430036 67.5172642,90.0766253 C67.0251465,90.6102469 66.5478516,91.2387347 66.0853795,91.9620884 L66.0853795,91.9620884 L65.8541434,91.9620884 L66.2632533,88.0666504 L58.1699916,88.0666504 L57.8498186,90.0054757 L58.507952,90.0054757 C58.8518415,90.0054757 59.1453334,90.0232631 59.3884277,90.0588379 C59.631522,90.0944127 59.8301479,90.1655622 59.9843052,90.2722866 C60.1384626,90.3790109 60.2511161,90.5331682 60.3222656,90.7347586 C60.3934152,90.9363491 60.42899,91.2031599 60.42899,91.5351911 C60.42899,91.5826242 60.4230608,91.6597028 60.4112026,91.7664272 C60.3993443,91.8731515 60.3815569,92.0006278 60.3578404,92.148856 C60.3341239,92.2970843 60.3074428,92.4542062 60.2777972,92.6202218 C60.2481515,92.7862374 60.2155413,92.9463239 60.1799665,93.1004813 L60.1799665,93.1004813 L57.1205357,107.597203 L62.581264,107.597203 L64.4311523,99.1481934 C64.5378767,98.673863 64.692034,98.1402414 64.8936244,97.5473284 C65.0952148,96.9544155 65.3353446,96.3496443 65.6140137,95.7330148 C65.8926828,95.1163853 66.2039621,94.5145787 66.5478516,93.9275949 C66.8917411,93.340611 67.253418,92.8188477 67.6328823,92.3623047 C68.0123465,91.9057617 68.4066336,91.5381557 68.8157436,91.2594866 C69.2248535,90.9808175 69.636928,90.841483 70.0519671,90.841483 C70.3721401,90.841483 70.6300572,90.9067034 70.8257185,91.0371443 C71.0213797,91.1675851 71.1755371,91.3336007 71.2881906,91.5351911 C71.400844,91.7367815 71.4779227,91.9620884 71.5194266,92.2111119 C71.5609305,92.4601353 71.5816825,92.6973005 71.5816825,92.9226074 C71.5816825,93.2190639 71.5550014,93.5540597 71.5016392,93.9275949 C71.4482771,94.30113 71.3860212,94.6746652 71.3148717,95.0482003 C71.2437221,95.4217355 71.1725725,95.7804478 71.101423,96.1243373 C71.0302734,96.4682268 70.9709821,96.7587542 70.9235491,96.9959194 L70.9235491,96.9959194 L70.3365653,99.8774763 C69.9452427,101.727365 69.7495815,103.174072 69.7495815,104.217599 C69.7495815,105.391567 70.1231166,106.307617 70.8701869,106.965751 C71.6172573,107.623884 72.6904297,107.952951 74.0897042,107.952951 Z M86.67899,107.952951 C88.1375558,107.952951 89.4182478,107.807687 90.5210658,107.51716 C91.6238839,107.226632 92.5488281,106.808629 93.2958984,106.263149 C94.0429687,105.717669 94.6032715,105.053606 94.9768066,104.270961 C95.3503418,103.488316 95.5371094,102.604876 95.5371094,101.62064 C95.5371094,100.94472 95.4452079,100.331055 95.2614049,99.7796456 C95.0776018,99.2282366 94.7989328,98.7183315 94.4253976,98.2499302 C94.0518624,97.781529 93.5804967,97.3487026 93.0113002,96.9514509 C92.4421038,96.5541992 91.766183,96.1776995 90.9835379,95.8219517 C90.2720424,95.5017787 89.6554129,95.214216 89.1336496,94.9592634 C88.6118862,94.7043108 88.1820243,94.4463937 87.8440639,94.185512 C87.5061035,93.9246303 87.2570801,93.6459612 87.0969936,93.3495047 C86.9369071,93.0530483 86.8568638,92.7032296 86.8568638,92.3000488 C86.8568638,91.9443011 86.9280134,91.6122698 87.0703125,91.3039551 C87.2126116,90.9956403 87.4171666,90.725865 87.6839774,90.4946289 C87.9507882,90.2633929 88.2709612,90.0795898 88.6444964,89.9432199 C89.0180315,89.8068499 89.4419643,89.7386649 89.9162946,89.7386649 C90.438058,89.7386649 90.8768136,89.8631766 91.2325614,90.1122001 C91.5883092,90.3612235 91.8788365,90.6873256 92.1041434,91.0905064 C92.3294503,91.4936872 92.4895368,91.9413365 92.5844029,92.4334542 C92.679269,92.925572 92.726702,93.4147252 92.726702,93.9009138 C94.0192522,93.9009138 95.0390625,93.681536 95.7861328,93.2427804 C96.5332031,92.8040248 96.9067383,92.0984584 96.9067383,91.1260812 C96.9067383,90.6873256 96.7911203,90.2604283 96.5598842,89.8453892 C96.3286482,89.4303502 95.9491839,89.0657087 95.4214914,88.7514648 C94.8937988,88.437221 94.2060198,88.185233 93.3581543,87.9955008 C92.5102888,87.8057687 91.4756557,87.7109026 90.254255,87.7109026 C88.9735631,87.7109026 87.8262765,87.844308 86.8123954,88.1111189 C85.7985142,88.3779297 84.9358259,88.7633231 84.2243304,89.2672991 C83.5128348,89.7712751 82.9673549,90.3790109 82.5878906,91.0905064 C82.2084263,91.802002 82.0186942,92.6024344 82.0186942,93.4918039 C82.0186942,94.2032994 82.1283831,94.8436454 82.3477609,95.4128418 C82.5671387,95.9820382 82.878418,96.4978725 83.2815988,96.9603446 C83.6847796,97.4228167 84.1739328,97.8437849 84.7490583,98.2232492 C85.3241839,98.6027134 85.9674944,98.9584612 86.67899,99.2904925 C87.3904855,99.634382 88.0041504,99.9426967 88.5199847,100.215437 C89.0358189,100.488177 89.4627162,100.763881 89.8006766,101.04255 C90.138637,101.321219 90.3876604,101.62064 90.5477469,101.940813 C90.7078334,102.260986 90.7878767,102.628592 90.7878767,103.043631 C90.7878767,103.482387 90.6989397,103.870745 90.5210658,104.208705 C90.343192,104.546666 90.1000977,104.831264 89.7917829,105.0625 C89.4834682,105.293736 89.1158622,105.47161 88.6889648,105.596122 C88.2620675,105.720633 87.7995954,105.782889 87.3015485,105.782889 C86.637486,105.782889 86.0771833,105.649484 85.6206403,105.382673 C85.1640974,105.115862 84.7935268,104.754185 84.5089286,104.297642 C84.2243304,103.841099 84.0168108,103.316371 83.88637,102.723458 C83.7559291,102.130545 83.6907087,101.507987 83.6907087,100.855783 C83.2045201,100.855783 82.7272252,100.912109 82.2588239,101.024763 C81.7904227,101.137416 81.3753836,101.31529 81.0137068,101.558384 C80.6520299,101.801479 80.3585379,102.118687 80.133231,102.51001 C79.9079241,102.901332 79.7952706,103.381592 79.7952706,103.950788 C79.7952706,104.579276 79.9583217,105.142543 80.2844238,105.64059 C80.6105259,106.138637 81.072998,106.559605 81.6718401,106.903495 C82.2706822,107.247384 82.994036,107.508266 83.8419015,107.68614 C84.689767,107.864014 85.6354632,107.952951 86.67899,107.952951 Z M106.418806,107.952951 C107.663923,107.952951 108.74006,107.819545 109.647217,107.552734 C110.554374,107.285924 111.301444,106.947963 111.888428,106.538853 C112.475412,106.129743 112.911203,105.682094 113.195801,105.195905 C113.480399,104.709717 113.622698,104.247245 113.622698,103.808489 C113.622698,103.500174 113.581194,103.206682 113.498186,102.928013 C113.415179,102.649344 113.302525,102.421073 113.160226,102.243199 C112.899344,102.610805 112.588065,102.969517 112.226388,103.319336 C111.864711,103.669155 111.455601,103.983398 110.999058,104.262068 C110.542515,104.540737 110.047433,104.766044 109.513811,104.937988 C108.98019,105.109933 108.416922,105.195905 107.824009,105.195905 C106.495884,105.195905 105.502755,104.813477 104.844622,104.048619 C104.186489,103.283761 103.857422,102.195766 103.857422,100.784633 C103.857422,100.583043 103.860386,100.3607 103.866316,100.117606 C103.872245,99.8745117 103.892997,99.634382 103.928571,99.3972168 C104.153878,99.4209333 104.385114,99.4327916 104.62228,99.4327916 L104.62228,99.4327916 L105.280413,99.4327916 C106.845703,99.4327916 108.292411,99.2312012 109.620536,98.8280204 C110.948661,98.4248396 112.092983,97.8823242 113.053502,97.2004743 C114.014021,96.5186244 114.76702,95.7270857 115.3125,94.825858 C115.85798,93.9246303 116.13072,92.9818987 116.13072,91.9976632 C116.13072,90.6458217 115.65046,89.5934012 114.689941,88.8404018 C113.729422,88.0874023 112.377581,87.7109026 110.634417,87.7109026 C109.294434,87.7109026 108.05821,87.8976702 106.925746,88.2712054 C105.793283,88.6447405 104.770508,89.1516811 103.857422,89.7920271 C102.944336,90.432373 102.140939,91.1764788 101.447231,92.0243443 C100.753523,92.8722098 100.172468,93.7675084 99.7040667,94.71024 C99.2356655,95.6529715 98.8828823,96.6164551 98.6457171,97.6006906 C98.4085519,98.5849261 98.2899693,99.5276576 98.2899693,100.428885 C98.2899693,101.697719 98.503418,102.803502 98.9303153,103.746233 C99.3572126,104.688965 99.9412319,105.47161 100.682373,106.094169 C101.423514,106.716727 102.286203,107.182164 103.270438,107.490479 C104.254674,107.798793 105.304129,107.952951 106.418806,107.952951 Z M104.515555,97.3160924 L104.195382,97.3160924 C104.337681,96.4504395 104.562988,95.5758929 104.871303,94.6924526 C105.179618,93.8090123 105.547224,93.0115444 105.974121,92.3000488 C106.401018,91.5885533 106.881278,91.0104632 107.4149,90.5657785 C107.948521,90.1210937 108.511789,89.8987514 109.104701,89.8987514 C109.673898,89.8987514 110.115618,90.1062709 110.429862,90.52131 C110.744106,90.9363491 110.901228,91.5174037 110.901228,92.2644741 C110.901228,93.0352609 110.738177,93.728969 110.412074,94.3455985 C110.085972,94.962228 109.635359,95.492885 109.060233,95.9375698 C108.485107,96.3822545 107.809187,96.7231794 107.032471,96.9603446 C106.255755,97.1975098 105.416783,97.3160924 104.515555,97.3160924 L104.515555,97.3160924 Z M122.103097,107.597203 L123.490513,101.300467 C123.680246,100.411098 123.911482,99.5335868 124.184222,98.6679339 C124.456961,97.802281 124.759347,96.9751674 125.091378,96.1865932 C125.42341,95.398019 125.770264,94.668736 126.131941,93.9987444 C126.493617,93.3287528 126.864188,92.7506627 127.243652,92.2644741 C127.623117,91.7782854 128.002581,91.3958566 128.382045,91.1171875 C128.761509,90.8385184 129.123186,90.6991839 129.467076,90.6991839 C129.810965,90.6991839 130.098528,90.7821917 130.329764,90.9482073 C130.561,91.1142229 130.744803,91.3543527 130.881173,91.6685965 C131.017543,91.9828404 131.112409,92.3623047 131.165771,92.8069894 C131.219134,93.2516741 131.245815,93.7467564 131.245815,94.2922363 C132.645089,94.2922363 133.712333,93.9839216 134.447545,93.3672921 C135.182757,92.7506627 135.550363,91.8138602 135.550363,90.5568848 C135.550363,89.6319406 135.236119,88.9263742 134.607631,88.4401855 C133.979143,87.9539969 133.018624,87.7109026 131.726074,87.7109026 C130.87228,87.7109026 130.125209,87.8265206 129.484863,88.0577567 C128.844517,88.2889927 128.272356,88.6299177 127.76838,89.0805315 C127.264404,89.5311454 126.801932,90.0884835 126.380964,90.752546 C125.959996,91.4166085 125.541992,92.1873954 125.126953,93.0649065 L125.126953,93.0649065 L124.949079,93.0649065 L125.713937,88.0666504 L117.65625,88.0666504 L117.336077,90.0054757 L117.99421,90.0054757 C118.681989,90.0054757 119.174107,90.1033064 119.470564,90.2989676 C119.76702,90.4946289 119.915248,90.8177665 119.915248,91.2683803 C119.915248,91.529262 119.888567,91.8257185 119.835205,92.1577497 C119.781843,92.489781 119.737374,92.7565918 119.7018,92.9581822 L119.7018,92.9581822 L116.606794,107.597203 L122.103097,107.597203 Z M142.767857,84.7937709 C143.206613,84.7937709 143.63351,84.7344796 144.048549,84.615897 C144.463588,84.4973145 144.834159,84.316476 145.160261,84.0733817 C145.486363,83.8302874 145.747245,83.5219727 145.942906,83.1484375 C146.138567,82.7749023 146.236398,82.3391113 146.236398,81.8410645 C146.236398,81.4378836 146.156355,81.0910296 145.996268,80.8005022 C145.836182,80.5099749 145.622733,80.2698451 145.355922,80.080113 C145.089111,79.8903809 144.780797,79.7540109 144.430978,79.6710031 C144.081159,79.5879953 143.710589,79.5464914 143.319266,79.5464914 C142.868652,79.5464914 142.435826,79.6028181 142.020787,79.7154715 C141.605748,79.828125 141.244071,80.0059989 140.935756,80.2490932 C140.627441,80.4921875 140.381383,80.8005022 140.19758,81.1740374 C140.013777,81.5475725 139.921875,82.0011509 139.921875,82.5347726 C139.921875,82.9142369 139.995989,83.2462681 140.144217,83.5308664 C140.292446,83.8154646 140.494036,84.0526297 140.748989,84.2423619 C141.003941,84.432094 141.303362,84.5714286 141.647252,84.6603655 C141.991141,84.7493025 142.364676,84.7937709 142.767857,84.7937709 Z M140.989118,107.952951 C141.653181,107.952951 142.260917,107.881801 142.812326,107.739502 C143.363735,107.597203 143.870675,107.407471 144.333147,107.170306 C144.795619,106.93314 145.210658,106.663365 145.578265,106.360979 C145.945871,106.058594 146.271973,105.753244 146.556571,105.444929 L146.556571,105.444929 L145.684989,104.217599 C145.26995,104.490339 144.902344,104.697859 144.582171,104.840158 C144.261998,104.982457 143.912179,105.053606 143.532715,105.053606 C143.129534,105.053606 142.818255,104.911307 142.598877,104.626709 C142.379499,104.342111 142.26981,103.933001 142.26981,103.399379 C142.26981,102.889474 142.317243,102.346959 142.412109,101.771833 C142.506975,101.196708 142.625558,100.577114 142.767857,99.9130511 L142.767857,99.9130511 L145.293666,88.0666504 L136.648996,88.0666504 L136.328823,90.0054757 L136.986956,90.0054757 C137.330845,90.0054757 137.624337,90.0232631 137.867432,90.0588379 C138.110526,90.0944127 138.309152,90.1655622 138.463309,90.2722866 C138.617467,90.3790109 138.73012,90.5331682 138.80127,90.7347586 C138.872419,90.9363491 138.907994,91.2031599 138.907994,91.5351911 C138.907994,91.5826242 138.902065,91.6597028 138.890206,91.7664272 C138.878348,91.8731515 138.860561,92.0006278 138.836844,92.148856 C138.813128,92.2970843 138.786447,92.4542062 138.756801,92.6202218 C138.727155,92.7862374 138.694545,92.9463239 138.65897,93.1004813 L138.65897,93.1004813 L137.235979,99.8774763 C137.034389,100.80242 136.886161,101.626569 136.791295,102.349923 C136.696429,103.073277 136.648996,103.695836 136.648996,104.217599 C136.648996,105.391567 137.022531,106.307617 137.769601,106.965751 C138.516671,107.623884 139.589844,107.952951 140.989118,107.952951 Z M152.920271,107.597203 L154.307687,101.300467 C154.497419,100.411098 154.728655,99.5335868 155.001395,98.6679339 C155.274135,97.802281 155.576521,96.9751674 155.908552,96.1865932 C156.240583,95.398019 156.587437,94.668736 156.949114,93.9987444 C157.310791,93.3287528 157.681362,92.7506627 158.060826,92.2644741 C158.44029,91.7782854 158.819754,91.3958566 159.199219,91.1171875 C159.578683,90.8385184 159.94036,90.6991839 160.284249,90.6991839 C160.628139,90.6991839 160.915702,90.7821917 161.146938,90.9482073 C161.378174,91.1142229 161.561977,91.3543527 161.698347,91.6685965 C161.834717,91.9828404 161.929583,92.3623047 161.982945,92.8069894 C162.036307,93.2516741 162.062988,93.7467564 162.062988,94.2922363 C163.462263,94.2922363 164.529506,93.9839216 165.264718,93.3672921 C165.99993,92.7506627 166.367536,91.8138602 166.367536,90.5568848 C166.367536,89.6319406 166.053292,88.9263742 165.424805,88.4401855 C164.796317,87.9539969 163.835798,87.7109026 162.543248,87.7109026 C161.689453,87.7109026 160.942383,87.8265206 160.302037,88.0577567 C159.661691,88.2889927 159.08953,88.6299177 158.585554,89.0805315 C158.081578,89.5311454 157.619106,90.0884835 157.198138,90.752546 C156.777169,91.4166085 156.359166,92.1873954 155.944127,93.0649065 L155.944127,93.0649065 L155.766253,93.0649065 L156.53111,88.0666504 L148.473424,88.0666504 L148.153251,90.0054757 L148.811384,90.0054757 C149.499163,90.0054757 149.991281,90.1033064 150.287737,90.2989676 C150.584194,90.4946289 150.732422,90.8177665 150.732422,91.2683803 C150.732422,91.529262 150.705741,91.8257185 150.652379,92.1577497 C150.599016,92.489781 150.554548,92.7565918 150.518973,92.9581822 L150.518973,92.9581822 L147.423968,107.597203 L152.920271,107.597203 Z" id="Reinserir" fill="#000000" fill-rule="nonzero"></path>
                <path d="M11.5874372,74.3672224 C12.3700823,74.3672224 13.0845424,74.2990374 13.7308175,74.1626674 C14.3770926,74.0262974 15.0055804,73.8158133 15.6162807,73.5312151 L15.6162807,73.5312151 L15.6162807,70.2583357 C15.6162807,69.9737374 15.6488909,69.7439837 15.7141113,69.5690744 C15.7793318,69.394165 15.8682687,69.2607596 15.9809222,69.1688581 C16.0935756,69.0769566 16.226981,69.016183 16.3811384,68.9865374 C16.5352958,68.9568917 16.6983468,68.9420689 16.8702916,68.9420689 L16.8702916,68.9420689 L16.9414411,68.9420689 L16.9414411,68.1772112 L12.2099958,68.1772112 L12.2099958,68.9420689 L12.2811454,68.9420689 C12.4827358,68.9420689 12.6739502,68.9568917 12.8547886,68.9865374 C13.0356271,69.016183 13.1942313,69.073992 13.3306013,69.1599644 C13.4669713,69.2459368 13.5751779,69.3704485 13.6552211,69.5334996 C13.7352644,69.6965506 13.775286,69.9114816 13.775286,70.1782924 L13.775286,70.1782924 L13.775286,73.1132115 C13.5203334,73.1902902 13.2283238,73.2466169 12.8992571,73.2821917 C12.5701904,73.3177665 12.2307478,73.3355539 11.8809291,73.3355539 C11.050851,73.3355539 10.3482492,73.2110421 9.7731236,72.9620187 C9.19799805,72.7129953 8.72959682,72.3483538 8.36791992,71.8680943 C8.00624302,71.3878348 7.74536133,70.7949219 7.58527483,70.0893555 C7.42518834,69.3837891 7.34514509,68.5774275 7.34514509,67.6702706 C7.34514509,66.7571847 7.42222377,65.9463763 7.57638114,65.2378453 C7.7305385,64.5293143 7.97956194,63.9334368 8.32345145,63.4502128 C8.66734096,62.9669887 9.11054339,62.5993827 9.65305873,62.3473947 C10.1955741,62.0954067 10.8522252,61.9694127 11.623012,61.9694127 C12.0676967,61.9694127 12.4441964,62.0390799 12.7525112,62.1784145 C13.0608259,62.317749 13.3098493,62.4985875 13.4995815,62.7209298 C13.6893136,62.9432722 13.8256836,63.1937779 13.9086914,63.472447 C13.9916992,63.7511161 14.0332031,64.0327497 14.0332031,64.3173479 C14.2703683,64.3173479 14.4912284,64.2877023 14.6957833,64.228411 C14.9003383,64.1691197 15.0782122,64.0846296 15.229405,63.9749407 C15.3805978,63.8652518 15.5006627,63.7318464 15.5895996,63.5747245 C15.6785366,63.4176025 15.723005,63.2412109 15.723005,63.0455497 C15.723005,62.7550223 15.6399972,62.4852469 15.4739816,62.2362235 C15.307966,61.9872001 15.0574602,61.7707868 14.7224644,61.5869838 C14.3874686,61.4031808 13.969465,61.2593994 13.4684535,61.1556396 C12.9674421,61.0518799 12.378976,61 11.7030552,61 C10.6535993,61 9.7316197,61.1630511 8.93711635,61.4891532 C8.142613,61.8152553 7.47706822,62.2717983 6.940482,62.8587821 C6.40389579,63.4457659 6.00071498,64.1483677 5.73093959,64.9665876 C5.4611642,65.7848075 5.32627651,66.6860352 5.32627651,67.6702706 C5.32627651,68.6722935 5.45375279,69.5853795 5.70870536,70.4095285 C5.96365792,71.2336775 6.35053362,71.9392439 6.86933245,72.5262277 C7.38813128,73.1132115 8.04033552,73.5667899 8.82594517,73.8869629 C9.61155483,74.2071359 10.5320522,74.3672224 11.5874372,74.3672224 Z M22.6135254,74.1893485 L22.6135254,73.4244908 L22.1065848,73.4244908 C21.9049944,73.4244908 21.71378,73.4111503 21.5329415,73.3844692 C21.3521031,73.3577881 21.1934989,73.3029436 21.0571289,73.2199358 C20.9207589,73.136928 20.8125523,73.0138986 20.7325091,72.8508475 C20.6524658,72.6877965 20.6124442,72.4728655 20.6124442,72.2060547 L20.6124442,72.2060547 L20.6124442,69.3422852 C20.6124442,69.1110491 20.6243025,68.853132 20.648019,68.5685338 C20.6717355,68.2839355 20.7117571,67.9978551 20.7680838,67.7102923 C20.8244106,67.4227295 20.8985247,67.1425781 20.9904262,66.8698382 C21.0823277,66.5970982 21.1949812,66.3554862 21.3283866,66.1450021 C21.461792,65.934518 21.6174316,65.7655378 21.7953055,65.6380615 C21.9731794,65.5105852 22.1747698,65.4468471 22.4000767,65.4468471 C22.7558245,65.4468471 23.0048479,65.5580183 23.147147,65.7803606 C23.2894461,66.002703 23.3605957,66.3658622 23.3605957,66.8698382 C23.6689104,66.8698382 23.9297921,66.8387102 24.1432408,66.7764544 C24.3566895,66.7141985 24.5315988,66.6252616 24.6679688,66.5096436 C24.8043387,66.3940255 24.9036516,66.2561733 24.9659075,66.0960868 C25.0281634,65.9360003 25.0592913,65.761091 25.0592913,65.5713588 C25.0592913,65.1503906 24.8977225,64.8242885 24.574585,64.5930525 C24.2514474,64.3618164 23.7578474,64.2461984 23.0937849,64.2461984 C22.6906041,64.2461984 22.3556083,64.2980783 22.0887974,64.401838 C21.8219866,64.5055978 21.598162,64.6478969 21.4173235,64.8287354 C21.2364851,65.0095738 21.08381,65.2200579 20.9592983,65.4601876 C20.8347866,65.7003174 20.7132394,65.9567522 20.5946568,66.2294922 L20.5946568,66.2294922 L20.5057199,66.2294922 L20.1588658,64.4240723 L17.3573521,64.4240723 L17.3573521,65.18893 L17.4107143,65.18893 C17.6123047,65.18893 17.8035191,65.2037528 17.9843576,65.2333984 C18.165196,65.2630441 18.3238002,65.3223354 18.4601702,65.4112723 C18.5965402,65.5002093 18.7047468,65.6262033 18.78479,65.7892543 C18.8648333,65.9523054 18.9048549,66.1672363 18.9048549,66.4340472 L18.9048549,66.4340472 L18.9048549,72.1171177 C18.9048549,72.401716 18.8648333,72.6299874 18.78479,72.8019322 C18.7047468,72.973877 18.5980225,73.1058001 18.464617,73.1977016 C18.3312116,73.2896031 18.1740897,73.3503767 17.9932513,73.3800223 C17.8124128,73.409668 17.6182338,73.4244908 17.4107143,73.4244908 L17.4107143,73.4244908 L17.3573521,73.4244908 L17.3573521,74.1893485 L22.6135254,74.1893485 Z M29.7708566,74.3672224 C30.0673131,74.3672224 30.3519113,74.3449881 30.6246512,74.3005197 C30.8973912,74.2560512 31.1582729,74.1730434 31.4072963,74.0514962 C31.6563198,73.9299491 31.8920027,73.7624512 32.114345,73.5490025 C32.3366874,73.3355539 32.53976,73.0568848 32.7235631,72.7129953 L32.7235631,72.7129953 L32.8125,72.7129953 L33.0526297,74.1893485 L35.9430804,74.1893485 L35.9430804,73.4244908 L35.8897182,73.4244908 C35.6881278,73.4244908 35.4969134,73.4111503 35.3160749,73.3844692 C35.1352365,73.3577881 34.9766323,73.3029436 34.8402623,73.2199358 C34.7038923,73.136928 34.5956857,73.0138986 34.5156424,72.8508475 C34.4355992,72.6877965 34.3955776,72.4728655 34.3955776,72.2060547 L34.3955776,72.2060547 L34.3955776,64.4240723 L31.1404855,64.4240723 L31.1404855,65.18893 L31.1938477,65.18893 C31.4013672,65.18893 31.5955462,65.2037528 31.7763846,65.2333984 C31.9572231,65.2630441 32.114345,65.3238177 32.2477504,65.4157192 C32.3811558,65.5076207 32.4878802,65.6410261 32.5679234,65.8159354 C32.6479667,65.9908447 32.6879883,66.2205985 32.6879883,66.5051967 L32.6879883,66.5051967 L32.6879883,70.2583357 C32.6879883,70.6970912 32.6435198,71.0973075 32.5545829,71.4589844 C32.4656459,71.8206613 32.3277937,72.1304583 32.1410261,72.3883754 C31.9542585,72.6462926 31.7170933,72.8464007 31.4295306,72.9886998 C31.1419678,73.1309989 30.796596,73.2021484 30.3934152,73.2021484 C30.0258092,73.2021484 29.7189767,73.147304 29.4729178,73.0376151 C29.226859,72.9279262 29.0311977,72.7663574 28.885934,72.5529088 C28.7406703,72.3394601 28.6369106,72.0785784 28.5746547,71.7702637 C28.5123989,71.4619489 28.4812709,71.1091657 28.4812709,70.7119141 L28.4812709,70.7119141 L28.4812709,64.4240723 L25.2172852,64.4240723 L25.2172852,65.18893 L25.2706473,65.18893 C25.4722377,65.18893 25.6634521,65.2037528 25.8442906,65.2333984 C26.025129,65.2630441 26.1837333,65.3223354 26.3201032,65.4112723 C26.4564732,65.5002093 26.5646798,65.6262033 26.6447231,65.7892543 C26.7247663,65.9523054 26.7647879,66.1672363 26.7647879,66.4340472 L26.7647879,66.4340472 L26.7647879,70.800851 C26.7647879,71.4234096 26.8314907,71.9599958 26.9648961,72.4106097 C27.0983015,72.8612235 27.2924805,73.2317941 27.547433,73.5223214 C27.8023856,73.8128488 28.1166295,74.0262974 28.4901646,74.1626674 C28.8636998,74.2990374 29.2905971,74.3672224 29.7708566,74.3672224 Z M41.0548619,78.565046 L41.0548619,77.8001883 L41.0014997,77.8001883 C40.7999093,77.8001883 40.6086949,77.7868478 40.4278564,77.7601667 C40.247018,77.7334856 40.0884138,77.6771589 39.9520438,77.5911865 C39.8156738,77.5052141 39.7074672,77.3807024 39.627424,77.2176514 C39.5473807,77.0546003 39.5073591,76.8396694 39.5073591,76.5728585 L39.5073591,76.5728585 L39.506865,74.7758382 C39.5062062,74.7356519 39.5048886,74.6869013 39.5029122,74.6295864 C39.4999477,74.543614 39.4969831,74.4472656 39.4940186,74.3405413 C39.491054,74.233817 39.4880894,74.1196812 39.4851249,73.9981341 C39.4821603,73.8765869 39.4777134,73.7594866 39.4717843,73.6468331 C39.4599261,73.3740932 39.4480678,73.0806013 39.4362095,72.7663574 L39.4362095,72.7663574 L39.5073591,72.7663574 C39.6377999,73.0035226 39.790475,73.2199358 39.9653843,73.4155971 C40.1402937,73.6112584 40.3418841,73.7802386 40.5701556,73.9225377 C40.798427,74.0648368 41.0548619,74.1745257 41.3394601,74.2516044 C41.6240583,74.328683 41.9412667,74.3672224 42.2910854,74.3672224 C42.8899275,74.3672224 43.4205845,74.2679095 43.8830566,74.0692836 C44.3455287,73.8706578 44.7338867,73.5638253 45.0481306,73.1487863 C45.3623744,72.7337472 45.6010219,72.2060547 45.764073,71.5657087 C45.927124,70.9253627 46.0086496,70.1664342 46.0086496,69.288923 C46.0086496,68.417341 45.927124,67.6643415 45.764073,67.0299247 C45.6010219,66.3955078 45.3623744,65.8722621 45.0481306,65.4601876 C44.7338867,65.0481131 44.3455287,64.742763 43.8830566,64.5441371 C43.4205845,64.3455113 42.8899275,64.2461984 42.2910854,64.2461984 C41.9353376,64.2461984 41.6151646,64.2891846 41.3305664,64.3751569 C41.0459682,64.4611293 40.7910156,64.5826765 40.5657087,64.7397984 C40.3404018,64.8969203 40.1417759,65.0881348 39.9698312,65.3134417 C39.7978864,65.5387486 39.6437291,65.7907366 39.5073591,66.0694057 L39.5073591,66.0694057 L39.4362095,66.0694057 L39.249442,64.4240723 L36.0654994,64.4240723 L36.0654994,65.18893 L36.2967355,65.18893 C36.4983259,65.18893 36.6895403,65.2037528 36.8703788,65.2333984 C37.0512172,65.2630441 37.2098214,65.3223354 37.3461914,65.4112723 C37.4825614,65.5002093 37.590768,65.6262033 37.6708112,65.7892543 C37.7508545,65.9523054 37.7908761,66.1672363 37.7908761,66.4340472 L37.7908761,66.4340472 L37.7908761,76.4839216 C37.7908761,76.7685198 37.7508545,76.9982736 37.6708112,77.1731829 C37.590768,77.3480922 37.4840437,77.4814976 37.3506383,77.5733991 C37.2172328,77.6653006 37.0601109,77.7260742 36.8792725,77.7557199 C36.698434,77.7853655 36.504255,77.8001883 36.2967355,77.8001883 L36.2967355,77.8001883 L36.1544364,77.8001883 L36.1544364,78.565046 L41.0548619,78.565046 Z M41.9975935,73.2021484 C41.517334,73.2021484 41.1186,73.1176583 40.8013916,72.9486782 C40.4841832,72.779698 40.2292306,72.5291922 40.0365339,72.197161 C39.8438372,71.8651297 39.7074672,71.4560198 39.627424,70.9698312 C39.5473807,70.4836426 39.5073591,69.9233398 39.5073591,69.288923 C39.5073591,68.6307896 39.5473807,68.0586286 39.627424,67.57244 C39.7074672,67.0862514 39.8423549,66.6830706 40.0320871,66.3628976 C40.2218192,66.0427246 40.4752895,65.8040771 40.7924979,65.6469552 C41.1097063,65.4898333 41.5054757,65.4112723 41.9798061,65.4112723 C42.3829869,65.4112723 42.7283587,65.4913156 43.0159215,65.6514021 C43.3034842,65.8114886 43.5376848,66.0516183 43.7185233,66.3717913 C43.8993617,66.6919643 44.0312849,67.0936628 44.1142927,67.5768869 C44.1973005,68.0601109 44.2388044,68.6248605 44.2388044,69.2711356 C44.2388044,69.9114816 44.1973005,70.4762312 44.1142927,70.9653843 C44.0312849,71.4545375 43.8993617,71.8651297 43.7185233,72.197161 C43.5376848,72.5291922 43.3064488,72.779698 43.0248152,72.9486782 C42.7431815,73.1176583 42.4007743,73.2021484 41.9975935,73.2021484 Z M51.6985212,74.3672224 C53.0977958,74.3672224 54.1605922,73.9492188 54.8869106,73.1132115 C55.6132289,72.2772042 55.9763881,71.0024414 55.9763881,69.288923 C55.9763881,68.4351283 55.8800398,67.6925049 55.6873431,67.0610526 C55.4946463,66.4296003 55.2159773,65.9048723 54.8513358,65.4868687 C54.4866943,65.0688651 54.0434919,64.7575858 53.5217285,64.5530308 C52.9999651,64.3484759 52.4100167,64.2461984 51.7518834,64.2461984 C50.3407506,64.2461984 49.2749895,64.6612374 48.5546003,65.4913156 C47.8342111,66.3213937 47.4740165,67.5872628 47.4740165,69.288923 C47.4740165,70.1427176 47.5703648,70.8883057 47.7630615,71.5256871 C47.9557582,72.1630685 48.2344273,72.6922433 48.5990688,73.1132115 C48.9637102,73.5341797 49.4069127,73.8484235 49.9286761,74.0559431 C50.4504395,74.2634626 51.0403878,74.3672224 51.6985212,74.3672224 Z M51.734096,73.4244908 C51.277553,73.4244908 50.8906773,73.3355539 50.5734689,73.15768 C50.2562605,72.9798061 49.9983433,72.7174421 49.7997175,72.370588 C49.6010917,72.023734 49.4573103,71.5923898 49.3683733,71.0765555 C49.2794364,70.5607213 49.2349679,69.9648438 49.2349679,69.288923 C49.2349679,68.6130022 49.2794364,68.0200893 49.3683733,67.5101842 C49.4573103,67.000279 49.5996094,66.574864 49.7952706,66.233939 C49.9909319,65.8930141 50.2458845,65.6365792 50.5601283,65.4646345 C50.8743722,65.2926897 51.2597656,65.2067174 51.7163086,65.2067174 C52.1728516,65.2067174 52.5597273,65.2926897 52.8769357,65.4646345 C53.1941441,65.6365792 53.450579,65.8930141 53.6462402,66.233939 C53.8419015,66.574864 53.9842006,67.000279 54.0731376,67.5101842 C54.1620745,68.0200893 54.206543,68.6130022 54.206543,69.288923 C54.206543,69.9648438 54.1635568,70.5607213 54.0775844,71.0765555 C53.991612,71.5923898 53.8507952,72.023734 53.6551339,72.370588 C53.4594727,72.7174421 53.2045201,72.9798061 52.8902762,73.15768 C52.5760324,73.3355539 52.190639,73.4244908 51.734096,73.4244908 Z" id="Grupo" fill="#000000" fill-rule="nonzero"></path>
            </g>
        </g>
    </g>
</svg>