<?xml version="1.0" encoding="UTF-8"?>
<svg width="282px" height="183px" viewBox="0 0 282 183" version="1.1" xmlns="http://www.w3.org/2000/svg" xmlns:xlink="http://www.w3.org/1999/xlink">
    <title>logo_horizontal</title>
    <defs>
        <path d="M50.1084,0 C51.1922727,25.9443902 53.3008364,49.1673171 60.1067455,59.8858537 C78.3195273,62.5526829 93,70 93,70 C78.8741455,66.5034146 64.5572182,64.6492683 50.0475273,64.4307317 L45.4296545,64.4170732 C30.4887818,64.5502439 15.345,66.4078049 0,69.9897561 C0,69.9897561 19.8428182,61.0058537 40.9132364,59.2456098 C45.8219455,48.9129268 48.7692,26.0092683 50.1084,0 Z" id="path-1"></path>
        <path d="M0,2.54987048 C0,2.54987048 2.93333333,0.00350016538 8.24666667,0 C14.445,0 20,4.57121599 20,4.57121599 C20,4.57121599 14.0933333,7.55160682 7.785,6.90932647 C2.57333333,6.37730133 0,2.54987048 0,2.54987048 Z" id="path-3"></path>
        <path d="M0,3.8576564 C0,3.8576564 3.66,-0.419234098 9.46333333,0.0335754835 C16.25,0.56318669 20,4.7696757 20,4.7696757 C20,4.7696757 16.2366667,8.53135529 8.11833333,7.9361427 C3.82666667,7.61933599 0,3.8576564 0,3.8576564 Z" id="path-5"></path>
        <path d="M0,3.91590326 C0,3.91590326 3.4442,-0.197388647 8.2807,0.00740078017 C13.1155,0.21043987 17,3.49932306 17,3.49932306 C17,3.49932306 11.8728,6.99824669 8.4983,7 C4.1038,7.0034977 0,3.91590326 0,3.91590326 Z" id="path-7"></path>
        <path d="M3.01437371,0 C3.01437371,0 15.5447555,5.59870588 16.7670245,14.355 C17.9875935,23.1147059 14.0147944,29 14.0147944,29 C14.0147944,29 2.70838148,24.9809412 0.569835789,17.2277059 C-1.57210982,9.47617647 3.01437371,0 3.01437371,0 Z" id="path-9"></path>
        <path d="M0.212818728,24 C0.212818728,24 -1.30183305,12.5914286 3.75040611,7.65771429 C8.80264526,2.72228571 16.8807881,0 16.8807881,0 C16.8807881,0 18.0588506,12.0017143 13.0083114,17.3605714 C8.79924537,21.8262857 0.212818728,24 0.212818728,24 Z" id="path-11"></path>
        <path d="M0.0165418787,0.0207242282 C0.515781431,-0.146817339 13.9326329,0.547041677 18.6644084,7.92056297 C22.2369328,13.4832815 21.9966209,21.5354307 21.9966209,21.5354307 C21.9966209,21.5354307 13.6720129,24.2245575 6.51004074,16.6631866 C-0.651931421,9.10350798 0.0165418787,0.0207242282 0.0165418787,0.0207242282 Z" id="path-13"></path>
        <path d="M0.258799863,14.9818128 C0.258799863,14.9818128 -1.00296851,8.01674485 2.04557589,4.60171154 C5.09412029,1.18334487 14,0 14,0 C14,0 14,9.59676025 9.77193842,12.4851218 C5.54387684,15.3768166 0.258799863,14.9818128 0.258799863,14.9818128 Z" id="path-15"></path>
        <path d="M0,18.7609826 C0,18.7609826 2.30605556,10.0123598 8.10305556,5.55773042 C17.5959444,-1.7330764 31,0.244647792 31,0.244647792 C31,0.244647792 27.3850556,16.2823501 15.5,18.2600743 C7.74311111,19.550345 0,18.7609826 0,18.7609826 Z" id="path-17"></path>
        <path d="M0,0.00122280975 C0,0.00122280975 16.3576667,-0.19710191 22.6420556,4.45769593 C30.5229444,10.2957757 31,19.6103712 31,19.6103712 C31,19.6103712 16.7313889,21.8419409 8.78677778,15.6238777 C2.02188889,10.3257744 0,0.00122280975 0,0.00122280975 Z" id="path-19"></path>
        <path d="M0,4.78863316 C0.226666667,4.47662194 5.25166667,-0.21474667 10.9983333,0.00766132335 C16.745,0.226869202 20,3.64779215 20,3.64779215 C20,3.64779215 15.1733333,7.87194397 9.99833333,7.99674846 C4.82666667,8.11835283 0,4.78863316 0,4.78863316 Z" id="path-21"></path>
        <path d="M0,13.7860806 C0,13.7860806 4.39264706,2.92131102 11.8371176,0.886397988 C21.4037059,-1.72991877 29,2.2787069 29,2.2787069 C29,2.2787069 24.0853529,15.4690914 14.4982941,16.7576996 C4.91464706,18.0446079 0,13.7860806 0,13.7860806 Z" id="path-23"></path>
        <path d="M27,6.74225698 C27,6.74225698 22.7053125,-0.0760243584 13.52025,0.000641723569 C4.3351875,0.0789744595 0,3.4039491 0,3.4039491 C0,3.4039491 7.5583125,10.4155623 14.4736875,9.98056562 C21.3958125,9.54890224 27,6.74225698 27,6.74225698 Z" id="path-25"></path>
        <path d="M20,4.77028475 C20,4.77028475 16.0133333,-0.212176297 9.365,0.00702638828 C2.71833333,0.223029035 0,3.48226897 0,3.48226897 C0,3.48226897 3.685,8.07272521 10.4516667,7.99912431 C16.2983333,7.93512352 20,4.77028475 20,4.77028475 Z" id="path-27"></path>
        <path d="M15,9.85188992 C15,9.85188992 7.68166667,10.7769109 4.145,8.0035147 C0.61,5.22678511 0,0 0,0 C0,0 8.32,0.0250005665 11.5983333,3.02840196 C14.8783333,6.03680347 15,9.85188992 15,9.85188992 Z" id="path-29"></path>
        <path d="M15,9.85188992 C15,9.85188992 7.68166667,10.7769109 4.145,8.0035147 C0.61,5.22678511 0,0 0,0 C0,0 8.32,0.0250005665 11.5983333,3.02840196 C14.8783333,6.03680347 15,9.85188992 15,9.85188992 Z" id="path-31"></path>
        <path d="M3.23708125,15 C3.23708125,15 -0.109260914,13.52 0.0027505395,8.93333333 C0.142764856,3.23 4.52871332,0 4.52871332,0 C4.52871332,0 7.42175913,6.56333333 6.94746063,9.47666667 C6.25088941,13.73 3.23708125,15 3.23708125,15 Z" id="path-33"></path>
        <path d="M31,2.00971547 C31,2.00971547 30.2508333,10.8254422 21.9755556,16.2160932 C14.012,21.4046596 0,17.7498638 0,17.7498638 C0,17.7498638 5.52144444,5.11870999 12.5808333,2.00971547 C22.8452778,-2.51214434 31,2.00971547 31,2.00971547 Z" id="path-35"></path>
        <path d="M0.00126701172,0.0774202563 C0.00126701172,0.0774202563 14.6517217,-1.11096266 19.3763476,5.82414986 C24.1009735,12.7592624 24,19 24,19 C24,19 8.85222623,19 4.32817406,12.7592624 C-0.195878119,6.51679746 0.00126701172,0.0774202563 0.00126701172,0.0774202563 Z" id="path-37"></path>
        <path d="M22.462637,47.3984581 L23.1559074,44.1220826 L21.104912,44.1220826 C20.4624928,44.1220826 19.8641445,44.0967367 19.3115623,44.046045 C18.7589801,43.997043 18.2809795,43.8973492 17.8792556,43.7469638 C17.4775317,43.5965783 17.1656448,43.3853628 16.94529,43.1150069 C16.72324,42.844651 16.6130626,42.4881191 16.6130626,42.0487908 C16.6130626,41.888267 16.6435733,41.6229803 16.7028996,41.2512409 C16.7639209,40.8811913 16.8740984,40.3252719 17.0351269,39.5834829 L19.4471653,28.3130214 L23.6983194,28.3130214 L27.5867354,40.3945506 C28.0494807,41.8578519 28.652914,43.0457282 29.3970355,43.9564896 C30.1394619,44.8689408 31.0751226,45.5803147 32.2006275,46.0906115 C33.3261324,46.6009082 34.6770773,46.9473017 36.2551572,47.1281022 C37.8332372,47.307213 39.6977784,47.3984581 41.848781,47.3984581 L42.48103,47.3984581 L43.1454847,44.1220826 L42.9030943,44.1220826 C42.1996538,44.1220826 41.5826601,44.0173197 41.0504183,43.8061041 C40.5164815,43.5965783 40.0249207,43.2451156 39.5723456,42.7550956 C39.1197706,42.2633858 38.6926212,41.6179111 38.2908973,40.815292 C37.8891734,40.0143627 37.4772793,39.0326328 37.0552149,37.8701024 L32.7735502,26.4188404 C34.0397432,26.1180695 35.3262767,25.6770514 36.6331506,25.097476 C37.9383295,24.5162108 39.1197706,23.7287992 40.175779,22.736931 C41.2300923,21.7450628 42.0945615,20.5183229 42.7674913,19.0550216 C43.4421163,17.5934101 43.7777337,15.8191995 43.7777337,13.7357694 C43.7777337,10.2887317 42.5623918,7.71359172 40.130013,6.01203929 C37.6976342,4.30879713 34.0194028,3.45717605 29.0953188,3.45717605 L9.25659983,3.45717605 L8.59214512,6.70313655 L9.37694749,6.70313655 C10.0193667,6.70313655 10.6177149,6.72679269 11.1702972,6.77748442 C11.7228794,6.82817615 12.1957949,6.92786989 12.5873485,7.07825536 C12.9789022,7.22864083 13.285704,7.44323582 13.5077539,7.72373007 C13.7281088,8.00422431 13.8382862,8.36582532 13.8382862,8.80684338 C13.8382862,9.14647798 13.7077683,9.84771359 13.4467325,10.9105502 L7.14627813,40.4553807 C6.98524957,41.2563101 6.71912868,41.8984053 6.34622043,42.378287 C5.97500721,42.8598585 5.53768754,43.2299081 5.0342614,43.4901257 C4.53253029,43.7520329 3.97486295,43.9210054 3.36125938,44.0021122 C2.74935084,44.0815292 2.12049192,44.1220826 1.47807271,44.1220826 L0.662759665,44.1220826 L0,47.3984581 L22.462637,47.3984581 Z M23.9695254,24.735875 L20.1404357,24.735875 L24.0898731,7.09346288 L27.2256924,7.09346288 C28.2511901,7.09346288 29.1444749,7.21850248 29.9089368,7.46858169 C30.6733987,7.71866089 31.3056477,8.13940226 31.8090739,8.73080579 C32.310805,9.32220931 32.6837132,10.0893442 32.9244085,11.0305206 C33.1651039,11.9716971 33.2854515,13.1342275 33.2854515,14.516422 C33.2854515,16.3599113 33.0447562,17.9279755 32.5616705,19.2206146 C32.0802799,20.5132538 31.4209103,21.5642623 30.5869518,22.3770197 C29.7529934,23.1880874 28.7681766,23.7845601 27.6325014,24.1647481 C26.4968263,24.5449361 25.2763993,24.735875 23.9695254,24.735875 Z M59.5093768,48 C61.6196985,48 63.4435589,47.7735769 64.9826529,47.3224205 C66.5200519,46.8712641 67.786245,46.301827 68.781232,45.60904 C69.776219,44.9179428 70.5152553,44.162636 70.996646,43.3397402 C71.4797317,42.5185342 71.720427,41.7378815 71.720427,40.9960925 C71.720427,40.4756574 71.6509305,39.9788784 71.5102424,39.5091351 C71.3678592,39.037702 71.178015,38.6524448 70.9373197,38.3516739 C70.4949149,38.9718027 69.9660632,39.5784138 69.3541546,40.1698173 C68.7405511,40.7612208 68.0472807,41.2917943 67.2726486,41.7632274 C66.4997115,42.2329707 65.6606679,42.6148485 64.7555179,42.905481 C63.8520629,43.1944239 62.8960617,43.3397402 61.8909045,43.3397402 C59.6398947,43.3397402 57.9567224,42.6942655 56.8413878,41.4016264 C55.7260531,40.1089872 55.1683857,38.2705671 55.1683857,35.886366 C55.1683857,35.5467314 55.1734709,35.1699229 55.1836411,34.7593199 C55.1938113,34.3487169 55.2277121,33.943183 55.2887334,33.5427183 C55.6701168,33.581582 56.0616705,33.6018587 56.4650894,33.6018587 L57.5804241,33.6018587 C60.2331578,33.6018587 62.6858771,33.2622241 64.9368869,32.5812652 C67.1878967,31.8986165 69.1270196,30.9827859 70.7559507,29.8303939 C72.3831867,28.6780019 73.6595499,27.3414299 74.5850404,25.8172986 C75.5088358,24.2948569 75.9715811,22.7014468 75.9715811,21.0387581 C75.9715811,18.7542507 75.1579631,16.9766607 73.529032,15.7042982 C71.901796,14.4319358 69.6101053,13.7949097 66.6556549,13.7949097 C64.3843047,13.7949097 62.2892383,14.1108882 60.3687608,14.7428451 C58.4499784,15.3731123 56.715955,16.2298025 55.1683857,17.3129158 C53.6208165,18.3943394 52.2580063,19.6514943 51.0833454,21.0843806 C49.9069893,22.5172669 48.9221725,24.0295702 48.1271999,25.6229803 C47.3339224,27.2163903 46.7355741,28.8435949 46.3338503,30.5062837 C45.9321264,32.1689724 45.7304169,33.7623825 45.7304169,35.2848242 C45.7304169,37.4290844 46.0931549,39.2979195 46.8169359,40.8913296 C47.540717,42.4847397 48.5306189,43.8061041 49.7866417,44.8588024 C51.0426645,45.909811 52.5054818,46.6972225 54.1733987,47.2176576 C55.8413156,47.7380927 57.61941,48 59.5093768,48 Z M56.2837204,30.0264019 L55.7413084,30.0264019 C55.9820038,28.5631006 56.3633872,27.0845918 56.8871538,25.5925652 C57.4092253,24.1005386 58.0329991,22.7521386 58.7550851,21.5507445 C59.4788661,20.3476608 60.2941792,19.3710001 61.1976342,18.6190728 C62.1027842,17.8688351 63.0570903,17.4920266 64.0622475,17.4920266 C65.0267239,17.4920266 65.7759305,17.8434893 66.3081722,18.5447249 C66.840414,19.2459605 67.1082299,20.2276904 67.1082299,21.4899145 C67.1082299,22.7926919 66.8302438,23.9653607 66.2776616,25.0062309 C65.7250793,26.0487908 64.9623125,26.9443447 63.9876659,27.696272 C63.0113243,28.4481994 61.867174,29.0243954 60.5501298,29.4248601 C59.2330857,29.8253247 57.8109492,30.0264019 56.2837204,30.0264019 Z M88.9284478,8.86598374 C89.6725692,8.86598374 90.3963503,8.76629 91.0997908,8.5652128 C91.8032314,8.36582532 92.4320903,8.05998521 92.9846725,7.64938219 C93.5372548,7.23877917 93.9796595,6.71834407 94.3101919,6.08638716 C94.6424192,5.45443025 94.8085329,4.71940015 94.8085329,3.87791741 C94.8085329,3.19526877 94.6729299,2.61062414 94.4017239,2.11891435 C94.1305179,1.62889429 93.7677799,1.22167071 93.3152048,0.90231281 C92.8643249,0.581265181 92.3405583,0.351462668 91.7489902,0.211215545 C91.1557271,0.0709684233 90.5268681,0 89.8641085,0 C89.0996466,0 88.3656953,0.0946245644 87.6622548,0.285563417 C86.9588142,0.476502271 86.3469057,0.777273207 85.8231391,1.18787623 C85.3010675,1.59847925 84.8840883,2.11891435 84.5722014,2.75087126 C84.2603145,3.38113845 84.104371,4.14827331 84.104371,5.0488964 C84.104371,5.69099166 84.2314988,6.25198015 84.4823644,6.73186187 C84.7332299,7.21343331 85.0756275,7.61389798 85.5078621,7.93494561 C85.9400967,8.25599324 86.4469129,8.49086493 87.0300058,8.6412504 C87.6130987,8.79163586 88.2453477,8.86598374 88.9284478,8.86598374 Z M85.9146711,48 C87.040176,48 88.0690638,47.8783398 89.0047245,47.638399 C89.9386901,47.3984581 90.7980741,47.0774105 91.5828765,46.6769458 C92.3659838,46.2764811 93.0694244,45.8202556 93.6931982,45.3099588 C94.315277,44.7979723 94.8695542,44.2826064 95.3509449,43.7604816 L93.8745672,41.6871898 C93.1711267,42.1484845 92.5473529,42.4982575 92.0049409,42.7398881 C91.4625289,42.9798289 90.8692657,43.0997993 90.2251515,43.0997993 C89.5420514,43.0997993 89.0148947,42.8598585 88.6419864,42.378287 C88.2707732,41.8984053 88.0843191,41.2073081 88.0843191,40.3049952 C88.0843191,39.4432358 88.1656809,38.5274052 88.3267095,37.554124 C88.487738,36.5825325 88.6877525,35.5365931 88.9284478,34.4146161 L93.2101125,14.3964516 L78.5582083,14.3964516 L78.0141013,17.6728271 L79.131131,17.6728271 C79.7125289,17.6728271 80.2108699,17.7032422 80.622764,17.7623825 C81.0346581,17.8232126 81.3719706,17.943183 81.6330063,18.1239835 C81.8940421,18.304784 82.0855814,18.5650016 82.205929,18.9046362 C82.3262767,19.2459605 82.387298,19.6971169 82.387298,20.2581054 C82.387298,20.3375224 82.3771278,20.4676312 82.3567874,20.6484317 C82.3364469,20.8292322 82.3059362,21.0438272 82.2652553,21.2939064 C82.2262695,21.5456754 82.1805035,21.8109621 82.1296523,22.0914563 C82.0804962,22.3719506 82.02456,22.6423065 81.9652337,22.902524 L79.5531953,34.353786 C79.2107977,35.9167811 78.9599322,37.309114 78.7989036,38.5307847 C78.6378751,39.7541451 78.5582083,40.8051537 78.5582083,41.6871898 C78.5582083,43.6709262 79.1904573,45.2187137 80.4566503,46.3305523 C81.7228433,47.442391 83.5416186,48 85.9146711,48 Z M125.585329,48 C126.710834,48 127.744807,47.8783398 128.690638,47.638399 C129.634774,47.3984581 130.494158,47.0774105 131.26879,46.6769458 C132.041727,46.2764811 132.740082,45.8202556 133.363856,45.3099588 C133.985935,44.7979723 134.540212,44.2826064 135.021603,43.7604816 L133.545225,41.6871898 C132.841784,42.1484845 132.223096,42.4982575 131.690854,42.7398881 C131.156917,42.9798289 130.570434,43.0997993 129.92632,43.0997993 C129.222879,43.0997993 128.685553,42.8598585 128.312644,42.378287 C127.941431,41.8984053 127.754977,41.2073081 127.754977,40.3049952 C127.754977,39.4432358 127.836339,38.5274052 127.997367,37.554124 C128.158396,36.5825325 128.35841,35.5365931 128.599106,34.4146161 L129.987341,27.83145 C130.087349,27.2907382 130.202611,26.7196114 130.333129,26.1180695 C130.463647,25.5182173 130.583995,24.9166755 130.695867,24.3151336 C130.806044,23.7135917 130.895881,23.1188087 130.967073,22.5274052 C131.03657,21.9360017 131.072165,21.3800824 131.072165,20.8579575 C131.072165,19.9167811 130.951818,19.0195374 130.711122,18.1696061 C130.468732,17.317985 130.072093,16.5660577 129.519511,15.9138241 C128.966929,15.2632802 128.243148,14.7479142 127.348168,14.3660365 C126.454883,13.9858486 125.353109,13.7949097 124.04793,13.7949097 C122.680035,13.7949097 121.429097,13.940226 120.293422,14.2308586 C119.157747,14.5214912 118.106823,14.9625092 117.142347,15.5539128 C116.177871,16.1453163 115.277806,16.8921745 114.443847,17.7927975 C113.609889,18.6951104 112.801356,19.7562573 112.016554,20.9796177 L111.625,20.9796177 L112.31827,14.3964516 L98.6003318,14.3964516 L98.0579198,17.6728271 L99.1732545,17.6728271 C99.7563474,17.6728271 100.252993,17.7032422 100.664887,17.7623825 C101.078477,17.8232126 101.414094,17.943183 101.67513,18.1239835 C101.936166,18.304784 102.127705,18.5650016 102.248053,18.9046362 C102.3684,19.2459605 102.429422,19.6971169 102.429422,20.2581054 C102.429422,20.3375224 102.419251,20.4676312 102.398911,20.6484317 C102.37857,20.8292322 102.349755,21.0438272 102.309074,21.2939064 C102.268393,21.5456754 102.222627,21.8109621 102.173471,22.0914563 C102.12262,22.3719506 102.068379,22.6423065 102.007357,22.902524 L96.8222374,47.3984581 L106.077142,47.3984581 L109.212962,33.121977 C109.394331,32.3193579 109.655366,31.4187348 109.997764,30.4167283 C110.338467,29.4147217 110.745276,28.3924385 111.218191,27.3515683 C111.691106,26.3090083 112.218263,25.2917943 112.801356,24.2999261 C113.384449,23.3080579 113.996357,22.4260218 114.640472,21.6555074 C115.282891,20.8833034 115.952431,20.2631746 116.645701,19.7917415 C117.338971,19.3203084 118.037327,19.0854367 118.740767,19.0854367 C119.283179,19.0854367 119.720499,19.1952688 120.052726,19.4166227 C120.383259,19.6362868 120.64599,19.9167811 120.835834,20.2581054 C121.027373,20.59774 121.157891,20.9796177 121.227387,21.4003591 C121.298579,21.8211004 121.334175,22.2215651 121.334175,22.6017531 C121.334175,23.1036012 121.288409,23.6696589 121.198572,24.2999261 C121.10704,24.931883 121.001947,25.5621502 120.8816,26.1941071 C120.761252,26.8243743 120.640905,27.4309853 120.518862,28.0122505 C120.398514,28.5935157 120.298507,29.0835357 120.21884,29.4840004 L119.223853,34.353786 C118.559398,37.4797761 118.228866,39.9248073 118.228866,41.6871898 C118.228866,43.6709262 118.861115,45.2187137 120.127308,46.3305523 C121.393501,47.442391 123.212276,48 125.585329,48 Z M146.924156,48 C149.397216,48 151.566864,47.7533002 153.43649,47.2632802 C155.306117,46.7715704 156.874026,46.0652656 158.140219,45.1443658 C159.406412,44.2217763 160.355633,43.0997993 160.989577,41.7784349 C161.621826,40.4553807 161.938798,38.9616644 161.938798,37.2989756 C161.938798,36.1567219 161.782855,35.1209209 161.470968,34.1881931 C161.160776,33.2571549 160.687861,32.3953955 160.053917,31.6029148 C159.421668,30.8121238 158.623305,30.0804731 157.657134,29.4096526 C156.692657,28.738832 155.546812,28.1018059 154.221293,27.5019537 C153.014426,26.9595522 151.968588,26.4746013 151.085473,26.0437216 C150.200664,25.6128419 149.471797,25.176893 148.898875,24.735875 C148.325952,24.2948569 147.903888,23.8251135 147.632682,23.3232654 C147.361476,22.823107 147.225873,22.2317035 147.225873,21.5507445 C147.225873,20.9492027 147.34622,20.3882142 147.586916,19.8677791 C147.829306,19.3456542 148.175094,18.8894287 148.627669,18.4991023 C149.080244,18.108776 149.622656,17.7978667 150.2566,17.5680642 C150.888849,17.336572 151.607545,17.2216707 152.410992,17.2216707 C153.295802,17.2216707 154.039924,17.4328863 154.643357,17.8536276 C155.245095,18.274369 155.738351,18.8252191 156.119735,19.5061781 C156.501118,20.187137 156.774019,20.9441335 156.933353,21.7754779 C157.094381,22.6068223 157.175743,23.4330975 157.175743,24.2543035 C159.365731,24.2543035 161.09467,23.8842539 162.360863,23.1424649 C163.627056,22.4023656 164.261,21.2094202 164.261,19.5670081 C164.261,18.8252191 164.064375,18.1037068 163.672822,17.4024712 C163.281268,16.7012356 162.637154,16.0844862 161.742174,15.5539128 C160.848889,15.0233393 159.682703,14.5975288 158.245312,14.2764811 C156.80792,13.9554335 155.055251,13.7949097 152.983915,13.7949097 C150.814267,13.7949097 148.868364,14.0213328 147.149596,14.4724892 C145.432523,14.9219559 143.969706,15.5741895 142.762839,16.4258105 C141.557667,17.2774316 140.632177,18.304784 139.989758,19.5061781 C139.345643,20.7092618 139.025281,22.0610413 139.025281,23.5632063 C139.025281,24.76629 139.21004,25.8477136 139.582949,26.8091668 C139.954162,27.7723096 140.481319,28.6425177 141.166114,29.4248601 C141.849214,30.2055127 142.678087,30.9168867 143.652734,31.5589819 C144.62738,32.1993875 145.717289,32.8009293 146.924156,33.3619178 C148.129328,33.943183 149.170081,34.4636181 150.04472,34.9249129 C150.919359,35.3862076 151.643141,35.8508818 152.216063,36.3223149 C152.788986,36.793748 153.21105,37.2989756 153.482256,37.8396874 C153.753462,38.3820889 153.889065,39.0022178 153.889065,39.7034534 C153.889065,40.4452424 153.738207,41.1008554 153.43649,41.6719823 C153.134774,42.2431091 152.722879,42.7246805 152.200808,43.1150069 C151.677041,43.5053332 151.054962,43.8061041 150.331181,44.0173197 C149.6074,44.2268455 148.824293,44.3316084 147.980164,44.3316084 C146.852965,44.3316084 145.903744,44.1068751 145.130806,43.6557187 C144.356174,43.2045623 143.72901,42.5945718 143.245925,41.8223677 C142.762839,41.0518534 142.411966,40.1647481 142.189916,39.1627416 C141.969561,38.160735 141.859384,37.1097265 141.859384,36.0063365 C141.035596,36.0063365 140.225368,36.1026508 139.43209,36.2918999 C138.637118,36.4828387 137.933677,36.7836097 137.321769,37.1942127 C136.708165,37.6048157 136.211519,38.1404583 135.828441,38.8028303 C135.447057,39.4635125 135.255518,40.2745802 135.255518,41.2360334 C135.255518,42.29887 135.531809,43.2501848 136.084391,44.0916675 C136.638668,44.9331503 137.421776,45.6445242 138.437103,46.2257894 C139.452431,46.8070546 140.677943,47.2480727 142.115335,47.5488436 C143.552726,47.8496145 145.154537,48 146.924156,48 Z M180.384196,48 C182.494518,48 184.318379,47.7735769 185.855778,47.3224205 C187.393177,46.8712641 188.65937,46.301827 189.654357,45.60904 C190.649344,44.9179428 191.38838,44.162636 191.871466,43.3397402 C192.352856,42.5185342 192.595247,41.7378815 192.595247,40.9960925 C192.595247,40.4756574 192.524055,39.9788784 192.383367,39.5091351 C192.242679,39.037702 192.05114,38.6524448 191.810444,38.3516739 C191.36804,38.9718027 190.840883,39.5784138 190.227279,40.1698173 C189.615371,40.7612208 188.9221,41.2917943 188.147468,41.7632274 C187.374531,42.2329707 186.533793,42.6148485 185.630338,42.905481 C184.725188,43.1944239 183.770881,43.3397402 182.765724,43.3397402 C180.514714,43.3397402 178.831542,42.6942655 177.716207,41.4016264 C176.600873,40.1089872 176.04151,38.2705671 176.04151,35.886366 C176.04151,35.5467314 176.046595,35.1699229 176.056766,34.7593199 C176.066936,34.3487169 176.102532,33.943183 176.163553,33.5427183 C176.544937,33.581582 176.93649,33.6018587 177.338214,33.6018587 L178.453549,33.6018587 C181.107977,33.6018587 183.559002,33.2622241 185.810012,32.5812652 C188.062716,31.8986165 190.001839,30.9827859 191.63077,29.8303939 C193.258006,28.6780019 194.53437,27.3414299 195.45986,25.8172986 C196.383656,24.2948569 196.846401,22.7014468 196.846401,21.0387581 C196.846401,18.7542507 196.031088,16.9766607 194.403852,15.7042982 C192.774921,14.4319358 190.484925,13.7949097 187.52878,13.7949097 C185.257429,13.7949097 183.162363,14.1108882 181.24358,14.7428451 C179.323103,15.3731123 177.590775,16.2298025 176.04151,17.3129158 C174.493941,18.3943394 173.132826,19.6514943 171.95647,21.0843806 C170.781809,22.5172669 169.795297,24.0295702 169.00202,25.6229803 C168.208742,27.2163903 167.610394,28.8435949 167.20867,30.5062837 C166.806946,32.1689724 166.605237,33.7623825 166.605237,35.2848242 C166.605237,37.4290844 166.96628,39.2979195 167.690061,40.8913296 C168.413842,42.4847397 169.403744,43.8061041 170.659766,44.8588024 C171.917484,45.909811 173.378606,46.6972225 175.046523,47.2176576 C176.716135,47.7380927 178.49423,48 180.384196,48 Z M177.15854,30.0264019 L176.614433,30.0264019 C176.856823,28.5631006 177.238207,27.0845918 177.760278,25.5925652 C178.284045,24.1005386 178.906124,22.7521386 179.629905,21.5507445 C180.353686,20.3476608 181.167304,19.3710001 182.072454,18.6190728 C182.977604,17.8688351 183.93191,17.4920266 184.937067,17.4920266 C185.901544,17.4920266 186.65075,17.8434893 187.182992,18.5447249 C187.715234,19.2459605 187.981355,20.2276904 187.981355,21.4899145 C187.981355,22.7926919 187.705063,23.9653607 187.152481,25.0062309 C186.599899,26.0487908 185.835437,26.9443447 184.860791,27.696272 C183.886144,28.4481994 182.740299,29.0243954 181.42495,29.4248601 C180.107905,29.8253247 178.685769,30.0264019 177.15854,30.0264019 Z M206.969165,47.3984581 L209.321877,36.7582638 C209.642239,35.2560988 210.035488,33.7725209 210.496538,32.3092196 C210.959283,30.847608 211.471184,29.4502059 212.033937,28.1170134 C212.596689,26.7855106 213.184867,25.5520118 213.798471,24.4198965 C214.412074,23.2877812 215.039238,22.3111205 215.683353,21.4899145 C216.325772,20.6687084 216.969886,20.021544 217.612305,19.5518006 C218.254724,19.0803675 218.868328,18.8454958 219.451421,18.8454958 C220.034514,18.8454958 220.522685,18.985743 220.914238,19.2662372 C221.305792,19.5467314 221.617679,19.9522653 221.848204,20.4828387 C222.078729,21.0134122 222.239758,21.6555074 222.33129,22.4074348 C222.421127,23.1576724 222.466893,23.994086 222.466893,24.9166755 C224.83825,24.9166755 226.646855,24.3945506 227.894403,23.3536804 C229.140255,22.3111205 229.762334,20.7278488 229.762334,18.6038652 C229.762334,17.0408702 229.230092,15.8496145 228.165609,15.0284085 C227.09943,14.2072025 225.472194,13.7949097 223.280511,13.7949097 C221.832949,13.7949097 220.566756,13.9909177 219.481932,14.3812441 C218.395413,14.7732601 217.425851,15.3477664 216.571552,16.1098321 C215.717253,16.8718978 214.934146,17.8130742 214.220535,18.9350512 C213.506924,20.0570282 212.798399,21.3598057 212.094958,22.8416939 L211.793241,22.8416939 L213.089945,14.3964516 L199.431333,14.3964516 L198.888921,17.6728271 L200.004256,17.6728271 C201.170441,17.6728271 202.0044,17.8384201 202.507826,18.1696061 C203.009557,18.4991023 203.260423,19.0448833 203.260423,19.806949 C203.260423,20.2479671 203.216352,20.7481255 203.12482,21.309114 C203.034983,21.8701024 202.958706,22.3212588 202.89938,22.6625832 L197.653239,47.3984581 L206.969165,47.3984581 Z M241.997115,8.86598374 C242.741236,8.86598374 243.463322,8.76629 244.168458,8.5652128 C244.871898,8.36582532 245.499062,8.05998521 246.051645,7.64938219 C246.604227,7.23877917 247.046632,6.71834407 247.378859,6.08638716 C247.711086,5.45443025 247.875505,4.71940015 247.875505,3.87791741 C247.875505,3.19526877 247.739902,2.61062414 247.468696,2.11891435 C247.19749,1.62889429 246.836447,1.22167071 246.383872,0.90231281 C245.931297,0.581265181 245.409225,0.351462668 244.815962,0.211215545 C244.222699,0.0709684233 243.595535,0 242.93108,0 C242.168314,0 241.434362,0.0946245644 240.730922,0.285563417 C240.027481,0.476502271 239.413878,0.777273207 238.891806,1.18787623 C238.36804,1.59847925 237.95106,2.11891435 237.640868,2.75087126 C237.328982,3.38113845 237.173038,4.14827331 237.173038,5.0488964 C237.173038,5.69099166 237.298471,6.25198015 237.549336,6.73186187 C237.800202,7.21343331 238.1426,7.61389798 238.574834,7.93494561 C239.007069,8.25599324 239.513885,8.49086493 240.096978,8.6412504 C240.680071,8.79163586 241.314015,8.86598374 241.997115,8.86598374 Z M238.981643,48 C240.107148,48 241.137731,47.8783398 242.071696,47.638399 C243.007357,47.3984581 243.866741,47.0774105 244.649849,46.6769458 C245.434651,46.2764811 246.138091,45.8202556 246.76017,45.3099588 C247.383944,44.7979723 247.936526,44.2826064 248.419612,43.7604816 L246.941539,41.6871898 C246.238099,42.1484845 245.614325,42.4982575 245.071913,42.7398881 C244.529501,42.9798289 243.936238,43.0997993 243.293819,43.0997993 C242.609023,43.0997993 242.081867,42.8598585 241.710653,42.378287 C241.337745,41.8984053 241.152986,41.2073081 241.152986,40.3049952 C241.152986,39.4432358 241.232653,38.5274052 241.393681,37.554124 C241.55471,36.5825325 241.75642,35.5365931 241.997115,34.4146161 L246.27878,14.3964516 L231.62518,14.3964516 L231.082768,17.6728271 L232.198103,17.6728271 C232.781196,17.6728271 233.277842,17.7032422 233.689736,17.7623825 C234.10163,17.8232126 234.438943,17.943183 234.699978,18.1239835 C234.961014,18.304784 235.152553,18.5650016 235.272901,18.9046362 C235.393249,19.2459605 235.45427,19.6971169 235.45427,20.2581054 C235.45427,20.3375224 235.4441,20.4676312 235.423759,20.6484317 C235.403419,20.8292322 235.374603,21.0438272 235.333922,21.2939064 C235.293241,21.5456754 235.247475,21.8109621 235.198319,22.0914563 C235.147468,22.3719506 235.091532,22.6423065 235.032206,22.902524 L232.620167,34.353786 C232.27777,35.9167811 232.026904,37.309114 231.865876,38.5307847 C231.704847,39.7541451 231.62518,40.8051537 231.62518,41.6871898 C231.62518,43.6709262 232.259124,45.2187137 233.525317,46.3305523 C234.79151,47.442391 236.610286,48 238.981643,48 Z M259.205136,47.3984581 L261.557848,36.7582638 C261.87821,35.2560988 262.271458,33.7725209 262.732509,32.3092196 C263.195254,30.847608 263.707155,29.4502059 264.271603,28.1170134 C264.834355,26.7855106 265.420838,25.5520118 266.034442,24.4198965 C266.648045,23.2877812 267.275209,22.3111205 267.919323,21.4899145 C268.561743,20.6687084 269.205857,20.021544 269.848276,19.5518006 C270.49239,19.0803675 271.104299,18.8454958 271.687392,18.8454958 C272.270485,18.8454958 272.758656,18.985743 273.150209,19.2662372 C273.541763,19.5467314 273.85365,19.9522653 274.084175,20.4828387 C274.316395,21.0134122 274.477424,21.6555074 274.567261,22.4074348 C274.657098,23.1576724 274.702864,23.994086 274.702864,24.9166755 C277.074221,24.9166755 278.882826,24.3945506 280.130374,23.3536804 C281.376226,22.3111205 282,20.7278488 282,18.6038652 C282,17.0408702 281.466063,15.8496145 280.40158,15.0284085 C279.335401,14.2072025 277.708165,13.7949097 275.516482,13.7949097 C274.06892,13.7949097 272.802726,13.9909177 271.717902,14.3812441 C270.633078,14.7732601 269.661822,15.3477664 268.809218,16.1098321 C267.954919,16.8718978 267.170117,17.8130742 266.456506,18.9350512 C265.742895,20.0570282 265.03437,21.3598057 264.330929,22.8416939 L264.029212,22.8416939 L265.325916,14.3964516 L251.667304,14.3964516 L251.124892,17.6728271 L252.240226,17.6728271 C253.406412,17.6728271 254.240371,17.8384201 254.743797,18.1696061 C255.245528,18.4991023 255.496394,19.0448833 255.496394,19.806949 C255.496394,20.2479671 255.452323,20.7481255 255.360791,21.309114 C255.270954,21.8701024 255.196372,22.3212588 255.135351,22.6625832 L249.889209,47.3984581 L259.205136,47.3984581 Z" id="path-39"></path>
        <path d="M10.6307206,22.8300598 C11.9601974,22.8300598 13.1742152,22.7139197 14.271076,22.4816396 C15.3679368,22.2476516 16.4359329,21.8889838 17.4716683,21.4022203 L17.4716683,15.8121264 C17.4716683,15.3270709 17.5276999,14.9342442 17.6380652,14.6353544 C17.7484304,14.3364646 17.8995459,14.1093083 18.0914116,13.9521776 C18.2832774,13.795047 18.5091017,13.6908625 18.7705824,13.6396243 C19.0320632,13.5900939 19.3088253,13.5644748 19.6008687,13.5644748 L19.7214215,13.5644748 L19.7214215,12.2578992 L11.6885291,12.2578992 L11.6885291,13.5644748 L11.8090819,13.5644748 C12.1520632,13.5644748 12.4763672,13.5900939 12.783692,13.6396243 C13.0910168,13.6908625 13.3592892,13.7899231 13.5919052,13.9368061 C13.8228233,14.0836892 14.0061994,14.295474 14.1420336,14.5738685 C14.2778677,14.853971 14.3457848,15.2194705 14.3457848,15.675491 L14.3457848,20.6883006 C13.9128134,20.8198121 13.4170188,20.9171648 12.8584008,20.9769428 C12.2997828,21.0384287 11.7241856,21.0691716 11.1299112,21.0691716 C9.72063179,21.0691716 8.52698914,20.8556789 7.55068115,20.4304014 C6.57437315,20.0051238 5.77974334,19.381725 5.16509378,18.5619129 C4.55044423,17.7421008 4.10728529,16.7292912 3.83561698,15.5234842 C3.56394867,14.3193851 3.42811451,12.941076 3.42811451,11.3919727 C3.42811451,9.83262169 3.55885489,8.44748079 3.82033564,7.2382579 C4.08351431,6.02732707 4.50629812,5.00939368 5.08868707,4.18445773 C5.67277394,3.35952178 6.4266535,2.73099915 7.34692991,2.30059778 C8.26890424,1.87019641 9.38274432,1.65499573 10.691846,1.65499573 C11.4474235,1.65499573 12.085844,1.77455167 12.6105035,2.01195559 C13.133465,2.25106746 13.5562488,2.56020495 13.8788549,2.93936806 C14.1997631,3.31853117 14.4323791,3.74722459 14.573307,4.22203245 C14.7142349,4.69854825 14.78385,5.18018787 14.78385,5.66524338 C15.1862586,5.66524338 15.5615005,5.61571307 15.9095755,5.51323655 C16.2559526,5.41246798 16.5581836,5.26900085 16.8145706,5.08112724 C17.0726555,4.89325363 17.2764067,4.66609735 17.4275222,4.39795047 C17.5786377,4.12980359 17.6533465,3.82749787 17.6533465,3.49444919 C17.6533465,2.99743809 17.5124186,2.53629377 17.2305627,2.11101623 C16.9487068,1.68573868 16.5225271,1.31682323 15.9537216,1.00256191 C15.3849161,0.688300598 14.6751826,0.44235696 13.8245212,0.266438941 C12.9738598,0.0888129804 11.9754788,0 10.8276802,0 C9.04655479,0 7.48106614,0.278394535 6.13121422,0.835183604 C4.78306022,1.39197267 3.65224087,2.17250213 2.7404541,3.17506405 C1.83036525,4.17762596 1.14610069,5.3766012 0.687660415,6.77540564 C0.229220138,8.17250213 0,9.71135781 0,11.3919727 C0,13.1033305 0.21733465,14.6626815 0.650306022,16.0700256 C1.08327739,17.4790777 1.74037512,18.6831768 2.61990128,19.6857387 C3.50112537,20.6883006 4.60817374,21.4637062 5.94274432,22.0102477 C7.27731491,22.5567891 8.8394077,22.8300598 10.6307206,22.8300598 Z M29.3537611,22.5260461 L29.3537611,21.2194705 L28.4929121,21.2194705 C28.1499309,21.2194705 27.8256269,21.1972673 27.5183021,21.1511529 C27.2109773,21.1067464 26.9427048,21.0128096 26.7100888,20.8710504 C26.4791708,20.7292912 26.2957947,20.5192143 26.1599605,20.2408198 C26.0224284,19.9624253 25.9545114,19.5952178 25.9545114,19.1391973 L25.9545114,14.2476516 C25.9545114,13.853117 25.9748865,13.412468 26.0156367,12.9257045 C26.056387,12.440649 26.124304,11.9521776 26.219388,11.4602904 C26.3144719,10.970111 26.4418164,10.4918873 26.5963277,10.0256191 C26.752537,9.55935098 26.9444028,9.14602904 27.170227,8.78736123 C27.3977493,8.42698548 27.6609279,8.1383433 27.9631589,7.92143467 C28.2653899,7.70452605 28.6083712,7.59521776 28.9904047,7.59521776 C29.5948667,7.59521776 30.0176505,7.78479932 30.2587562,8.16396243 C30.4998618,8.54483348 30.6221125,9.1648164 30.6221125,10.0256191 C31.145074,10.0256191 31.588233,9.97267293 31.9498914,9.86507259 C32.3132478,9.75918019 32.610385,9.60717336 32.8413031,9.41076003 C33.0722211,9.21263877 33.2420138,8.97694278 33.3472853,8.70367208 C33.4525568,8.43040137 33.5051925,8.13151153 33.5051925,7.80700256 C33.5051925,7.08795901 33.2318263,6.53116994 32.6833959,6.13663535 C32.1332675,5.74210077 31.2961895,5.5439795 30.168766,5.5439795 C29.4845015,5.5439795 28.915696,5.63279249 28.4623495,5.81041845 C28.009003,5.98804441 27.6286673,6.23057216 27.3213425,6.53970965 C27.0140178,6.84884714 26.7559329,7.20751494 26.543692,7.61742101 C26.3331491,8.02732707 26.126002,8.46626815 25.9256466,8.93082835 L25.7745311,8.93082835 L25.1853504,5.84799317 L20.4277591,5.84799317 L20.4277591,7.15456874 L20.5194472,7.15456874 C20.8607305,7.15456874 21.1867325,7.18018787 21.4923593,7.22971819 C21.7996841,7.28095645 22.0696545,7.38172502 22.3005726,7.53373185 C22.5331885,7.68573868 22.7165647,7.90093937 22.8523988,8.1793339 C22.988233,8.45772844 23.05615,8.82493595 23.05615,9.28095645 L23.05615,18.9871904 C23.05615,19.4739539 22.988233,19.8633646 22.8523988,20.1571307 C22.7165647,20.4508967 22.5348865,20.676345 22.3090622,20.8334757 C22.08154,20.9906063 21.8149654,21.0930828 21.5076407,21.1443211 C21.2003159,21.1955594 20.8709181,21.2194705 20.5194472,21.2194705 L20.4277591,21.2194705 L20.4277591,22.5260461 L29.3537611,22.5260461 Z M41.5058243,22.8300598 C42.0084107,22.8300598 42.4923198,22.7924851 42.9558539,22.7156277 C43.41769,22.6404782 43.860849,22.498719 44.2836328,22.2903501 C44.7064166,22.0836892 45.1071273,21.7967549 45.4840671,21.4329633 C45.8627048,21.0691716 46.207384,20.5926558 46.5198026,20.0051238 L46.6709181,20.0051238 L47.0784205,22.5260461 L51.9854294,22.5260461 L51.9854294,21.2194705 L51.8954393,21.2194705 C51.552458,21.2194705 51.228154,21.1972673 50.9208292,21.1511529 C50.6135044,21.1067464 50.345232,21.0128096 50.112616,20.8710504 C49.8816979,20.7292912 49.6983218,20.5192143 49.5624877,20.2408198 C49.4266535,19.9624253 49.3587364,19.5952178 49.3587364,19.1391973 L49.3587364,5.84799317 L43.8302863,5.84799317 L43.8302863,7.15456874 L43.9219743,7.15456874 C44.2734452,7.15456874 44.604541,7.18018787 44.9101678,7.22971819 C45.2174926,7.28095645 45.4840671,7.38514091 45.7115893,7.54227156 C45.9374136,7.69940222 46.1190918,7.9265585 46.254926,8.22544833 C46.3907601,8.52433817 46.4586772,8.91716482 46.4586772,9.40222032 L46.4586772,15.8121264 C46.4586772,16.5619129 46.3839684,17.2450897 46.2328529,17.8633646 C46.0817374,18.4816396 45.8474235,19.0093937 45.5299112,19.4500427 C45.2123988,19.8906917 44.8099901,20.2322801 44.3226851,20.4765158 C43.8336821,20.7190436 43.2478973,20.8403074 42.5619348,20.8403074 C41.9387957,20.8403074 41.4175321,20.7463706 40.9998421,20.560205 C40.582152,20.3723313 40.2493583,20.0956447 40.0031589,19.7318531 C39.7569595,19.3663535 39.5803751,18.9222886 39.4751037,18.3945346 C39.3681343,17.8684885 39.3154985,17.265585 39.3154985,16.587532 L39.3154985,5.84799317 L33.773465,5.84799317 L33.773465,7.15456874 L33.865153,7.15456874 C34.2064363,7.15456874 34.5307404,7.18018787 34.8380652,7.22971819 C35.1453899,7.28095645 35.4153603,7.38172502 35.6462784,7.53373185 C35.8771964,7.68573868 36.0622705,7.90093937 36.1981046,8.1793339 C36.3339388,8.45772844 36.4018559,8.82493595 36.4018559,9.28095645 L36.4018559,16.7395389 C36.4018559,17.8018787 36.5139191,18.7190436 36.7414413,19.4893254 C36.9672655,20.2578992 37.2966634,20.8915457 37.7296347,21.3868488 C38.1626061,21.8838599 38.6974531,22.2476516 39.3307799,22.4816396 C39.9658045,22.7139197 40.6908193,22.8300598 41.5058243,22.8300598 Z M60.665232,30 L60.665232,28.6934244 L60.5752419,28.6934244 C60.2322606,28.6934244 59.9079566,28.6712212 59.6006318,28.6251067 C59.293307,28.5789923 59.0233366,28.4833476 58.7924186,28.3364646 C58.5615005,28.1895816 58.3764265,27.9777968 58.2405923,27.6994022 C58.1047581,27.4210077 58.0368411,27.0538002 58.0368411,26.5977797 L58.0368411,23.528608 C58.0351431,23.4602904 58.0334452,23.3766012 58.0300494,23.2792485 C58.0249556,23.1323655 58.0198618,22.9666951 58.014768,22.7839453 C58.0096742,22.6029035 58.0045805,22.4081981 57.9994867,22.1998292 C57.9943929,21.9931682 57.9876012,21.7916311 57.9774136,21.6003416 C57.9570385,21.1340734 57.9366634,20.6336465 57.9162883,20.0956447 L58.0368411,20.0956447 C58.2592695,20.500427 58.5173544,20.8710504 58.8144916,21.205807 C59.1116288,21.5388557 59.4546101,21.8274979 59.8417374,22.0700256 C60.2288648,22.3142613 60.665232,22.500427 61.1474432,22.6336465 C61.6313524,22.765158 62.1695953,22.8300598 62.7638697,22.8300598 C63.7809279,22.8300598 64.6825271,22.6609735 65.4669694,22.3210931 C66.2531096,21.9829206 66.9119052,21.4585824 67.4450543,20.7497865 C67.9782034,20.0409906 68.3840079,19.1391973 68.66077,18.0461144 C68.9375321,16.9513237 69.0767621,15.6549957 69.0767621,14.1571307 C69.0767621,12.6678053 68.9375321,11.381725 68.66077,10.2988898 C68.3840079,9.21434671 67.9782034,8.32109308 67.4450543,7.61742101 C66.9119052,6.91374893 66.2531096,6.39282664 65.4669694,6.0529462 C64.6825271,5.71306576 63.7809279,5.5439795 62.7638697,5.5439795 C62.1594077,5.5439795 61.6160711,5.61742101 61.1338598,5.76430401 C60.6499506,5.91118702 60.2169793,6.11955594 59.8349457,6.38770282 C59.4512142,6.6558497 59.1150247,6.98206661 58.8229812,7.36635354 C58.5309378,7.75234842 58.2694571,8.18274979 58.0368411,8.65755764 L57.9162883,8.65755764 L57.5987759,5.84799317 L52.1942744,5.84799317 L52.1942744,7.15456874 L52.5864956,7.15456874 C52.9277789,7.15456874 53.2537808,7.18018787 53.5594077,7.22971819 C53.8667325,7.28095645 54.1367029,7.38172502 54.3676209,7.53373185 C54.6002369,7.68573868 54.783613,7.90093937 54.9194472,8.1793339 C55.0552813,8.45772844 55.1231984,8.82493595 55.1231984,9.28095645 L55.1231984,26.4457728 C55.1231984,26.9308284 55.0552813,27.323655 54.9194472,27.6225448 C54.783613,27.9214347 54.6019348,28.1485909 54.3761106,28.3057216 C54.1485884,28.4628523 53.8820138,28.5670367 53.574689,28.618275 C53.2673643,28.6678053 52.9379664,28.6934244 52.5864956,28.6934244 L52.343692,28.6934244 L52.343692,30 L60.665232,30 Z M62.2663771,20.8403074 C61.4496742,20.8403074 60.7738993,20.6968403 60.2339585,20.4081981 C59.6957157,20.1195559 59.2627443,19.6908625 58.9367423,19.1238258 C58.6090424,18.5567891 58.3764265,17.8582408 58.2405923,17.028181 C58.1047581,16.1981213 58.0368411,15.2399658 58.0368411,14.1571307 C58.0368411,13.0333049 58.1047581,12.0563621 58.2405923,11.2245944 C58.3764265,10.3945346 58.6056466,9.70623399 58.9282527,9.15969257 C59.2508588,8.61315115 59.6804344,8.20495303 60.2203751,7.93680615 C60.758618,7.66865927 61.4292991,7.53373185 62.2358144,7.53373185 C62.920079,7.53373185 63.5058638,7.67036721 63.9948667,7.94363792 C64.4821718,8.21690863 64.8811846,8.62852263 65.1885094,9.17506405 C65.4941362,9.72160547 65.7182626,10.4081981 65.8591905,11.2331341 C66.0001185,12.05807 66.0714314,13.0230572 66.0714314,14.1263877 C66.0714314,15.2194705 66.0001185,16.1844577 65.8591905,17.0196413 C65.7182626,17.8548249 65.4941362,18.5567891 65.1885094,19.1238258 C64.8811846,19.6908625 64.4872655,20.1195559 64.0101481,20.4081981 C63.5313327,20.6968403 62.9506417,20.8403074 62.2663771,20.8403074 Z M78.7379664,22.8300598 C81.1133662,22.8300598 82.9182626,22.1161401 84.1509576,20.6883006 C85.3836525,19.2604611 86,17.0828352 86,14.1571307 C86,12.6985482 85.836999,11.4295474 85.5092991,10.351836 C85.1832971,9.27412468 84.7095755,8.37745517 84.0898322,7.66353544 C83.4717868,6.94961571 82.7179072,6.41844577 81.8332873,6.06831768 C80.9469694,5.71818958 79.9451925,5.5439795 78.8279566,5.5439795 C76.4321816,5.5439795 74.6221915,6.25277541 73.3996841,7.67036721 C72.1754788,9.08795901 71.5642251,11.2502135 71.5642251,14.1571307 C71.5642251,15.6157131 71.7272261,16.8881298 72.054926,17.9777968 C72.3826259,19.0657558 72.8546496,19.969257 73.4743929,20.6883006 C74.0941362,21.4073442 74.8463179,21.9436379 75.7326357,22.2988898 C76.6172557,22.6524338 77.6190326,22.8300598 78.7379664,22.8300598 Z M78.7973939,21.2194705 C78.0231392,21.2194705 77.3660415,21.0691716 76.8261007,20.765158 C76.2878578,20.4611443 75.8497927,20.0119556 75.5136032,19.4210077 C75.1757157,18.8283518 74.9312142,18.0905209 74.7800987,17.2109308 C74.6289832,16.3296328 74.5542744,15.3116994 74.5542744,14.1571307 C74.5542744,13.0025619 74.6289832,11.9897523 74.7800987,11.118702 C74.9312142,10.2476516 75.1740178,9.52177626 75.5051135,8.93936806 C75.8379072,8.35695986 76.2708786,7.91972673 76.8040276,7.62596072 C77.3371767,7.33219471 77.9925765,7.1853117 78.7668312,7.1853117 C79.5427838,7.1853117 80.1998815,7.33219471 80.7381244,7.62596072 C81.2763672,7.91972673 81.7127345,8.35695986 82.0438302,8.93936806 C82.3766239,9.52177626 82.6177295,10.2476516 82.768845,11.118702 C82.9199605,11.9897523 82.9963672,13.0025619 82.9963672,14.1571307 C82.9963672,15.3116994 82.9233564,16.3296328 82.7773346,17.2109308 C82.6313129,18.0905209 82.3919052,18.8283518 82.0591115,19.4210077 C81.7263179,20.0119556 81.2950444,20.4611443 80.7601974,20.765158 C80.2270484,21.0691716 79.5733465,21.2194705 78.7973939,21.2194705 Z" id="path-41"></path>
    </defs>
    <g id="Page-1" stroke="none" stroke-width="1" fill="none" fill-rule="evenodd">
        <g id="logo_horizontal">
            <g id="Clipped" transform="translate(176.000000, 56.000000)">
                <mask id="mask-2" fill="white">
                    <use xlink:href="#path-1"></use>
                </mask>
                <g id="Path"></g>
                <rect id="Rectangle" fill="#18777A" mask="url(#mask-2)" x="-1.69090909" y="-1.70731707" width="96.3818182" height="73.4146341"></rect>
            </g>
            <g id="Clipped" transform="translate(261.000000, 59.000000)">
                <mask id="mask-4" fill="white">
                    <use xlink:href="#path-3"></use>
                </mask>
                <g id="Path"></g>
                <rect id="Rectangle" fill="#CCD470" mask="url(#mask-4)" x="-1.66666667" y="-1.75008269" width="23.3333333" height="11.0517722"></rect>
            </g>
            <g id="Clipped" transform="translate(232.000000, 63.000000)">
                <mask id="mask-6" fill="white">
                    <use xlink:href="#path-5"></use>
                </mask>
                <g id="Path"></g>
                <rect id="Rectangle" fill="#694115" mask="url(#mask-6)" x="-1.66666667" y="-2.01926795" width="23.3333333" height="12.1506571"></rect>
            </g>
            <g id="Clipped" transform="translate(205.000000, 63.000000)">
                <mask id="mask-8" fill="white">
                    <use xlink:href="#path-7"></use>
                </mask>
                <g id="Path"></g>
                <rect id="Rectangle" fill="#18777A" mask="url(#mask-8)" x="-1.7" y="-1.94772563" width="20.4" height="10.7015603"></rect>
            </g>
            <g id="Clipped" transform="translate(210.000000, 0.000000)">
                <mask id="mask-10" fill="white">
                    <use xlink:href="#path-9"></use>
                </mask>
                <g id="Path"></g>
                <rect id="Rectangle" fill="#18777A" mask="url(#mask-10)" x="-3.27206665" y="-1.70588235" width="22.9596169" height="32.4117647"></rect>
            </g>
            <g id="Clipped" transform="translate(234.000000, 2.000000)">
                <mask id="mask-12" fill="white">
                    <use xlink:href="#path-11"></use>
                </mask>
                <g id="Path"></g>
                <rect id="Rectangle" fill="#D91E23" mask="url(#mask-12)" x="-3.00177893" y="-1.71428571" width="22.7605754" height="27.4285714"></rect>
            </g>
            <g id="Clipped" transform="translate(193.000000, 17.000000)">
                <mask id="mask-14" fill="white">
                    <use xlink:href="#path-13"></use>
                </mask>
                <g id="Path"></g>
                <rect id="Rectangle" fill="#D2DE3C" mask="url(#mask-14)" x="-2.34426889" y="-1.8391564" width="26.2735392" height="27.756053"></rect>
            </g>
            <g id="Clipped" transform="translate(218.000000, 31.000000)">
                <mask id="mask-16" fill="white">
                    <use xlink:href="#path-15"></use>
                </mask>
                <g id="Path"></g>
                <rect id="Rectangle" fill="#D91E23" mask="url(#mask-16)" x="-2.752994" y="-1.66668292" width="18.5030195" height="18.7101825"></rect>
            </g>
            <g id="Clipped" transform="translate(235.000000, 22.000000)">
                <mask id="mask-18" fill="white">
                    <use xlink:href="#path-17"></use>
                </mask>
                <g id="Path"></g>
                <rect id="Rectangle" fill="#694115" mask="url(#mask-18)" x="-1.72222222" y="-3.46034643" width="34.4444444" height="24.7379615"></rect>
            </g>
            <g id="Clipped" transform="translate(169.000000, 29.000000)">
                <mask id="mask-20" fill="white">
                    <use xlink:href="#path-19"></use>
                </mask>
                <g id="Path"></g>
                <rect id="Rectangle" fill="#D91E23" mask="url(#mask-20)" x="-1.72222222" y="-1.8636962" width="34.4444444" height="25.3722314"></rect>
            </g>
            <g id="Clipped" transform="translate(166.000000, 51.000000)">
                <mask id="mask-22" fill="white">
                    <use xlink:href="#path-21"></use>
                </mask>
                <g id="Path"></g>
                <rect id="Rectangle" fill="#D91E23" mask="url(#mask-22)" x="-1.66666667" y="-1.81480418" width="23.3333333" height="11.5316145"></rect>
            </g>
            <g id="Clipped" transform="translate(239.000000, 44.000000)">
                <mask id="mask-24" fill="white">
                    <use xlink:href="#path-23"></use>
                </mask>
                <g id="Path"></g>
                <rect id="Rectangle" fill="#D91E23" mask="url(#mask-24)" x="-1.70588235" y="-3.42992965" width="32.4117647" height="23.1745484"></rect>
            </g>
            <g id="Clipped" transform="translate(173.000000, 66.000000)">
                <mask id="mask-26" fill="white">
                    <use xlink:href="#path-25"></use>
                </mask>
                <g id="Path"></g>
                <rect id="Rectangle" fill="#694115" mask="url(#mask-26)" x="-1.6875" y="-1.74267832" width="30.375" height="13.8248946"></rect>
            </g>
            <g id="Clipped" transform="translate(188.000000, 54.000000)">
                <mask id="mask-28" fill="white">
                    <use xlink:href="#path-27"></use>
                </mask>
                <g id="Path"></g>
                <rect id="Rectangle" fill="#CCD470" mask="url(#mask-28)" x="-1.66666667" y="-1.8121959" width="23.3333333" height="11.4849407"></rect>
            </g>
            <g id="Clipped" transform="translate(207.000000, 46.000000)">
                <mask id="mask-30" fill="white">
                    <use xlink:href="#path-29"></use>
                </mask>
                <g id="Path"></g>
                <rect id="Rectangle" fill="#694115" mask="url(#mask-30)" x="-1.66666667" y="-1.66670444" width="18.3333333" height="14.1103198"></rect>
            </g>
            <g id="Clipped" transform="translate(254.000000, 70.000000)">
                <mask id="mask-32" fill="white">
                    <use xlink:href="#path-31"></use>
                </mask>
                <g id="Path"></g>
                <rect id="Rectangle" fill="#18777A" mask="url(#mask-32)" x="-1.66666667" y="-1.66670444" width="18.3333333" height="14.1103198"></rect>
            </g>
            <g id="Clipped" transform="translate(229.000000, 44.000000)">
                <mask id="mask-34" fill="white">
                    <use xlink:href="#path-33"></use>
                </mask>
                <g id="Path"></g>
                <rect id="Rectangle" fill="#CCD470" mask="url(#mask-34)" x="-1.85943987" y="-1.66666667" width="11.0296278" height="18.3333333"></rect>
            </g>
            <g id="Clipped" transform="translate(191.000000, 74.000000)">
                <mask id="mask-36" fill="white">
                    <use xlink:href="#path-35"></use>
                </mask>
                <g id="Path"></g>
                <rect id="Rectangle" fill="#D91E23" mask="url(#mask-36)" x="-1.72222222" y="-4.23936352" width="34.4444444" height="27.3712423"></rect>
            </g>
            <g id="Clipped" transform="translate(234.000000, 74.000000)">
                <mask id="mask-38" fill="white">
                    <use xlink:href="#path-37"></use>
                </mask>
                <g id="Path"></g>
                <rect id="Rectangle" fill="#D91E23" mask="url(#mask-38)" x="-1.9101836" y="-2.83826341" width="27.7254626" height="23.5655642"></rect>
            </g>
            <g id="Clipped" transform="translate(0.000000, 135.000000)">
                <mask id="mask-40" fill="white">
                    <use xlink:href="#path-39"></use>
                </mask>
                <g id="Shape"></g>
                <rect id="Rectangle" fill="#000000" mask="url(#mask-40)" x="-1.69503751" y="-1.68972436" width="285.390075" height="51.377759"></rect>
            </g>
            <g id="Clipped" transform="translate(9.000000, 103.000000)">
                <mask id="mask-42" fill="white">
                    <use xlink:href="#path-41"></use>
                </mask>
                <g id="Shape"></g>
                <rect id="Rectangle" fill="#000000" mask="url(#mask-42)" x="-1.69792695" y="-1.70794193" width="89.3958539" height="33.4158839"></rect>
            </g>
        </g>
    </g>
</svg>