<?xml version="1.0" standalone="no"?>
<!DOCTYPE svg PUBLIC "-//W3C//DTD SVG 20010904//EN"
 "http://www.w3.org/TR/2001/REC-SVG-20010904/DTD/svg10.dtd">
<svg version="1.0" xmlns="http://www.w3.org/2000/svg"
 width="700.000000pt" height="700.000000pt" viewBox="0 0 700.000000 700.000000"
 preserveAspectRatio="xMidYMid meet">
<metadata>
Created by potrace 1.11, written by Peter Selinger 2001-2013
</metadata>
<g transform="translate(0.000000,700.000000) scale(0.100000,-0.100000)"
fill="#000000" stroke="none">
<path d="M2953 6098 c-30 -87 -50 -155 -59 -203 -2 -11 -6 -31 -9 -45 -10 -47
-17 -135 -17 -205 -2 -235 79 -385 293 -545 69 -52 244 -150 267 -150 16 0 77
148 97 235 21 96 24 123 25 250 3 223 -56 356 -229 524 -36 35 -93 83 -127
107 -60 43 -194 124 -204 124 -3 0 -20 -42 -37 -92z"/>
<path d="M4475 6069 c-278 -120 -484 -268 -547 -394 -33 -65 -66 -172 -75
-243 -10 -76 -10 -338 0 -348 11 -12 189 51 304 107 283 139 381 287 418 629
9 83 8 271 -2 280 -4 4 -48 -10 -98 -31z"/>
<path d="M2089 5468 c-7 -76 12 -204 48 -313 52 -163 133 -297 247 -410 158
-158 329 -229 531 -221 49 2 99 6 110 9 11 3 23 6 27 6 6 1 2 135 -7 186 -2
17 -7 48 -11 70 -3 22 -17 77 -30 123 -75 257 -213 392 -500 487 -154 52 -413
91 -415 63z"/>
<path d="M4995 5269 c-222 -20 -385 -63 -540 -142 -180 -92 -294 -206 -398
-397 -44 -81 -100 -220 -92 -229 9 -8 431 -8 530 1 210 18 310 51 440 143 148
105 279 297 366 536 l28 79 -24 6 c-34 8 -228 10 -310 3z"/>
<path d="M1170 4904 c0 -13 15 -69 34 -126 98 -299 258 -513 457 -611 176 -87
340 -117 609 -112 102 1 193 6 203 10 20 8 18 28 -14 160 -41 164 -129 316
-252 436 -122 121 -249 175 -518 223 -15 2 -51 7 -80 11 -30 3 -67 8 -84 10
-28 4 -168 13 -297 19 -55 3 -58 2 -58 -20z"/>
<path d="M3621 4859 c-176 -51 -286 -121 -331 -209 -33 -66 -51 -164 -49 -273
2 -143 0 -139 70 -133 132 12 248 58 314 124 72 73 125 237 140 440 l6 82 -28
-2 c-15 -1 -70 -14 -122 -29z"/>
<path d="M3770 4280 c-123 -130 -171 -331 -109 -455 22 -44 89 -115 108 -115
22 0 102 86 126 135 46 99 44 154 -12 330 -15 44 -34 98 -44 120 l-18 40 -51
-55z"/>
<path d="M4755 4324 c-11 -3 -54 -11 -96 -19 -123 -24 -206 -69 -313 -172
-107 -104 -254 -335 -225 -355 43 -28 118 -61 196 -84 79 -24 105 -27 248 -28
177 -1 240 11 342 63 106 53 206 145 297 271 55 77 136 216 136 236 0 13 -70
38 -185 66 -76 18 -347 33 -400 22z"/>
<path d="M2729 4235 c-4 -3 2 -36 13 -73 58 -196 156 -300 323 -342 54 -13
268 -23 304 -13 16 4 20 11 16 24 -4 10 -9 31 -11 46 -9 50 -63 150 -108 200
-67 74 -186 126 -341 147 -80 12 -190 18 -196 11z"/>
<path d="M1325 4007 c-100 -26 -220 -94 -320 -181 -39 -34 -40 -35 -20 -51 43
-34 197 -105 269 -124 85 -22 209 -23 281 -1 65 20 211 98 251 135 6 5 23 19
37 30 15 11 27 23 27 28 0 27 -136 114 -231 146 -79 28 -222 36 -294 18z"/>
<path d="M2205 3883 c-96 -12 -223 -68 -289 -128 l-38 -35 26 -35 c32 -42 112
-103 181 -139 110 -56 267 -68 400 -29 48 13 164 75 209 110 34 27 28 41 -49
112 -129 117 -269 163 -440 144z"/>
<path d="M5310 3784 c-64 -17 -143 -54 -184 -87 l-28 -23 64 -64 c67 -67 137
-111 198 -125 19 -5 42 -10 50 -12 8 -2 56 -4 105 -4 123 0 257 33 377 91 l47
23 -57 44 c-140 109 -294 170 -432 171 -47 0 -110 -6 -140 -14z"/>
<path d="M3155 3620 c-136 -29 -288 -115 -408 -229 l-77 -74 52 -38 c29 -21
64 -44 78 -51 14 -7 36 -20 50 -29 45 -29 193 -87 275 -108 104 -26 204 -31
282 -15 68 15 206 65 263 97 122 67 152 84 213 124 37 24 67 48 67 53 0 14
-137 107 -228 156 -68 37 -202 88 -257 100 -11 2 -31 6 -45 9 -46 11 -225 14
-265 5z"/>
<path d="M4658 3495 c-2 -1 -28 -5 -58 -8 -143 -13 -284 -89 -418 -225 l-52
-54 22 -26 c18 -22 85 -83 151 -137 55 -45 171 -106 247 -130 73 -22 261 -28
365 -10 166 28 331 101 433 192 l44 38 -74 73 c-158 157 -359 257 -558 278
-25 3 -57 7 -72 9 -15 1 -28 2 -30 0z"/>
<path d="M1749 3339 c-42 -4 -114 -17 -160 -29 -95 -24 -269 -104 -269 -123 1
-6 23 -29 49 -50 27 -21 57 -46 68 -56 60 -54 217 -142 310 -173 149 -50 417
-14 629 83 24 11 56 24 70 29 l26 10 -27 38 c-91 123 -243 225 -390 262 -64
15 -208 20 -306 9z"/>
<path d="M3607 3012 l-49 -3 7 -66 c15 -153 96 -359 183 -470 102 -129 313
-211 632 -248 25 -3 80 -7 123 -10 l77 -5 0 38 c-1 60 -37 206 -73 295 -112
275 -241 384 -522 442 -63 13 -115 18 -295 28 -19 1 -57 1 -83 -1z"/>
<path d="M2999 2966 c-2 -2 -47 -6 -99 -9 -98 -7 -229 -38 -312 -75 -134 -59
-270 -198 -405 -412 -50 -80 -126 -230 -120 -237 7 -6 159 -33 237 -41 83 -9
289 -8 360 0 128 16 240 57 335 121 153 104 277 276 328 457 30 106 30 108
-11 126 -53 22 -174 52 -240 60 -31 3 -60 7 -63 10 -3 2 -8 2 -10 0z"/>
<path d="M3466 2579 c-3 -13 -8 -46 -12 -74 -4 -27 -9 -57 -10 -65 -2 -8 -6
-35 -9 -60 -3 -25 -7 -56 -10 -70 -4 -28 -63 -367 -71 -415 -3 -16 -9 -52 -14
-80 -10 -54 -57 -305 -65 -345 -3 -14 -8 -38 -10 -55 -3 -16 -8 -37 -10 -45
-2 -8 -7 -28 -9 -45 -21 -117 -100 -400 -117 -419 -5 -6 -9 -12 -9 -16 0 -6
686 -7 693 0 3 3 -5 49 -18 103 -13 54 -26 113 -29 131 -3 18 -8 39 -10 47 -3
8 -8 25 -10 39 -3 14 -7 35 -10 48 -5 24 -74 364 -81 404 -3 13 -14 73 -26
133 -45 240 -90 474 -104 540 -8 39 -17 87 -20 109 -3 21 -7 41 -9 45 -2 3 -7
28 -11 56 -7 58 -12 66 -19 34z"/>
</g>
</svg>
