<svg xmlns="http://www.w3.org/2000/svg" width="102" height="40"><path fill="#000" fill-rule="nonzero" d="M5.33 1.36c.24.56.37 1.19.4 1.8.14 1.84.19 3.7.3 5.55.1 1.8.2 3.59.33 5.39.02.33.06.67.13 1 .05.23.15.67.27.67.14 0 .4-.29.53-.5.57-.85 1.15-1.7 1.64-2.6a50.35 50.35 0 003.62-8.76c.1-.32.2-.64.33-.94.25-.54.66-.87 1.26-.88.63 0 1.13.29 1.33.87.22.62.37 1.29.44 1.95l.11 1.28.1 1.27.13-.07a16.85 16.85 0 004.83-4.68c.22-.32.41-.66.65-.96.9-1.2 2.58-1.07 3.23.27.23.47.34 1.03.37 1.56.05.85.01 1.7-.02 2.55-.05 1.42-.13 2.9-.12 4.25 0 1.35-.04 4.22.01 6.33.03 1.07.24 2.14.38 3.21.02.16.1.43.22.46.13.02.31-.19.4-.32.48-.67.97-1.34 1.4-2.04a34.8 34.8 0 003.03-6.83c.68-2 1.34-4 2-6 .36-1.07 1.03-1.63 1.93-1.62.95 0 1.72.66 1.97 1.75.12.5.18 1.02.15 1.53-.11 2.08-.22 4.16-.42 6.24a44.31 44.31 0 00-.17 6.1c.01.22.03.46 0 .68-.15.84-.9 1.26-1.69.96a1.8 1.8 0 01-1.03-1 9.17 9.17 0 01-.74-2.02c-.22-.81-.33-1.66-.5-2.5-.02-.09-.05-.26-.11-.26-.11 0-.19.14-.24.24-.77 1.52-1.51 3.04-2.3 4.55-.38.72-.8 1.44-1.28 2.1-.34.48-.76.93-1.22 1.28a2.8 2.8 0 01-3.8-.3 5.71 5.71 0 01-1.27-2 20.9 20.9 0 01-1.19-5.1c-.4-3.1-.37-6.17.14-9.24.03-.18.06-.36.07-.54 0-.02-.01-.08-.06-.11-.04-.02-.1-.01-.13 0-.09.03-.17.1-.25.16-1.4.93-2.78 1.87-4.18 2.79a.44.44 0 01-.07.04l.15 2.22c.22 3.47.4 6.94.6 10.4.02.5.02.5.53.48.23 0 .47-.03.7 0 .4.04.74.23.89.63.16.44.03.83-.31 1.12-.28.22-.6.41-.92.56-1.16.52-.92.3-1.03 1.51a22.68 22.68 0 01-2.3 8.67c-.85 1.63-1.99 3-3.5 4.07a7.26 7.26 0 01-3.47 1.39 5.06 5.06 0 01-5.63-6.11 10.48 10.48 0 012.6-5.01 16.78 16.78 0 015.71-4.26c.59-.27 1.17-.55 1.77-.77.45-.16.66-.4.64-.9-.03-.57.01-1.14.01-1.7l-.03-11.35v-.15c0-.08-.04-.25-.1-.25-.07 0-.15.14-.19.22l-.44.99c-.72 1.62-1.4 3.26-2.16 4.87a13.5 13.5 0 01-1.23 2.13c-1.75 2.44-4.25 2.46-6.07.08a10.93 10.93 0 01-1.8-3.9C.2 12.1-.04 10.32 0 8.66c0-1.83.15-3.5.5-5.13.14-.66.36-1.3.6-1.91.14-.33.36-.64.6-.89 1.15-1.2 2.97-.89 3.63.63zm38.02 1.52c.2.61.26 1.29.29 1.94.1 1.95.16 3.9.24 5.85 0 .2 0 .4.04.6 0 .01 0 .12.07.14.08.01.15-.06.16-.08.14-.17.26-.37.4-.56a17.78 17.78 0 014.2-4.61c.7-.51 1.51-.96 2.34-1.23 2.2-.73 4.27.47 4.83 2.73.28 1.14.2 2.28-.16 3.39-1 3.15-2.99 5.51-5.9 7.06-1.61.86-3.28 1.52-5.13 1.66-.57.04-.59.06-.56.7.09 2.11.2 4.23.28 6.35.09 2.5.15 4.99.2 7.48 0 .48-.04.98-.12 1.45a2.69 2.69 0 01-2.1 2.24 2.7 2.7 0 01-2.9-1.4 6.6 6.6 0 01-.67-2.48 63.67 63.67 0 01-.4-8.67v-1.48c.16-5.6.48-11.3 1.1-16.97.12-1.1.4-2.2.67-3.27.12-.46.36-.92.67-1.29.77-.93 2.06-.7 2.45.45zM11.99 26.73c-.68.31-1.36.63-2 1a12.21 12.21 0 00-5.28 5.66 4.4 4.4 0 00-.42 1.95 2.11 2.11 0 002.14 2.17c.96.04 1.75-.35 2.48-.92a7.5 7.5 0 002.06-2.76c1.02-2.12 1.35-4.41 1.55-6.9.02-.43 0-.45-.53-.2zM62.75 1.95c.2.62.26 1.3.3 1.95.1 1.94.15 3.9.23 5.84 0 .2 0 .4.04.6 0 .02 0 .13.08.14.07.01.14-.06.15-.07.15-.18.27-.37.4-.56a17.78 17.78 0 014.2-4.62c.71-.51 1.52-.96 2.34-1.23 2.2-.73 4.27.48 4.83 2.73.28 1.14.2 2.28-.15 3.4-1.01 3.14-3 5.5-5.91 7.06-1.6.85-3.28 1.51-5.12 1.65-.57.04-.6.06-.57.7.1 2.12.21 4.24.29 6.36.08 2.49.14 4.98.2 7.47 0 .49-.05.98-.13 1.46a2.69 2.69 0 01-2.1 2.24 2.7 2.7 0 01-2.9-1.41 6.6 6.6 0 01-.66-2.48 63.67 63.67 0 01-.4-8.67l-.01-1.47c.16-5.6.48-11.3 1.1-16.97.12-1.1.4-2.2.67-3.28.12-.46.37-.92.67-1.28.77-.94 2.06-.71 2.45.44zm24.4 3.28c.52 1.38.53 2.79.03 4.16a10.01 10.01 0 01-5.29 5.95c-.56.26-.6.28-.4.87.21.6.46 1.2.77 1.76.35.6.93.85 1.64.8.9-.05 1.69-.43 2.43-.9a8.7 8.7 0 002.48-2.41c.2-.28.3-.65.38-1 .34-1.52.62-3.07 1.02-4.58.24-.95.63-1.85 1.02-2.75.2-.43.5-.85.83-1.2.41-.44.96-.6 1.55-.34.6.26.86.74.8 1.37-.05.82-.18 1.63-.24 2.45-.1 1.16-.16 2.32-.23 3.47 0 .1 0 .33.1.33.08 0 .16-.1.23-.17.56-.5 1.08-1.04 1.69-1.47.47-.33.9-.62 1.51-.79a2.5 2.5 0 011.68.11 4.8 4.8 0 012.47 2.23c.23.4.22.85-.1 1.22-.3.34-.77.42-1.29.18-.4-.18-.78-.4-1.14-.64-.54-.35-1-.26-1.48.13a8.75 8.75 0 00-1.99 2.45 16.14 16.14 0 00-1.68 4.7c-.08.35-.15.71-.28 1.04-.37.95-1.07 1.52-2.1 1.57a2.24 2.24 0 01-2.22-1.25 5.7 5.7 0 01-.5-1.68c-.06-.63-.03-1.08-.05-1.62 0-.17-.02-.49-.08-.5-.02 0-.25.18-.36.27-.56.45-1.09.96-1.68 1.36-.62.4-1.28.77-1.97 1.05-2.23.9-4.4.22-5.79-1.74a9.9 9.9 0 01-1.64-5.23c-.02-.24 0-.47 0-.7.07-2.93.7-5.71 2.34-8.2a6.33 6.33 0 012.53-2.32c2.12-1.02 4.2-.18 5.02 2.02zm-35.8 2.8c-.57.32-1.13.7-1.6 1.15a20.76 20.76 0 00-4.93 7.67c-.04.12-.1.35-.01.4.08.03.27-.03.4-.09 2.2-.9 4.06-2.21 5.4-4.21.87-1.3 1.5-2.7 1.64-4.25.03-.82-.23-1.03-.9-.67zm19.4-.92c-.57.3-1.13.7-1.6 1.14a20.76 20.76 0 00-4.92 7.67c-.05.12-.1.36-.02.4.08.04.27-.03.4-.08 2.2-.9 4.07-2.22 5.4-4.22.87-1.3 1.5-2.7 1.65-4.24.03-.83-.24-1.04-.9-.67zm12.98-.9c-.25.2-.51.44-.7.7a10.6 10.6 0 00-1.8 5.27c0 .1 0 .25.07.29.05.03.24-.06.33-.13a8.58 8.58 0 002.6-2.8c.32-.57.51-1.18.55-2.07 0-.2-.02-.4-.11-.67a1.6 1.6 0 00-.28-.48c-.19-.25-.41-.31-.66-.11z"/></svg>