<?xml version="1.0" encoding="UTF-8"?>
<svg width="50px" height="51px" viewBox="0 0 50 51" version="1.1" xmlns="http://www.w3.org/2000/svg" xmlns:xlink="http://www.w3.org/1999/xlink">
    <!-- Generator: Sketch 63.1 (92452) - https://sketch.com -->
    <title>Group 6</title>
    <desc>Created with Sketch.</desc>
    <g id="Page-1" stroke="none" stroke-width="1" fill="none" fill-rule="evenodd">
        <g id="Quem-somos" transform="translate(-125.000000, -4440.000000)">
            <g id="Group-6" transform="translate(150.000000, 4465.500000) scale(-1, 1) translate(-150.000000, -4465.500000) translate(125.000000, 4440.500000)">
                <path d="M24.9004278,50 C23.3821809,50 21.7269598,49.9246562 19.8402198,49.7692597 C18.4114444,49.6515351 16.9858973,49.4443398 15.6027799,49.1665097 C13.9701573,48.8321718 12.5072536,48.2011678 11.4156101,47.6925975 C10.9608739,47.4854021 10.5010647,47.207572 10.0859911,46.8826521 L9.96700335,46.7884724 C9.27844243,46.2516481 8.58849793,45.7148239 7.97926218,45.074402 C7.03381684,44.0666792 6.1275729,42.898851 5.128168,41.3966849 C3.84974142,39.4895461 2.73965024,37.1868525 1.73378864,34.3661707 C0.827083502,31.8233189 0.25658795,29.0591448 0.0379825405,26.1442833 C-0.0404202435,25.0612168 0.00200949845,23.8886796 0.170344888,22.4524393 C0.374653319,20.7524958 0.673045091,19.3492183 1.10887233,18.0354116 C1.59128005,16.5614993 2.3296498,15.1017141 3.24373402,13.8067433 C4.25789709,12.3705029 5.2245573,11.1744208 6.19951898,10.1478621 C8.09686636,8.15596157 10.1851476,6.09813524 12.5958026,4.50178941 C14.9432742,2.94311546 17.520881,1.75645131 20.2571382,0.984177811 C22.5529562,0.329628932 25.0309453,2.7000624e-13 27.6219267,2.7000624e-13 C27.9410722,2.7000624e-13 28.2602176,2.7000624e-13 28.5775183,0.00941796949 C29.090826,0.0282539085 29.6115127,0.0988886796 30.1160577,0.164814466 L30.4545732,0.207195329 C31.4364528,0.339046901 32.3205595,0.461480505 33.1977483,0.654548879 C34.3064559,0.904125071 35.4432962,1.28084385 36.77476,1.83650405 C38.1325117,2.4062912 39.5548305,3.06084008 40.7553155,3.99321906 L41.1994442,4.33697495 C42.2684892,5.16104728 43.3744296,6.01337352 44.267299,7.06347711 C44.8465572,7.7462799 45.4405736,8.49500848 46.082554,9.36146167 C46.4515083,9.86061405 46.8375267,10.3974383 47.1502155,10.9766434 C47.8438495,12.2716142 48.6200371,13.7784894 49.0475629,15.3371633 C49.5248975,17.0747787 49.8034579,18.6146167 49.9003084,20.0367301 C49.9837843,21.284611 50.0142231,22.5701639 49.9939306,23.9640234 C49.9717933,25.4897344 49.7674849,27.0342814 49.5700944,28.5270296 L49.5627153,28.5788284 L49.5032214,29.0308909 C49.3505666,30.1704652 49.0784628,31.3430024 48.6467863,32.722735 C48.1676069,34.248446 47.4596759,35.797702 46.5437469,37.3281221 C46.5386738,38.0768506 46.328831,38.7926163 45.9372783,39.3953664 C44.5075805,41.6085892 42.7375223,43.6381616 40.8189601,45.2674703 C39.725933,46.1951403 38.7090028,46.8826521 37.6187429,47.4241853 C36.4090341,48.0269354 35.1568955,48.5119608 33.8973778,48.8698437 C31.2386011,49.6326992 28.2952683,50 24.9004278,50" id="Fill-167" fill="#D2DE3C"></path>
                <path d="M15,25 L33.5714286,25 M25,15 L35,25 L25,35" id="Shape" stroke="#18777A" stroke-width="2" stroke-linecap="round" stroke-linejoin="round"></path>
            </g>
        </g>
    </g>
</svg>