<svg xmlns="http://www.w3.org/2000/svg" width="523" height="728"><path fill="#E9EF9E" fill-rule="evenodd" d="M522.82 325.87c-.75-18.56-2.22-36.85-5.64-55.13-1.26-6.7-2.5-13.4-3.75-19.96-5.71-30.7-14.39-60.72-28.73-88.36a267.63 267.63 0 00-27.37-42.99c-4.36-5.58-8.73-11.02-13.1-16.6-18.77-23.87-43.16-43.41-69.65-57.93a530.62 530.62 0 00-24.01-12.14c-6.72-3.35-13.99-5.87-20.93-8.66-11.08-4.6-22.65-7.68-34.22-10.75a345.34 345.34 0 00-33.72-6.7c-12.05-1.67-24.14-3.49-36.32-4.32A831.78 831.78 0 00183.65.37c-9.48-.14-19.03-.56-28.5-.28-16.77.7-33.13 4.2-49.16 9.08a528.02 528.02 0 00-40.6 13.95c-7.19 2.8-14.35 5.59-21.56 8.38-5.57 2.1-11.03 4.88-16.52 7.26A431.26 431.26 0 00-3.09 53.4c-5.7 2.93-11.65 5.59-17.17 8.94-5.3 3.07-10.94 6-16.02 9.49-5.1 3.49-10.2 7.12-15.35 10.6-6.7 4.61-12.86 10.47-19.16 15.5-9.34 7.54-17.84 16.47-26.33 24.98a414.75 414.75 0 00-22.67 24.29c-7.83 9.35-15.73 18.56-23.07 28.34-10.16 13.4-20.79 27.21-28.28 42.43-8 16.33-13.02 33.22-16.18 51.08-1.5 8.52-2.66 17.17-3.9 25.69-1.76 12-2.23 24.14-2.97 36.15-1.56 26.1-1.12 52.76 3.63 78.58 4.93 26.66 11.34 53.18 18.32 79.42a152.32 152.32 0 005.18 15.08c2.18 5.58 4.3 11.16 6.72 16.47 5.88 13.26 11.74 26.93 19.74 38.94a466.29 466.29 0 0026.9 36.43c7.4 8.93 15.86 17.03 23.88 25.4 7.58 7.96 14.8 16.33 22.44 24.15 8 8.23 16.3 16.05 25.15 23.45 10.91 9.07 21.67 18.56 33.68 26.1 11.8 7.4 24.97 12.56 37.83 17.87 23.28 9.49 48.86 14.51 73.97 14.93 6.79.14 13.6.28 20.41.28 16.34 0 32.66-.7 48.68-4.19 22.42-5.02 44.96-9.21 67.2-15.07 23.26-6 46.98-11.45 69.54-19.96 7.33-2.8 14.23-5.86 20.74-10.33 5.92-4.05 11.48-8.65 17-13.26 8.86-7.4 17-15.77 25.24-23.87a644.14 644.14 0 0025.81-26.8c7.9-8.51 16.38-16.47 23.99-25.4 9.05-10.6 16.46-22.33 22.78-34.76 2.9-3.77 5.78-7.67 8.7-11.44a255.93 255.93 0 0011.6-16.61c3.37-5.3 7.11-10.33 10.32-15.63a257 257 0 005-8.8c5.76-9.21 10.2-19.26 15-29.03 3.15-6.42 6.25-12.84 8.74-19.68a106.88 106.88 0 004.5-17.03c3.86-11.3 7.3-22.9 9.22-34.9 2.04-12.42 3.73-24.98 4.33-37.54.6-12.56 1.28-25.27.77-37.83z"/></svg>