<svg xmlns="http://www.w3.org/2000/svg" width="571" height="723"><path fill="#F0ECE8" fill-rule="evenodd" d="M829.05 572.03c-2.75-11.9-6.2-23.67-10.99-34.9a492.2 492.2 0 00-16.63-35.16c-10.42-20.19-22.53-39.44-35.43-58.03-6.45-9.36-13.13-18.58-19.78-27.8-6.52-8.96-12.56-18.32-18.76-27.68-6.53-9.76-12.7-19.79-19.05-29.68a506.74 506.74 0 00-19.34-27.81c-13.99-18.99-29.18-36.9-44.39-54.82-15.74-18.59-31.66-36.9-47.3-55.62a1459.8 1459.8 0 01-40.13-50c-10.22-13.9-20.23-27.95-31.03-41.45-5.47-6.82-10.82-13.64-16.67-20.06a461.35 461.35 0 00-18-19.12 1090.23 1090.23 0 00-19.09-18.58c-5.28-4.95-10.82-9.76-16.12-14.7a727.74 727.74 0 01-20.56-20.06c-7.66-7.9-14.88-16.18-23.35-23.13-4.66-3.75-8.65-6.95-14.17-9.23-4.14-1.87-7.27-3.2-11.6-3.74-4.6-.8-9.14-.54-13.58.67-3.9 1.2-8.62 2.67-11.98 5.21a171.78 171.78 0 00-17.7 15.11c-8.2 8.16-16.86 15.78-24.83 24.07a358.25 358.25 0 00-22.94 26.07c-8.28 10.56-15.54 21.79-22.47 33.29-11.87 19.65-21.36 40.78-30.8 61.63a620 620 0 00-11.66 28.08l-1.46 2.14c-2.68 4.01-5.26 8.16-7.89 12.3-2.52 3.88-5.12 7.76-7.47 11.77-5.05 8.55-9.7 17.38-14.62 25.94a678.88 678.88 0 00-14.4 27.27c-2.3 4.55-4.85 8.96-6.85 13.64-.58 1.33-1.06 2.67-1.6 4-9.76 14.72-19.26 29.69-27.41 45.47a1248.33 1248.33 0 00-15.4 31.15 706.25 706.25 0 01-16.16 30.88c-5.26 9.63-11.05 19.12-16.67 28.48-5.86 9.76-11.44 19.79-17 29.68-5.32 9.63-10.44 19.39-14.45 29.55-4.22 10.7-8.35 21.4-12.43 32.09-7.18 17.51-14.8 34.63-21.24 52.41-2.64 7.35-4.74 14.84-7.14 22.2a417.27 417.27 0 01-5.92 16.97c-1.1 2.68-2.19 5.22-3.3 7.9-2.1 5.07-4.44 9.89-6.7 14.83-1.2 2.54-2.41 5.22-3.48 7.76-2.36 5.75-5.22 11.5-6.58 17.65A91.02 91.02 0 00.5 670.43c-.7 4.15-.67 8.43.13 12.7a48.5 48.5 0 003.05 14.31c3.94 10.96 12.56 22.86 24.83 25.14 1.92.26 3.94.4 6 .4 4.48 0 9.15-.67 13.29-1.34 10.32-1.74 20.48-4.41 30.75-6.28 11-2.01 22.03-3.75 33.1-5.22 21.97-2.94 43.92-6.55 65.96-8.82 22.29-2.4 44.6-4.41 66.92-6.29 23.42-1.87 46.92-2.8 70.4-4.28 22.17-1.33 44.33-3.6 66.5-5.2 46.18-3.08 92.4-6.03 138.46-10.7 22.55-2.28 45.09-4.68 67.73-5.75 22.92-1.07 45.81-1.74 68.73-2.54 22.4-.67 44.84-1.07 67.23-2.28 11.17-.53 22.3-1.74 33.4-2.94 11.42-1.34 23.01-2.27 34.28-4.54 9.54-2.01 20.25-3.48 27.89-9.9 5.32-4.54 8.78-11.76 10.25-18.58 1.36-6.29 2.4-12.7 2.44-19.12.1-12.44 0-25-2.79-37.17z"/></svg>