<svg xmlns="http://www.w3.org/2000/svg" width="557" height="600"><path fill="#F8D2D3" fill-rule="evenodd" d="M556.47 412.07c-.25-15-1.7-30-3.35-44.9-1.4-12.89-3.34-25.67-5.2-38.46a916.15 916.15 0 00-6.55-39.82c-2.62-14.05-5.19-28-8.52-41.84-2.1-8.87-4.3-17.64-6.58-26.51-1.46-5.7-3.03-11.41-4.9-16.9-4.39-13.2-9.09-26.3-14.92-38.88-3.56-7.71-7.12-15.42-10.93-22.92-1.4-2.86-2.83-5.5-4.34-8.24-1.56-2.75-3-5.6-4.71-8.24-2.3-3.6-4.59-7.08-6.88-10.67-1.83-2.75-4-5.4-6-8.14a438.2 438.2 0 00-7.6-9.82c-2.14-2.64-4.16-5.39-6.41-7.92-4.8-5.29-9.56-10.57-14.61-15.53-4.56-4.65-9.2-9.3-14.21-13.31-11.14-9.09-22.31-18.28-34.94-25.25-3.22-1.8-6.4-3.8-9.71-5.4-3.6-1.79-7.2-3.48-10.8-5.27a308.2 308.2 0 00-19.5-8.45c-3.25-1.27-6.49-2.64-9.8-3.7-3.7-1.27-7.42-2.54-11.13-3.7-3.25-1.06-6.7-1.8-10.03-2.64-2.65-.63-5.3-1.16-8.02-1.58-3.21-.64-6.4-1.27-9.65-1.7-3.37-.42-6.83-1.05-10.24-1.26-8.29-.32-16.58-.74-24.89-.85-9.17-.1-18.62-.53-27.75.53-9.77 1.16-19.12 3.7-28.45 6.87-8.68 2.85-17.32 6.34-25.26 10.98-6 3.49-11.95 6.98-17.77 10.78-5.78 3.8-11.28 7.92-16.83 11.94-3.66 2.74-7.1 5.8-10.62 8.66-2 1.58-3.95 3.27-5.88 4.96a579.7 579.7 0 00-16.7 15.53C113.65 79.3 104.62 88.38 96.3 98c-9.66 11.09-18.92 22.5-27.02 34.86-7.38 11.3-14.9 22.6-20.54 34.86-2.13 4.65-4.32 9.19-6.1 13.94-1.23 3.28-2.45 6.55-3.68 9.72-1.28 3.38-2.14 6.87-3.2 10.25-1.01 3.38-1.87 6.65-2.82 10.04-3.55 12.57-7.8 25.03-10.96 37.7a689.86 689.86 0 00-8.32 38.78c-2.83 15-5.96 30-8.08 45.1a528.92 528.92 0 00-4.24 38.35 651.63 651.63 0 00-1.3 41.2c-.04 12.79-.09 25.57 0 38.35.05 7.71.1 15.43.41 23.03a29.5 29.5 0 00.16 3.49c.35 6.65.92 13.2 1.93 19.75.98 6.45 2.43 12.68 3.53 19.02 1.09 6.23 1.99 12.57 2.97 18.8a236.25 236.25 0 004.21 21.13c.74 2.85 1.79 5.7 2.97 8.45 2.23 5.07 4.85 9.93 9.1 13.63 1.77 1.58 4.17 3.7 6.46 4.75 2.08.95 4.2 1.9 6.38 2.75 4.71 1.69 9.61 3.27 14.5 4.65h-1.06l.02.1 1.82.1 3.16.96a148.63 148.63 0 0019.27 3.9c6.6.85 13.2 1.7 19.82 2.23 6.77.63 13.54.84 20.34 1.05 7.5.43 15 1.06 22.54 1.06h.99c13.46-.1 26.94-1.16 40.35-2.22 1.64-.1 3.26-.42 4.9-.53 2.7-.2 5.38-.2 8.08-.42 5.13-.42 10.3-.42 15.44-.63 2.55-.1 5.13-.32 7.66-.64 2.6-.42 5.18-.95 7.78-1.37 5.32-.85 10.67-1.48 16.01-2.11l2.08-.43 35.02-.95c27.06-.63 54.13-1.26 81.11-3.8a786.9 786.9 0 0041.65-4.75c13.23-1.9 26.31-4.76 39.38-7.6 6.58-1.38 13.14-2.76 19.74-4.13 6.17-1.16 12.41-2.32 18.52-3.9a255.95 255.95 0 0040.16-13.64c7.8-3.48 15.05-7.4 21.63-12.88 8.1-6.76 13.33-16.17 15.44-26.52 1.38-6.76 1.76-13.63 1.98-20.5.4-13.1.2-26.3.19-39.5-.03-13.74.02-27.58-.22-41.41z"/></svg>