<svg xmlns="http://www.w3.org/2000/svg" width="88" height="85"><path fill="#D91E23" fill-rule="evenodd" d="M31.63 84.7h-.08a3.5 3.5 0 01-1.7-.5l-.36-.22-.27-.16a8.7 8.7 0 00-.98-.51c-1.5-.6-3.04-1.1-4.62-1.6-1.8-.56-3.67-1.12-5.57-1.65a717.4 717.4 0 01-4.38-1.26l-.72-.2c-.82-.25-1.57-.47-2.32-.82a3 3 0 01-.84-.64 4.13 4.13 0 01-.54-.73c-.33-.7-.33-.73-.4-1.39l-.03-.2c-.06-.55.12-1.22.55-2.07.21-.39.45-.77.68-1.13l.15-.24c.33-.5.66-1 .99-1.47a161.56 161.56 0 016.87-9.5l.03-.06.01-.02.05-.06.05-.08.47-.6a276.9 276.9 0 012.97-3.82c-1.56.27-3 .45-4.42.54-1.26.1-2.54.14-3.78.2-.61.01-1.22.04-1.82.06l-3.56.15-2.37.1-1.46.05-.48.04c-.28.02-.55.04-.83.04h-.15l-.35-.03a24.25 24.25 0 00-.24-2.55l-.03-.2c-.11-.75-.23-1.53-.4-2.28 0-1.3-.17-2.6-.34-3.88l-.08-.6c-.23-1.8-.47-3.75-.64-5.7C.35 37.82.12 34.08 0 30.58a9.94 9.94 0 01.1-2.1 2.9 2.9 0 011.49-1.95 5.16 5.16 0 011.86-.48l.5-.02c.45 0 .88.05 1.43.13 1.9.26 3.71.84 5.49 1.4 1.3.4 2.62.87 3.89 1.32 2.11.75 4.3 1.52 6.5 2.07.52.13 1.03.24 1.54.34l-.15-.33-.14-.34.03.07-.22-.53-.04-.1-.11-.24-.01-.05-.01-.03-.04-.06c-1.01-2.4-1.99-4.8-2.97-7.2-.83-2.05-1.67-4.12-2.53-6.17l.26.58a108.78 108.78 0 01-1.65-3.97l-.14-.36-.04-.08-.03-.07-.04-.1-.05-.12h.01l-.02-.04v.01l.01.03c-.4-.9-.75-1.63-1.1-2.31l-.26-.48c-.36-.68-.71-1.33-.96-2.07a4.84 4.84 0 01-.21-1.13l-.03-.22c-.05-.47.18-1.5.48-1.9.07-.07.12-.16.18-.25.13-.18.26-.37.43-.5.52-.43.9-.73 1.6-.93.62-.17 1.3-.23 1.93-.3l.28-.02.45-.04 1-.09c1.88-.16 3.79-.33 5.67-.55l.52-.06c1.72-.19 3.51-.4 5.28-.53a40.45 40.45 0 015.35-.05l.3.02c.7.03 1.45.06 2.12.25.62.18 1.12.46 1.74 1 .23.2.42.46.59.72l.18.26c.1.13.17.28.24.43l.05.11a16.63 16.63 0 011.22 4c.2 1.01.44 2.22.59 3.46.2 1.75.35 3.6.43 5.63l.06 1.64.05 1.24a97 97 0 011.9-4.69 62.31 62.31 0 015.33-10.12c.49-.72 1.03-1.5 1.65-2.2a3.56 3.56 0 013.57-1.12 89 89 0 014.95.66l2.8.46c.94.16 1.88.32 2.83.46 2.1.33 3.79.63 5.34.95l.12.04c.7.15 1.43.3 2.13.5.42.13.82.29 1.17.5a3.3 3.3 0 011.58 1.97c.2.55.13 1.1.02 1.71-.1.55-.39 1.08-.67 1.59l-.15.28-.52.95-.15.27-1.36 2.5-.5.92c-.74 1.37-1.5 2.8-2.3 4.19a109 109 0 01-2.93 4.86c-1.13 1.8-2.33 3.58-3.35 5.08 1.83-.48 3.67-1.06 5.46-1.63l1.47-.46c2.02-.62 3.59-1.02 5.11-1.27 1.06-.19 2.01-.33 2.9-.44.63-.07 1.26-.14 1.9-.14.93 0 1.69.18 2.35.56.29.15.54.35.74.58.46.54.51.67.76 1.3.16.38.22.75.27 1.1l.05.3c.23 1.3.5 2.6.74 3.9l.3 1.45c.38 1.96.63 3.97.78 6.16.12 1.76.26 3.5.42 5.28l.05.6.11 1.17v.1a2.28 2.28 0 010 .64c-.03.21-.05.47-.13.66-.22.59-.32.86-.74 1.29-.42.43-1 .75-1.58.88-.4.1-.86.14-1.41.14l-1-.02-.58-.04h-.84c-.62 0-1.27.01-2 .06-1.96.1-3.94.29-5.85.46-1.77.16-3.61.33-5.43.44l-1.77.1.52.96.18.33c.61 1.17 1.3 2.32 1.97 3.44l.83 1.38a47.72 47.72 0 012.52 4.87c.56 1.27 1.1 2.54 1.65 3.82l.27.64.19.43c.21.48.43.97.56 1.48.2.82.21 1.47.03 2.02-.24.68-.31.77-.72 1.26l-.08.1c-.13.17-.41.36-.57.48l-.1.07c-.14.1-.31.17-.48.24l-.13.06a120.52 120.52 0 00-10.04 4.92l-.57.32a46.93 46.93 0 00-5.48 3.34c-.29.18-.63.33-1.03.48-.2.07-.43.1-.67.1-.27 0-.54-.04-.82-.08l-.08-.01a3.11 3.11 0 01-1.36-.82 3.93 3.93 0 01-.8-1.13 13.64 13.64 0 01-.58-1.12c-.43-.78-.9-1.54-1.47-2.43l-.96-1.51a171.2 171.2 0 01-2-3.19c-.97-1.57-2.01-3.12-3.07-4.63-.4-.56-.8-1.1-1.18-1.65l-.85-1.2a65.8 65.8 0 01-1.84 4.84l-.01.02-.15.35c-.78 1.85-1.6 3.61-2.44 5.4a87.31 87.31 0 01-2.3 4.67l-.36.64-.49.9-.13.25c-.12.24-.24.48-.4.69-.37.52-.52.73-1.07 1.08-.4.27-.93.42-1.51.44"/></svg>