<svg xmlns="http://www.w3.org/2000/svg" width="435" height="435"><path fill="#FFF" fill-rule="evenodd" d="M435 0v435H216.63c29.54 0 55.15-3.2 78.28-9.83a188.06 188.06 0 0032.37-12.58c9.49-4.71 18.34-10.7 27.84-18.76 16.7-14.18 32.1-31.84 44.53-51.09a33.34 33.34 0 005.28-17.99c7.97-13.31 14.13-26.79 18.3-40.06 3.75-12 6.12-22.2 7.45-32.12l.52-3.93.06-.45c1.72-13 3.5-26.43 3.69-39.7.17-12.13-.1-23.31-.82-34.17-.84-12.37-3.26-25.77-7.42-40.89-3.72-13.56-10.47-26.67-16.5-37.93-2.72-5.04-6.08-9.71-9.3-14.06a384.13 384.13 0 00-15.78-19.99c-7.77-9.13-17.4-16.55-26.7-23.72l-3.86-2.99c-10.44-8.11-22.82-13.8-34.63-18.76-11.58-4.84-21.47-8.11-31.12-10.29-7.63-1.68-15.32-2.74-23.87-3.89l-2.94-.37C257.62.86 253.09.25 248.62.08 245.86 0 243.1 0 240.32 0H435zM240.31 0c-22.54 0-44.1 2.87-64.07 8.56a236.47 236.47 0 00-66.66 30.6c-20.97 13.9-39.14 31.8-55.64 49.13-8.49 8.93-16.9 19.33-25.72 31.83A140.4 140.4 0 009.65 156.9c-3.8 11.43-6.4 23.64-8.17 38.43-1.46 12.5-1.83 22.7-1.15 32.12 1.9 25.35 6.87 49.4 14.75 71.53 8.75 24.54 18.41 44.57 29.54 61.16 8.69 13.07 16.57 23.23 24.8 32 5.3 5.57 11.3 10.24 17.3 14.91l1.03.82a58.2 58.2 0 0011.57 7.05c9.5 4.42 22.22 9.91 36.42 12.82a322.36 322.36 0 0036.87 5.24c16.41 1.35 30.81 2.01 44.02 2.01H0V0z"/></svg>