<svg xmlns="http://www.w3.org/2000/svg" width="69" height="76"><path fill="#D91E23" fill-rule="evenodd" d="M69 29.26c.04-3.14-.25-6.3-.54-9.36l-.16-1.73a116.9 116.9 0 00-.65-5.37 84.8 84.8 0 00-.46-3.1c-.22-1.35-.45-2.74-1-4.05A7.6 7.6 0 0064 2.64c-.38-.3-.83-.63-1.37-.83-.47-.17-.98-.35-1.5-.45a20.6 20.6 0 00-2.66-.4 73.57 73.57 0 00-5.53-.18h-.5c-1.64.01-3.34.01-5.01.1-.54.02-1.1.07-1.68.13L44.73.8l-.61-.13C43.39.5 42.65.39 41.96.3c-.8-.12-1.67-.23-2.54-.27L38.98 0c-.7-.02-1.39 0-1.99.04l-.57.03h-.13l-1.97.1c-.49 0-.97.02-1.44.03-.55 0-1.1.02-1.64.04-1.28.04-2.41.12-3.48.25-1.97.25-3.96.6-5.88.93l-.4.07c-1.97.36-3.7.73-5.29 1.15-1.32.35-2.64.8-3.91 1.22l-1.2.39a42.17 42.17 0 00-5.3 2.02l-.15.07c-.39.19-.78.38-1.15.58-.36.18-.76.4-1.1.69l-.25.19c-.24.18-.47.37-.7.58-.25.27-.49.56-.74.92a7.7 7.7 0 00-.94 2.34 18.3 18.3 0 00-.69 4.6 34.95 34.95 0 00.6 8.9A98 98 0 001.8 31.2c.23 1 .5 2 .77 2.98a84.6 84.6 0 011.75 7.55l.04.24c.34 1.81.67 3.67 1.11 5.49.24 1 .5 2 .75 2.98l.6 2.3 1.3 5.32.42 1.82c.27 1.15.54 2.35.87 3.5a52.44 52.44 0 002.44 6.98 10.6 10.6 0 003.43 4.25c.5.33 1.01.58 1.62.77.59.18 1.18.3 1.72.39.68.13 1.38.2 2.17.22 1 .02 2.09-.04 3.43-.2.41-.04.82-.1 1.23-.16.51-.07 1.04-.14 1.57-.19.64-.08 1.3-.1 1.94-.15l.51-.03a270.14 270.14 0 0011.28-.88c1.39-.14 2.79-.24 4.14-.34l1.18-.1 1.8-.12c1.2-.09 2.42-.18 3.64-.29l.78-.07 2.06-.19c.8-.06 1.66-.14 2.5-.33.93-.21 1.8-.46 2.67-.76a15.9 15.9 0 002.65-1.32 8.87 8.87 0 002.66-2.44c.48-.69.83-1.49 1.12-2.6.28-1.06.48-2.02.6-2.93.17-1.23.25-2.48.3-3.69l.13-1.84c.11-1.52.27-3.06.43-4.56l.12-1.1.28-2.8.28-2.72c.16-1.52.27-3.08.38-4.58l.07-.95c.14-1.9.23-3.63.3-5.31.07-1.87.1-3.78.14-5.62l.01-.47"/></svg>