<svg xmlns="http://www.w3.org/2000/svg" width="439" height="439"><path fill="#18777A" fill-rule="evenodd" d="M99.21 438.95c3.59-.11 7.17-.48 10.64-.84 8.1-.85 16.31-1.34 23.52-1.77l5.7-.33c1.91-.1 3.82-.2 5.72-.32l1.05-.06c3.13-.18 6.38-.36 9.55-.8l1.68-.23c3.29-.45 6.65-.92 9.97-1.56 4.51-.9 8.96-1.9 12.69-2.76l5.78-1.38a331.83 331.83 0 0116.02-3.57c15.45-2.93 30.87-5.91 46.28-8.94 5.68-1.1 11.42-1.75 17.02-2.36l4.78-.54c4.63-.55 9.33-.95 13.89-1.34 3.02-.26 6-.51 9.03-.8 6.53-.66 13.18-1.57 19.6-2.45 8.4-1.16 17.05-2.36 25.64-2.96a646 646 0 0112.73-.75c10.56-.55 21.42-1.12 32.1-2.97a98.25 98.25 0 0010.34-2.3c5.56-1.57 10.97-3.27 16.16-6.72 6.16-4.1 11.01-9.57 14.78-16.71 2.1-3.95 3.85-8.82 5.53-15.31 1.79-6.9 3.4-13.76 4.74-20.4 1.04-5.01 2.05-10.44 2.69-16.2.9-7.92 1.49-15.92 1.82-23.82.23-4.97.34-9.62.34-14.25 0-1.5 0-3-.04-4.5-.07-6.14-.52-12.31-.93-18.28-.3-4.47-.56-8.94-.82-13.42-.37-6.43-.71-12.85-1.05-19.28-.3-5.54-.56-11.07-.9-16.6a737.56 737.56 0 00-3.5-40.6l-.86-7.43c-1.05-9.33-2.13-18.98-2.99-28.53l-.22-2.43a670.77 670.77 0 00-3.47-32.18l-.52-3.75c-.64-4.33-1.27-8.81-1.98-13.16a245.36 245.36 0 00-4.6-21.63c-.48-1.8-1-3.56-1.6-5.38l-.26-3.65-.45-5.44.04.24c-.67-9.27-1.6-17.4-2.84-24.84l-.15-.96c-.15-.9-.3-1.81-.48-2.67-.15-.57-.26-1.17-.41-1.76-.34-1.65-.71-3.34-1.3-4.74-.23-.45-.42-.9-.64-1.32l-.12-.24c-.37-.82-1.38-2.99-2.01-3.61-.9-.93-1.9-1.72-2.91-2.37-1.68-1.06-3.51-1.47-5.15-1.82-11.72-2.58-23.78-3.82-35.43-5.03l-.37-.04-2.05-.25a89.24 89.24 0 00-9.22-.81c-3.96-.08-7.2 0-10.23.23-2.61.21-5.26.6-7.84.98-4.22.6-8.58 1.25-12.91 1.13-3.03-.08-6.05-.25-9.07-.43-4.04-.24-8.25-.49-12.36-.47-7.61.04-15.34 1.08-22.13 2-11.02 1.5-22.29 1.77-33.19 2.03-3.84.09-7.69.18-11.53.32-4.26.16-8.51.43-12.77.7-3.4.2-6.83.42-10.26.58-4.22.2-8.48.18-12.62.16-3.5 0-7.02-.03-10.52.09l-6.05.18c-5.49.17-10.98.33-16.46.6-3.59.18-7.43.41-11.24 1.04-3.92.62-7.8 1.46-11.12 2.2l-2.69.6c-2.8.65-5.71 1.3-8.55 1.78-4.21.71-8.43 1.38-12.65 2-3.5.51-6.98 1.1-10.64 1.72-.97.17-1.98.32-2.95.47-2.54.4-5.15.81-7.69 1.43-5 1.2-10.08 2.56-14.96 3.87-2.92.78-5.83 1.56-8.74 2.3a197.07 197.07 0 01-22.36 4.26c-3.5.49-7.09 1.17-10.52 1.84l-.45.08c-5.79 1.12-10.27 2.51-14.45 4.51a23.56 23.56 0 00-8.58 6.92 36.08 36.08 0 00-3.36 5.34c-.97 1.86-1.64 3.7-2.43 5.83l-.19.53c-1.04 2.82-1.75 5.93-2.5 9.12L7.2 66.5c-.82 3.6-1.68 7.3-2.2 11.08-.37 2.74-.74 5.47-1.04 8.23a517.02 517.02 0 00-3.44 40.8c-.22 5.97-.4 12.27-.48 18.74C0 147.03 0 148.72 0 150.4v5.1c.04 2.52.04 5.13.15 7.66a759.15 759.15 0 003.06 42.2c.78 7.66 1.75 15.39 2.72 22.87l1.57 12.42c.56 4.89.97 9.91 1.3 14.78l.2 2.44c.67 8.57 1.79 16.9 3.24 26.79.49 3.13.94 6.25 1.42 9.39.71 5.11 1.5 10.22 2.28 15.3 1.86 11.58 3.73 20.22 6.05 28.02.74 2.46 1.53 4.9 2.31 7.33l.7 2.26c1.28 3.94 2.66 7.85 4 11.64l1.46 4.12c2.72 7.7 5.67 15.31 8.5 22.69l2.7 6.95c2.27 5.97 4.25 10.7 6.16 14.9 1.23 2.63 2.42 5.2 3.7 7.74 1.11 2.2 2.27 4.3 3.42 6.32l.23.44a33.96 33.96 0 003.25 4.93c8.43 10.4 20.08 11.27 28.59 11.92 4.66.35 8.55.46 12.2.34"/></svg>