<svg xmlns="http://www.w3.org/2000/svg" width="237" height="266"><path fill="#3E4E5C" fill-rule="evenodd" d="M58.35 179.77l-.07-.2.26.73-.2-.53zm169.17-105.8c-1.82-4.27-4.34-8.38-8.19-13.39a182.1 182.1 0 00-4.72-5.9c-.63-.74-1.26-1.5-1.89-2.27-2.48-2.99-5.04-6.07-7.98-8.72-5.3-4.8-11.13-9.14-16.34-13.04-5.49-4.1-11.16-8.32-17.47-11.16-1.34-.6-2.66-1.25-3.97-1.86-.97-.46-1.93-.92-2.9-1.35a206.4 206.4 0 00-15.47-6.66c-1.81-.72-3.69-1.34-5.5-1.98l-1.37-.45c-2.34-.8-4.27-1.4-6.05-1.87-2.34-.62-5-1.32-7.6-1.92-2.68-.63-5.4-1.13-7.74-1.55-.8-.13-1.6-.24-2.42-.34l-.79-.1-1.06-.11a44.2 44.2 0 00-3.51-.38l-1.32-.1c-1.95-.12-3.97-.26-5.96-.32-.4 0-.8-.02-1.22-.04a34.7 34.7 0 00-2.52-.04c-1.45.07-2.9.13-4.33.22-.97.04-1.94.16-2.88.27l-.28.03-1.04.11c-.75.09-1.5.18-2.24.31-5.07.83-10.1 1.81-14.37 2.65-10.32 2.03-20.48 4.9-29.05 7.46l-1.61.46c-1.27.4-2.55.76-3.82 1.14-2.3.7-5.33 1.69-8.32 2.87-2.1.84-4.18 1.83-6.18 2.79l-.4.17a73.41 73.41 0 00-5.93 3.07 94.08 94.08 0 00-7.06 4.57 30.13 30.13 0 00-5.33 4.65 26.43 26.43 0 00-4.14 6.67 47.72 47.72 0 00-2.87 8.02 45.6 45.6 0 00-.9 6.58 40.15 40.15 0 00-.18 5.4 59.93 59.93 0 002.06 11.86c.9 3.44 2.19 7.93 4.16 12.09.85 1.8 1.77 3.61 2.68 5.4l.93 1.83c2.02 4.03 4.24 8.06 6.39 11.93a311.2 311.2 0 016.94 13.04l.37.76a253.75 253.75 0 003.74 9.87l1.76 4.51 2.4 6.38c.93 2.48 1.87 4.98 2.83 7.48l1.14 2.96 3.57 9.36c.76 2.36 1.5 4.72 2.22 7.05l1.1 3.59a346.05 346.05 0 006.39 19.43l.06.18.06.18.01.03v-.03c1.38 4.02 2.78 8 4.2 11.99l.43 1.26.56 1.63.1.32.1.3c1.93 6.52 3.82 13.06 5.7 19.6l.47 1.62 1.05 3.66c2.36 8.31 4.82 16.92 8.36 24.98.39.9.87 1.86 1.44 2.9 1 1.85 2.04 3.77 3.42 5.35l.5.57c.63.77 1.28 1.53 2.08 2.13.17.12.34.24.52.39.49.37 1 .77 1.58 1.06 1.18.56 2.6 1.2 4.08 1.42 2.77.4 5.53.49 8.2.22.45-.05.91-.07 1.37-.1.92-.07 1.86-.16 2.78-.3l1.93-.32 1.94-.3c1-.17 1.96-.37 2.96-.62l.14-.04 1.18-.25c1.08-.24 2.15-.48 3.21-.78 9.22-2.55 18.04-5.22 28.6-8.45l13.73-4.2c2.17-.69 4.35-1.35 6.52-2.02l1.84-.56.85-.26c3.27-1 6.44-2.03 9.43-3.58a62.98 62.98 0 008.36-5.09l1.74-1.25 1.73-1.23c.77-.58 1.5-1.18 2.23-1.78l.2-.15.88-.7c.59-.5 1.2-.98 1.75-1.5l.93-.84c1.44-1.31 2.94-2.64 4.33-4.08A197.02 197.02 0 00205 210.4c1.73-2.21 3.3-4.2 4.82-6.27a191.44 191.44 0 0012.68-19.36c.39-.67.73-1.35 1.08-2.04l.4-.82.5-.94c.37-.66.73-1.35 1.05-2.03l.77-1.72c1.08-2.33 2.2-4.74 3.15-7.18a91.35 91.35 0 005.38-19.88c.56-3.92.86-7.9 1.13-11.77l.05-.74a164.63 164.63 0 00.31-15.49c0-.75 0-1.5-.04-2.25l-.05-.6a294.31 294.31 0 00-.9-10.52c-.3-2.62-.67-5.44-1.12-8.55-.39-2.64-.9-5.33-1.36-7.69-.37-1.9-.87-3.97-1.52-6.33l-.55-2.01c-.92-3.4-1.87-6.95-3.27-10.24z"/></svg>