<svg xmlns="http://www.w3.org/2000/svg" width="1280" height="153"><g fill="none" fill-rule="evenodd"><path fill="#FFF" d="M0 0h1280v153H0z"/><path fill="#E7F1F1" d="M1280 159c-.27-23.64-.5-35.65-.7-36.03l-.87-7.56-1.49-11.26.13.49c-2.23-19.21-5.33-36.06-9.43-51.48l-.5-1.98c-.49-1.88-.98-3.77-1.6-5.55-.5-1.18-.87-2.41-1.37-3.64-1.11-3.41-2.35-6.93-4.34-9.82-.74-.93-1.36-1.85-2.1-2.75l-.38-.5c-1.24-1.69-4.59-6.18-6.7-7.47a57.94 57.94 0 00-9.67-4.92c-5.58-2.2-11.66-3.03-17.11-3.77-38.94-5.35-79-7.92-117.7-10.4l-1.23-.1-6.82-.52c-10.05-.77-20.46-1.57-30.63-1.68a544.75 544.75 0 00-33.98.49c-8.68.43-17.49 1.24-26.04 2.01-14.02 1.27-28.53 2.6-42.91 2.35-10.05-.16-20.1-.52-30.14-.9-13.4-.49-27.4-1-41.05-.96-25.3.07-50.97 2.24-73.54 4.14-36.58 3.11-74.03 3.67-110.24 4.2-12.78.2-25.55.38-38.32.68-14.14.33-28.28.88-42.42 1.43-11.28.45-22.69.88-34.1 1.22-14.01.4-28.15.37-41.92.33-11.65-.02-23.31-.06-34.97.18l-20.09.37c-18.23.35-36.46.68-54.69 1.26-11.9.37-24.68.84-37.32 2.14a992.71 992.71 0 00-36.96 4.55l-8.93 1.27c-9.3 1.33-18.97 2.7-28.4 3.68a3432.01 3432.01 0 01-42.04 4.14c-11.66 1.06-23.19 2.3-35.34 3.56-3.23.35-6.57.66-9.8.98-8.43.83-17.11 1.68-25.55 2.97-16.61 2.48-33.48 5.3-49.73 8-9.67 1.62-19.34 3.24-29.01 4.8-27.16 4.42-53.95 7.04-74.29 8.82-11.65 1-23.56 2.42-34.97 3.8l-1.49.18c-7.3.88-17.05 2.42-29.25 4.64v86.46L1280 159z"/></g></svg>