<svg xmlns="http://www.w3.org/2000/svg" xmlns:xlink="http://www.w3.org/1999/xlink" width="250" height="259"><defs><path id="a" d="M248.82 151.91c-.1-3.47-.21-6.15-.37-8.63l-.1-2c-.1-1.83-.21-3.76-.41-5.6l-.22-1.93c-.27-2.48-.55-5-.8-7.44-.2-1.9-.5-3.83-.77-5.67-.14-.96-.29-1.93-.42-2.9-.6-4.38-1.29-9.37-1.74-14.3a670.74 670.74 0 01-2.22-32.23 417.8 417.8 0 00-.52-8.34c-.15-2.2-.34-4.77-.7-7.28-.55-4.06-1.15-8.09-1.75-12.14l-.52-3.51-.89-6.25c-.43-3.06-.86-6.15-1.34-9.21a95.72 95.72 0 00-1.92-9.12 39.6 39.6 0 00-1.19-3.7 24.22 24.22 0 00-2.8-5.86 11.8 11.8 0 00-2.96-3.1c-.7-.51-1.39-.77-2.18-1.09l-.18-.1a16.07 16.07 0 00-5.01-1l-.96-.06c-1.27-.1-2.55-.16-3.83-.22-2.78-.1-5.55-.17-8.32-.2-1.42-.03-2.85-.03-4.27-.03h-3.22c-3 .03-6 .2-8.78.35-3.6.23-7.25.62-10.78.97l-4.66.48a937.9 937.9 0 01-32.02 2.42c-3.3.2-6.58.35-9.88.51l-5.64.3c-1.9.1-3.8.19-5.71.25-3.07.13-6.14.3-9.21.48-.82.07-1.64.1-2.47.17-1.81.1-3.68.19-5.52.38l-4.53.45-4.53.49c-4.4.41-8.88 1.06-13.2 1.64l-2.84.39a5395.02 5395.02 0 00-36.62 5.12c-3.33.48-6.78 1-10.19 1.41-2.7.33-5.38.65-8.07 1.03l-.95.13c-2.08.3-4.23.58-6.3 1.03-1.07.26-2.2.49-3.46.87-.83.23-1.87.55-2.66.94-.94.48-1.63 1-2.37 1.6-2.78 2.36-4.3 6.1-5.54 9.77C1.35 36.9.73 42.96.37 48.08 0 53.36-.01 58.65 0 63.58c.03 9.08.11 21.06.52 32.97a615.07 615.07 0 002.3 39c.26 3.26.53 6.5.83 9.73l1.5 16.49.02.35c.24 2.68.43 5.35.63 8.02a544.7 544.7 0 002.11 23.06c1.13 9.8 2.17 20.23 3.15 31.85.18 2.13.4 4.58.8 7a59.5 59.5 0 001.16 5.56 34 34 0 002.72 6.9c1.67 3.22 4.08 7.21 7.86 9.72 4.04 2.68 8.9 3.16 13.23 3.38v-.03l.19.03c.15 0 .3.04.44.04h.21v-.04l.17.04.3.03h.26c.21 0 .42.03.61.03.26.03.5.03.85.03h.04c1.32.07 2.65.1 3.97.13 1.57.03 3.14.03 4.71.03l1.58.04c6.25.03 12.51.03 18.77.03h15.34c2.12.03 4.24.03 6.36.03 5.04 0 11.66-.03 18.24-.2 5.03-.12 10.14-.41 15.08-.7l.55-.03c4.66-.26 9.25-.87 14.71-1.71 2.82-.42 5.64-.9 8.45-1.39 2.38-.41 4.75-.8 7.13-1.19l1.72-.29c2.13-.32 4.27-.67 6.42-.96l3.47-.45c1.48-.2 2.96-.4 4.43-.58 2.25-.3 4.66-.65 7.02-1.16 1.17-.26 2.33-.49 3.49-.74l3.82-.78c4.72-1.06 9.33-2.77 13.8-4.4l1.13-.43a70.3 70.3 0 017.03-1.87l.66-.16.66-.16 3.6-.32c1.26-.13 2.52-.26 3.77-.42l.98-.13c.98-.1 1.99-.22 2.95-.42a63.43 63.43 0 0014.59-5.12 28.85 28.85 0 005.48-3.28 13.64 13.64 0 003.1-3.54 27.2 27.2 0 001.83-3.93c.44-1.16.97-2.55 1.42-4.03.38-1.26.65-2.45.95-3.77.67-2.96.96-5.99 1.2-8.85.2-2.42.32-4.8.38-7.12.12-5.64.16-11.37.2-16.9l.04-5.03c.07-8.54.15-17.36-.1-26.03"/><path id="b" d="M248.82 151.91c-.1-3.47-.21-6.15-.37-8.63l-.1-2c-.1-1.83-.21-3.76-.41-5.6l-.22-1.93c-.27-2.48-.55-5-.8-7.44-.2-1.9-.5-3.83-.77-5.67-.14-.96-.29-1.93-.42-2.9-.6-4.38-1.29-9.37-1.74-14.3a670.74 670.74 0 01-2.22-32.23 417.8 417.8 0 00-.52-8.34c-.15-2.2-.34-4.77-.7-7.28-.55-4.06-1.15-8.09-1.75-12.14l-.52-3.51-.89-6.25c-.43-3.06-.86-6.15-1.34-9.21a95.72 95.72 0 00-1.92-9.12 39.6 39.6 0 00-1.19-3.7 24.22 24.22 0 00-2.8-5.86 11.8 11.8 0 00-2.96-3.1c-.7-.51-1.39-.77-2.18-1.09l-.18-.1a16.07 16.07 0 00-5.01-1l-.96-.06c-1.27-.1-2.55-.16-3.83-.22-2.78-.1-5.55-.17-8.32-.2-1.42-.03-2.85-.03-4.27-.03h-3.22c-3 .03-6 .2-8.78.35-3.6.23-7.25.62-10.78.97l-4.66.48a937.9 937.9 0 01-32.02 2.42c-3.3.2-6.58.35-9.88.51l-5.64.3c-1.9.1-3.8.19-5.71.25-3.07.13-6.14.3-9.21.48-.82.07-1.64.1-2.47.17-1.81.1-3.68.19-5.52.38l-4.53.45-4.53.49c-4.4.41-8.88 1.06-13.2 1.64l-2.84.39a5395.02 5395.02 0 00-36.62 5.12c-3.33.48-6.78 1-10.19 1.41-2.7.33-5.38.65-8.07 1.03l-.95.13c-2.08.3-4.23.58-6.3 1.03-1.07.26-2.2.49-3.46.87-.83.23-1.87.55-2.66.94-.94.48-1.63 1-2.37 1.6-2.78 2.36-4.3 6.1-5.54 9.77C1.35 36.9.73 42.96.37 48.08 0 53.36-.01 58.65 0 63.58c.03 9.08.11 21.06.52 32.97a615.07 615.07 0 002.3 39c.26 3.26.53 6.5.83 9.73l1.5 16.49.02.35c.24 2.68.43 5.35.63 8.02a544.7 544.7 0 002.11 23.06c1.13 9.8 2.17 20.23 3.15 31.85.18 2.13.4 4.58.8 7a59.5 59.5 0 001.16 5.56 34 34 0 002.72 6.9c1.67 3.22 4.08 7.21 7.86 9.72 4.04 2.68 8.9 3.16 13.23 3.38v-.03l.19.03c.15 0 .3.04.44.04h.21v-.04l.17.04.3.03h.26c.21 0 .42.03.61.03.26.03.5.03.85.03h.04c1.32.07 2.65.1 3.97.13 1.57.03 3.14.03 4.71.03l1.58.04c6.25.03 12.51.03 18.77.03h15.34c2.12.03 4.24.03 6.36.03 5.04 0 11.66-.03 18.24-.2 5.03-.12 10.14-.41 15.08-.7l.55-.03c4.66-.26 9.25-.87 14.71-1.71 2.82-.42 5.64-.9 8.45-1.39 2.38-.41 4.75-.8 7.13-1.19l1.72-.29c2.13-.32 4.27-.67 6.42-.96l3.47-.45c1.48-.2 2.96-.4 4.43-.58 2.25-.3 4.66-.65 7.02-1.16 1.17-.26 2.33-.49 3.49-.74l3.82-.78c4.72-1.06 9.33-2.77 13.8-4.4l1.13-.43a70.3 70.3 0 017.03-1.87l.66-.16.66-.16 3.6-.32c1.26-.13 2.52-.26 3.77-.42l.98-.13c.98-.1 1.99-.22 2.95-.42a63.43 63.43 0 0014.59-5.12 28.85 28.85 0 005.48-3.28 13.64 13.64 0 003.1-3.54 27.2 27.2 0 001.83-3.93c.44-1.16.97-2.55 1.42-4.03.38-1.26.65-2.45.95-3.77.67-2.96.96-5.99 1.2-8.85.2-2.42.32-4.8.38-7.12.12-5.64.16-11.37.2-16.9l.04-5.03c.07-8.54.15-17.36-.1-26.03"/></defs><g fill="#A26F54" fill-rule="evenodd" transform="translate(.19 .98)"><use xlink:href="#a"/><use xlink:href="#b"/></g></svg>