<svg xmlns="http://www.w3.org/2000/svg" width="372" height="561"><g fill="#18777A" fill-rule="evenodd"><path d="M243.6 163.15l.36-.13.44-.17-.8.3M385.66 304.92c-.37 2.02-.85 4-1.42 5.96a88.12 88.12 0 01-5.94 11.93c-3.16 4.39-6.5 8.62-10.14 12.63-3.7 4.09-7.73 7.84-11.82 11.53-5.89 4.9-11.87 9.85-18.32 13.96-7.35 4.7-14.74 9.09-22.68 12.75a86.44 86.44 0 01-13.85 3.87 125.28 125.28 0 01-17.42 1.71c-8.1-.43-16.1-2.56-23.8-5.1a120.76 120.76 0 01-15.88-7.62 210.9 210.9 0 01-14.82-9.48 269.55 269.55 0 01-11.52-9.5 124.2 124.2 0 01-9.97-10.02c-2.76-3.56-5.37-7.2-7.64-11.1a70.82 70.82 0 01-2.5-6.24c-.96-4.15-1.58-8.32-2.08-12.56-.23-3.6-.41-7.2-.47-10.8-.07-4.97.24-9.85.7-14.77l.7-5.88-.66 5.5c.9-7 2.07-13.9 3.94-20.7.54-1.44 1.1-2.87 1.73-4.28a150.19 150.19 0 0110.5-19.54 41.65 41.65 0 014.95-6.36c1.1-1.1 2.23-2.17 3.38-3.22 5.4-4.02 11.05-7.64 16.8-11.16 2.9-1.77 5.77-3.65 8.82-5.16 2.36-1.18 4.76-2.22 7.19-3.22 5.4-1.9 10.84-3.57 16.41-4.98 6.36-1.61 13.13-2.17 19.68-2.43 6.19.2 12.36.75 18.52 1.32 4.23.39 8.56.58 12.77 1.27a77.87 77.87 0 007.33 4.56c3.08 1.67 6.18 3.28 9.3 4.87 5.56 2.84 11.22 5.55 16.48 8.92 2.49 2.1 4.82 4.3 7.03 6.74l1.87 2.07c1.1 1.6 2.15 3.23 3.24 4.82 2.53 3.63 4.65 7.59 6.72 11.52 1.69 3.76 3.23 7.57 4.66 11.42.88 3.44 1.78 6.88 2.76 10.3 1.1 3.87 2.4 7.65 3.66 11.46l.73 2.18a79.6 79.6 0 011.04 7.36c.19 5.16.35 10.32.02 15.47zm-65.85-102.4h-.04l-.48-.36.52.36zm85 145.1c1.22-2.3 2.23-4.65 3.27-7.02a86.88 86.88 0 004.15-11.85 80.9 80.9 0 002.12-12.46c.31-2.87.32-5.7.24-8.55l.06-.37c.51-3.25.92-6.53 1.16-9.8.32-4.4.2-8.79-.08-13.17-.41-6-.93-12.09-1.91-18.03-.8-4.83-1.76-9.63-2.78-14.42-1.36-6.41-2.97-12.87-5.33-18.97a149.63 149.63 0 00-8.6-17.92c-1.3-2.33-2.57-4.69-4.1-6.87a138.72 138.72 0 00-7.9-9.94c-3.25-3.81-6.57-7.62-10.18-11.1a74.82 74.82 0 00-9.4-7.49 70.62 70.62 0 00-6.19-3.8c-8.73-4.7-17.82-8.75-26.4-13.73-.63-.36-1.26-.74-1.87-1.12-2.31-1.44-2.46-1.46-5.93-2.64a26.27 26.27 0 00-6.52-1.15l-9.75-.83c-4.69-.4-9.38-.8-14.1-1.04-4.64-.24-9.4-.57-14.05-.15l-5.25.48c-10.89.97-21.26 4.24-31.44 8.06l-3.38 1.28c-.23.1-.47.18-.7.27l2.31-.88c-4.64 1.77-9.25 3.6-13.56 6.11-3.89 2.26-7.7 4.7-11.46 7.18-3.93 2.58-7.92 5.09-11.64 7.96-5.24 4.04-10.62 8.48-14.46 13.94-3.32 4.7-6.48 9.55-9.34 14.54-2.3 4-4.74 8.07-6.6 12.29-2.55 5.8-4.9 11.7-6.64 17.81a119.6 119.6 0 00-2.93 14.38 288.83 288.83 0 00-2.26 20.22c-.4 4.9-.48 9.8-.22 14.7.39 7.32.87 14.62 1.72 21.9.84 7.03 2.51 14.11 4.81 20.8a90.28 90.28 0 009.78 19.97c3.9 6 8.4 11.57 13.12 16.95a134.3 134.3 0 0011.4 11.25c8.75 7.85 18.38 14.7 28.37 20.85 4.5 2.78 9.18 5.16 13.98 7.39 2.22 1.02 4.54 1.87 6.83 2.77a98.45 98.45 0 0010.39 3.58c5.63 1.5 11.34 3.03 17.14 3.61 2.75.28 5.51.39 8.28.39 5.54 0 11.1-.45 16.58-.96 4.81-.46 9.59-1.62 14.2-3.03a99.25 99.25 0 0017.2-6.83c9.51-5 18.33-11.01 26.71-17.7 4.87-3.88 9.78-7.88 14.23-12.23 3.83-3.73 7.82-7.46 11.2-11.62a166.63 166.63 0 0011.35-15.69c1.53-2.41 3.02-4.8 4.37-7.32zM243.98 162l-.28.11.6-.22-.32.12M281.9 485.01c-1.01.9-1.48 2.4-1.97 3.6-.43 1.05-.86 2.1-1.22 3.15l-1.72 4.9a166 166 0 00-2.5 7.77c-1.83 6.17-3.72 12.38-5.17 18.64-1.45 6.26-3.12 12.46-4.6 18.7-1.5 6.33-2.82 12.66-2.71 19.2l.02.03h.01c1.82-2.7 3.7-5.36 5.4-8.13a63.22 63.22 0 006.6-13.2 71.7 71.7 0 003.73-16.36c.66-5.6.95-11.23 1.3-16.85.3-4.68.8-9.33 1.3-14 .31-2.34.6-4.7 1.32-6.95l.23-.34.03.1v.06c.01.02.05.02.05 0 0-.12 0-.1-.03-.28 0-.04-.04-.07-.07-.04"/><path d="M267.04 552.93l-.06.1-.02.04.08-.14M181.44 469.08a16.01 16.01 0 00-5.97 2.68c-5.1 3.57-9.6 8-13.98 12.39-2.99 3-5.98 5.98-8.87 9.07l-3.69 3.9c-1.4 1.45-2.69 3.03-4.12 4.45-2.98 2.96-5.85 6.04-8.7 9.11-3.1 3.34-6.16 6.75-9.05 10.26a355.58 355.58 0 00-16.05 21.02v.04c3.38-1.2 6.88-2.41 10.03-4.1 3.18-1.71 6.3-3.57 9.3-5.57a92.47 92.47 0 0011.93-9.7c1.27-1.21 2.6-2.4 3.78-3.7 2.14-2.4 4.42-4.82 6.23-7.47 2.22-3.27 4.36-6.6 6.34-10.03a596.71 596.71 0 0111.24-18.91c2.55-3.83 5.18-7.55 8.65-10.65a14.7 14.7 0 013.13-1.93l1.02-.25.69.05.19.15.12.27c.13.55.15 1.11.23 1.68 0 .01.05.02.05 0 0-.63.24-1.75-.21-2.26-.54-.62-1.5-.66-2.29-.5M120.98 384.06c-6.15-1.39-12.26-2.3-18.61-2-4.26.2-8.51.43-12.76.69-8.24.51-16.47 1.52-24.57 3.14-4.36.88-8.65 1.93-12.9 3.27-3.98 1.27-8.01 2.46-11.96 3.84-3.03 1.06-6.05 2.2-9.13 3.15-5.2 1.61-10.44 3.13-15.65 4.71-3.94 1.2-7.82 2.5-11.67 3.95l.27-.1c-1.33.5-2.66 1-3.99 1.52-.02.01 0 .04.01.05 10.64 3.48 21.91 6.72 33.22 6.72 2.48 0 4.96-.16 7.44-.5 3.82-.53 7.76-1.04 11.5-2.02 3.9-1.02 7.78-2.19 11.56-3.59 7.09-2.64 13.88-5.88 20.64-9.25 6.8-3.4 13.53-7.1 20.65-9.84 5.2-1.87 10.52-2.78 15.96-3.69.02 0 .01-.04-.01-.05M28.91 267.57c3.88.52 7.73 1.11 11.63 1.51 3.8.38 7.6.89 11.4 1.38 2.62.33 5.24.68 7.86 1.04 2.21.31 4.45.53 6.65.92 3.58.65 7.23 1.06 10.8 1.76 3.76.74 7.52 1.42 11.25 2.27 7.6 1.73 15.19 3.58 22.59 6.02 1.91.68 3.72 1.47 5.39 2.61l.75.65.57.78v-.01.02l.14.37.02.1.02.01s.02 0 .02-.03c-.26-1.91-2.38-3.36-3.92-4.34-2.09-1.34-4.3-2.45-6.5-3.59-3.46-1.77-6.96-3.44-10.43-5.17-3.47-1.73-6.92-3.55-10.47-5.12-3.22-1.42-6.42-2.94-9.73-4.17-5.56-2.06-11.1-4.2-16.92-5.44-19.19-4.05-39.14-1.9-58.02 2.64-.02 0-.01.04 0 .05 1.04.3 2.07.62 3.1.91 7.8 2.2 15.75 3.77 23.8 4.83M327.45 127.62c.32-1.98.8-3.87 1.43-5.78 1.26-3.53 2.5-7.13 4.02-10.54 1.25-2.82 2.53-5.63 3.75-8.46 1.67-3.9 3.34-7.79 4.82-11.77 1.59-4.25 3.07-8.51 4.44-12.85 2.56-8.16 4.2-16.48 5.35-24.95.63-4.57 1.05-9.16 1.39-13.76.26-3.4.44-6.8.3-10.2A301.3 301.3 0 00350.47.02c0-.02-.02-.03-.03 0a379.79 379.79 0 00-7.5 34.87 645.64 645.64 0 00-5.06 33.76c-.8 4.82-1.43 9.66-2.32 14.47-.46 2.53-.82 5.1-1.39 7.6-.7 3.05-1.39 6.12-2.07 9.18-.53 2.4-1.15 4.76-1.72 7.14-.56 2.28-1.02 4.6-1.49 6.9-.8 4.03-1.89 8.15-1.88 12.27 0 .13-.05 3.38.36 3.79-.04-.8.02-1.58.1-2.38M327.01 130.03c.02 0 .02-.05 0-.05h-.03s0 .05.02.05h.01M327.02 129.04c-.02 0-.03-.07-.04-.08 0 .03.02.05.04.08M327 129.01v-.02.02M180.08 49.01c5.17 6.32 9.8 13.01 14.81 19.44 3.13 4 6.24 8.02 9.5 11.92 5.6 6.7 11.59 13.11 17.48 19.57 3.1 3.77 6.36 7.47 8.93 11.62 1.9 3.07 3.65 6.36 5.83 9.24 1.18 1.57 2.53 3.49 4.26 4.5.64.39 1.2.7 1.92.7h.18c.02 0 .01-.05 0-.05a5.78 5.78 0 00-.4-.1h-.01l-.81-.52c-.22-.2-.42-.41-.63-.62a24.2 24.2 0 01-2.04-3.03c-2.28-4.47-3.5-9.32-5.45-13.9-.78-1.86-1.46-3.82-2.38-5.63l-3.03-5.88c-3.94-7.6-8.64-14.84-13.53-21.87a175.72 175.72 0 00-14.07-17.5c-4-4.42-8.13-8.87-12.92-12.47-3.58-2.68-7.18-5.04-11.35-6.73a23.64 23.64 0 00-10.35-1.66c-.03 0-.02.04-.01.05.93.55 1.84 1.15 2.74 1.76 4.29 3.18 7.9 7.11 11.33 11.16M81.13 144.76c3.83 2.5 7.5 5.3 11.07 8.15a153.9 153.9 0 017 5.51c3.8 2.94 7.5 6.04 11.1 9.22 3.38 3 6.44 6.25 9.43 9.63 2.9 3.24 5.5 6.7 8.25 10.05 1.48 1.8 3 3.53 4.5 5.31 1.09 1.29 2.13 2.6 3.14 3.96.46.62.46.75.23 1.29-.04.1-.2.16-.3.08-.26-.22-.44-.37-.61-.68 0-.02.03-.03.04-.02.11.1.22.2.35.29h.01l.22.1v-.04l-.53-.62c-3.44-2.44-7.24-4.26-10.92-6.3-3.1-1.72-6.09-3.62-9.18-5.34-6.06-3.37-12.29-6.38-18.5-9.48a79.57 79.57 0 01-10.16-5.97 73.95 73.95 0 01-7.96-6.66c-2.5-2.36-5-4.8-7.21-7.44-3.72-4.46-6.86-9.54-11.37-13.26a40.08 40.08 0 00-5.72-3.22c-.02-.02 0-.03.02-.04 4.56-1.19 9.19-1.86 13.83-.6a46.73 46.73 0 0113.27 6.08"/></g></svg>