<svg xmlns="http://www.w3.org/2000/svg" width="443" height="478"><g fill="#18777A" fill-rule="evenodd"><path d="M529.41 405.62c-.06.06-.06.12-.06.18-.5.27-1 .5-1.57.74-6.77 1.99-13.73 2.85-20.7 3.67-5.95.7-11.97 1.24-18 1.57-12.41.7-24.77.62-37.25.27-12.92-.38-25.77-.77-38.7-1.23-12.54-.43-25.08-1.04-37.62-1.12-15.37-.07-30.73.59-46.1.95-15.68.38-31.3.66-46.97.96-15.24.3-30.48.42-45.72.92-14.68.46-29.41 1.31-44.09 1.35-15.61.05-31.23.46-46.91 1.17-14.93.68-29.91 1.3-44.84 2.52-14.68 1.2-29.35 2.5-43.96 3.95-2.2.22-4.4.47-6.59.75.25-.87.56-1.73.82-2.6 1.75-5.37 3.07-10.85 4.64-16.25 1.5-5.1 3.26-10.08 5.08-15.05a343.85 343.85 0 003-7.7 370.1 370.1 0 006.53-10.95 815.94 815.94 0 0020.82-38.3c6.59-13.11 13.05-26.29 19.44-39.5 6.65-13.95 12.86-28.14 19.76-41.98 13.48-27.2 27.1-54.34 39.45-82.08 2.88-6.4 5.58-12.89 8.59-19.17 3.7-7.56 7.4-15.05 11.29-22.53 6.27-12.24 13.35-24 20.75-35.55 3.08-4.06 6.28-8.04 9.47-11.98 3.58-4.28 7.72-8.17 11.6-12.08 3.96-3.85 8.03-7.44 12.05-11.18 3.45-3.2 6.77-6.52 10.22-9.63a31.7 31.7 0 012.64-1.53c.18.05.37.1.62.15 1 .59 1.95 1.22 2.89 1.9 3.89 3.43 7.52 7.11 11.22 10.68 4.08 3.87 8.16 7.66 12.36 11.39 6.9 6.2 14.17 12.1 20.82 18.6 3.26 3.17 6.71 6.23 9.85 9.56 3.2 3.5 6.7 6.86 9.78 10.54a876.14 876.14 0 0118.37 23.18c-.18-.2-.3-.4-.43-.59a945.09 945.09 0 0025.96 32.88c8.4 10.16 17.18 20.01 25.9 29.86 8.84 9.93 17.69 19.85 26.53 29.8 7.4 8.44 14.42 17.21 21.32 26.12 7.15 10.31 13.8 20.9 20.95 31.24 7.4 10.72 15.05 21.21 22.77 31.69 14.04 19.04 26.9 39.26 37.19 60.6 1.38 3.2 2.76 6.42 3.95 9.7.81 2.22 1.5 4.5 2.07 6.78.44 2.17.75 4.33 1.06 6.52.07 3.61.07 7.2-.25 10.81zm19.7-27.44a135.15 135.15 0 00-7.28-23.08 346.1 346.1 0 00-10.98-23.24c-6.9-13.35-14.92-26.02-23.45-38.37-4.33-6.19-8.72-12.25-13.1-18.34-4.34-5.98-8.35-12.19-12.43-18.3-4.32-6.48-8.46-13.11-12.66-19.68a324.6 324.6 0 00-12.8-18.36c-9.28-12.51-19.32-24.4-29.41-36.26-10.41-12.26-20.95-24.42-31.3-36.75a1074.3 1074.3 0 01-26.59-33.04c-6.77-9.18-13.42-18.52-20.57-27.4-3.64-4.5-7.15-9.05-11.04-13.31a360.2 360.2 0 00-11.91-12.63 632 632 0 00-12.67-12.25c-3.45-3.32-7.15-6.45-10.66-9.76a468.7 468.7 0 01-13.61-13.28c-5.08-5.14-9.85-10.66-15.5-15.24-3.07-2.54-5.7-4.59-9.34-6.16-2.76-1.2-4.83-2.04-7.71-2.49a21.66 21.66 0 00-8.97.53c-2.57.72-5.7 1.7-7.96 3.37a128.24 128.24 0 00-11.73 10.05c-5.4 5.34-11.17 10.44-16.43 15.93a214.53 214.53 0 00-15.18 17.21c-5.52 7-10.29 14.4-14.93 22-7.84 13-14.1 26.96-20.38 40.77-2.76 6.1-5.27 12.31-7.71 18.53l-.94 1.41c-1.82 2.68-3.52 5.4-5.27 8.12-1.63 2.6-3.39 5.19-4.96 7.85-3.32 5.66-6.4 11.43-9.65 17.12a401.82 401.82 0 00-9.54 18.01c-1.5 3-3.2 5.96-4.51 9.04l-1.13 2.64c-6.4 9.76-12.73 19.6-18.13 30.03-3.5 6.81-6.83 13.71-10.22 20.6A418.56 418.56 0 0177.8 263.9c-3.51 6.38-7.34 12.59-11.04 18.83a792.07 792.07 0 00-11.29 19.65c-3.5 6.3-6.9 12.74-9.53 19.47-2.82 7.07-5.58 14.16-8.28 21.26-4.76 11.52-9.78 22.91-14.05 34.62-1.75 4.84-3.13 9.8-4.7 14.67a346.08 346.08 0 01-3.95 11.26c-.7 1.74-1.44 3.48-2.2 5.2-1.38 3.33-2.94 6.57-4.45 9.82-.75 1.7-1.57 3.4-2.26 5.13-1.56 3.8-3.45 7.6-4.39 11.63a55.22 55.22 0 00-1.31 7.81c-.5 2.77-.44 5.55.06 8.35.19 3.28.94 6.42 2 9.53 2.64 7.24 8.35 15.1 16.5 16.55 1.25.23 2.57.32 3.95.32 2.95 0 6.08-.44 8.78-.9 6.84-1.16 13.61-2.93 20.38-4.18a495.8 495.8 0 0121.95-3.42c14.55-1.99 29.04-4.3 43.65-5.85 14.8-1.56 29.54-2.93 44.34-4.15 15.56-1.28 31.11-1.85 46.66-2.8 14.68-.89 29.35-2.4 44.03-3.43 30.6-2.11 61.21-4.02 91.69-7.13 14.93-1.53 29.85-3.11 44.9-3.78 15.18-.67 30.3-1.16 45.47-1.65 14.87-.47 29.73-.71 44.53-1.51a367.4 367.4 0 0022.14-1.97c7.59-.86 15.24-1.49 22.7-3 6.34-1.3 13.42-2.29 18.5-6.58 3.51-2.98 5.83-7.78 6.78-12.25a61.68 61.68 0 001.63-12.66c.06-8.24 0-16.5-1.89-24.56z"/><path d="M345.93 267.64l-.06.02.56-.8a4.1 4.1 0 01-.5.78zm-163.62 22.82c8.65-19.85 20.99-37.93 33.01-55.82 6.96-10.24 13.91-20.45 19.86-31.27 2.76-4.96 4.57-10.35 7.14-15.4 2.45-4.92 5.14-9.71 8.15-14.31a49.05 49.05 0 016.32-6.96c1-.65 2-1.23 3.07-1.74l.7-.08c.55.1 1.12.24 1.68.4 3.57 1.96 6.64 4.57 9.96 6.98 2.13 1.59 4.32 3.13 6.45 4.74 4.01 3.73 7.46 7.88 10.84 12.19a550.6 550.6 0 0125.68 38.17c4.01 6.53 8.34 12.95 12.78 19.18l7.7 10.58c2.7 3.72 5.4 7.5 7.65 11.55-4.45 1.43-8.83 2.85-13.34 3.94-11.09 2.73-22.43 4.67-33.64 6.7-11.9 2.13-23.8 3.94-35.7 5.84-11.97 1.9-23.87 4-35.9 5.43a279.6 279.6 0 01-29.63 1.97c-3.26-.38-6.45-.9-9.65-1.45a61.4 61.4 0 01-3.13-.64zm184.17-33.14c-.94-2.59-2-5-3.26-7.5-2.07-4.26-4.64-8.2-7.27-12.14-3.13-4.71-6.45-9.29-9.58-14a716.98 716.98 0 01-10.09-15.55c-2.94-4.73-5.76-9.56-8.77-14.28a445.18 445.18 0 00-21.86-31.93c-3.32-4.42-6.64-9.07-10.77-12.8-4.89-4.35-10.15-7.96-15.35-11.86-2.38-1.8-4.7-3.78-7.27-5.26-7.14-4.06-15.84-5.68-23.42-1.76-8.2 4.26-14.16 11.47-19.05 19.16a122.47 122.47 0 00-4.57 7.87 197.28 197.28 0 00-7.45 16.32A127.66 127.66 0 01210 189c-3 5.14-6.33 10.1-9.65 15.09a811.4 811.4 0 01-10.52 15.63 545.92 545.92 0 00-18.86 29.55c-6.32 10.5-11.59 21.95-14.4 33.9-.63 2.56-.94 5.18-1.32 7.77-.38 2.6-.25 5.08-.12 7.73.18 2.26.87 4.4 1.37 6.6.5 1.92 3.01 6.37 4.58 7.72 1.25 1.07 2.5 2.1 3.75 3.08.63.3 1.2.59 1.76.87 1.63.79 3.7 1.63 5.57 1.97 4.26.79 8.65 1.09 13.03 1.09 2.7 0 5.39-.12 8.08-.3a79.44 79.44 0 0015.29-2.5c2.63-.71 5.2-1.47 7.83-2.21a677.4 677.4 0 0115.16-4.03c.56.03 1.06.08 1.63.1 4.2.17 8.45.47 12.65.47a78 78 0 004.57-.13 277.62 277.62 0 0053.87-8.54c1.63-.42 3.2-.93 4.77-1.4 6.07 0 12.09-.13 18.16-.46 5.33-.28 10.59-.69 15.85-1.15 2.76-.23 5.45-.42 8.2-.73 3.83-.45 7.65-1.72 10.34-4.58a24.37 24.37 0 006.2-12.16c1-5.42 1.76-11.06.7-16.56-.57-2.84-1.07-5.78-2.01-8.5z"/></g></svg>