<svg xmlns="http://www.w3.org/2000/svg" width="418" height="605"><path fill="#18777A" fill-rule="evenodd" d="M573.88 327.3c-13.72 1.37-27.33 3.01-41.05 4.47-13.31 1.41-26.63 2.72-40.04 3-10.81.23-21.62.34-32.34-.83-.6-.1-1.1-.17-1.6-.27-5.3-.96-8.4-1.27-13.71-.18-3.1.65-7.1 3.25-9.31 5.48-3.1 3.09-3.9 5.55-5.5 9.51-1.3 3.33-.6 8.43 0 11.75.2.88.4 1.76.7 2.62 1.3 3.88 3 7.69 4.9 11.3 2.8 5.07 5.9 9.95 8.6 15.05 2.81 5.2 5.41 10.5 8.02 15.82 10.1 20.78 22.12 40.58 31.43 61.79 4.1 9.88 7.9 19.88 12.21 29.65a547.6 547.6 0 00-16.91 8.15 623.47 623.47 0 00-34.14 18.52c-11.01 6.42-22.03 12.97-32.54 20.18-1.1.79-2.2 1.57-3.4 2.35-2-4.28-4.2-8.49-6.5-12.69-6.01-10.93-12.42-21.65-18.73-32.41a442.8 442.8 0 00-21.92-33.77c-7.3-10.11-14.92-19.99-21.82-30.29-3.7-5.4-7.31-10.86-10.72-16.4-2.6-4.12-5-8.4-7.9-12.28-1.3-1.8-3-4.6-4.91-6.3-4.9-4.36-10.51-7.35-17.22-7.35-4 0-8.3 1.15-11.81 3.19-4.1 2.42-5.7 4.62-8.41 8.41-2.2 2.95-3.3 6.9-4 10.5-1.3 6.4-2.1 12.87-3.4 19.27-2.61 13.6-6.02 26.96-10.02 40.2-3.8 12.54-8.5 24.8-13.61 36.9-5.11 11.93-10.42 23.81-16.52 35.28-2.2 4.13-4.5 8.14-6.9 12.08a203.27 203.27 0 00-16.83-6.75c-12.01-4.45-24.32-8.41-36.54-12.34-12.61-4.09-25.52-7.7-38.24-11.4-6.2-1.8-12.51-3.51-18.82-5.43.9-1.34 1.7-2.63 2.6-3.93 4.2-6.6 8.41-13.22 12.82-19.72a870.78 870.78 0 0128.23-39.29c.3-.36.5-.7.8-1.06.3-.35.5-.68.8-1.03l1.8-2.27c-.4.54-.9 1.07-1.3 1.62l1.5-1.95c-.1.1-.1.22-.2.33 6-7.83 12.22-15.62 18.32-23.4 8.41-10.75 16.92-21.38 25.43-32.1 4.5-5.6 9.1-11.14 13.01-17.14.8-1.23 1.7-2.48 2.4-3.85 2.2-4.97 2.7-5.96 3.1-11.48.41-5.69-2.7-10.85-6.2-14.93-3.4-3.86-10.2-6.59-15.21-6.1-3 .3-5.81.62-8.61 1.52-2.7.83-5.3 1.73-7.91 2.59a468.8 468.8 0 01-18.92 5.9 268.03 268.03 0 01-35.94 8.06c-18.52 2-37.14 2.56-55.66 3.18-8.41.3-16.82.43-25.23.57.2-4.28 0-8.6-.2-12.87-.4-13.58-2.2-27.09-3.3-40.6-1.1-13.84-2.2-27.63-3.1-41.46-.9-13.86-1.9-27.7-3.2-41.54L39 221.23c8.91 1.92 17.62 4.6 26.33 7.18 11.61 3.42 22.92 7.62 34.34 11.67 11.7 4.16 23.52 8.1 35.23 12.02 5.61 1.84 11.22 3.6 16.72 5.41 2.6.84 5.1 1.66 7.61 2.5 2.6.88 5.4 1.37 8.1 1.14 4.91-.4 6.82-1 11.22-3.19 1.8-.86 3.3-2.07 4.6-3.53 1.9 0 3-1.78 2.7-3.54-.1-.08-.1-.13-.1-.2v-.15-.06a20 20 0 002.21-8.82c0-3.41-.9-6.58-2.6-9.54l-.3-.47-1.2-7.13c-1.7-10.34-4-20.59-6.21-30.83-5.7-26.87-12.01-53.54-20.22-79.77-4.2-13.4-8.41-26.8-12.32-40.3-1.8-6.44-3.6-12.86-5.2-19.36-.1-.3-.2-.6-.2-.9 2.3-.35 4.6-.68 7-.99 7.21-.96 14.32-1.91 21.53-2.9l-5.8.79c15-2.03 30.03-4.36 45.14-6.5 11.91-1.46 23.93-2.73 35.84-3.8 5.6-.5 11.21-.94 16.72-1.43 1.8-.16 3.5-.39 5.3-.53.2.36.4.71.5 1.06 5.31 14.25 8.21 29.26 10.32 44.27 2.5 20.8 3.2 41.83 4.3 62.74.6 10.52 1.4 21.02 2 31.54.5 8.1.7 16.16 1.7 24.2.1.97-.1 1.85-.1 2.8 0 5.92 2 11.68 6.21 15.93 8.11 8.12 22.13 7.83 30.13-.36 3.2-3.3 5.51-7.13 7.61-11.12 2.3-4.48 4.3-9.17 6.3-13.82 2.61-5.99 5.01-12 7.52-18.04 7.4-18.69 14.41-37.57 22.22-56.14l2.1-4.96-.3.65c.3-.68.6-1.34.8-2.03.1-.16.2-.32.2-.48.2-.3.3-.62.4-.92.1-.05.1-.1.1-.14V113.14c0-.1.1-.2.1-.3 6.01-13.83 12.42-27.48 19.13-40.97 3.5-7.07 7.1-14.17 11-21 1.5-2.5 2.91-5 4.41-7.5 8.51 1.31 16.92 2.63 25.33 4.17 11.51 2.1 23.12 4.46 34.74 6.7a808.07 808.07 0 0134.73 7.34c2.7.64 5.41 1.33 8.21 2.03-4.2 8.68-8.4 17.32-12.61 25.96a654.08 654.08 0 01-19.72 37.7 596.84 596.84 0 01-43.45 65.65 570.5 570.5 0 01-13.01 15.73c-2.5 2.93-5 5.92-7.21 9.06a22.82 22.82 0 00-3 6.97c-.6 2.2-.9 4.55-1 6.85-.1 3 1.2 8.63 3 11.13 2.8 3.7 4.1 5.77 8.1 8.14.9.46 4.11 2.03 6.11 2.42 2.9.56 5.61.97 8.61.68 4.5-.47 9.01-1.25 13.42-2.1 6.4-1.2 12.81-2.35 19.02-3.77 13.61-3.03 26.83-6.8 40.14-10.82 12.82-3.88 25.53-8.2 38.44-11.83a268.37 268.37 0 0133.04-7.2c2.4-.3 4.8-.56 7.3-.82 2.3 16.05 5.01 32.05 7.41 48.07 1.6 15.12 2.4 30.28 3.8 45.39l1.51 14.8c-7.1.35-14.12.98-21.12 1.68zM160.65 208.15c0-.05 0-.13-.1-.19l.9 2.08c-.2-.64-.5-1.25-.8-1.89zm421.3 5.73c.1.42.1.8.2 1.22l-.3-2.2c0 .34.1.66.1.98zm54.96 125.03l-1.2-12.86a1610.2 1610.2 0 01-3-38c-1-14.92-2.9-29.67-5.7-44.33-2.6-12.86-5.2-25.68-7.5-38.6-.6-3.2-.9-6.67-2.2-9.7-2-4.87-2.2-5.71-5.7-9.7a17.57 17.57 0 00-5.3-4.23c-5.2-2.83-10.91-3.93-16.71-3.95-4.7-.01-9.3.51-13.9 1.04-7.1.82-14.11 1.87-21.11 3.07-12.5 2.13-24.8 5.46-37.01 9.23-16.7 5.18-33.31 10.67-50.22 14.97a1350 1350 0 0024.31-36.63 909.5 909.5 0 0021.2-35.01c7-12.2 13.61-24.56 20.31-36.88 3.2-6 6.5-11.99 9.8-17.97l4.8-8.75c2.3-4.24 5.1-8.73 6-13.44.7-4.12 1.3-8.23-.2-12.33-1.7-4.61-2.4-6.24-5.8-9.9-1.5-1.73-3.5-3.2-5.6-4.32a44.06 44.06 0 00-8.5-3.5c-5.3-1.58-10.8-2.7-16.2-3.83a761.3 761.3 0 00-38.71-6.9c-13.6-2.11-27.21-4.51-40.82-6.62a791.8 791.8 0 00-35.8-4.78c-2.2-.26-4.5-.78-6.7-.78-7.4 0-14.21 3.37-19.11 8.84-4.4 4.92-8.2 10.4-11.9 15.86-15.51 22.83-27.61 47.66-38.62 72.89a986.68 986.68 0 00-13.8 33.77c-.3-6.91-.5-13.84-.8-20.76a499.4 499.4 0 00-3.2-40.5c-1-8.39-2.5-16.67-4.2-24.93-1.2-6.07-2.7-12.22-4.6-18.12-1.3-3.64-2.6-7.21-4.2-10.7-.7-1.3-1.3-2.74-2.1-3.91-1.7-2.37-3.3-5.2-5.6-7.09-3.8-3.32-7.51-5.73-12.51-7.13C269.3.87 263.1.75 257.3.46 244.4-.2 231.4-.19 218.48.8c-14 1.05-28 2.71-42 4.31-13.61 1.57-27.32 2.76-40.92 3.95-3.5.29-7.1.62-10.5.94-5.4.5-10.9.88-16.1 2.28-4.91 1.37-7.61 3.48-11.51 6.64-1.8 1.49-2.9 3.62-4.4 5.47-2.2 2.89-3.9 10.2-3.5 13.62.4 3.34.6 6.58 1.7 9.75 2.3 6.51 5.7 12.25 8.9 18.33 2.8 5.47 5.4 11.04 7.9 16.68 0-.17-.1-.35-.2-.52l.3.62c0-.04 0-.06-.1-.1.1.24.3.5.4.74V83.57c.2.42.3.84.5 1.26l.3.61c.3.85.7 1.7 1.1 2.55 3.9 9.52 7.8 19.1 11.8 28.58l-1.8-4.16c13.4 32 26.21 64.26 39.72 96.2v-.03c.1.1.1.22.2.36 0 .17.1.35.2.53l1.2 2.73c.5 1.27 1 2.52 1.6 3.79-.1-.18-.2-.33-.2-.5.6 1.65 1.3 3.29 2 4.92-3.7-.71-7.4-1.53-11.1-2.45-25.61-6.37-50.12-16.57-75.33-24.46-13-4.08-26.1-8.2-39.6-10.12-4.81-.68-9.21-1.2-14.01-.76-5.1.45-8.9 1.29-13.5 3.44-5.2 2.46-9.6 8.4-10.7 14.04-1.01 5.1-.91 9.99-.7 15.14.8 26.7 2.5 53.44 4.9 80.06 1.1 13.72 2.8 27.4 4.6 41.05 1.4 10.64 3.1 21.49 3.2 32.29 1.2 5.93 2.1 11.96 3 17.89.9 6.06 1.4 12.15 1.7 18.26.8.13 1.7.21 2.5.23 3.5.1 7.1-.3 10.5-.46l10.6-.48c14.3-.58 28.61-1.05 42.91-1.69 13.5-.63 27.11-.98 40.62-1.9 10.7-.72 21.4-2.07 32-3.87-8.3 10.45-16.4 21.03-24.6 31.58l-.9 1.16-.6.9c-11.5 14.8-22.8 29.65-33.61 44.95-5.4 7.68-10.7 15.47-16 23.27a463.4 463.4 0 00-7 10.63c-2.1 3.2-4.31 6.44-6.01 9.84-2.2 4.28-4.6 9.99-4 14.95.7 6.15.5 5.88 3.1 11.42.8 1.78 3.4 4.73 3.8 5.2 1.8 1.79 3.8 3.53 6.1 4.59 5.5 2.58 11 4.22 16.8 5.88 12.31 3.55 24.61 7.12 36.92 10.56 13.5 3.75 27 7.71 40.3 11.93 11.31 3.56 22.52 7.2 33.52 11.5 2.4 1.12 4.8 2.31 7.1 3.68 1.5.9 3 1.87 4.5 2.75 3.7 2.07 8 3.59 12.3 3.59h.5c3.7-.09 7.8-.99 10.9-3.06 4.01-2.58 5.11-4.06 7.91-7.83 1.4-2.07 2.5-4.5 3.8-6.74 2-3.75 4-7.44 6-11.17 6-11 11.4-22.26 16.8-33.57 6.01-12.76 11.91-25.49 17.41-38.47.1-.2.2-.4.2-.6v.2l2.1-5.12c-.6 1.5-1.2 3.01-1.9 4.51 5.2-12.15 10.1-24.4 14.3-36.91 4.9 6.82 9.81 13.58 14.71 20.42a590.3 590.3 0 0122.2 33.44c7.01 11.37 14.31 22.55 21.51 33.82 3.7 5.76 7.3 11.53 10.6 17.51 1.4 2.66 2.7 5.4 4.2 8.05 1.5 2.85 3.4 6.07 5.81 8.2 2.5 2.27 6.3 5.23 9.8 5.8 3.9.63 7.5 1.31 11.3-.04a39.9 39.9 0 007.5-3.44c3.1-1.79 5.91-4 8.81-5.97 11.2-7.62 23.1-13.93 35.01-20.4 11.9-6.5 24-12.84 36.21-18.82a737.3 737.3 0 0136.41-16.66c1.5-.63 3.2-1.15 4.4-2.13.7-.52 3.7-2.38 4.9-3.9 3.5-4.24 3.9-4.63 5.8-9.87 1.6-4.6.9-9.88-.2-14.47-1.3-4.75-3.6-9.32-5.5-13.75a1367.2 1367.2 0 00-13.9-32.15c-5.3-12.1-11.5-23.63-18.2-35.04-6.8-11.54-14.01-22.88-20.31-34.72-1.6-3.13-3.3-6.27-5-9.4 4.3-.2 8.6-.44 12.8-.7 27.3-1.62 54.42-5.06 81.62-6.55 6.9-.36 13.8-.54 20.61-.33 7.2.22 14.5 1 21.6-.58 4.3-.94 8.4-3.27 11.4-6.35 3.21-3.2 3.91-5.18 5.51-9.3.7-1.87.7-4.67.9-6.13.2-1.27 0-2.6 0-3.87z"/></svg>