<svg xmlns="http://www.w3.org/2000/svg" width="540" height="395"><path fill="none" fill-rule="evenodd" stroke="#18777A" stroke-width="50" d="M571.98 271.28c.08-6.37-.1-12.84-.25-19.05l-.09-3.4c-.22-9.08-.56-17.05-1.05-24.4-.98-14.63-3.76-30.3-8.27-46.52-3.36-12.18-6.52-21.73-9.96-30.2a468.98 468.98 0 00-7.48-17.52c-5.2-11.25-10.87-21.11-17.38-30-9.55-13.1-19.4-23.73-30.12-32.56-14.4-11.86-27.23-19.41-40.35-23.83-16.3-5.45-33.38-8.89-46.45-11.3a411.97 411.97 0 00-31.23-4.62c-1.73-.16-3.46-.36-5.2-.57-3.8-.41-7.59-.87-11.4-1.13l-11.44-.77c-.76 0-1.53-.1-2.3-.15-1.41-.1-2.83-.26-4.24-.26h-18.73c-1.28 0-2.55.1-3.82.2l-1.55.1-10.49.62-.75.06c-5.09.3-10.2 1.02-15.47 1.74l-5.23.72-4.48.62c-1.2.15-2.42.46-3.62.72l-1.68.4c-1.53.37-3.06.68-4.6.98-3.71.77-7.55 1.54-11.25 2.57l-11.08 3.08-2.04.52a97.2 97.2 0 00-4 1.13l-9.04 2.98-9.05 2.97a203.3 203.3 0 00-11.29 4.32l-2.4.98-4.26.82c-2.13.46-4.27.87-6.4 1.28l-8.15 1.7-1.33.3a43.8 43.8 0 00-5.73 1.4 199.4 199.4 0 00-15.15 5.38 246.8 246.8 0 00-16.74 7.86 410.99 410.99 0 00-28.52 16.13 291.2 291.2 0 00-17.08 11.6c-2.81 2.01-5.63 4.01-8.48 5.97a921.32 921.32 0 01-28.62 18.64 136.18 136.18 0 00-25.69 21.06 86.42 86.42 0 00-10.95 14.28 84.45 84.45 0 00-9 20.75 93.74 93.74 0 00-2.48 10.27c-.54 3.03-.57 6.01-.6 9.14l-.02 1.13c-.02 2.88.74 6.22 1.19 8.02a43.49 43.49 0 002.58 6.98l.18.41c.43.98.87 1.95 1.4 2.83 1.02 1.74 2.1 3.49 3.19 5.18l.47.77a364.27 364.27 0 0019.85 28.4c2.87 3.65 6.01 7.2 9.04 10.64l1.67 1.9c2.7 3.08 5.22 6.37 7.66 9.6l.87 1.13 1.04 1.44c3.51 4.78 7.15 9.76 11.22 14.13 1.62 1.8 3.3 3.49 4.98 5.19 2.33 2.3 4.74 4.77 6.94 7.29 3 3.44 6.46 6.68 11.43 7.3.72.04 1.46.1 2.21.1 1.65 0 3.17-.21 4.5-.67 3.05-1.03 5.98-2.62 8.82-4.16l.94-.52c2.23-1.23 4.46-2.46 6.65-3.75a449.4 449.4 0 0013.45-8.06c4.28-2.72 8.7-5.8 13.5-9.45a679.92 679.92 0 0126.5-19.42 572.69 572.69 0 0126.66-17.3c8.2-4.99 16.67-9.15 26.86-13.92 6.4-2.67 12.54-4.99 18.78-7.1a167.89 167.89 0 0119.46-4.97c7.29-1.44 14-2.57 20.5-3.34a556.9 556.9 0 0118.53-1.9l1.26-.1c1.5-.1 3.02-.21 4.53-.21 1.6 0 3.04.1 4.39.3 2.15.26 4.31.67 6.6 1.24 2.1.51 4.2 1.08 6.28 1.7 9.94 3.23 17.94 7.03 24.45 11.6 4.07 3.34 7.44 7.5 10.2 11.05 2.61 3.64 4.97 6.88 7.18 10.37a73.79 73.79 0 015.46 10.32c1.7 4.78 3.2 9.71 4.66 14.49 1.35 4.47 2.7 8.88 4.23 13.3 1.67 4.83 3.87 9.55 6 14.13l.29.61a571.2 571.2 0 015.2 11.56c1.97 4.98 3.76 10.01 5.56 15.05l2.28 6.42 1.8 4.77c1.92 5.04 3.91 10.28 5.21 15.62l.12.82c.65 4.57 1.39 9.76 5.6 12.17.7.41 1.45.62 2.24.62 1.74 0 3.42-.98 5.05-1.85.58-.36 1.15-.67 1.72-.92 7.95-3.5 16.1-6.37 25.18-9.56a314.94 314.94 0 0127.33-8.27 582.86 582.86 0 0128.87-6.52c2.39-.46 4.76-.98 7.15-1.49 2.39-.46 4.77-.97 7.16-1.44 4.56-.87 9.2-1.49 13.53-2 2.49-.15 5-.3 7.49-.3.9 0 1.8 0 2.69.04l1.17.05c.72.06 1.46.1 2.19.1 1.02 0 1.84-.1 2.57-.25 2.63-.56 4.93-2.36 6.48-5.08 1.62-2.83 2.02-5.8 2.13-9.46.02-.77.04-1.54.04-2.61.15-6.42.44-12.8.73-19.16.33-7.3.67-14.8.73-22.2l.07.47c.01-.87.03-1.75.03-2.72.04-1.64.05-3.24.06-4.88.01-.2.02-.36.01-.51v-.16"/></svg>