<svg xmlns="http://www.w3.org/2000/svg" width="270" height="405"><path fill="#D1E4E4" fill-rule="evenodd" d="M227.98 404.93c-1.72 0-3.44.01-5.16-.06-8.62-.37-17.2-.84-25.77-1.75-4.39-.47-8.74-1-13.12-1.6-4.28-.6-8.5-1.33-12.76-2.07-17.02-3-33.6-7.92-50.02-13.17-7.8-2.49-15.5-5.32-23.15-8.2-3.93-1.47-7.76-3.15-11.63-4.8-3.9-1.65-7.67-3.56-11.47-5.42a170.14 170.14 0 01-33.27-21.21c-9.09-7.5-17.33-16.11-23.97-25.84C10.89 310.9 6.23 300 3.2 288.4.11 276.5-.32 263.92.17 251.68c.17-4.54.7-9.07 1.06-13.6.18-2.05.56-4.12.83-6.17.25-1.88.44-3.78.76-5.65.78-4.45 1.48-8.9 2.43-13.32 1.71-8 3.37-16.05 5.75-23.9 1.25-4.09 2.46-8.17 3.92-12.18.9-2.46 1.78-4.9 2.74-7.33A164.15 164.15 0 0130.53 137c2.7-5.2 5.66-10.25 8.85-15.15 2.6-3.98 5.38-7.93 8.4-11.6l9.17-11.18c2.76-3.36 5.8-6.52 8.71-9.76 2.65-2.96 5.37-5.82 8.14-8.65 2.8-2.87 5.51-5.86 8.43-8.6l11.5-10.77c2.65-2.5 5.46-4.8 8.23-7.17 4.86-4.17 9.73-8.23 14.86-12.07 16.1-12.07 34.07-21.98 53.21-28.29 4.32-1.43 8.66-3.1 13.08-4.24l14.78-3.78c3.64-.94 7.37-1.59 11.07-2.24A221.3 221.3 0 01228.05 1 226.9 226.9 0 01265.3.56c12.14.87 24.28 3.14 35.84 6.95 11.01 3.62 21.22 9.36 30.65 16 5.9 4.16 11.32 8.88 16.67 13.68 3.22 2.89 6.48 5.7 9.51 8.78l5.96 6.06c1.01 1.02 2.08 2 3 3.1l9.24 10.9c.89 1.05 1.64 2.24 2.46 3.35l5.4 7.46c2.53 3.48 4.68 7.22 6.95 10.86 1.92 3.09 3.82 6.12 5.52 9.31l4.02 7.58c.76 1.43 1.62 2.85 2.3 4.32 2 4.4 3.98 8.83 5.99 13.25 1.42 3.14 2.64 6.35 3.92 9.56 1.39 3.52 2.91 7.02 4.15 10.6l5.18 14.98c1.32 3.86 2.4 7.81 3.54 11.73 1.02 3.46 2.13 6.9 2.98 10.42l3.55 14.83c1 4.2 1.64 8.52 2.44 12.76 1.4 7.33 2.55 14.75 3.36 22.18.66 5.88 1.34 11.73 1.7 17.63.78 12.31.4 24.59-2.34 36.66-2.58 11.36-7.23 21.94-13.28 31.88-4.39 7.23-9.73 13.82-15.38 20.08a253.06 253.06 0 01-9.7 10.3l-4.34 4.28c-1.6 1.6-3.46 3-5.16 4.48-1.22 1.05-2.39 2.2-3.67 3.17l-6.38 4.83c-3.33 2.52-6.87 4.74-10.37 7.02-3.92 2.54-8.03 4.7-12.14 6.93-3.44 1.89-7.14 3.35-10.71 4.99-1.65.74-3.41 1.32-5.1 1.97-1.77.69-3.52 1.44-5.3 2.05-4.3 1.44-8.59 2.96-12.93 4.25a455.55 455.55 0 01-24.96 6.8c-4.22 1-8.43 1.93-12.68 2.8-4.29.88-8.57 1.6-12.87 2.32-8.21 1.37-16.5 2.07-24.79 2.77-4.34.35-8.74.35-13.1.54-.6.02-1.2.03-1.81.03-1.55 0-3.11-.06-4.65-.07zm-50.75-7.28l-1.46-.3 1.46.3zm29.88-8.71c6.3.46 12.62.94 18.95.98 3.3.01 6.62.15 9.9.03 3.06-.1 6.12-.23 9.17-.35l9.9-.83c3.35-.28 6.69-.8 10.02-1.22 6.13-.77 12.23-1.92 18.28-3.15a337.09 337.09 0 0018.01-4.11 652.83 652.83 0 0018.93-5.33l9.46-3.17c3.42-1.13 6.75-2.6 10.1-3.9 1.7-.65 3.35-1.53 4.98-2.27l4.98-2.29c1.66-.75 3.25-1.76 4.86-2.64l4.56-2.49 8.05-5.23c1.48-.95 2.85-2.15 4.26-3.2l4.85-3.68c1.42-1.06 2.71-2.34 4.05-3.5l4.6-3.99c1.34-1.15 2.55-2.51 3.81-3.76 1.37-1.35 2.72-2.7 4.09-4.03l6.4-7.08c3.1-3.44 5.9-7.22 8.58-11a110.6 110.6 0 007.34-11.92 98.07 98.07 0 007.7-21.3c1.9-9.52 2.32-19.18 1.92-28.88-.9-15.46-3.26-30.82-6.17-46.02-.54-2.8-1-5.6-1.67-8.36l-3.28-13.59c-1.44-6-3.36-11.9-5.13-17.8-2.07-6.05-4-12.16-6.35-18.1l-5.1-12.88c-1.04-2.6-2.22-5.14-3.37-7.7l-4.66-10.28c-.58-1.26-1.32-2.46-1.97-3.69l-3.72-7c-1.37-2.55-2.73-5-4.26-7.45l-5.56-8.9-7.33-10.08c-2-2.74-4.2-5.27-6.4-7.85-2.05-2.42-4.03-4.89-6.26-7.15l-8.82-8.94-9.63-8.63a146.4 146.4 0 00-10.89-8.66 119.5 119.5 0 00-14.9-9.38 117.44 117.44 0 00-26-9.01c-14.65-2.91-29.62-3.58-44.53-2.93-7.15.4-14.26 1.1-21.34 2.12-5.54.8-11.16 1.7-16.58 3.09-5.12 1.31-10.25 2.6-15.35 3.92l-13.24 4.37c-5.32 1.75-10.51 4.14-15.56 6.53a183.24 183.24 0 00-17.81 9.72c-.87.55-1.72 1.1-2.58 1.67 1.48-.64 2.95-1.26 4.42-1.91a182.5 182.5 0 0159.13-15.16c24.17-1.97 49.07.43 72 8.51 21.9 7.72 41.12 21.35 57.29 37.79 13.91 14.14 24.7 31.23 32.35 49.48 1.57 3.74 3.27 7.46 4.68 11.28 1.57 4.28 3.16 8.56 4.72 12.85 3.2 8.8 5.89 17.78 8.57 26.75 1.2 4 2.13 8.08 3.15 12.15a142.8 142.8 0 013.93 28.14c.56 12.33-1.58 24.5-5.31 36.23-.87 2.73-1.9 5.36-2.96 8.01-.76 1.87-1.4 3.81-2.27 5.62-1.97 4.11-3.82 8.3-6.05 12.29l-3.92 6.97a102.72 102.72 0 01-7.57 11.26 109.1 109.1 0 01-7.19 8.43c-1.47 1.58-2.86 3.27-4.42 4.76l-5.32 5.04c-1.42 1.35-2.98 2.54-4.47 3.8a164.46 164.46 0 01-20.7 14.4c-3.99 2.4-8 4.65-12.1 6.86-3.33 1.8-6.78 3.35-10.19 4.98-1.9.9-3.9 1.63-5.83 2.44a97.5 97.5 0 01-4.6 1.85c-4.6 1.66-9.18 3.25-13.84 4.68-4.35 1.35-8.7 2.48-13.12 3.59-1.5.38-3 .63-4.52.93-1.95.38-3.91.84-5.9 1.12-4.36.58-8.67 1.16-13.05 1.52-4.86.4-9.69.56-14.57.7-1.7.04-3.41-.05-5.11-.09-1.86-.04-3.72-.05-5.58-.18-2.49-.2-4.99-.38-7.48-.57-2.08-.16-4.16-.54-6.23-.81-2-.26-3.94-.58-5.91-.98-2.67-.52-5.4-.93-8.02-1.61l-7.84-2.05c-2.44-.64-4.82-1.55-7.23-2.32-3.97-1.3-7.86-2.9-11.7-4.54-4.7-2-9.37-4.06-13.93-6.39l-.68-.35-.04-.01-.74-.38.74.38-.03-.01a7.36 7.36 0 01-1.83-.94l-2.64-1.36-.12-.07-.58-.3a178.1 178.1 0 01-5.36-2.92c-1.7-.97-3.44-1.87-5.07-2.94l-6.47-4.24c-1.57-1.03-3.02-2.25-4.5-3.39-1.3-.97-2.64-1.9-3.85-2.98l-5.99-5.33a90.83 90.83 0 01-4.64-4.5c-1.4-1.41-2.86-2.77-4.17-4.28l-4.97-5.73c-1.24-1.44-2.33-3.02-3.49-4.53-2.42-3.2-4.62-6.51-6.88-9.84a127.76 127.76 0 01-7.1-12.12 114.04 114.04 0 01-5.1-10.62c-1.61-4-3.17-8-4.6-12.08-1.37-3.99-2.75-8.08-3.77-12.2-.57-2.36-1.16-4.73-1.75-7.09-.49-1.96-.78-3.98-1.15-5.97a115.98 115.98 0 01-1.7-29.32c.79-11.23 3.58-22.4 7.66-32.89 3.01-7.72 7.03-14.96 11.39-21.98 2.26-3.65 4.79-7.1 7.28-10.58.95-1.33 2.02-2.56 3.04-3.82 1.27-1.56 2.5-3.2 3.82-4.7 6-6.79 12.07-13.5 18.73-19.67 1.27-1.19 2.5-2.44 3.85-3.55l6.37-5.28c1.23-1 2.52-1.92 3.8-2.85 1.66-1.21 3.29-2.53 5-3.66 3.94-2.55 7.83-5.2 11.92-7.53 2-1.14 4-2.29 6.01-3.42 1.84-1.05 3.83-1.88 5.74-2.81 3.83-1.87 7.79-3.4 11.73-5 1.67-.66 3.45-1.12 5.15-1.66 2.2-.7 4.4-1.52 6.64-2.06 4.26-1.05 8.48-2.1 12.81-2.9 1.76-.3 3.55-.72 5.33-.94l8.2-1c1.5-.17 3.02-.24 4.53-.31 2.77-.15 5.55-.4 8.31-.45 5.65-.1 11.26.12 16.89.7 6.25.65 12.45 1.9 18.55 3.43A130.26 130.26 0 01279.2 80.9c10.05 5.74 19 13.3 26.64 21.97 9.26 10.45 15.9 22.93 21.11 35.77a260.02 260.02 0 018.86 25.34c4.24 14.12 6.34 29.02 5.62 43.75-.42 8.67-2.27 17.14-4.35 25.54-1.02 4.12-2.29 8.13-3.53 12.19-.52 1.7-1.23 3.35-1.85 5.03a140.74 140.74 0 01-3.54 8.7 85.61 85.61 0 01-17.85 25.87l-4.74 4.63c-1.7 1.68-3.67 3.17-5.48 4.74-2.9 2.5-6.1 4.75-9.27 6.9a284.92 284.92 0 01-12.96 8.2c-1.37.83-2.77 1.56-4.17 2.3-1.78.96-3.53 2.02-5.37 2.87-3.85 1.81-7.67 3.66-11.63 5.26-1.78.73-3.57 1.58-5.4 2.19l-7.35 2.48c-1.9.64-3.82 1.19-5.76 1.7-1.95.53-3.9 1.17-5.89 1.57-2.45.47-4.9.96-7.34 1.44-1.96.4-3.96.54-5.94.79a117.08 117.08 0 01-25.8.27c-1.77-.17-3.56-.26-5.32-.57l-7.72-1.36c-2.22-.39-4.4-1-6.6-1.53-1.82-.46-3.65-.86-5.44-1.42l-7.28-2.29c-2.02-.63-3.97-1.5-5.93-2.25-3.8-1.45-7.48-3.16-11.2-4.83-1.95-.87-3.84-1.95-5.74-2.93-1.95-.98-3.9-1.96-5.79-3.04l-6.54-3.8c-1.8-1.04-3.48-2.28-5.2-3.42-3.62-2.37-7.02-5-10.46-7.6-1.27-.97-2.44-2.1-3.64-3.14-1.94-1.7-4.04-3.34-5.85-5.18a1233.8 1233.8 0 00-5.07-5.16 103.72 103.72 0 01-13.46-17.17c1.4 3.02 2.93 5.96 4.49 8.9 1.25 2.37 2.69 4.64 4.1 6.92l4.33 6.41c1.6 2.38 3.5 4.62 5.24 6.92 1.77 2.35 3.9 4.5 5.83 6.73 1.87 2.14 4 4.09 6.02 6.1l5.73 5.1c.88.79 1.9 1.46 2.85 2.19 1.5 1.13 2.97 2.26 4.46 3.4 1.02.77 2.17 1.42 3.23 2.13l4.43 2.9c1.23.8 2.58 1.47 3.87 2.2 1.3.74 2.6 1.55 3.93 2.24l-.56-.3.86.45c.66.23 1.26.54 1.8.92l1.32.68c-.42-.23-.86-.44-1.3-.67l2.66 1.36.06.03 2.14 1.1c-.62-.3-1.23-.62-1.83-.94l.66.34a284.56 284.56 0 0019.5 8.45c3.45 1.31 6.95 2.45 10.46 3.6 3.01.96 6.12 1.67 9.18 2.47 2.74.56 5.49 1.18 8.26 1.54 4.1.54 8.14 1.06 12.25 1.37 3.9.3 7.77.42 11.69.5 3.11.07 6.23-.07 9.34-.18 3.25-.25 6.53-.46 9.76-.9 4.08-.53 8.1-1.13 12.13-1.9a214 214 0 0011.79-2.72c3.04-.77 6.04-1.75 9.03-2.7 7.17-2.56 14.27-5.22 21.14-8.52 3.88-1.87 7.66-3.8 11.44-5.84 3.24-1.76 6.38-3.67 9.54-5.58 5.56-3.68 11-7.42 16.12-11.7 2.85-2.36 5.51-4.84 8.2-7.38 2.02-1.93 3.89-4 5.76-6.06 4.21-4.99 8.27-10.3 11.48-15.99l4.39-7.82c1.58-3.27 3.26-6.5 4.6-9.86l3.05-7.64a96.7 96.7 0 004.25-14.4 97.99 97.99 0 001.7-22.71 120.3 120.3 0 00-3.15-21.47l-2.48-9.92c-1.2-4.8-2.7-9.52-4.15-14.26-1.46-4.29-2.9-8.59-4.34-12.88-1.46-4.32-3.14-8.58-4.72-12.86-1.45-3.95-3.2-7.8-4.82-11.69-3.41-8.1-7.45-15.93-12.07-23.41a151.49 151.49 0 00-24.24-28.62 150.34 150.34 0 00-30.17-21.1 140.15 140.15 0 00-31.6-11.03 180.53 180.53 0 00-43.18-3.23c-14.2.85-28.12 3.43-41.74 7.57-4.46 1.42-8.99 2.9-13.26 4.8l-5.5 2.44c-3.62 1.6-7.27 3.14-10.76 4.98l-7.6 4.04c-1.22.64-2.46 1.24-3.63 1.97l-10.14 6.3-5.86 4.24c-1.99 1.44-4.15 2.79-6.03 4.37l-6.75 5.67c-1.73 1.44-3.58 2.82-5.21 4.38-2.07 2-4.16 3.98-6.23 5.97-1.76 1.7-3.65 3.3-5.3 5.08-3.25 3.52-6.52 7.01-9.78 10.52-3.81 4.55-7.84 8.98-11.38 13.76L50 141.23c-1.74 2.35-3.29 4.87-4.84 7.34a170.33 170.33 0 00-6.47 11.34 193.6 193.6 0 00-3.99 8.7c-.78 1.79-1.67 3.59-2.4 5.42-.84 2.94-1.6 5.91-2.27 8.9a143.97 143.97 0 00-2.94 34.17c.3 4.75.7 9.6 1.65 14.26l1.79 8.67c.86 4.23 2.11 8.38 3.25 12.55 1.07 3.39 2.1 6.79 3.33 10.11 1.75 4.72 3.5 9.4 5.47 14.02.78 1.83 1.49 3.73 2.38 5.51 1.38 2.7 2.73 5.42 4.1 8.12 1.72 3.43 3.8 6.7 5.79 9.99 2.23 3.26 4.37 6.62 6.8 9.74l5.55 7.13c1.23 1.57 2.61 3.04 3.92 4.53 1.24 1.43 2.43 2.9 3.75 4.27l5.96 6.11c2.5 2.57 5.18 4.98 7.83 7.4l8.04 6.81c2.65 2.24 5.55 4.2 8.32 6.28 1.26.96 2.67 1.77 4 2.65l4.62 3.06c1.34.9 2.82 1.62 4.2 2.41l4.53 2.6c3.44 1.71 6.86 3.46 10.4 5l6.96 3.01c2.51 1.09 5.15 1.97 7.7 2.94 3.9 1.5 7.87 2.85 11.86 4.03 4.5 1.33 9 2.68 13.58 3.68l5.26 1.11-.17-.04c7.14 1.36 14.29 2.72 21.5 3.65a8.4 8.4 0 014.47 1.97l3.18.27zm-34.03-7.32zM85 356c-3.45-2.97-6.82-6-10.14-9.11-3.15-2.97-6.14-6-9.15-9.12-2.93-3.05-5.64-6.28-8.4-9.48-2.67-3.08-5.04-6.42-7.53-9.66-1.04-1.34-1.94-2.82-2.89-4.21-1.55-2.3-3.22-4.57-4.62-6.97l-3.05-5.22c-.93-1.58-1.98-3.15-2.8-4.8-1.82-3.67-3.8-7.3-5.4-11.08-1.66-3.95-3.37-7.88-4.84-11.9a282.23 282.23 0 01-9.4-30.44l-.2 2.51c-.53 6.47-.71 12.93-.48 19.42.5 8.2 1.78 16.22 4.1 24.08a97.77 97.77 0 009.06 19.8 116.83 116.83 0 0017.43 20.72c3.35 3.06 6.84 5.94 10.46 8.67 3.69 2.81 7.54 5.6 11.56 7.9L78.93 353l6.07 3zm52.14-13.17l-.03-.02-1.25-.64 1.28.66zm51.6-28.92c1.07.2 2.18.23 3.26.34l5.31.53c2.8.27 5.68.14 8.49.21 1.28.04 2.6-.11 3.88-.18l2.63-.12 7.08-.89c1.91-.24 3.8-.67 5.7-1.04 3.91-.78 7.73-1.8 11.58-2.86 2.91-.96 5.83-1.9 8.67-3.04 3.74-1.53 7.43-3.06 11.09-4.78a236.6 236.6 0 0010.91-5.6c2.9-1.56 5.7-3.3 8.5-5.02l6.57-4.47c2.2-1.5 4.25-3.28 6.36-4.9 2.02-1.55 3.88-3.37 5.81-5.05 1-.89 1.94-1.91 2.9-2.85.95-.94 1.9-1.88 2.83-2.83a82.72 82.72 0 0011.02-15.84 121.12 121.12 0 007.08-18.02c.76-2.49 1.63-4.97 2.26-7.5.65-2.68 1.3-5.36 1.97-8.04a114.8 114.8 0 002.3-26.32c-.37-5.8-1.2-11.52-2.29-17.22-.49-2.55-1.13-5.07-1.7-7.6-.77-3.53-1.91-7-2.97-10.46a416.6 416.6 0 00-6.18-16.59c-2.94-7.29-6.29-14.4-10.38-21.11a104.85 104.85 0 00-15.22-18.4 106.32 106.32 0 00-20.97-14.53 130.25 130.25 0 00-29.24-10.3A131.97 131.97 0 00208.64 77l-8.05.46c-1.24.06-2.49.29-3.72.44l-5.83.71c-3.12.38-6.22 1.13-9.31 1.7-3.03.55-6.03 1.5-9.01 2.24-2.44.78-4.87 1.55-7.3 2.34-1.63.53-3.22 1.3-4.8 1.94-1.39.56-2.84 1.05-4.18 1.7-2.89 1.42-5.78 2.82-8.67 4.25-1.44.71-2.82 1.62-4.22 2.42l-3.9 2.25c-2.7 1.75-5.44 3.47-8.03 5.39-2.04 1.5-4.1 3-6.13 4.51-1.47 1.09-2.84 2.34-4.26 3.5-3.28 2.74-6.4 5.62-9.51 8.54-2.62 2.45-5.04 5.1-7.52 7.69l-6.08 6.9c-1.1 1.26-2.1 2.62-3.16 3.92-1.06 1.32-2.22 2.6-3.2 3.99-1.94 2.72-4.07 5.37-5.82 8.22-2.37 3.83-4.77 7.62-6.9 11.6a116.23 116.23 0 00-9.43 26.27c-.22 1.14-.42 2.29-.61 3.44l.67-3.23a107.97 107.97 0 0123.03-46.71c2.07-2.5 4.26-4.86 6.45-7.25 1.48-1.6 2.9-3.3 4.45-4.84 2.8-2.75 5.51-5.63 8.44-8.24 3.15-2.8 6.24-5.61 9.53-8.23l5.75-4.57c1.52-1.2 3.2-2.24 4.78-3.35 1.88-1.3 3.74-2.69 5.7-3.86l6.56-3.9c8.22-4.9 17.12-8.4 26.3-11.05 6.72-1.93 13.55-2.86 20.47-3.8 1.72-.23 3.49-.25 5.21-.38 2.38-.15 4.78-.4 7.16-.42 6.19-.02 12.32-.05 18.5.48 6.02.52 11.98 1.67 17.85 3.11 5.9 1.44 11.6 3.6 17.02 6.36 4.87 2.47 9.4 5.3 13.65 8.72a96.55 96.55 0 0112.67 12.34 85.68 85.68 0 0117.11 31.38c1.6 5.33 2.73 10.75 3.53 16.27.37 2.61.56 5.26.81 7.87.46 4.81.6 9.6.78 14.43.15 4.25.03 8.48-.04 12.71-.07 4.24-.47 8.47-.78 12.7-.27 4.02-1 8.04-1.53 12.04-.67 4.96-1.92 9.92-3.24 14.74A89.2 89.2 0 01293 252.2c-4.47 8.6-10.42 16.1-17.2 23-1.94 1.97-3.87 3.95-5.9 5.82-4.64 4.25-9.7 7.88-15.01 11.2-9.8 6.11-21.23 9.55-32.64 10.92-5.04.6-10.15.66-15.2.63-3.79-.02-7.56-.29-11.3-.72-10.9-1.28-21.82-3.29-32.22-6.85-10.56-3.61-20.66-9.22-28.9-16.78a74.28 74.28 0 01-19.35-28.37c-4.56-11.63-6.13-24.22-5.45-36.67.2-3.85.73-7.65 1.45-11.42.48-2.46.87-4.97 1.52-7.4l1.76-6.65c.57-2.18 1.42-4.33 2.14-6.47a96.8 96.8 0 013.94-10c1.04-2.21 2.07-4.44 3.09-6.66 1.05-2.28 2.33-4.49 3.5-6.7 1.98-3.72 4.2-7.25 6.4-10.85a83.99 83.99 0 019.63-12.35 91.99 91.99 0 0113.52-12.29c9.8-7.22 21.2-12 33.12-14.29 11.6-2.24 23.98-1.04 34.65 4.14 10.76 5.23 19.26 13.88 26.38 23.38 3.4 4.52 6.37 9.4 9 14.4 2.87 5.5 4.9 11.34 6.69 17.26a79.31 79.31 0 012.78 12.48l.9 6.94c.29 2.16.24 4.4.35 6.58.28 4.98.08 9.93-.52 14.9a78.4 78.4 0 01-3.4 15.1c-1.71 5.22-4.25 10.2-7.01 14.93-5.52 9.38-13.13 17.87-22.13 23.97a58.1 58.1 0 01-15.33 7.47 59.1 59.1 0 01-15.56 2.6 99.33 99.33 0 01-24.34-1.65c-3.2-.66-6.42-1.28-9.58-2.1a76.67 76.67 0 01-16.93-6.8c-4.84-2.55-9.03-6.13-12.9-9.98-4.06-4.07-7.2-9.07-9.65-14.25-2.51-5.29-3.9-11.15-4.54-16.95-.68-6.17-.4-12.44.55-18.57A70.33 70.33 0 01142.29 172c7-9.48 16.71-16.93 27.22-22.08 9.8-4.81 20.74-6.72 31.58-6.59a57.42 57.42 0 0115.04 2.41c2.73.77 5.37 2.03 7.84 3.4a36.98 36.98 0 017.94 6 36.84 36.84 0 018.3 12.84c2.08 5.3 2.78 10.77 2.9 16.42.1 5.28-.9 10.5-2.08 15.62-1.4 6.05-4 11.74-7.1 17.08a42.24 42.24 0 01-10.75 12.11c-4.78 3.68-10.47 5.96-16.35 7.19a40.86 40.86 0 01-15.4-.08 37.71 37.71 0 01-16.66-7.3c-9.44-7.4-13.4-20.02-10.65-31.59 1.37-5.7 4.32-10.94 8.09-15.4a52.83 52.83 0 015.27-5.4c2.32-2.06 4.98-3.69 7.6-5.3a32.64 32.64 0 0117.9-4.66c3.23.12 6.32 1.27 9.15 2.74a21.02 21.02 0 016.26 5.13c4.16 4.89 4.95 11.93 3.3 17.96a22.58 22.58 0 01-10.26 13.5c-2.64 1.56-5.62 2.41-8.6 3.05-2.07.45-4.37.52-6.46.3a12.7 12.7 0 01-3.14-.75 7.76 7.76 0 01-4.66-9.78 7.71 7.71 0 019.67-4.7l.4.02c1.17-.13 2.3-.35 3.43-.64.7-.26 1.36-.56 2.01-.9.39-.3.75-.61 1.11-.94.45-.58.86-1.17 1.25-1.8.24-.57.44-1.15.63-1.75.1-.72.15-1.43.17-2.17a9.55 9.55 0 00-.12-.66c-.08-.2-.18-.4-.28-.6-.28-.38-.57-.74-.89-1.09-.42-.32-.85-.61-1.29-.89-.56-.21-1.1-.4-1.67-.58-.8-.1-1.57-.16-2.36-.17-1.2.16-2.35.38-3.5.7-2.13.78-4.13 1.75-6.08 2.89a43.9 43.9 0 00-6.33 5.3 40.46 40.46 0 00-4.28 6.1 32.08 32.08 0 00-1.66 4.61c-.2 1.38-.3 2.73-.3 4.12.16 1.45.43 2.86.8 4.26.44 1.13.92 2.2 1.49 3.28a25.4 25.4 0 002.52 3.02 31.95 31.95 0 003.95 2.78c2 .92 4.03 1.63 6.16 2.17 2.39.4 4.74.6 7.15.58 2.13-.18 4.2-.54 6.28-1.09a36.34 36.34 0 005.81-2.72 36.1 36.1 0 004.65-3.93c1.99-2.36 3.67-4.88 5.18-7.58a61.71 61.71 0 004.29-12.12 58.9 58.9 0 001.08-11.99c-.21-2.38-.6-4.68-1.19-6.99a37.23 37.23 0 00-2.78-6.07 31.68 31.68 0 00-3.22-3.84 35.3 35.3 0 00-4.77-3.34 41.55 41.55 0 00-7.4-2.58c-3.84-.7-7.7-.95-11.6-.89a67.4 67.4 0 00-13.86 2.35 66.87 66.87 0 00-13.09 6.13 73.22 73.22 0 00-12.29 10.21 66.85 66.85 0 00-7.97 11.55 66.3 66.3 0 00-4.79 13.54 71.64 71.64 0 00-1.21 14.83c.26 3.62.83 7.14 1.8 10.64 1.08 3.14 2.45 6.1 4.12 8.96a49.71 49.71 0 006.2 7.33 52.17 52.17 0 009.08 6.31A78.7 78.7 0 00180 255.8c4.25.85 8.5 1.68 12.84 2.05a92.88 92.88 0 0014 .37c3.9-.36 7.68-1 11.44-2.07 3.32-1.2 6.43-2.7 9.45-4.5a65.3 65.3 0 0010.75-9.1 82.5 82.5 0 0010.5-15.16c2.22-4.6 3.9-9.34 5.1-14.3a86.98 86.98 0 001.5-16.41c-.12-2.63-.22-5.25-.56-7.86l-.75-5.78a79.2 79.2 0 00-2.85-12.31 92.22 92.22 0 00-8.38-18.46 98.84 98.84 0 00-14.24-17.55 56.96 56.96 0 00-10.1-7.18c-2.95-1.38-5.98-2.45-9.15-3.22-3.5-.6-7-.84-10.55-.74-4.76.4-9.38 1.3-13.97 2.62a78.56 78.56 0 00-15.69 7.26 85.2 85.2 0 00-14.5 12.23 109.1 109.1 0 00-8.65 11.24c-1.23 1.81-2.31 3.76-3.47 5.65-1.67 2.7-3.13 5.53-4.6 8.34l-3.41 7.36c-1.16 2.53-2.08 5.2-3.1 7.79-1.9 4.78-3.15 9.8-4.46 14.76l-1.08 5.58a79.72 79.72 0 00-1.14 17.26 84.16 84.16 0 003.13 17.9c1.7 5.05 3.9 9.85 6.63 14.42a70.73 70.73 0 009.78 11.85 74.02 74.02 0 0014.02 9.66c6.14 2.98 12.52 5.2 19.13 6.94 2 .52 4.03.94 6.06 1.37l7.58 1.28c2.5.43 5.04.6 7.56.9 4.67.54 9.4.5 14.1.52l5.16-.3a69.25 69.25 0 0015.43-2.97 76.5 76.5 0 0015.2-7.1 83.8 83.8 0 0013.74-11.11l5.44-5.53a91.51 91.51 0 0011.99-17 99.09 99.09 0 007.05-20.83c1-5.05 1.62-10.15 2.31-15.25.22-1.63.25-3.3.37-4.94l.5-6.88c.12-1.76.05-3.55.09-5.31l.1-6.67c.05-3.27-.18-6.57-.33-9.84l-.9-9.38a97.13 97.13 0 00-3.58-17.94 81.6 81.6 0 00-7.6-16.46 92.61 92.61 0 00-13-15.49 76.79 76.79 0 00-14.2-10.04 86.71 86.71 0 00-18.83-6.5 103.78 103.78 0 00-19.81-2.1l-9.7.02c-3.1.17-6.24.29-9.3.7-2.53.36-5.06.7-7.59 1.04-4.76.65-9.49 1.87-14.1 3.25-6.54 2.15-13.09 4.82-19 8.34l-7.22 4.31c-3.01 2.09-6.1 4.09-8.97 6.36-3.69 2.93-7.34 5.82-10.86 8.96-1.53 1.36-3.15 2.65-4.6 4.1l-5.47 5.4c-2.58 2.55-5.02 5.26-7.47 7.94-5.74 6.62-10.87 13.55-15.02 21.28a109.55 109.55 0 00-8.64 24.64c-1.51 7.73-2.2 15.53-1.93 23.4a98.59 98.59 0 003.73 20.72A93.01 93.01 0 0094.38 256a88.52 88.52 0 0010.75 13.8l6.04 6.18 6.3 5.55c1.06.93 2.27 1.73 3.39 2.58l4.44 3.39c2.54 1.92 5.35 3.55 8 5.3 2.65 1.76 5.52 3.22 8.26 4.83l-.94-.5c2.65 1.4 5.27 2.85 7.99 4.08 3.73 1.67 7.42 3.35 11.24 4.82 1.67.64 3.33 1.38 5.02 1.93l6.94 2.18c3.05.97 6.19 1.66 9.3 2.43l7.64 1.34zm153.4-20.02l.71-.78-.7.78zm-326.6-25.65zm213.98-86.35l-.04-.78.04.78zM68.26 118.76zm266.47-9.9c-.16-.23-.3-.48-.46-.72l.46.72zm-95.78-27.27zM131.8 339.14l1.4.72-1.4-.72zm6.34 4.18h.01l.7.36-.7-.36zm2.49.25l-.54-.28.46.24.36.18a7.3 7.3 0 01-.28-.14zm-.64-.33l1.02.52-1.02-.52z"/></svg>