<svg xmlns="http://www.w3.org/2000/svg" width="630" height="500"><path fill="#3E4E5C" fill-rule="evenodd" d="M0 217.68v-.27c0-7.57.31-15.22.62-22.67.13-2.57.19-5.07.31-7.64.32-9.03.88-18.58 1.69-30.05.74-10.08 1.62-20.3 2.61-30.25 1-9.42 2.25-19.3 3.87-30.18l.56-3.83c1.25-8.5 2.55-17.4 4.61-25.96 2.3-9.69 4.92-19.9 9.35-29.46C28.54 26.96 36.02 19 44.8 15.03c4-1.84 8.73-3.16 14.52-3.95 4.55-.66 9.23-.86 13.77-1.06 4.74-.2 9.6-.4 14.4-.06l4.49-.73 6.35-.99a602.24 602.24 0 0136.08-4.74c10.28-.99 23.8-2.18 37.4-2.7 12.7-.53 25.54-.8 38.07-.8 11.84-.06 23.86.47 35.51 1l1.13.06 21.74.99c5.05.26 10.16.53 15.2.72a2854.3 2854.3 0 0074.29 2.5c2.68.07 5.3.07 7.91.14 3.37.07 6.8.07 10.16.13l6.04.2c4 .06 8.04.2 12.03.26l14.46.2c7.6.13 15.2.2 22.74.4l15.58.2c7.1.06 14.46.2 21.69.39l9.1.26c8.84.2 18.07.46 27.1.8 10.78.39 22.18.92 37.02 1.7l1.8.14c11.22.6 22.87 1.18 34.21 2.44l.63.06c5.98.66 12.21 1.32 18.13 2.57 3.12.6 5.86 1.32 8.29 2.11 1.12.33 2.18.8 3.18 1.25l.43.2c2.74 1.19 5.3 2.9 7.6 4.94 3.68 3.43 6.61 8.11 8.67 13.84.93 2.7 1.87 5.6 2.49 8.57.68 3.36 1.25 6.52 1.68 9.56.38 2.9.56 5.8.81 8.63l.06 1.05c.32 3.96.44 8.24.44 13.51 0 1.45 0 2.9-.06 4.35a610.1 610.1 0 01-.5 18.92c-.5 9.82-1.18 19.77-1.93 29.45l-.56 7.91c-.38 5.47-.69 11-1.06 16.48l-.13 2.5-.25 3.63c-.3 4.74-.62 9.68-.74 14.56a1310 1310 0 00-.32 31.17l-.06 6.72c0 12.6-.31 25.31-.8 37.77l-1.32 31.76-.18 4.35c-1.06 24.12-2.31 48.9-3.74 75.79-.13 3.03-.31 6.13-.44 9.22-.44 8.9-.93 18.13-1.68 27.15-.25 2.64-.56 5.4-1 8.3l-.12 1.2c-.44 2.83-.81 5.8-1.44 8.63a125.52 125.52 0 01-4.73 17.53 48.86 48.86 0 01-4.18 8.83c-1.74 3.03-4.17 5.67-6.3 7.9a50.65 50.65 0 01-6.16 5.48 43.95 43.95 0 01-8.23 4.8c-2.55 1.26-5.3 2.18-7.97 3.1l-1.12.4c-3.06 1.05-6.11 1.98-8.48 2.7a371.69 371.69 0 01-15.83 4.09l-1.55.4a711.68 711.68 0 01-34.96 7.5c-4.99.86-11.53 2.05-18.14 3.04a315.7 315.7 0 01-18.07 2.37c-12.02 1.05-24.3 1.65-36.2 2.24h-1.25l-37.89 1.98c-22.24 1.18-48.1 2.57-73.59 3.62l-4.24.2c-22.74.92-46.23 1.91-69.35 2.64-8.79.26-17.58.59-26.42.92a3440.1 3440.1 0 01-46 1.38c-7.47.13-15.07.13-22.36.13-4.05 0-8.1.07-12.15.07H132.17c-5.55 0-11.03-.07-16.51-.26l-3.56-.2c-2.8-.13-5.6-.26-8.47-.33l-3-.07c-3.6-.13-7.16-.2-10.71-.33-7.42-.33-14.83-.72-22.25-1.12l-3.24-.2c-.5 0-1-.13-1.43-.32h-.5c-.37-.07-.75-.07-1.06-.14-1-.06-2-.13-2.93-.26-.8-.07-1.55-.2-2.3-.26-1.5-.13-2.93-.27-4.43-.33l-.93-.07c-5.61-.46-9.72-1.38-13.4-2.96a44.76 44.76 0 01-5.8-3.17 28.7 28.7 0 01-5.3-3.75 19.27 19.27 0 01-2.92-3.17 24.12 24.12 0 01-2.18-3.42 44.31 44.31 0 01-2.8-6.13c-1-2.64-1.94-5.34-2.87-8.1l-1.5-4.36c-1.5-4.15-3.17-9.16-4.36-14.17-1-4.15-1.8-8.76-2.5-14.3-.49-4.02-.86-8.17-1.18-12.12l-.18-2.11-.25-2.84c-.38-3.75-.75-7.64-1-11.46-.25-4.75-.37-9.62-.37-14.5 0-2.83.06-5.6.12-8.44l.13-2.96c.06-2.64.18-5.27.18-7.91v-.99c0-3.56-.06-7.18-.12-10.74.06.13.06.26.06.4-.19-4.16-.31-8.3-.5-12.46l-.06-1.71c-.12-2.5-.19-5.08-.31-7.65-.06-2.3-.13-4.61-.25-6.92-.13-3.62-.37-7.18-.56-10.74l-.25-4.35a337.7 337.7 0 01-.62-15.62c-.07-3.62-.13-7.18-.13-10.74 0-3.76-.06-7.51-.12-11.27l.06.26-.75-22.6-.25-6.26c-.06-2.64-.18-5.27-.25-7.9-.3-7.59-.62-15.5-.62-23.27"/></svg>