<svg xmlns="http://www.w3.org/2000/svg" width="203" height="199"><g fill="#694115" fill-rule="evenodd"><path d="M37.9 27.78a3.92 3.92 0 012.42-6.8c1.05 0 2.01.28 2.81 1a3.92 3.92 0 011.28 2.7c.1 2.05-1.56 4.1-3.7 4.1a4.03 4.03 0 01-2.81-1M60.75 14.75a3.92 3.92 0 01-1.28-2.7c-.1-2.04 1.57-4.1 3.7-4.1 1.05 0 2.02.28 2.81 1a3.92 3.92 0 01-2.41 6.8 4.04 4.04 0 01-2.82-1M91.62 6.8A3.91 3.91 0 0194.03 0c1.06 0 2.02.28 2.82 1a3.92 3.92 0 01-2.42 6.8 4.03 4.03 0 01-2.81-1M124.26 9.66a3.92 3.92 0 012.41-6.8c1.06 0 2.02.29 2.82 1a3.92 3.92 0 01-2.42 6.8 4.04 4.04 0 01-2.81-1M151.63 21.86a3.92 3.92 0 012.41-6.8c1.06 0 2.02.29 2.82 1a3.92 3.92 0 011.28 2.7c.1 2.05-1.57 4.1-3.7 4.1a4.04 4.04 0 01-2.81-1M174.33 42.02a3.91 3.91 0 012.42-6.8 3.92 3.92 0 01.4 7.8 4.03 4.03 0 01-2.82-1M188.1 68.7a3.92 3.92 0 012.41-6.8c1.06 0 2.02.28 2.82 1a3.92 3.92 0 01-2.42 6.8 4.04 4.04 0 01-2.82-1M196.46 97.31a3.92 3.92 0 01-1.29-2.7c-.1-2.04 1.57-4.1 3.7-4.1 1.06 0 2.02.29 2.82 1 .76.7 1.23 1.67 1.28 2.7.1 2.05-1.57 4.1-3.7 4.1a4.04 4.04 0 01-2.81-1M191.35 129.48a3.92 3.92 0 01-1.28-2.7c-.1-2.04 1.57-4.1 3.7-4.1 1.06 0 2.02.29 2.82 1a3.92 3.92 0 01-2.42 6.8 4.04 4.04 0 01-2.82-1M175.95 158.6a3.92 3.92 0 01-1.28-2.7c-.1-2.04 1.56-4.1 3.7-4.1 1.05 0 2.01.29 2.81 1a3.92 3.92 0 011.28 2.7c.1 2.05-1.57 4.1-3.7 4.1a4.03 4.03 0 01-2.81-1M156.98 177.71a3.92 3.92 0 01-1.28-2.7c-.1-2.04 1.57-4.1 3.7-4.1 1.05 0 2.02.29 2.81 1a3.92 3.92 0 011.29 2.7c.1 2.05-1.57 4.1-3.7 4.1a4.03 4.03 0 01-2.82-1M135.33 188.92a3.92 3.92 0 01-1.28-2.7c-.1-2.04 1.57-4.1 3.7-4.1 1.05 0 2.02.29 2.82 1a3.92 3.92 0 011.28 2.7c.1 2.05-1.57 4.1-3.7 4.1a4.04 4.04 0 01-2.82-1M107.84 197.73a3.92 3.92 0 01-1.28-2.7c-.1-2.04 1.56-4.1 3.7-4.1 1.05 0 2.01.28 2.81 1a3.91 3.91 0 01-2.42 6.8 4.04 4.04 0 01-2.81-1M75.59 194.7a3.92 3.92 0 01-1.28-2.7c-.1-2.05 1.56-4.1 3.7-4.1 1.05 0 2.01.28 2.81 1a3.92 3.92 0 01-2.42 6.8 4.04 4.04 0 01-2.81-1M52.77 184.88a3.92 3.92 0 012.41-6.8c1.06 0 2.02.29 2.82 1a3.92 3.92 0 01-2.42 6.8 4.04 4.04 0 01-2.81-1M33.33 169.4a3.92 3.92 0 01-1.29-2.7c-.1-2.03 1.57-4.09 3.7-4.09 1.06 0 2.02.28 2.82 1 .76.7 1.23 1.67 1.28 2.7.1 2.04-1.57 4.1-3.7 4.1a4.04 4.04 0 01-2.81-1M16.47 150.13a3.92 3.92 0 01-1.29-2.7c-.1-2.04 1.57-4.1 3.7-4.1 1.06 0 2.02.28 2.82 1a3.92 3.92 0 01-2.42 6.8 4.04 4.04 0 01-2.81-1M4.23 126.88a3.92 3.92 0 01-1.28-2.7c-.11-2.04 1.57-4.1 3.7-4.1 1.05 0 2.01.29 2.81 1a3.92 3.92 0 011.28 2.7c.1 2.05-1.57 4.1-3.7 4.1a4.04 4.04 0 01-2.81-1M1.29 98.72a3.92 3.92 0 012.41-6.8c1.06 0 2.02.29 2.82 1a3.92 3.92 0 01-2.42 6.8 4.04 4.04 0 01-2.81-1M6.92 67.7a3.92 3.92 0 012.42-6.8c1.06 0 2.02.29 2.81 1a3.92 3.92 0 01-2.41 6.8 4.04 4.04 0 01-2.82-1M21.2 44.47a3.92 3.92 0 012.42-6.8c1.06 0 2.02.28 2.82 1a3.9 3.9 0 011.28 2.7c.1 2.04-1.57 4.1-3.7 4.1a4.04 4.04 0 01-2.81-1M108.6 20.2a3.91 3.91 0 012.41-6.8c1.06 0 2.02.29 2.82 1a3.92 3.92 0 01-2.42 6.8 4.04 4.04 0 01-2.82-1M133.88 24.63a3.92 3.92 0 012.42-6.8 3.91 3.91 0 01.4 7.8 4.04 4.04 0 01-2.82-1M155.87 40.45a3.91 3.91 0 012.42-6.8c1.05 0 2.01.29 2.81 1a3.92 3.92 0 011.28 2.7c.11 2.05-1.56 4.1-3.7 4.1a4.04 4.04 0 01-2.81-1M171.35 58.59a3.92 3.92 0 01-1.28-2.7c-.1-2.04 1.57-4.1 3.7-4.1 1.05 0 2.02.28 2.81 1a3.92 3.92 0 01-2.41 6.8 4.04 4.04 0 01-2.82-1M182.7 86.67a3.92 3.92 0 012.41-6.8c1.06 0 2.02.28 2.82 1a3.92 3.92 0 01-2.42 6.8 4.04 4.04 0 01-2.81-1M182.58 112.5a3.92 3.92 0 01-1.29-2.7c-.1-2.04 1.57-4.1 3.7-4.1 1.06 0 2.02.28 2.82 1 .76.7 1.23 1.67 1.28 2.7.1 2.04-1.57 4.1-3.7 4.1a4.04 4.04 0 01-2.81-1M174.52 138.54a3.91 3.91 0 012.41-6.8c1.06 0 2.02.28 2.82 1a3.91 3.91 0 01-2.42 6.8 4.04 4.04 0 01-2.81-1M158.67 159.19a3.92 3.92 0 012.41-6.8c1.06 0 2.02.28 2.82 1a3.92 3.92 0 01-2.42 6.8 4.04 4.04 0 01-2.81-1M139.6 172.27a3.92 3.92 0 012.42-6.8c1.05 0 2.01.28 2.81 1a3.92 3.92 0 01-2.41 6.8 4.04 4.04 0 01-2.82-1M115.19 180.94a3.92 3.92 0 01-1.28-2.7c-.1-2.04 1.57-4.1 3.7-4.1 1.05 0 2.01.29 2.81 1a3.92 3.92 0 01-2.41 6.8 4.03 4.03 0 01-2.82-1M90.22 179.78a3.92 3.92 0 012.41-6.8c1.06 0 2.02.28 2.82 1a3.91 3.91 0 01-2.42 6.8 4.04 4.04 0 01-2.81-1M69.25 175.08a3.92 3.92 0 01-1.28-2.7c-.11-2.04 1.56-4.1 3.7-4.1 1.05 0 2.01.28 2.81 1a3.92 3.92 0 011.28 2.7c.1 2.04-1.57 4.1-3.7 4.1a4.04 4.04 0 01-2.81-1M49.1 167.49a3.92 3.92 0 01-1.28-2.7c-.1-2.04 1.57-4.1 3.7-4.1 1.06 0 2.02.28 2.82 1 .76.7 1.23 1.67 1.28 2.7.1 2.04-1.57 4.1-3.7 4.1a4.04 4.04 0 01-2.82-1M36.86 150.97a3.92 3.92 0 01-1.28-2.7c-.1-2.04 1.57-4.1 3.7-4.1 1.05 0 2.02.28 2.82 1a3.92 3.92 0 01-2.42 6.8 4.04 4.04 0 01-2.82-1M20.39 131.57a3.92 3.92 0 012.41-6.8c1.06 0 2.02.29 2.82 1a3.92 3.92 0 01-2.42 6.8 4.03 4.03 0 01-2.81-1M16.1 107.87a3.92 3.92 0 012.42-6.8c1.05 0 2.01.28 2.81 1a3.92 3.92 0 011.28 2.7c.1 2.04-1.56 4.1-3.7 4.1a4.04 4.04 0 01-2.81-1M15.75 83.19a3.91 3.91 0 012.41-6.8c1.06 0 2.02.28 2.82 1a3.91 3.91 0 01-2.42 6.8 4.04 4.04 0 01-2.81-1M24.46 62.3a3.92 3.92 0 012.42-6.8c1.05 0 2.01.29 2.81 1a3.92 3.92 0 011.28 2.7c.11 2.04-1.56 4.1-3.7 4.1a4.04 4.04 0 01-2.81-1M38.33 44.04a3.92 3.92 0 012.41-6.8c1.06 0 2.02.29 2.82 1a3.92 3.92 0 011.28 2.7c.1 2.05-1.57 4.1-3.7 4.1a4.03 4.03 0 01-2.81-1M57.36 31.57a3.92 3.92 0 012.42-6.8c1.05 0 2.02.28 2.81 1a3.9 3.9 0 01-2.41 6.8 4.03 4.03 0 01-2.82-1M79 22.5a3.91 3.91 0 012.42-6.79c1.06 0 2.02.28 2.82 1 .76.7 1.23 1.67 1.28 2.7.1 2.04-1.57 4.1-3.7 4.1a4.04 4.04 0 01-2.81-1M96.16 34.64a3.92 3.92 0 01-1.28-2.7c-.1-2.04 1.57-4.1 3.7-4.1 1.05 0 2.02.29 2.81 1a3.92 3.92 0 01-2.41 6.8 4.04 4.04 0 01-2.82-1M121.33 35.86a3.92 3.92 0 012.41-6.8c1.06 0 2.02.29 2.82 1 .76.7 1.23 1.67 1.28 2.7.1 2.05-1.57 4.1-3.7 4.1a4.04 4.04 0 01-2.81-1M139.16 47.1a3.91 3.91 0 012.42-6.8c1.05 0 2.01.28 2.81 1a3.92 3.92 0 01-2.41 6.8 4.04 4.04 0 01-2.82-1M153.78 62.58a3.92 3.92 0 012.42-6.8c1.05 0 2.02.29 2.82 1a3.91 3.91 0 01-2.42 6.8 4.04 4.04 0 01-2.82-1M165.28 82.23a3.92 3.92 0 01-1.29-2.7c-.1-2.04 1.57-4.1 3.7-4.1 1.06 0 2.02.29 2.82 1a3.92 3.92 0 01-2.42 6.8 4.04 4.04 0 01-2.81-1M169.32 104.82a3.92 3.92 0 012.42-6.8c1.05 0 2.02.29 2.81 1a3.92 3.92 0 01-2.41 6.8 4.04 4.04 0 01-2.82-1M164.37 124.67a3.92 3.92 0 012.42-6.8c1.05 0 2.02.28 2.81 1a3.92 3.92 0 01-2.41 6.8 4.04 4.04 0 01-2.82-1M154.43 140.62a3.92 3.92 0 012.42-6.8c1.05 0 2.02.28 2.82 1a3.92 3.92 0 01-2.42 6.8 4.04 4.04 0 01-2.82-1M140.08 150.95a3.92 3.92 0 012.41-6.8c1.06 0 2.02.28 2.82 1 .76.7 1.23 1.67 1.28 2.7.1 2.04-1.57 4.1-3.7 4.1a4.04 4.04 0 01-2.81-1M121.6 161.22a3.92 3.92 0 01-1.29-2.7c-.1-2.04 1.57-4.1 3.7-4.1a3.92 3.92 0 01.4 7.8 4.04 4.04 0 01-2.82-1M99.93 166.02a3.92 3.92 0 01-1.28-2.7c-.1-2.04 1.57-4.1 3.7-4.1 1.06 0 2.02.28 2.82 1a3.92 3.92 0 01-2.42 6.8 4.04 4.04 0 01-2.82-1M80.47 159.91a3.91 3.91 0 012.41-6.8c1.06 0 2.02.29 2.82 1a3.91 3.91 0 01-2.42 6.8 4.04 4.04 0 01-2.81-1M60.15 151.3a3.92 3.92 0 012.41-6.8c1.06 0 2.02.28 2.82 1a3.92 3.92 0 01-2.42 6.8 4.04 4.04 0 01-2.81-1M45.76 137.64a3.92 3.92 0 012.42-6.8c1.05 0 2.01.28 2.81 1a3.92 3.92 0 011.28 2.7c.11 2.05-1.56 4.1-3.7 4.1a4.04 4.04 0 01-2.81-1M35.92 123.55a3.92 3.92 0 012.41-6.8c1.06 0 2.02.29 2.82 1a3.92 3.92 0 01-2.42 6.8 4.03 4.03 0 01-2.81-1M29.72 106.13a3.92 3.92 0 012.41-6.8c1.06 0 2.02.29 2.82 1a3.92 3.92 0 01-2.42 6.8 4.03 4.03 0 01-2.81-1M31.13 85.3a3.92 3.92 0 012.41-6.8c1.06 0 2.02.28 2.82 1a3.91 3.91 0 01-2.42 6.8 4.03 4.03 0 01-2.81-1M40.13 67.6a3.92 3.92 0 012.42-6.79c1.05 0 2.02.28 2.81 1a3.91 3.91 0 01-2.41 6.8 4.03 4.03 0 01-2.82-1M58.7 53.58a3.92 3.92 0 01-1.29-2.7c-.1-2.04 1.57-4.1 3.7-4.1 1.06 0 2.02.29 2.82 1a3.92 3.92 0 011.28 2.7c.1 2.05-1.57 4.1-3.7 4.1a4.04 4.04 0 01-2.82-1M79.28 40.83a3.92 3.92 0 012.42-6.8c1.05 0 2.02.29 2.82 1a3.92 3.92 0 01-2.42 6.8 4.04 4.04 0 01-2.82-1M106.42 48.3a3.92 3.92 0 01-1.28-2.69c-.1-2.04 1.57-4.1 3.7-4.1 1.05 0 2.01.28 2.81 1a3.92 3.92 0 01-2.42 6.8 4.03 4.03 0 01-2.81-1M124.86 56.17a3.92 3.92 0 012.42-6.8c1.05 0 2.02.29 2.82 1a3.92 3.92 0 01-2.42 6.8 4.04 4.04 0 01-2.82-1M138.55 69.8a3.92 3.92 0 012.41-6.8c1.06 0 2.02.28 2.82 1a3.91 3.91 0 011.28 2.7c.1 2.04-1.57 4.1-3.7 4.1a4.04 4.04 0 01-2.81-1M148.31 87.58a3.92 3.92 0 012.42-6.8c1.05 0 2.02.28 2.81 1a3.92 3.92 0 01-2.41 6.8 4.04 4.04 0 01-2.82-1M150.07 105.28a3.92 3.92 0 012.41-6.8c1.06 0 2.02.29 2.82 1 .76.7 1.23 1.67 1.28 2.7.1 2.05-1.57 4.1-3.7 4.1a4.03 4.03 0 01-2.81-1M142.1 123.9a3.92 3.92 0 01-1.28-2.7c-.1-2.04 1.57-4.1 3.7-4.1 1.05 0 2.01.29 2.81 1a3.92 3.92 0 011.28 2.7c.1 2.05-1.56 4.1-3.7 4.1a4.04 4.04 0 01-2.81-1M124.72 138a3.92 3.92 0 01-1.29-2.7c-.1-2.05 1.57-4.1 3.7-4.1 1.06 0 2.02.28 2.82 1a3.92 3.92 0 011.28 2.7c.1 2.04-1.57 4.1-3.7 4.1a4.04 4.04 0 01-2.81-1M105.92 141.06a3.92 3.92 0 01-1.28-2.7c-.1-2.04 1.57-4.1 3.7-4.1 1.06 0 2.02.28 2.82 1a3.92 3.92 0 01-2.42 6.8 4.04 4.04 0 01-2.82-1M82.33 136.36a3.92 3.92 0 01-1.28-2.7c-.1-2.05 1.57-4.1 3.7-4.1 1.06 0 2.02.28 2.82 1a3.92 3.92 0 01-2.42 6.8 4.04 4.04 0 01-2.82-1M66 126.95a3.92 3.92 0 01-1.28-2.7c-.1-2.04 1.57-4.1 3.7-4.1 1.05 0 2.01.28 2.81 1 .77.7 1.23 1.67 1.29 2.7.1 2.04-1.57 4.1-3.7 4.1a4.04 4.04 0 01-2.82-1M54.94 112.13a3.92 3.92 0 012.42-6.8c1.05 0 2.01.29 2.81 1a3.92 3.92 0 01-2.41 6.8 4.04 4.04 0 01-2.82-1M50.69 94.41a3.92 3.92 0 012.42-6.8c1.05 0 2.01.29 2.81 1a3.92 3.92 0 01-2.41 6.8 4.04 4.04 0 01-2.82-1M60.27 74.27a3.92 3.92 0 012.41-6.8c1.06 0 2.02.29 2.82 1a3.91 3.91 0 01-2.41 6.8 4.04 4.04 0 01-2.82-1M127.52 78.33a3.92 3.92 0 012.41-6.8c1.06 0 2.02.28 2.82 1a3.91 3.91 0 01-2.42 6.8 4.04 4.04 0 01-2.81-1M133.57 96.87a3.91 3.91 0 012.41-6.8c1.06 0 2.02.28 2.82 1a3.92 3.92 0 01-2.42 6.8 4.04 4.04 0 01-2.81-1M128.72 114.6a3.92 3.92 0 01-1.29-2.7c-.1-2.04 1.57-4.1 3.7-4.1 1.06 0 2.02.28 2.82 1a3.92 3.92 0 011.28 2.7c.1 2.04-1.57 4.1-3.7 4.1a4.03 4.03 0 01-2.81-1M112.22 122.9a3.91 3.91 0 012.41-6.8c1.06 0 2.02.29 2.82 1a3.92 3.92 0 01-2.42 6.8 4.04 4.04 0 01-2.81-1M92 122.04a3.92 3.92 0 01-1.28-2.7c-.1-2.04 1.57-4.1 3.7-4.1 1.06 0 2.02.29 2.82 1 .76.7 1.23 1.67 1.28 2.7.1 2.05-1.57 4.1-3.7 4.1a4.03 4.03 0 01-2.82-1M73.07 110.9a3.92 3.92 0 01-1.28-2.7c-.1-2.05 1.57-4.1 3.7-4.1 1.05 0 2.02.28 2.81 1a3.92 3.92 0 01-2.41 6.8 4.04 4.04 0 01-2.82-1M66.48 92.96a3.91 3.91 0 012.41-6.79c1.06 0 2.02.28 2.82 1 .76.7 1.23 1.67 1.28 2.7.1 2.04-1.57 4.1-3.7 4.1a4.03 4.03 0 01-2.81-1M117.32 103.73a3.92 3.92 0 012.42-6.8c1.06 0 2.02.28 2.82 1 .76.7 1.23 1.67 1.28 2.7.1 2.04-1.57 4.1-3.7 4.1a4.04 4.04 0 01-2.82-1M96.01 107.16a3.92 3.92 0 012.42-6.8c1.05 0 2.02.29 2.82 1a3.92 3.92 0 011.28 2.7c.1 2.05-1.57 4.1-3.7 4.1a4.04 4.04 0 01-2.82-1M83.35 96.03a3.91 3.91 0 012.42-6.8c1.05 0 2.02.29 2.81 1a3.92 3.92 0 011.29 2.7c.1 2.05-1.57 4.1-3.7 4.1a4.03 4.03 0 01-2.82-1M96.74 83.23a3.92 3.92 0 012.42-6.8c1.05 0 2.02.29 2.81 1a3.92 3.92 0 01-2.41 6.8 4.04 4.04 0 01-2.82-1M105.04 94.66a3.91 3.91 0 012.41-6.8c1.06 0 2.02.29 2.82 1a3.92 3.92 0 011.28 2.7c.1 2.05-1.57 4.1-3.7 4.1a4.03 4.03 0 01-2.81-1M112.97 66.88a3.93 3.93 0 01-1.28-2.7c-.1-2.04 1.57-4.1 3.7-4.1 1.06 0 2.02.28 2.82 1a3.92 3.92 0 011.28 2.7c.1 2.04-1.57 4.1-3.7 4.1a4.03 4.03 0 01-2.82-1M88.6 53.2a3.91 3.91 0 012.4-6.8c1.06 0 2.03.28 2.83 1a3.92 3.92 0 011.28 2.7c.1 2.04-1.57 4.1-3.7 4.1a4.04 4.04 0 01-2.82-1M71.08 62.4a3.92 3.92 0 012.41-6.8c1.06 0 2.02.28 2.82 1a3.92 3.92 0 01-2.42 6.8 4.04 4.04 0 01-2.81-1M81.1 77.74a3.92 3.92 0 012.42-6.8c1.06 0 2.02.28 2.81 1 .77.7 1.24 1.67 1.29 2.7.1 2.05-1.57 4.1-3.7 4.1a4.04 4.04 0 01-2.82-1M111.69 81.07a3.91 3.91 0 012.41-6.8c1.06 0 2.02.29 2.82 1a3.92 3.92 0 01-2.42 6.8 4.03 4.03 0 01-2.81-1M91.66 66.1a3.91 3.91 0 012.41-6.8c1.06 0 2.02.28 2.82 1a3.92 3.92 0 01-2.42 6.8 4.03 4.03 0 01-2.81-1"/></g></svg>