<svg xmlns="http://www.w3.org/2000/svg" width="137" height="121"><path fill="#D91E23" fill-rule="evenodd" d="M95.22 2.85l1.08-.53c.96-.47 2.1-.86 3.55-1.23.41-.1.83-.14 1.29-.19.78-.08 1.58-.1 2.39-.08.71.03 1.44.2 2.15.35l.47.11a15.77 15.77 0 012.98.91c1.5.63 3 1.36 4.57 2.24 2.59 1.42 4.83 3.35 7.3 5.54 2.31 2.05 4.03 4.66 5.71 7.39a67.8 67.8 0 013.87 7.47 74.38 74.38 0 013.43 8.92c1.6 5.2 2.36 11.01 2.32 17.82a47.2 47.2 0 01-.88 8.3 76.28 76.28 0 01-2.26 9.17 81.8 81.8 0 01-2.96 7.74 52.55 52.55 0 01-4.23 8.07c-2.98 4.64-6.46 9.1-10.66 13.68a81.18 81.18 0 01-6.06 6.04 68.96 68.96 0 01-6.57 5.16 52.2 52.2 0 01-6.83 4.05l-.32.16a59.91 59.91 0 01-8.22 3.05c-2.65.83-5.41 1.6-8.19 2.29a35.13 35.13 0 01-8.07 1.19c-1.34.07-2.7 0-4.04-.07-.97-.05-1.95-.1-2.93-.11h-.9c-.8 0-1.6.01-2.4-.01-.92-.04-1.87-.15-3.1-.42a54.17 54.17 0 01-3.66-.88 59.96 59.96 0 00-3.25-.8l-1.4-.28c-2.1-.41-4.25-.87-6.2-1.84-1.5-.75-3.01-1.57-4.47-2.39-.5-.3-1.01-.56-1.53-.85l-.77-.43c-1.7-.94-3.44-1.9-5.13-2.94-1.12-.7-2.2-1.5-3.25-2.25l-.11-.06-.69-.5c-.76-.56-1.59-1.14-2.33-1.76a268 268 0 01-5.16-4.4l-.19-.18c-.97-.85-1.98-1.7-2.83-2.7a32.24 32.24 0 01-2.64-3.72c-.1-.18-.21-.32-.3-.5l-.6-.7c-.38-.44-.74-.95-1.08-1.43l-.51-.69c-.34-.43-.64-.89-.95-1.33l-.31-.47a84.14 84.14 0 01-2.88-4.47c-.91-1.54-1.67-2.81-2.31-4.2L5 79.76c-.29-.6-.57-1.22-.83-1.83a54.8 54.8 0 01-1.32-3.65l-.03-.1a38.53 38.53 0 01-1.7-9.03 41.9 41.9 0 01-.1-5.36c.04-.56.1-1.17.22-1.91.13-.76.28-1.58.52-2.58.32-1.31.93-2.51 1.59-3.74.5-.93 1.24-1.75 1.94-2.53l.26-.28c.3-.35.65-.68 1-1l.07-.05a13.3 13.3 0 011.57-1.28l.1-.07a30.88 30.88 0 014.25-2.68l.26-.12a38.9 38.9 0 019.3-2.92c2.86-.53 5.76-.88 8.58-1.24l.45-.06c3.27-.39 6.14-.69 8.8-.92l2.84-.23c1.97-.15 3.99-.3 5.98-.51 1.27-.14 2.57-.35 3.8-.55l.35-.07 1.35-.28.71-.17c.67-.14 1.34-.33 2.04-.53.43-.15.86-.28 1.3-.41 1.7-.6 3.27-1.24 4.79-1.9a47.98 47.98 0 004.8-2.62 30 30 0 002.03-1.47c1.27-1 2.28-1.86 3.2-2.67 1.57-1.42 3.13-3 5.05-5.14 1.7-2 3.37-4.1 5.11-6.42l1.7-2.3a91.88 91.88 0 013.37-4.44c.56-.69 1.16-1.37 1.75-2.01l.15-.18c.8-.87 1.48-1.5 2.17-1.98.8-.54 1.73-1.16 2.78-1.67l.02-.01"/></svg>