<svg xmlns="http://www.w3.org/2000/svg" width="148" height="145"><g fill="#D2DE3C" fill-rule="evenodd"><path d="M28.64 21.16a3.07 3.07 0 01-.99-2.08c-.08-1.58 1.21-3.16 2.85-3.16.8 0 1.55.22 2.16.76.59.53.95 1.3.99 2.08.08 1.58-1.2 3.16-2.85 3.16-.8 0-1.55-.22-2.16-.76M44.64 12.13a2.96 2.96 0 01-.99-2.04c-.08-1.57 1.2-3.17 2.85-3.17a3.03 3.03 0 013.15 2.86c.08 1.54-1.2 3.14-2.85 3.14-.8 0-1.55-.21-2.16-.79M66.64 6.16a3.03 3.03 0 01-.99-2.08C65.57 2.5 66.86.92 68.5.92c.8 0 1.55.22 2.16.76.59.53.95 1.3.99 2.08.08 1.58-1.2 3.16-2.85 3.16-.8 0-1.55-.22-2.16-.76M90.64 8.13a2.96 2.96 0 01-.99-2.07c-.08-1.54 1.21-3.14 2.85-3.14a3.04 3.04 0 013.15 2.86c.08 1.57-1.2 3.14-2.84 3.14-.82 0-1.56-.21-2.17-.79M110.64 17.16a3.03 3.03 0 01-.99-2.08c-.08-1.58 1.21-3.16 2.85-3.16.8 0 1.55.22 2.16.76.59.53.95 1.3.99 2.08.08 1.58-1.2 3.16-2.84 3.16-.82 0-1.56-.22-2.17-.76M126.64 31.16a3.03 3.03 0 01-.99-2.08c-.08-1.58 1.2-3.16 2.85-3.16.8 0 1.55.22 2.16.76.59.53.95 1.3.99 2.08.08 1.58-1.2 3.16-2.85 3.16-.8 0-1.55-.22-2.16-.76M136.64 51.16a3.03 3.03 0 01-.99-2.08c-.08-1.58 1.2-3.16 2.85-3.16.8 0 1.55.22 2.16.76.59.53.95 1.3.99 2.08.08 1.58-1.2 3.16-2.85 3.16-.8 0-1.55-.22-2.16-.76M142.64 71.16a3.03 3.03 0 01-.99-2.08c-.07-1.58 1.21-3.16 2.85-3.16.8 0 1.55.22 2.16.76.59.53.95 1.3.99 2.08.08 1.58-1.2 3.16-2.85 3.16-.8 0-1.55-.22-2.16-.76M139.64 95.16a3.02 3.02 0 01-.99-2.08c-.07-1.58 1.21-3.16 2.85-3.16.8 0 1.55.22 2.16.76.59.55.94 1.3.99 2.08.08 1.58-1.2 3.16-2.85 3.16-.8 0-1.55-.22-2.16-.76M127.64 116.13a3 3 0 011.86-5.21c.8 0 1.55.21 2.16.76.59.55.95 1.29.99 2.07.08 1.57-1.2 3.17-2.85 3.17-.8 0-1.55-.24-2.16-.79M114.64 130.13a2.96 2.96 0 01-.99-2.07c-.08-1.54 1.21-3.14 2.85-3.14a3.03 3.03 0 013.15 2.86c.08 1.54-1.2 3.14-2.84 3.14-.82 0-1.56-.21-2.17-.79M98.64 138.16a3.03 3.03 0 01-.99-2.08c-.07-1.58 1.21-3.16 2.85-3.16.8 0 1.55.22 2.16.76.59.53.94 1.3.99 2.08.08 1.58-1.2 3.16-2.85 3.16-.8 0-1.55-.22-2.16-.76M78.64 144.16a3.02 3.02 0 01-.99-2.08c-.08-1.58 1.21-3.16 2.85-3.16.8 0 1.55.22 2.16.76.59.53.95 1.3.99 2.08.08 1.58-1.2 3.16-2.85 3.16-.8 0-1.55-.22-2.16-.76M55.64 142.16a3.03 3.03 0 01-.99-2.08c-.07-1.58 1.21-3.16 2.85-3.16.8 0 1.55.22 2.16.76.59.53.95 1.3.99 2.08.08 1.58-1.2 3.16-2.84 3.16-.82 0-1.56-.22-2.17-.76M38.64 135.16a3.06 3.06 0 01-.99-2.07c-.08-1.57 1.21-3.17 2.85-3.17.8 0 1.55.24 2.16.79a3 3 0 01-1.86 5.21c-.8 0-1.55-.21-2.16-.76M24.64 124.16a3.08 3.08 0 01-.99-2.08c-.07-1.58 1.21-3.16 2.85-3.16.8 0 1.55.22 2.16.76.59.53.95 1.3.99 2.08.08 1.58-1.2 3.16-2.85 3.16-.8 0-1.55-.22-2.16-.76M12.64 110.16a3.02 3.02 0 01-.99-2.08c-.08-1.58 1.21-3.16 2.85-3.16.8 0 1.55.22 2.16.76.59.53.95 1.3.99 2.08.08 1.58-1.2 3.16-2.84 3.16-.82 0-1.56-.22-2.17-.76M3.64 93.13a2.96 2.96 0 01-.99-2.07c-.08-1.57 1.21-3.14 2.85-3.14.8 0 1.55.21 2.16.76.59.55.95 1.29.99 2.07.08 1.57-1.2 3.17-2.85 3.17-.8 0-1.55-.21-2.16-.79M1.64 72.16a3.03 3.03 0 01-.99-2.08c-.07-1.58 1.21-3.16 2.85-3.16.8 0 1.55.22 2.16.76.59.55.95 1.3.99 2.08.08 1.58-1.2 3.16-2.84 3.16-.82 0-1.56-.22-2.17-.76M5.64 50.16a3.03 3.03 0 01-.99-2.08c-.08-1.58 1.21-3.16 2.85-3.16.8 0 1.55.22 2.16.76.59.53.95 1.3.99 2.08.08 1.58-1.2 3.16-2.85 3.16-.8 0-1.55-.22-2.16-.76M16.64 33.16a3.02 3.02 0 01-.99-2.08c-.08-1.58 1.2-3.16 2.85-3.16.8 0 1.55.22 2.16.76.59.53.95 1.3.99 2.08.08 1.58-1.2 3.16-2.85 3.16-.8 0-1.55-.22-2.16-.76M79.64 16.13a2.96 2.96 0 01-.99-2.07c-.08-1.54 1.21-3.14 2.85-3.14a3.03 3.03 0 013.15 2.86c.08 1.54-1.2 3.14-2.85 3.14-.8 0-1.55-.21-2.16-.79M97.64 19.13a2.97 2.97 0 01-.99-2.07c-.08-1.57 1.21-3.14 2.85-3.14.8 0 1.55.21 2.16.76.59.55.95 1.29.99 2.07.08 1.57-1.21 3.17-2.84 3.17-.82 0-1.56-.21-2.17-.79M113.64 30.13a2.96 2.96 0 01-.99-2.07c-.08-1.54 1.21-3.14 2.85-3.14a3.04 3.04 0 013.15 2.86c.08 1.54-1.2 3.14-2.84 3.14-.82 0-1.56-.21-2.17-.79M124.64 43.16a3.02 3.02 0 01-.99-2.08c-.08-1.58 1.21-3.16 2.85-3.16.8 0 1.55.22 2.16.76.59.53.95 1.3.99 2.08.08 1.58-1.21 3.16-2.84 3.16-.82 0-1.56-.22-2.17-.76M132.64 64.16a3.05 3.05 0 01-.99-2.07c-.08-1.57 1.21-3.17 2.85-3.17a3.03 3.03 0 013.15 2.86c.08 1.57-1.2 3.14-2.85 3.14-.8 0-1.55-.21-2.16-.76M132.64 82.16a3.05 3.05 0 01-.99-2.07c-.08-1.57 1.21-3.17 2.85-3.17.8 0 1.55.24 2.16.79.59.52.95 1.26.99 2.07.08 1.57-1.2 3.14-2.84 3.14-.82 0-1.56-.21-2.17-.76M126.64 101.16a3.03 3.03 0 01-.99-2.08c-.08-1.58 1.21-3.16 2.85-3.16.8 0 1.55.22 2.16.76.59.55.95 1.3.99 2.08.08 1.58-1.21 3.16-2.84 3.16-.82 0-1.56-.22-2.17-.76M115.64 116.16a3.03 3.03 0 01-.99-2.08c-.07-1.58 1.21-3.16 2.85-3.16.8 0 1.55.22 2.16.76.59.55.95 1.3.99 2.08.08 1.58-1.2 3.16-2.85 3.16-.8 0-1.55-.22-2.16-.76M101.64 126.16a3.03 3.03 0 01-.99-2.08c-.07-1.58 1.21-3.16 2.85-3.16.8 0 1.55.22 2.16.76.59.53.95 1.3.99 2.08.08 1.58-1.2 3.16-2.85 3.16-.8 0-1.55-.22-2.16-.76M84.64 132.16a3.06 3.06 0 01-.99-2.07c-.07-1.57 1.21-3.17 2.85-3.17a3.03 3.03 0 013.15 2.86c.08 1.57-1.2 3.14-2.84 3.14-.82 0-1.56-.21-2.17-.76M65.64 131.16a3.03 3.03 0 01-.99-2.08c-.08-1.58 1.2-3.16 2.85-3.16.8 0 1.55.22 2.16.76.59.53.95 1.3.99 2.08.08 1.58-1.2 3.16-2.85 3.16-.8 0-1.55-.22-2.16-.76M50.64 128.13a2.96 2.96 0 01-.99-2.07c-.08-1.54 1.21-3.14 2.85-3.14a3.04 3.04 0 013.15 2.86c.08 1.54-1.2 3.14-2.84 3.14-.82 0-1.56-.21-2.17-.79M36.64 122.16a3.08 3.08 0 01-.99-2.08c-.07-1.58 1.21-3.16 2.85-3.16.8 0 1.55.22 2.16.76.59.53.95 1.3.99 2.08.08 1.58-1.2 3.16-2.85 3.16-.8 0-1.55-.22-2.16-.76M27.64 110.16a3.03 3.03 0 01-.99-2.08c-.07-1.58 1.21-3.16 2.85-3.16.8 0 1.55.22 2.16.76.59.53.95 1.3.99 2.08.08 1.58-1.2 3.16-2.85 3.16-.8 0-1.55-.22-2.16-.76M15.64 96.16a3.05 3.05 0 01-.99-2.07c-.08-1.57 1.21-3.17 2.85-3.17a3.04 3.04 0 013.15 2.86c.08 1.57-1.2 3.14-2.85 3.14-.8 0-1.55-.21-2.16-.76M12.64 79.13a3 3 0 01-.99-2.07c-.08-1.57 1.21-3.14 2.85-3.14.8 0 1.55.21 2.16.76.59.55.95 1.29.99 2.07.08 1.57-1.2 3.17-2.85 3.17-.8 0-1.55-.24-2.16-.79M12.64 61.13a2.96 2.96 0 01-.99-2.07c-.08-1.54 1.21-3.14 2.85-3.14a3.03 3.03 0 013.15 2.83c.08 1.57-1.2 3.17-2.85 3.17-.8 0-1.55-.21-2.16-.79M18.64 46.16a3.02 3.02 0 01-.99-2.08c-.08-1.58 1.21-3.16 2.85-3.16.8 0 1.55.22 2.16.76.59.53.95 1.3.99 2.08.08 1.58-1.2 3.16-2.85 3.16a3.1 3.1 0 01-2.16-.76M28.64 33.16a3.02 3.02 0 01-.99-2.08c-.08-1.58 1.21-3.16 2.85-3.16.8 0 1.55.22 2.16.76.59.53.95 1.3.99 2.08.08 1.58-1.2 3.16-2.84 3.16-.82 0-1.56-.22-2.17-.76M42.64 24.16a3.03 3.03 0 01-.99-2.08c-.08-1.58 1.21-3.16 2.85-3.16.8 0 1.55.22 2.16.76.59.53.95 1.3.99 2.08.08 1.58-1.2 3.16-2.84 3.16-.82 0-1.56-.22-2.17-.76M57.64 17.16a3.08 3.08 0 01-.99-2.08c-.07-1.58 1.21-3.16 2.85-3.16.81 0 1.55.22 2.16.76a3 3 0 01.99 2.08c.08 1.58-1.2 3.16-2.84 3.16-.82 0-1.56-.22-2.17-.76M70.64 26.16a3.03 3.03 0 01-.99-2.08c-.08-1.58 1.2-3.16 2.85-3.16.8 0 1.55.22 2.16.76.59.53.95 1.3.99 2.08.08 1.58-1.2 3.16-2.85 3.16-.8 0-1.55-.22-2.16-.76M88.64 27.13a2.96 2.96 0 01-.99-2.07c-.08-1.57 1.21-3.14 2.85-3.14.8 0 1.55.21 2.16.76.59.55.95 1.29.99 2.1.08 1.54-1.2 3.14-2.84 3.14-.82 0-1.56-.21-2.17-.79M101.64 35.16a3.06 3.06 0 01-.99-2.07c-.07-1.57 1.21-3.17 2.85-3.17.81 0 1.55.24 2.16.79a3 3 0 01-1.85 5.21c-.82 0-1.56-.21-2.17-.76M111.64 46.16a3.03 3.03 0 01-.99-2.08c-.08-1.58 1.21-3.16 2.85-3.16.8 0 1.55.22 2.16.76.59.53.95 1.3.99 2.08.08 1.58-1.2 3.16-2.85 3.16-.8 0-1.55-.22-2.16-.76M120.64 61.16a3.06 3.06 0 01-.99-2.07c-.08-1.57 1.21-3.17 2.85-3.17.8 0 1.55.24 2.16.79a3 3 0 01-1.86 5.21c-.8 0-1.55-.21-2.16-.76M123.64 77.16a3.03 3.03 0 01-.99-2.08c-.07-1.58 1.21-3.16 2.85-3.16.8 0 1.55.22 2.16.76.59.53.95 1.3.99 2.08.08 1.58-1.2 3.16-2.85 3.16-.8 0-1.55-.22-2.16-.76M119.64 91.16a3.03 3.03 0 01-.99-2.08c-.07-1.58 1.21-3.16 2.85-3.16.8 0 1.55.22 2.16.76.59.53.95 1.3.99 2.08.08 1.58-1.21 3.16-2.84 3.16-.82 0-1.56-.22-2.17-.76M112.64 103.13a2.96 2.96 0 01-.99-2.07c-.08-1.57 1.2-3.14 2.85-3.14.8 0 1.55.21 2.16.76.59.55.95 1.29.99 2.07.08 1.57-1.2 3.17-2.85 3.17-.8 0-1.55-.24-2.16-.79M102.64 110.13a2.96 2.96 0 01-.99-2.07c-.08-1.54 1.21-3.14 2.85-3.14a3.03 3.03 0 013.15 2.83c.08 1.57-1.2 3.17-2.85 3.17-.8 0-1.55-.21-2.16-.79M88.64 118.16a3.02 3.02 0 01-.99-2.08c-.08-1.58 1.21-3.16 2.85-3.16.8 0 1.55.22 2.16.76.59.53.95 1.3.99 2.08.08 1.58-1.2 3.16-2.85 3.16-.8 0-1.55-.22-2.16-.76M73.64 121.13a3 3 0 011.86-5.21c.8 0 1.55.21 2.16.76.59.55.94 1.29.99 2.07.08 1.57-1.2 3.17-2.85 3.17-.8 0-1.55-.21-2.16-.79M58.64 117.13a2.97 2.97 0 01-.99-2.07c-.08-1.57 1.21-3.14 2.85-3.14.8 0 1.55.21 2.16.76.59.55.95 1.29.99 2.1.08 1.54-1.2 3.14-2.84 3.14-.82 0-1.56-.21-2.17-.79M44.64 111.16a3.05 3.05 0 01-.99-2.07c-.08-1.57 1.21-3.17 2.85-3.17.8 0 1.55.24 2.16.79.59.52.95 1.26.99 2.07.08 1.57-1.2 3.14-2.85 3.14-.8 0-1.55-.21-2.16-.76M33.64 101.16a3.02 3.02 0 01-.99-2.08c-.08-1.58 1.21-3.16 2.85-3.16.8 0 1.55.22 2.16.76.59.55.95 1.3.99 2.08.08 1.58-1.2 3.16-2.85 3.16-.8 0-1.55-.22-2.16-.76M26.64 90.16a3.02 3.02 0 01-.99-2.08c-.07-1.58 1.21-3.16 2.85-3.16.81 0 1.55.22 2.16.76.59.53.95 1.3.99 2.08.08 1.58-1.2 3.16-2.84 3.16-.82 0-1.56-.22-2.17-.76M22.64 78.13a2.96 2.96 0 01-.99-2.07c-.08-1.57 1.21-3.14 2.85-3.14.8 0 1.55.21 2.16.76.59.55.95 1.29.99 2.07.08 1.57-1.2 3.17-2.84 3.17-.82 0-1.56-.24-2.17-.79M23.64 63.13a2.96 2.96 0 01-.99-2.07c-.08-1.57 1.21-3.14 2.85-3.14.8 0 1.55.21 2.16.76.59.55.95 1.29.99 2.07.08 1.57-1.2 3.17-2.84 3.17-.82 0-1.56-.24-2.17-.79M29.64 50.16a3.02 3.02 0 01-.99-2.08c-.08-1.58 1.21-3.16 2.85-3.16.8 0 1.55.22 2.16.76.59.53.95 1.3.99 2.08.08 1.58-1.21 3.16-2.84 3.16-.82 0-1.56-.22-2.17-.76M43.64 40.16a3.02 3.02 0 01-.99-2.08c-.08-1.58 1.21-3.16 2.85-3.16.8 0 1.55.22 2.16.76.59.53.95 1.3.99 2.08.08 1.58-1.2 3.16-2.85 3.16-.8 0-1.55-.22-2.16-.76M58.64 31.16a3.06 3.06 0 01-.99-2.07c-.08-1.57 1.21-3.17 2.85-3.17.8 0 1.55.24 2.16.79.59.52.95 1.26.99 2.07.08 1.57-1.2 3.14-2.85 3.14-.8 0-1.55-.21-2.16-.76M77.64 36.16a3.07 3.07 0 01-.99-2.08c-.08-1.58 1.21-3.16 2.85-3.16.8 0 1.55.22 2.16.76.59.53.95 1.3.99 2.08.08 1.58-1.2 3.16-2.84 3.16-.82 0-1.56-.22-2.17-.76M91.64 42.16a3.02 3.02 0 01-.99-2.08c-.08-1.58 1.21-3.16 2.85-3.16.8 0 1.55.22 2.16.76.59.55.95 1.3.99 2.08.08 1.58-1.2 3.16-2.85 3.16a3.1 3.1 0 01-2.16-.76M100.64 52.16a3.07 3.07 0 01-.99-2.08c-.08-1.58 1.2-3.16 2.85-3.16.8 0 1.55.22 2.16.76.59.53.95 1.3.99 2.08.08 1.58-1.2 3.16-2.85 3.16-.8 0-1.55-.22-2.16-.76M107.64 64.16a3.04 3.04 0 01-.99-2.08c-.07-1.58 1.21-3.16 2.85-3.16.8 0 1.55.22 2.16.76.59.53.95 1.3.99 2.08.08 1.58-1.2 3.16-2.85 3.16-.8 0-1.55-.22-2.16-.76M109.64 77.16a3.03 3.03 0 01-.99-2.08c-.08-1.58 1.21-3.16 2.85-3.16.8 0 1.55.22 2.16.76.59.53.95 1.3.99 2.08.08 1.58-1.2 3.16-2.84 3.16-.82 0-1.56-.22-2.17-.76M103.64 91.13a3 3 0 01-.99-2.07c-.08-1.57 1.2-3.14 2.85-3.14.8 0 1.55.21 2.16.76.59.55.95 1.29.99 2.07.08 1.57-1.2 3.17-2.85 3.17-.8 0-1.55-.21-2.16-.79M90.64 101.16a3.05 3.05 0 01-.99-2.07c-.08-1.57 1.2-3.17 2.85-3.17a3.01 3.01 0 013.15 2.86c.08 1.57-1.2 3.14-2.85 3.14-.8 0-1.55-.21-2.16-.76M77.64 103.13a2.95 2.95 0 01-.99-2.07c-.08-1.54 1.2-3.14 2.85-3.14a3.04 3.04 0 013.15 2.86c.08 1.57-1.2 3.14-2.85 3.14-.81 0-1.55-.21-2.16-.79M60.64 100.16a3.03 3.03 0 01-.99-2.08c-.08-1.58 1.21-3.16 2.85-3.16.8 0 1.55.22 2.16.76.59.53.95 1.3.99 2.08.08 1.58-1.2 3.16-2.84 3.16-.82 0-1.56-.22-2.17-.76M48.64 93.13a2.97 2.97 0 01-.99-2.04c-.07-1.57 1.21-3.17 2.85-3.17a3.04 3.04 0 013.15 2.86c.08 1.54-1.2 3.14-2.85 3.14-.8 0-1.55-.21-2.16-.79M40.64 82.16a3.06 3.06 0 01-.99-2.08c-.08-1.58 1.2-3.16 2.85-3.16.8 0 1.55.22 2.16.76.59.53.95 1.3.99 2.08.08 1.58-1.2 3.16-2.85 3.16-.8 0-1.55-.22-2.16-.76M37.64 69.13a2.98 2.98 0 01-.99-2.07c-.07-1.57 1.21-3.14 2.85-3.14.8 0 1.55.21 2.16.76.59.55.95 1.29.99 2.07.08 1.57-1.2 3.17-2.85 3.17-.8 0-1.55-.21-2.16-.79M44.64 55.16a3.02 3.02 0 01-.99-2.08c-.08-1.58 1.21-3.16 2.85-3.16.8 0 1.55.22 2.16.76.59.53.95 1.3.99 2.08.08 1.58-1.2 3.16-2.85 3.16-.8 0-1.55-.22-2.16-.76M92.64 58.16a3.06 3.06 0 01-.99-2.08c-.08-1.58 1.21-3.16 2.85-3.16.8 0 1.55.22 2.16.76.59.53.95 1.3.99 2.08.08 1.58-1.2 3.16-2.85 3.16-.8 0-1.55-.22-2.16-.76M97.64 71.13a2.95 2.95 0 01-.99-2.04c-.08-1.57 1.21-3.17 2.85-3.17a3.04 3.04 0 013.15 2.86c.08 1.57-1.2 3.14-2.84 3.14-.82 0-1.56-.21-2.17-.79M93.64 84.13a3.01 3.01 0 01-.99-2.07c-.08-1.57 1.21-3.14 2.85-3.14.8 0 1.55.21 2.16.76.59.55.95 1.29.99 2.07.08 1.57-1.2 3.17-2.84 3.17-.82 0-1.56-.24-2.17-.79M81.64 90.16a3.03 3.03 0 01-.99-2.08c-.07-1.58 1.21-3.16 2.85-3.16.81 0 1.55.22 2.16.76.59.53.95 1.3.99 2.08.08 1.58-1.2 3.16-2.84 3.16-.82 0-1.56-.22-2.17-.76M67.64 89.13a2.96 2.96 0 01-.99-2.07c-.08-1.57 1.21-3.14 2.85-3.14.8 0 1.55.21 2.16.76.59.55.95 1.29.99 2.07.08 1.57-1.2 3.17-2.84 3.17-.82 0-1.56-.24-2.17-.79M53.64 81.16a3.03 3.03 0 01-.99-2.08c-.08-1.58 1.21-3.16 2.85-3.16.8 0 1.55.22 2.16.76.59.53.95 1.3.99 2.08.08 1.58-1.2 3.16-2.84 3.16-.82 0-1.56-.22-2.17-.76M48.64 68.16a3.07 3.07 0 01-.99-2.08c-.08-1.58 1.21-3.16 2.85-3.16.8 0 1.55.22 2.16.76.59.53.95 1.3.99 2.08.08 1.58-1.2 3.16-2.84 3.16-.82 0-1.56-.22-2.17-.76M85.64 76.16a3.06 3.06 0 01-.99-2.08c-.08-1.58 1.21-3.16 2.85-3.16.8 0 1.55.22 2.16.76.59.53.95 1.3.99 2.08.08 1.58-1.2 3.16-2.85 3.16-.8 0-1.55-.22-2.16-.76M70.64 79.13a2.97 2.97 0 01-.99-2.07c-.07-1.54 1.21-3.14 2.85-3.14a3.04 3.04 0 013.15 2.86c.08 1.54-1.2 3.14-2.84 3.14-.82 0-1.56-.21-2.17-.79M61.64 71.16a3.05 3.05 0 01-.99-2.07c-.08-1.57 1.21-3.17 2.85-3.17a3.04 3.04 0 013.15 2.86c.08 1.57-1.2 3.14-2.85 3.14-.8 0-1.55-.21-2.16-.76M70.64 61.16a3.03 3.03 0 01-.99-2.08c-.08-1.58 1.21-3.16 2.85-3.16.8 0 1.55.22 2.16.76.59.53.95 1.3.99 2.08.08 1.58-1.21 3.16-2.85 3.16-.8 0-1.55-.22-2.16-.76M76.64 70.13a2.96 2.96 0 01-.99-2.07c-.07-1.57 1.21-3.14 2.85-3.14.8 0 1.55.21 2.16.76.59.55.94 1.29.99 2.1.08 1.54-1.2 3.14-2.85 3.14-.8 0-1.55-.21-2.16-.79M82.64 49.13a2.97 2.97 0 01-.99-2.07c-.07-1.54 1.21-3.14 2.85-3.14a3.03 3.03 0 013.15 2.86c.08 1.54-1.2 3.14-2.85 3.14-.8 0-1.55-.21-2.16-.79M64.64 40.13a3 3 0 011.86-5.21c.8 0 1.55.21 2.16.76.59.55.95 1.29.99 2.07.08 1.57-1.2 3.17-2.85 3.17-.8 0-1.55-.24-2.16-.79M52.64 46.16a3.02 3.02 0 01-.99-2.08c-.07-1.58 1.21-3.16 2.85-3.16.8 0 1.55.22 2.16.76.59.53.95 1.3.99 2.08.08 1.58-1.2 3.16-2.84 3.16-.82 0-1.56-.22-2.17-.76M59.64 57.16a3.03 3.03 0 01-.99-2.08c-.08-1.58 1.2-3.16 2.85-3.16.8 0 1.55.22 2.16.76.59.53.95 1.3.99 2.08.08 1.58-1.2 3.16-2.85 3.16-.8 0-1.55-.22-2.16-.76M81.64 60.13a2.96 2.96 0 01-.99-2.07c-.08-1.57 1.21-3.14 2.85-3.14.8 0 1.55.21 2.16.76.59.55.95 1.29.99 2.07.08 1.57-1.2 3.17-2.84 3.17-.82 0-1.56-.24-2.17-.79M67.64 49.13a2.96 2.96 0 01-.99-2.07c-.08-1.57 1.21-3.14 2.85-3.14.8 0 1.55.21 2.16.76.59.55.95 1.29.99 2.07.08 1.57-1.2 3.17-2.85 3.17-.8 0-1.55-.24-2.16-.79"/></g></svg>