<svg xmlns="http://www.w3.org/2000/svg" xmlns:xlink="http://www.w3.org/1999/xlink" width="278" height="259"><defs><path id="a" d="M276.86 124.4l-.18-1.45-.05-.55c-.3-2.37-.81-4.74-1.3-7.03a50.3 50.3 0 01-.5-2.23c-.37-1.79-.84-3.61-1.27-5.38a126.52 126.52 0 00-1.8-7.03c-.22-.83-.48-1.64-.74-2.45l-.44-1.4c-.63-2.04-1.18-4.13-1.7-6.15l-.61-2.26a55.1 55.1 0 00-3.3-8.76c-.58-1.22-1.13-2.4-1.76-3.56l-.76-1.33-1.47-2.66c-.7-1.33-1.39-2.66-2.05-3.96-.58-1.16-1.16-2.32-1.77-3.45-.87-1.64-1.85-3.26-2.78-4.85a85.64 85.64 0 01-2.48-4.29c-.35-.6-.67-1.18-1.02-1.76a72.75 72.75 0 00-2.63-4.22 164.68 164.68 0 00-5.26-7.4c-.78-1.02-1.62-2.06-2.58-3.22l-1.47-1.73-.26-.32c-.29-.35-.58-.7-.9-1.01a121.64 121.64 0 00-8.41-7.58 64.03 64.03 0 00-4.92-3.85c-2.08-1.39-4.34-2.9-7.12-4.68-.9-.58-1.85-1.13-2.77-1.68l-1.04-.6-.87-.5c-.9-.55-1.82-1.1-2.78-1.62-1.39-.75-2.66-1.42-3.93-2.08l-.5-.26c-1.18-.58-2.4-1.22-3.64-1.74a112.4 112.4 0 00-4.28-1.65c-1.19-.43-2.43-.78-3.64-1.13l-.47-.14c-1.04-.32-2.1-.6-3.15-.87l-1.07-.29-.78-.2a98.41 98.41 0 00-3.12-.84c-2.72-.63-5.56-1.21-8.48-1.65-1.85-.31-3.73-.63-5.55-.98-3.88-.7-7.9-1.42-11.89-1.74-2.78-.26-5.55-.46-8.85-.66l-.81-.09c-1.04-.06-2.14-.14-3.18-.14-1.5 0-2.98.03-4.51.14-2.29.12-4.63.4-6.86.7l-1.45.17c-3.26.4-5.95.81-8.35 1.27a68.42 68.42 0 00-8.83 2.29c-2.57.87-5.14 1.88-7.6 2.86l-.52.2a204.4 204.4 0 00-7.9 3.36c-.81.37-1.65.8-2.55 1.3-.4.12-.8.26-1.18.4-.43.15-.87.32-1.33.47-.93.35-1.91.7-2.84 1.1-1.7.72-3.38 1.44-5.09 2.14-.9.4-1.76.84-2.63 1.24l-1.04.52-.6.26c-.41.2-.85.4-1.25.61l-.78.43-.87.47-.81.46c-.95.52-1.94 1.04-2.9 1.62l-1.15.7c-.87.54-1.8 1.1-2.69 1.67-.46.32-.92.6-1.42.93-1 .66-2.08 1.36-3.06 2.05-.81.55-1.6 1.13-2.4 1.68l-1.54 1.07c-.86.6-1.73 1.24-2.57 1.88l-1.07.78a125.24 125.24 0 00-6.45 5.12l-.26.2c-1.13.95-2.11 1.82-3 2.63l-1.17 1.04c-.78.7-1.59 1.42-2.34 2.17l-.6.55c-1.86 1.82-3.8 3.68-5.65 5.56l-.8.8c-.67.67-1.34 1.34-2 2.03-1.22 1.3-2.43 2.6-3.67 3.9-.7.73-1.36 1.54-2.03 2.32l-.98 1.13c-.9 1.04-1.8 2.14-2.63 3.24l-.3.34c-.75.93-1.67 2.09-2.48 3.24l-.7.93-1.9 2.69c-.81 1.18-1.74 2.57-2.7 4.02-.54.87-1.06 1.73-1.56 2.6-.23.35-.43.73-.63 1.07a59.3 59.3 0 00-1.48 2.6c-.26.47-.52.93-.75 1.4-.52.86-.98 1.76-1.48 2.65l-.72 1.36-2.11 3.88-2.08 3.85a143.58 143.58 0 00-4.25 8.21l-.3.6c-.2.41-.4.85-.57 1.28l-.93 2.32c-.52 1.27-.9 2.57-1.33 4.13-.2.67-.37 1.3-.52 2l-.2.8c-.15.61-.32 1.25-.4 1.89-.24 1.36-.5 2.98-.73 4.65-.2 1.57-.37 3.1-.52 4.6-.12 1.16-.26 2.55-.32 3.94l-.06 1.12a60.6 60.6 0 00-.14 4c0 1.33 0 3.1.03 4.88v.5c.06 2.6.11 5.29.37 7.92.15 1.45.32 3.1.55 4.77.2 1.48.4 2.98.64 4.49l.03.05c.46 3.07 1.13 6.1 1.76 9.09l.06.31a114.66 114.66 0 005.24 16.98 99.8 99.8 0 003.35 8.04l.06.09c.32.64.64 1.3.98 1.94l.3.49c.22.43.48.9.72 1.33l.69 1.22 1.48 2.6.23.37c.31.5.6 1.02.95 1.54.15.23.29.49.46.72.35.55.7 1.13 1.07 1.65.18.23.32.43.47.66.29.44.6.87.92 1.28.47.58.93 1.15 1.42 1.73.75.96 1.59 1.85 2.4 2.72l.4.43 1.71 1.83.93.98.14.12a141.89 141.89 0 005.81 5.87l.2.2c2.15 2.05 4.43 4.25 6.9 6.3l.34.3a84.9 84.9 0 006.65 5.17c1.39 1.04 2.84 2.03 4.25 3.01l3.07 2.11c2.83 2 5.03 3.53 7.17 4.89 2.26 1.47 4.89 3.12 7.6 4.6 2.67 1.44 5.39 2.86 7.93 4.16a119.02 119.02 0 008.33 3.85c1.16.46 2.52 1.01 3.94 1.45 1.36.4 2.75.78 4.25 1.12 2.66.61 5.3 1.02 8.45 1.45 2.6.35 5.26.52 7.83.7l1.1.08c2.4.15 4.83.2 7.18.23l1.24.03c.67.03 1.36.03 2.02.06 1.28.03 2.6.06 3.9.06 1 0 1.89 0 2.7-.06 3.21-.14 6.02-.35 8.62-.55a88.2 88.2 0 003.87-.43l.38-.03c1.45-.2 2.66-.38 3.79-.61 2-.4 4-.84 5.96-1.27l2.8-.61c2.75-.6 5.61-1.24 8.54-1.94l.52-.11c1.15-.26 2.31-.55 3.47-.81 1-.26 2-.52 2.98-.81.52-.15 1.04-.32 1.59-.47 2.6-.69 5.32-1.5 8.3-2.43 1.04-.31 2.11-.66 3.15-.98a273.2 273.2 0 005.35-1.65l.09-.03c2.57-.84 5.23-1.7 7.8-2.69 2.55-.92 5.24-2 8.48-3.38l1.7-.7a294.4 294.4 0 006.31-2.68 71.92 71.92 0 007.3-3.65l.69-.37c2.25-1.25 4.6-2.7 7.4-4.52a69.63 69.63 0 0010.62-8.1c.8-.72 1.59-1.47 2.34-2.22l.75-.7.23-.23c1.94-1.82 3.9-3.7 5.76-5.64.64-.72 1.3-1.44 1.97-2.14.34-.4.69-.78 1.04-1.16l.37-.43c.78-.84 1.6-1.74 2.37-2.63.9-1.07 1.97-2.34 2.9-3.68a65.06 65.06 0 002.2-3.3l.52-.86c.55-.9 1.1-1.82 1.67-2.72l.47-.75c.6-.96 1.21-1.94 1.79-2.95a62.85 62.85 0 004.02-8.01l.64-1.5c.92-2.18 1.85-4.4 2.72-6.63.17-.43.31-.87.49-1.3l.23-.61.09-.23c.17-.52.4-1.1.54-1.65.41-1.42.76-2.83 1.07-4.14.41-1.7.76-3.4 1.1-5.06l.47-2.17c.17-.72.31-1.44.49-2.17.49-2.45 1.07-5.35 1.47-8.33.38-2.69.58-5.32.81-8.47l.18-2.34c.14-2.09.29-4.26.37-6.37a54.75 54.75 0 00-.14-7.31"/></defs><use fill="#DBAF95" fill-rule="evenodd" xlink:href="#a"/></svg>