<svg xmlns="http://www.w3.org/2000/svg" width="1280" height="159"><g fill="none" fill-rule="evenodd"><path fill="#FFF" d="M0 0h1280v159H0z"/><path fill="#E7F1F1" d="M262.88 154.15c26.92-1.76 54.22-2.77 78.16-3.65 6.33-.25 12.66-.46 18.98-.69 6.33-.2 12.66-.43 18.98-.67l3.48-.12c10.42-.36 21.21-.74 31.76-1.66l5.58-.48c10.92-.93 22.08-1.9 33.13-3.23a2188.8 2188.8 0 0042.18-5.71l19.23-2.86c17.37-2.61 35.48-5.3 53.22-7.4 51.36-6.06 102.6-12.24 153.84-18.5 18.86-2.3 37.96-3.63 56.57-4.9 5.21-.37 10.55-.74 15.88-1.13 15.38-1.13 31.02-1.96 46.15-2.76a4046.9 4046.9 0 0030.03-1.67c21.7-1.35 43.79-3.24 65.13-5.06 27.91-2.4 56.7-4.9 85.23-6.13 14.14-.64 28.16-1.1 42.3-1.56 35.12-1.14 71.22-2.32 106.7-6.15a501.12 501.12 0 0034.36-4.76c18.49-3.26 36.48-6.78 53.72-13.92 5.15-2.13 12.65-5.85 22.51-11.14V0H0c11.9 19.82 21 34.82 27.29 45l8.93 14.4a458.7 458.7 0 0020.47 30.87c4.1 5.44 8.06 10.75 12.28 16.02 3.72 4.55 7.57 8.9 11.42 13.1l.74.9c4.1 4.46 7.32 7.62 10.8 10.22 28.03 21.52 66.74 23.33 95.03 24.67 15.5.74 28.4.97 40.56.72 11.91-.23 23.82-1 35.36-1.75z"/></g></svg>