<?xml version="1.0" encoding="UTF-8"?>
<svg width="720px" height="550px" viewBox="0 0 720 550" version="1.1" xmlns="http://www.w3.org/2000/svg" xmlns:xlink="http://www.w3.org/1999/xlink">
    <!-- Generator: Sketch 63.1 (92452) - https://sketch.com -->
    <title>Bitmap</title>
    <desc>Created with Sketch.</desc>
    <g id="Page-1" stroke="none" stroke-width="1" fill="none" fill-rule="evenodd">
        <g id="Quem-somos" transform="translate(-282.000000, -3847.000000)" fill="#3E4E5C">
            <g id="Bitmap" transform="translate(282.000000, 3847.000000)">
                <path d="M324.445944,635 L324.155978,635 C315.819443,635 307.410416,634.643917 299.218864,634.287834 C296.391691,634.145401 293.63701,634.074184 290.809838,633.931751 C280.878487,633.575668 270.367204,632.934718 257.753664,632.008902 C246.662447,631.154303 235.426248,630.15727 224.480015,629.017804 C214.113715,627.878338 203.239973,626.454006 191.278857,624.602374 L187.074344,623.961424 C177.722926,622.537092 167.936559,621.041543 158.51265,618.691395 C147.856383,616.05638 136.620184,613.065282 126.1089,608.008902 C114.655226,602.382789 105.883741,593.836795 101.534245,583.795252 C99.5044797,579.237389 98.0546475,573.824926 97.1847482,567.20178 C96.4598321,562.002967 96.2423573,556.661721 96.0248824,551.462908 C95.8074076,546.050445 95.5899328,540.495549 95.9523908,535.011869 L95.1549831,529.884273 C94.7925251,527.462908 94.430067,525.041543 94.067609,522.620178 C91.6028943,506.596439 90.0080788,493.492582 88.8482131,481.385757 C87.7608389,469.635015 86.45599,454.181009 85.8760571,438.655786 C85.2961242,424.127596 85.0061578,409.456973 85.0061578,395.142433 C84.9336662,381.611276 85.513599,367.866469 86.0935319,354.548961 L86.1660235,353.267062 C86.5284816,344.934718 86.8909396,336.673591 87.2533977,328.412463 C87.5433641,322.643917 87.8333306,316.804154 88.0508054,311.035608 C89.3556544,281.124629 90.2980453,253.350148 90.8054865,226.145401 C90.8779782,223.083086 90.8779782,220.091988 90.9504698,217.10089 C91.0229614,213.255193 91.0229614,209.338279 91.095453,205.492582 L91.3129278,198.58457 C91.3854194,194.026706 91.5304026,189.397626 91.6028943,184.839763 C91.6753859,179.284866 91.7478775,173.801187 91.8203691,168.317507 C91.9653523,159.62908 92.0378439,150.940653 92.2553187,142.323442 C92.3278103,136.412463 92.400302,130.501484 92.4727936,124.519288 C92.5452852,116.400593 92.6902684,107.997033 92.9077432,99.735905 L93.1977097,89.3382789 C93.4151845,79.2255193 93.7051509,68.6854599 94.067609,58.3590504 C94.5025586,46.0385757 95.0824915,33.0059347 95.9523908,16.0563798 L96.097374,13.9910979 C96.7497985,1.17210682 97.402223,-12.1454006 98.7795636,-25.1068249 L98.8520552,-25.8189911 C99.5769713,-32.6557864 100.301887,-39.7774481 101.679228,-46.5430267 C102.331652,-50.1038576 103.12906,-53.2373887 103.998959,-56.0148368 C104.361418,-57.2967359 104.868859,-58.5074184 105.3763,-59.6468843 L105.593775,-60.1454006 C106.898624,-63.2789318 108.783406,-66.1988131 111.030646,-68.8338279 C114.800209,-73.0356083 119.947114,-76.3827893 126.253884,-78.7329377 C129.22604,-79.8011869 132.41567,-80.8694362 135.677793,-81.5816024 C139.374865,-82.3649852 142.854462,-83.0059347 146.189076,-83.504451 C149.378707,-83.9317507 152.568338,-84.1454006 155.685477,-84.4302671 L156.845343,-84.5014837 C161.194839,-84.8575668 165.906794,-85 171.706123,-85 C173.300938,-85 174.895754,-85 176.490569,-84.9287834 C183.594747,-84.8575668 190.553941,-84.6439169 197.295661,-84.3590504 C208.096911,-83.7893175 219.043144,-83.0059347 229.699411,-82.1513353 L238.398404,-81.5103858 C244.415207,-81.0830861 250.504503,-80.727003 256.521306,-80.2997033 L259.275987,-80.15727 L263.263026,-79.8724036 C268.482422,-79.5163205 273.919292,-79.1602374 279.283672,-79.0178042 C290.737346,-78.7329377 302.336003,-78.6617211 313.572203,-78.6617211 L320.966347,-78.5905045 C334.812245,-78.5905045 348.803125,-78.2344214 362.504039,-77.6646884 C374.102697,-77.1661721 385.773846,-76.6676558 397.444995,-76.1691395 L402.229441,-75.9554896 C428.761371,-74.7448071 456.018216,-73.3204748 485.594793,-71.6824926 C488.929407,-71.5400593 492.336512,-71.3264095 495.743618,-71.1839763 C505.529985,-70.6854599 515.678811,-70.115727 525.610161,-69.2611276 C528.509825,-68.9762611 531.554473,-68.620178 534.744104,-68.1216617 L536.048953,-67.9792285 C539.166092,-67.4807122 542.428215,-67.0534125 545.545354,-66.3412463 C552.359565,-64.9169139 558.666335,-63.2077151 564.828122,-60.9287834 C567.727786,-59.9317507 570.844925,-58.3649852 574.541998,-56.15727 C577.876612,-54.1632047 580.776276,-51.3857567 583.240991,-48.9643917 C585.270756,-46.9703264 587.155538,-44.7626113 589.257794,-41.9139466 C591.070085,-39.421365 592.809883,-36.4302671 594.549682,-32.5133531 C595.927022,-29.5934718 596.941905,-26.4599407 597.956787,-23.3976261 L598.391737,-22.115727 C599.551603,-18.6261128 600.566485,-15.1364985 601.363893,-12.4302671 C603.0312,-6.44807122 604.481032,-0.252225519 605.858373,5.65875371 L606.293323,7.43916914 C609.77292,22.6083086 612.382618,35.2848665 614.557366,47.3916914 C615.499757,53.0890208 616.804606,60.5667656 617.89198,68.115727 C618.834371,74.4540059 619.849254,81.6468843 620.501678,88.768546 C621.661544,102.513353 622.313968,116.543027 622.966393,130.145401 L622.966393,131.569733 C623.691309,146.026706 624.416225,160.48368 625.141141,174.869436 C626.44599,200.293769 627.968314,229.848665 629.12818,258.976261 L629.345654,263.818991 C630.360537,289.813056 631.447911,316.661721 632.245319,343.083086 C632.535285,353.124629 632.897743,363.166172 633.260201,373.278932 C633.840134,390.513353 634.420067,408.317507 634.782525,425.836795 C634.927508,434.382789 634.927508,443.071217 634.927508,451.403561 C634.927508,456.032641 635,460.661721 635,465.290801 C635,470.133531 635,474.976261 635,479.818991 L635,483.949555 C635,490.287834 634.927508,496.554896 634.710034,502.821958 L634.492559,506.881306 C634.347576,510.086053 634.202592,513.290801 634.130101,516.566766 L634.057609,519.985163 C633.912626,524.115727 633.840134,528.175074 633.695151,532.234421 C633.332693,540.709199 632.897743,549.183976 632.462794,557.658754 L632.245319,561.362018 C632.245319,561.931751 632.100336,562.501484 631.882861,563 L631.882861,563.569733 C631.810369,563.997033 631.810369,564.424332 631.737878,564.780415 C631.665386,565.919881 631.592894,567.059347 631.447911,568.127596 C631.37542,569.053412 631.230436,569.908012 631.157945,570.762611 C631.012961,572.47181 630.867978,574.109792 630.795487,575.818991 L630.722995,576.88724 C630.215554,583.296736 629.200671,587.997033 627.460873,592.198813 C626.44599,594.620178 625.141141,596.89911 623.981275,598.821958 C622.531443,601.456973 621.226594,603.308605 619.849254,604.875371 C618.616896,606.299703 617.529522,607.367953 616.369656,608.222552 C615.209791,609.148368 613.904942,610.002967 612.600093,610.715134 C610.352853,612.068249 607.96063,613.065282 605.858373,613.919881 C602.958709,615.059347 599.986553,616.127596 596.941905,617.195846 C595.34709,617.765579 593.752274,618.335312 592.157459,618.905045 C587.590487,620.614243 582.081125,622.537092 576.571763,623.890208 C572.004791,625.029674 566.930379,625.95549 560.841083,626.738872 C556.419095,627.308605 551.852124,627.735905 547.502627,628.091988 L545.182896,628.305638 L542.065756,628.590504 C537.933735,629.017804 533.65673,629.445104 529.452216,629.72997 C524.23282,630.014837 518.868441,630.15727 513.504062,630.15727 C510.386923,630.15727 507.342275,630.086053 504.225136,630.014837 L500.963014,629.872404 C498.063349,629.801187 495.163685,629.658754 492.264021,629.658754 L491.176647,629.658754 C487.2621,629.658754 483.275061,629.72997 479.360514,629.801187 C479.505497,629.72997 479.650481,629.72997 479.795464,629.72997 C475.228492,629.94362 470.661521,630.086053 466.09455,630.299703 L464.209768,630.37092 C461.455087,630.513353 458.627914,630.58457 455.800741,630.727003 C453.263535,630.79822 450.726328,630.869436 448.189122,631.011869 C444.202083,631.154303 440.287537,631.439169 436.37299,631.652819 L431.588543,631.937685 C425.789215,632.293769 419.989886,632.578635 414.408032,632.649852 C410.420993,632.721068 406.506446,632.792285 402.5919,632.792285 C398.459878,632.792285 394.327856,632.863501 390.195834,632.934718 L390.485801,632.863501 C382.221757,633.148368 373.885222,633.433234 365.621179,633.718101 L358.734476,634.002967 C355.834811,634.074184 352.935147,634.216617 350.035483,634.287834 C341.698947,634.643917 332.999954,635 324.445944,635" id="Mask" transform="translate(360.000000, 275.000000) rotate(90.000000) translate(-360.000000, -275.000000) "></path>
            </g>
        </g>
    </g>
</svg>