<svg xmlns="http://www.w3.org/2000/svg" width="442" height="566"><path fill="#18777A" fill-rule="evenodd" d="M403.45 563.15c-.4.14-.84.2-1.24.34a41.3 41.3 0 01-20.9 1.41c-4.52-.52-8.6-2.64-12.82-4.17-3.38-1.18-6.51-3.72-9.61-5.63a585.36 585.36 0 00-15.27-9.74c-20.97-12.65-43.25-22.05-65.8-31.18-22.59-9.21-44.72-19.2-65.82-31.45-24.1-13.92-46.78-29.97-68.8-47.23-20.4-16-39.33-34.79-56.08-54.59a470.05 470.05 0 01-43.89-61.13 476.4 476.4 0 01-20.87-38.07c-2.45-5.03-4.99-10.03-7.2-15.14-5.85-13.07-10.2-26.2-12.8-40.3-2.85-15.92-2.02-32.1.7-48.04a126.5 126.5 0 0118.88-47.96c10.03-15.2 24.5-25.6 41.44-31.71 12.78-4.58 26.57-5.17 39.84-4.14 20.26 1.43 39.27 7.08 58.15 14.21a385.23 385.23 0 0150.1 23.59c17.7 9.98 34.66 20.95 50.47 33.57l3.76 3.04c.28-4.43.7-8.73 1.19-13.06 2.12-17.7 5.42-35.1 11.33-52.05 5.14-14.68 10.93-29.33 19.74-42.3 9.47-13.92 21.74-25.46 34.92-35.96 51.98-41.2 132.48-28.18 176.47 18.55 13.94 14.8 26.02 31.52 35.16 49.69 9.06 17.93 17.97 35.91 23.37 55.28 9.39 34.08 8.41 71.09.41 105.28-3.78 16.3-9.8 32.1-15.45 47.69-8.27 23.17-19.95 44.81-32.1 66.16-23.45 40.96-51.5 79.34-72.1 122.03a216.19 216.19 0 00-9.35 22.37c-2.26 6.83-4.4 13.71-6.98 20.38a72.63 72.63 0 01-2.45 5.72 79.64 79.64 0 01-7.02 10.82c-3.97 4.98-11.15 10.89-17.69 13.14l-1.69.58zm33.3-44.08c.42-1.29.9-2.69 1.3-3.97.04.08-.02.2-.07.31a69.2 69.2 0 00-1.22 3.66zm3.12-9.68c.44-1.2.8-2.37 1.21-3.65-.35 1.17-.8 2.37-1.16 3.54l-.05.11zm-190.12-81.43a617.16 617.16 0 0053.58 22.14c15.96 5.72 32.08 10.84 47.88 17.15 4.94 2 9.87 4.01 14.78 6.2.63-1.56 1.34-3.17 2-4.66 6.24-13.36 13.72-25.97 21.37-38.63 16.72-27.73 35.4-54.5 53.51-81.35 22.4-34.84 44.12-70.34 58.3-109.4 4.02-13.22 6.9-26.6 8.2-40.42.49-12.47-.15-24.81-2.14-37.15-3.92-15.83-9.8-30.8-16.16-45.87-1.46-2.94-3-5.84-4.49-8.85-5.48-10.68-12.66-20.78-20.37-30.06a116.23 116.23 0 00-16.15-13.87 155.09 155.09 0 00-24.07-12.23 132.83 132.83 0 00-24.54-4.66c-7-.13-13.87.34-20.8 1.46a112.4 112.4 0 00-20.9 7.2 175.8 175.8 0 00-27.73 18.86 131.37 131.37 0 00-18.11 21.33 221.3 221.3 0 00-19.76 39.62 330.54 330.54 0 00-7.23 24.64c-1.89 7.61-3.3 15.33-4.24 23.07 8.2 7.03 17.16 14.43 23.24 23.18 7.92 11.2 6.81 26.86-2 37.21a30.56 30.56 0 01-10.9 7.92c-.48.7-1.2 1.23-2.17 1.56-1.3.44-2.45.48-3.5.3-9.17 1.98-19.07-.03-26.48-6.61-5.23-4.71-9.72-10.67-14.42-16.2-16.98-18.37-36.05-34.4-56.87-48.48-19.3-12.25-39.63-23.06-61.15-31.02a174.26 174.26 0 00-26.22-5.62 95.8 95.8 0 00-15.22.9 57.4 57.4 0 00-8.87 3.06 80.57 80.57 0 00-5.55 3.8 63.88 63.88 0 00-5.2 6.14 97.1 97.1 0 00-6.4 13.68 144.97 144.97 0 00-5.04 24.7c-.2 7.03.17 13.86 1.22 20.83 2.8 10.78 7.01 20.9 11.65 30.97a643.45 643.45 0 0026.14 44.7c9.41 14.75 20.19 28.49 31.26 42.03 11.03 12.11 22.47 23.82 35.08 34.48 14.21 11.92 29.04 22.73 44.43 33.07 14.34 8.9 28.85 17.73 44.04 24.88zm-127.18-95.44c-.49-.6-.95-1.1-1.4-1.6.45.5.91 1 1.4 1.6zm307.9-279.99c-.52-.1-1.07-.3-1.6-.5.53.2 1.08.4 1.6.5z"/></svg>