<svg xmlns="http://www.w3.org/2000/svg" width="524" height="806"><g fill="#18777A" fill-rule="evenodd"><path d="M567.64 670.9c-6.79 4.94-14.13 9.17-21.14 13.71a79.54 79.54 0 01-4.05 2.48c-13.58 2.89-27.49 4.62-40.96 7.77-19.27 4.47-38.44 9.2-57.93 13.03-9.1 1.8-18.4 3.19-27.49 5-9.97 1.96-19.93 4.2-29.9 5.9-18.07 3.06-36.58 2.48-54.86 1.96a217.9 217.9 0 01-38.77-6.15 412.88 412.88 0 01-23-6.37 216.54 216.54 0 01-16-5.8c-10.61-4.5-21.13-9.26-30.76-15.75-9.75-6.6-18.95-13.9-28.26-21.14-14.9-12.85-28.47-26.92-42.5-40.67-8.2-8.02-16.53-16-24.41-24.3-5.92-6.06-11.17-12.58-16.43-19.21-5.04-7.2-10.19-14.46-14.24-22.24-3.17-6.18-6.35-12.39-9.42-18.63-3.72-9.09-7.77-18.29-10.4-27.75a929.3 929.3 0 01-7.78-29.52c-2.84-11.78-5.7-23.56-7.99-35.44a449.36 449.36 0 01-3.83-24.18c-.44-3.5-.66-7.02-.88-10.57 0-16 .44-31.93 1.31-47.94.66-13.44 2.41-26.75 4.28-40.04 1.86-9.69 4.05-19.21 7.11-28.55 5.04-11.21 11.4-21.5 18.07-31.75 15-19.74 30.56-38.9 47.53-56.94a445.77 445.77 0 0125.52-25.17c4.82-4.3 9.42-8.89 14.57-12.91a741.2 741.2 0 019.63-7.65c5.59-3.74 11.07-7.5 16.65-11.23 5.59-3.67 11.6-6.67 17.41-9.96 9.86-5.68 20.48-10.4 30.89-15.29a954.92 954.92 0 0138-16.93c10.73-4.59 21.8-8.37 32.74-12.42 24.86-8.34 49.94-16.9 76.34-17.92 18.5-.74 37.01.02 55.52.57 24.2 1.57 48.19 3.97 72.06 8.28 11.5 2.1 23.11 4.32 34.28 7.65 6.13 1.81 12.49 3.33 18.5 5.58 4.83 1.81 9.76 3.6 14.57 5.42 21.69 9.87 43.04 20.33 62.1 34.75 16.65 14.12 31.43 30.28 44.8 47.46a295.86 295.86 0 0126.17 42.78c7.33 16.9 12.8 34.26 17.4 52.06 1.65 7.4 3.18 14.8 4.83 22.21a362.44 362.44 0 017.77 51.96c.77 25.44.99 50.7-2.52 75.99a280.04 280.04 0 01-12.7 46.07c-6.35 15.64-13.9 30.86-23.55 44.73-3.72 5.31-7.33 10.6-11.06 15.88-8.21 10.46-16.42 20.84-25.19 30.77a1042.03 1042.03 0 01-30 31.82c-8.87 9.07-18.4 17.65-27.82 26-4.93 4.28-9.64 8.82-14.78 12.84-5.7 4.56-11.5 9.12-17.3 13.68a5344.66 5344.66 0 00-22.13 16.07zm19.27-13.82c.55-.4 1-.8 1.54-1.19.1-.13.33-.26.55-.4-.66.52-1.43 1.06-2.09 1.59zm212.9-296.3c-.76-20.56-2.4-40.8-6.24-61.04-1.42-7.38-2.74-14.75-4.16-22.14-6.35-33.89-16.1-67.12-32.09-97.83a292.47 292.47 0 00-30.44-47.48c-4.82-6.18-9.75-12.34-14.57-18.5-20.92-26.39-48.08-48.05-77.65-64.03-8.76-4.75-17.74-9.08-26.72-13.47-7.55-3.66-15.66-6.49-23.32-9.62-12.38-5-25.3-8.5-38.12-11.85a363.95 363.95 0 00-37.56-7.41c-13.47-1.97-26.94-3.9-40.52-4.84-15.44-1.1-31-1.8-46.55-2.12-10.5-.22-21.13-.71-31.75-.27-18.62.75-36.91 4.52-54.76 9.93a635.05 635.05 0 00-45.23 15.45c-8 3.1-16 6.17-23.99 9.25-6.24 2.4-12.26 5.4-18.4 8.08a609.08 609.08 0 00-33.94 16.2c-6.36 3.29-12.93 6.3-19.06 9.94-5.91 3.5-12.27 6.65-17.85 10.52L159.8 91.34c-7.44 5.1-14.34 11.46-21.35 17.13-10.4 8.37-19.93 18.16-29.35 27.55a442.5 442.5 0 00-25.3 27c-8.76 10.28-17.52 20.54-25.74 31.3-11.28 14.92-23.1 30.21-31.43 47.1-8.98 18-14.56 36.72-18.07 56.47-1.64 9.42-2.95 18.95-4.38 28.43-1.97 13.24-2.4 26.74-3.28 40.1-1.76 28.86-1.2 58.4 4.05 86.88 5.47 29.53 12.6 58.93 20.37 87.91 1.53 5.67 3.72 11.37 5.8 16.81 2.41 6.15 4.82 12.27 7.56 18.25 6.46 14.58 13.03 29.73 21.9 43.08A511.57 511.57 0 0090.6 659.6c8.21 9.95 17.63 18.95 26.61 28.24 8.44 8.8 16.54 17.99 24.97 26.7a371.37 371.37 0 0028.04 25.96c12.15 10.1 24.2 20.48 37.56 28.9 13.14 8.24 27.82 13.87 42.17 19.7a229.53 229.53 0 0082.35 16.64c7.56.13 15.22.26 22.78.26 18.18 0 36.36-.82 54.21-4.71 24.97-5.43 50.16-10.2 74.9-16.6 25.96-6.72 52.36-12.72 77.55-22.1 8.1-3.03 15.77-6.57 23.1-11.5 6.57-4.48 12.7-9.56 18.95-14.64 9.86-8.17 18.84-17.42 28.04-26.37 9.96-9.59 19.49-19.58 28.8-29.69 8.76-9.51 18.29-18.3 26.72-28.14 10.08-11.7 18.4-24.77 25.4-38.5 3.18-4.21 6.47-8.45 9.65-12.66 4.6-5.99 8.87-12.12 12.92-18.44 3.83-5.8 8-11.36 11.6-17.27a287 287 0 005.48-9.7c6.46-10.24 11.4-21.34 16.76-32.18 3.5-7.13 7-14.27 9.75-21.73 2.3-6.15 3.72-12.44 5.03-18.83 4.27-12.62 8.1-25.4 10.19-38.67 2.3-13.84 4.16-27.65 4.82-41.63.65-13.92 1.42-27.95.87-41.86z"/><path d="M515.57 411.07c-.1.2-.1.38-.22.58-.44.94-.99 1.87-1.53 2.79-8.14 10.03-17.6 18.65-27.5 26.94-15.5 10.96-31.67 20.35-49.48 27.11-9.13 2.68-18.7 4.97-28.04 5.65-6.27.44-12.54.42-18.92.29-18.47-1.67-35.85-6.82-53.33-12.95-10.45-4.5-20.68-9.32-30.13-15.88-3.96-3.53-7.7-7.29-11.11-11.32a117.1 117.1 0 01-5.72-9.71c-1.98-5.1-3.85-10.3-5.39-15.6a191.56 191.56 0 01-3.19-23.75c-.1-9 .22-17.92 1.43-26.86a179.82 179.82 0 018.25-31.07c4.95-11.03 11.1-20.97 18.04-30.88 2.96-3.99 6.15-7.85 9.45-11.55 9.9-7.16 20.35-13.4 31.78-17.9a57.1 57.1 0 0111-1.72c8.47 1.1 16.82 3.32 25.07 5.42 7.15 1.8 13.97 4.24 20.79 6.83 6.7 2.84 13.52 5.68 20.34 8.46 9.35 3.94 19.13 7.41 28.04 12.14a202.1 202.1 0 0120.46 12.26c2.64 2.37 5.16 4.83 7.58 7.49 4.07 6.12 7.81 12.43 11.77 18.72 4.95 7.9 10.23 15.58 14.85 23.68a82.45 82.45 0 012.2 7.09c1.76 8.6 3.07 17.2 4.06 25.93 0 5.94-.1 11.88-.55 17.81zm59.94-84.86c-2.1-8.48-6.27-16.92-10.34-24.56-3.3-6.4-7.04-12.57-10.56-18.89-3.96-7.07-7.47-14.33-11.32-21.44a84.3 84.3 0 00-4.95-8.43c-5.28-7.68-10.67-15.9-17.82-21.96-8.46-7.25-16.82-13.88-26.6-19.13-8.37-4.55-17.82-7.98-26.95-10.54-14.3-3.98-29.14-5.89-43.77-7.65-17.15-2-34.3-2.45-51.35.46-6.5 1.12-12.76 2.44-18.92 4.72a61.27 61.27 0 00-21 12.72c-8.69 8-15.4 17.73-21.78 27.6-.44.7-.77 1.5-1.2 2.24a85.16 85.16 0 00-3.74 3.7c-1.65 1.26-3.3 2.47-4.84 3.78-3.96 3.33-8.14 6.63-11.66 10.38-3.74 3.95-6.82 8.26-10 12.61-3.2 4.36-6.5 8.61-9.35 13.18a88.66 88.66 0 00-7.15 14.65c-.77 2.05-1.21 4.16-1.76 6.2a108.31 108.31 0 00-9.57 14.77c-3.74 7.4-7.26 14.7-10.12 22.58-3.73 10.18-5.82 20.58-7.25 31.29-1.65 11.63-1.76 22.86-1.21 34.6.33 8.45.99 17 2.86 25.31 2.2 9.88 4.29 20.02 8.24 29.44 3.74 9.19 7.92 18.84 13.75 27.02 6.7 9.37 13.75 19.3 22.87 26.67 8.25 6.65 16.39 13.17 25.52 18.4a302.6 302.6 0 0022.65 11.58c20.56 9.28 41.79 17.35 64.44 19.23 7.37.6 14.74 1.26 22.1 1.26a133.63 133.63 0 0024.52-2.45c14.52-2.72 28.49-7.67 41.9-13.79 14.08-6.38 26.73-15.14 38.82-24.39 14.63-11.03 29.47-23.6 40.25-38.44 5.94-8.1 11.66-15.7 15.29-24.97 1.98-5.05 4.62-10.72 5.83-16.2 1.2-6.11 2.3-12.32 3.07-18.52.88-7.58 1.43-15.24 1.54-22.86.33-18.64-1.1-37.6-4.72-55.91-1.54-8.15-3.63-16.2-5.72-24.26z"/></g></svg>