<svg xmlns="http://www.w3.org/2000/svg" width="418" height="819"><path fill="#18777A" fill-rule="evenodd" d="M619.29 385.78a493.47 493.47 0 014.78 22.5c1.24 6.58 2.12 13.2 3.08 19.8l.58 4.94.03.09a723.32 723.32 0 013.41 39.72c.68 11.43.25 22.88-.45 34.32a385.15 385.15 0 01-4.1 27.47c-.74 4.5-1.76 9.03-2.98 13.53-.8 3.32-1.82 6.57-2.93 9.82-2.28 5.33-4.4 10.85-7.53 15.78a347.4 347.4 0 01-7.48 11.46c-6.1 7.52-12.4 14.68-19.96 20.63a73.94 73.94 0 01-17.02 7.62c-3.45.55-6.84.7-10.42.52-12.2-1.81-24.16-5.35-36.17-8.06-11.4-2.58-22.86-5.03-33.78-9.14a50.92 50.92 0 01-6.1-3.46 42.14 42.14 0 01-3.43-3.24c-6.86-8.74-12.73-18.18-18.17-27.8a296.02 296.02 0 01-12.9-28.16c-3.33-8.37-6.08-17-9-25.53-3.38-9.87-6.75-19.7-10.22-29.54-2.96-8.7-6.04-17.49-9.92-25.84-4.94-10.75-10.5-21.4-17.1-31.19-4.48-6.54-9-12.91-14.16-18.95-4.98-5.75-9.95-11.11-15.86-15.86-3.1-2.4-6.5-5.18-9.93-7.15a91.77 91.77 0 00-10.54-5.05 69.15 69.15 0 00-22.94-4.94c-6.3-.3-12.62-.04-18.78 1.13-3.87.75-7.7 1.62-11.51 2.55-2.86.71-6.02 1.35-8.73 2.55a70.04 70.04 0 00-17.66 10.88c-10.56 9.12-19 21.37-24.19 34.36-2.55 6.3-5.12 12.86-6.55 19.52-1.5 7.09-2.75 14.66-2.43 21.95.5 9.82 1.61 19.53 5.1 28.8 2.9 7.5 6.76 14.5 10.88 21.42a357.84 357.84 0 0023.07 34.21c8.04 10.54 16.52 20.72 23.38 32.04 4.12 7.9 7.28 16 10.32 24.32 3.42 11.29 7.02 22.55 8.88 34.22 1 11.28 1.02 22.63.36 33.91-.96 7.67-2.6 15.18-4.84 22.59a114.04 114.04 0 01-11.62 22.25c-1.77 2.23-3.45 4.45-5.28 6.49-3.94 4.35-8.3 8.25-12.78 12.02-3.67 3.07-7.5 5.9-11.32 8.73-3.77 2.39-7.56 4.7-11.54 6.65-5.2 2.57-10.6 4.77-16.07 6.7-4.89 1.73-9.84 3.22-14.7 4.72-4.53 1.35-9.03 2.8-13.58 4.06-1.88.25-3.78.4-5.65.37a53.42 53.42 0 01-6.84-1.85c-9.65-4.56-18.5-10.5-27.2-16.62-5.25-4.36-9.8-9.22-14.34-14.42l-12.38-14.04a152.45 152.45 0 01-11.78-15.86c-5.85-11.36-11.23-22.98-17.25-34.28-7.47-13.75-15.66-27.1-23.67-40.5a184.99 184.99 0 01-.39-.7 282 282 0 01-3.84-7.89c-.55-1.94-1.03-3.92-1.59-5.87-10.42-39.59-20.94-79.18-31.11-118.86a1004.11 1004.11 0 01-13.79-62 840.55 840.55 0 01-8.6-53.62c-.59-7.84-1.25-15.66-1.84-23.52-.48-6.55-.26-13.22-.38-19.78-.3-14.3.59-28.69 1.78-42.97 1.26-10.48 4.04-20.5 7.31-30.46a506.4 506.4 0 0117.25-41.41c5.98-13.12 12.36-26.12 20.3-38.2 6.69-8.72 14.59-16.74 22.78-24.1a300.27 300.27 0 0116.72-14.13c9.18-7.14 18.33-14.36 27.82-21.06a368.7 368.7 0 0118.37-11.6c6.76-3.93 13.65-8.03 20.69-11.32l14.98-6.94c4.01-1.86 8.02-4.05 12.21-5.62l18.16-6.87c9.62-3.64 19.54-6.9 29.48-9.74 12.95-3.72 25.94-7.57 39-10.86 11.6-2.6 23.39-4.8 35.33-5.54 11.12-.68 22.2-.54 33.33.44 7.04.94 14.13 2.05 21 4a194.75 194.75 0 0117.16 5.83 370.31 370.31 0 0137.25 19.6 428.5 428.5 0 0132.6 21.5c10.97 8.51 21 17.94 30.24 28.17a352 352 0 0123.1 31.03c5.44 8.33 10.56 16.8 15.78 25.3a702.54 702.54 0 0118.42 37.07c6.14 13.64 11.52 27.54 16.74 41.55 7.92 24.4 14.9 49.07 22.06 73.71 4.06 13.84 8.4 27.64 11.59 41.7zm2.75-146.76a384.73 384.73 0 00-10.37-24.85c-4.4-9.5-8.63-19.1-13.6-28.33a859.25 859.25 0 00-18.74-32.97c-4.85-7.87-9.72-15.8-15.27-23.18-11.58-15.8-23.41-31.47-37.47-45.22C511.11 69.32 493.61 56.8 475.47 45a284.1 284.1 0 00-23.6-13.97c-17.52-9.02-35.09-18.5-54.21-23.72-14.9-4.08-30.61-6.09-46.11-6.43-13.18-.34-26.45.33-39.5 2.69-20.39 3.68-40.14 9.55-59.92 15.65-10.07 3.1-20.02 6.58-29.98 10.01-4.06 1.4-8 3.16-11.9 4.76-4.58 1.85-9.42 3.42-13.9 5.63-9.74 4.83-19.69 9.31-29.2 14.67-19.97 11.23-39.27 23.89-56.74 38.68-13.07 11.04-26.23 21.8-37.5 34.6-9.74 11-18.76 22.59-25.6 35.64-6.13 11.62-11.22 23.67-16.3 35.72-6.05 14.18-11.88 28.48-16.58 43.16-2.03 6.49-4.14 13.06-5.37 19.78a146.78 146.78 0 00-2.29 21.47c-.25 7.2-.42 14.38-.49 21.58-.03 5.08-.4 10.27-.15 15.34l.67 11.05c-.97 5.69-1.67 11.35-2.74 17.02-.95 5.4-1.79 10.9-2.26 16.38-1.2 12.94-1 25.98-.52 38.97.6 15.33 1.04 30.81 3.45 45.98a603.77 603.77 0 007.81 41.51c3.04 13.5 6.25 26.95 10.66 40.08 4.12 12.42 7.83 25.03 12.37 37.3 4.36 11.98 8.48 24.07 13 35.98 5.21 13.63 9.31 27.61 14.68 41.15 2.83 6.95 5.9 13.8 8.82 20.72 2.4 6.44 4.9 12.87 7.97 19.05 2.8 5.59 5.62 11.18 8.83 16.55a168.88 168.88 0 0018.76 25.31c.7 1.16 1.33 2.35 2.01 3.45 1.07 1.77 2.06 3.63 3.29 5.31 6.43 8.84 13.7 17.02 21.1 25.05.43.54.96 1.07 1.39 1.6.26.59.6 1.16.87 1.76a48.3 48.3 0 016.28 7.02l-.75-1.65c3.93 4.3 7.85 8.6 11.91 12.73 4.43 4.45 9.88 8.22 15.07 11.76 3.48 2.43 6.96 4.85 10.57 7.1 4.28 2.6 8.54 5.17 12.91 7.49 10.13 5.23 21.24 9.99 32.87 9.75 6.83-.13 13.5-2.1 20.09-4.05 1.37-.4 2.74-.8 4.2-1.2 2.49-.7 5.07-1.42 7.55-2.14 1.63-.46 3.34-.97 4.97-1.46 9.39-2.85 18.64-5.84 27.31-10.57a170.56 170.56 0 0027.51-18.63c6.3-5.22 12.27-10.6 17.4-17.02 6.21-7.76 11.77-15.87 16.16-24.86 6.03-12.6 10.45-26.64 11.92-40.63.92-9.07 1.41-18.05 1.58-27.17.24-16.63-1.6-33.76-6.28-49.73-3.48-11.82-7.05-23.6-11.3-35.19a183.71 183.71 0 00-28.73-51.34c-11.82-15-23.09-30.35-32.97-46.7a94.4 94.4 0 01-3.77-7.96 87.1 87.1 0 01-.28-8.4 87.8 87.8 0 012.95-12.38 103.98 103.98 0 019.45-18.5 78.3 78.3 0 0111.46-11.5 37.9 37.9 0 017.37-3.75c2.27-.81 4.48-1.51 6.81-2.13a87.67 87.67 0 0122.26-2c3.12.54 6.03 1.29 9 2.3a67.84 67.84 0 015.94 3.52c3.05 2.56 5.88 5.3 8.65 8.18a265.06 265.06 0 0114.97 21.45 203.32 203.32 0 019.59 20.17c7.3 18 13.6 36.43 20.14 54.72 3.16 8.75 6.2 17.74 10.28 26.11a433.01 433.01 0 0017.02 31.85 211.3 211.3 0 0015.97 23.99c4.4 5.61 9.02 11.06 14.5 15.62 6.25 5.3 13.06 8.98 20.7 12a132.97 132.97 0 0016.79 5.46c10.02 2.59 20.15 4.89 30.22 7.33 4.9 1.2 9.83 2.56 14.72 3.78 3.69.88 7.39 1.8 11.09 2.41 6.12.95 12.89 2.24 19.1 1.23 14.44-2.37 28.07-7.6 39.34-17.18 4.1-3.48 7.78-7.17 11.5-11.01 3.41-3.63 6.52-7.69 9.45-11.71 3.4-4.65 7.15-9.36 9.97-14.42 5.25-9.5 10.15-19.29 13.18-29.77 2.72-9.28 5.34-18.6 7.07-28.09 3.86-20.84 6.56-42.19 6.04-63.4a645.2 645.2 0 00-4.24-60.77c-1.42-11.71-2.99-23.35-5.38-34.93-2.13-10-4.5-19.9-7.15-29.8a3144.96 3144.96 0 00-15.83-55.82 888.87 888.87 0 00-21.4-65.58z"/></svg>