<svg xmlns="http://www.w3.org/2000/svg" width="418" height="575"><path fill="#18777A" fill-rule="evenodd" d="M800.42 399.37a61.66 61.66 0 01-5.31 8.3c-3.82 5.04-10.44 8.77-15.97 11.28-10.23 4.61-21.2 7.48-31.84 11.07-19.73 6.55-39.2 14.08-58.5 21.81-40.27 16.03-80.2 33.21-121.32 47.33-20.38 6.9-40.84 13.92-61.5 20.43-20.54 6.4-41.21 12.04-62.04 17.46-20.18 5.22-40.46 10.26-60.52 15.97-18.34 5.16-36.24 11.94-54.76 16.45-7.5 1.8-14.9 3.64-22.52 4.67-5 .8-10.05.87-15.03.08-10.86-1.61-19.38-8.22-26.68-15.85a636.82 636.82 0 01-44.84-53.29c-25.76-34.22-48.97-70.29-72.2-106.21-22.9-35.52-46.9-70.27-70.19-105.49-11.79-18.03-23.29-36.1-34.48-54.49-4.9-8.07-9.73-16.1-14.81-24.1-4.85-7.31-10.18-14.37-15.39-21.52a81.46 81.46 0 01-9.2-16.06c-3.45-7.99-3.68-15.96-3.07-24.36a33.13 33.13 0 019-17.77c.06-3.48.4-5.26 1.93-9.38.97-2.57 2.6-4.75 4.19-6.8 3.88-5.17 11.11-8.67 16.7-11.31C35 106.3 38 104.92 41 103.67c9.49-4 19.25-7.31 28.93-10.8 10.11-3.63 20.2-7.12 30.31-10.74 20.3-7.37 40.67-14.28 61.29-20.66 20.45-6.3 41.04-12.39 61.53-18.52 42.76-12.79 86.37-22.93 130.13-31.7 20.3-4.15 40.74-8.11 61.26-10.73a432.13 432.13 0 0155.25-3.27c7.47-.06 14.9.16 22.3.96 4.68.53 9.05 1.68 13.5 3.6 8.44 3.36 14.33 10.76 19.69 17.83 6.24 8.12 11.99 16.64 17.81 25.04 6.3 9.01 12.57 18.02 18.8 27.16 24.18 34.96 49.75 68.81 76.28 102 26.9 33.76 53.48 67.83 81 101.08a3715.69 3715.69 0 0041.4 48.83c10.92 12.45 22.25 24.61 33.2 37.07 3.28 3.68 5.12 7.27 7.47 11.93 3.22 6.58 3.22 16.37.6 23.6a23.53 23.53 0 01-1.33 3.02zM355.2 487.4c18.9-5.98 38.22-11.07 57.43-16.06 20.79-5.44 41.64-10.7 62.22-16.8a2810.5 2810.5 0 0064.14-20.04c36.68-11.92 72.65-25.71 108.7-39.18a2124.55 2124.55 0 0154.15-19.3c5.94-2.07 11.88-3.85 17.89-5.76a41.1 41.1 0 01-2.45-2.93c-13.49-16.16-26.94-32.45-40.42-48.6-27.17-32.83-53.3-66.45-80.08-99.57-22.73-28.29-45.4-56.55-67.15-85.5-10.04-13.59-19.74-27.35-29.67-40.9-7.13-9.9-14.12-20.04-21.66-29.65-7.68.57-15.43.96-23.1 1.38-19.36 1.28-38.6 2.46-57.86 4.66-42.09 4.7-84.18 11-125.69 19.4-25.81 5.36-51.33 11.7-76.93 17.44 2.2-.52 4.45-1.02 6.66-1.52-5.05 1.23-10.07 2.32-15.14 3.54-23.38 5.66-46.5 12.15-69.7 18.76-11.68 3.34-23.33 6.55-35.04 10.03-6.08 1.73-12.24 3.43-18.33 5.3.24.38.52.64.81.89a62.08 62.08 0 014.8 6.71c4.56 7.21 8.74 14.72 12.88 22.07a1152.74 1152.74 0 0029.84 51.33c22.38 36.34 47 71.3 71.07 106.5 40.2 58.9 78.56 119.61 126.17 173.02 15.7-4.36 30.96-10.2 46.46-15.22z"/></svg>