<svg xmlns="http://www.w3.org/2000/svg" width="473" height="740"><g fill="#18777A" fill-rule="evenodd"><path d="M704.9 520.42c62.74-96.75 70.86-219.96 20.22-306.59C667.49 115.3 549.68 71.37 443.8 37.94c-69.12-21.83-142.04-41.1-207.04-16.7-65.36 24.52-107.56 87.2-148.55 154.77-34.5 56.91-73.63 121.41-77.97 192.39-4.59 75.07 31.9 156.62 100.11 223.74C184 664.6 333.9 753.6 436.65 724.6c94.8-26.75 210.13-114.54 268.25-204.18zM340.8 2.57c35.43 4.64 71.18 14.99 105.95 25.97 107.65 33.98 227.47 78.75 286.87 180.32 52.48 89.77 44.27 217.13-20.45 316.93-59.28 91.42-177 180.96-273.84 208.3-106.54 30.08-260.54-60.8-335.88-134.92C33.2 530.04-4.36 445.72.4 367.8c4.5-73.4 44.28-139.02 79.4-196.9 41.92-69.1 85.19-133.27 153.5-158.89C267.85-.95 304.17-2.23 340.8 2.57z"/><path d="M604.77 579.84c56.07-57.66 87.53-135.15 86.32-212.61-1.25-79.93-37.99-156.7-98.25-205.35-46.6-37.6-109.2-61.1-186.05-69.84-60.16-6.83-110.48-2.66-153.81 12.8-83.24 29.67-148.13 107.7-165.31 198.8-16.34 86.62 9.63 181.3 69.44 253.29 43.85 52.76 104.18 92.54 174.5 115.03 51.71 16.54 111.12 7.94 181.58-26.36 34.8-16.94 65.61-39.07 91.58-65.76zM417.12 83.37c74.56 9.76 135.74 33.57 181.93 70.85 62.52 50.45 100.62 130.02 101.91 212.85 1.26 80.07-31.22 160.12-89.1 219.64-26.76 27.51-58.51 50.32-94.34 67.76-72.85 35.47-134.65 44.28-188.93 26.88-72.1-23.07-134.04-63.9-179.07-118.12C87.84 489 61.08 391.28 77.96 301.81c17.82-94.47 85.22-175.43 171.7-206.26 44.8-15.97 96.55-20.33 158.26-13.3 3.08.33 6.16.72 9.2 1.12z"/><path d="M579.04 520.32C620.71 464 638.1 396.8 626.75 335.97c-11.87-63.68-53.39-113.44-86.11-143.97-39.85-37.14-82.62-62.12-127.13-74.21-49.8-13.54-102.21-9.56-143.77 10.97-35.48 17.52-66.62 47.03-100.97 95.65-23.66 33.49-50.95 78.3-51.88 127.97-.64 34.37 11.72 72.01 36.74 111.91 36.45 58.15 88.8 106.19 151.35 138.93 35.68 18.7 69.36 30.87 100.09 36.21 24.37 4.3 49.15-12.66 71.2-27.54 3.66-2.46 7.2-4.86 10.64-7.08 37.72-24.41 68.7-52.84 92.13-84.5zm-194.1-418.34a237.65 237.65 0 0131.14 6.25c46.07 12.53 90.25 38.28 131.26 76.53 33.82 31.54 76.74 83.07 89.1 149.4 11.85 63.53-6.19 133.53-49.49 192.06-24.13 32.6-56 61.85-94.69 86.9-3.4 2.2-6.9 4.55-10.49 6.98-23.6 15.91-50.43 34-78.37 29.08-31.75-5.52-66.4-18.03-102.99-37.18-64.1-33.57-117.74-82.81-155.13-142.45-26.06-41.55-38.92-81.04-38.26-117.35 1-52.38 29.21-98.87 53.7-133.51 21.95-31.06 56.68-75.1 104.66-98.8 35.03-17.3 77.32-23.46 119.56-17.9z"/><path d="M407.04 575.17c16.94 2.22 31.7 1.17 46.59-11.17 25.81-21.4 49.14-49.87 67.46-82.36 19.9-35.25 32.83-74.53 37.4-113.58 4.12-35.15.67-63.3-10.56-86.04-12.1-24.54-35.27-45.94-68.85-63.6-64.1-33.72-137.6-39.95-196.59-16.67-65.95 26.04-111.44 89.64-110.65 154.68.54 44.86 21.59 83.28 39.15 107.6 39.97 55.36 102.11 94.23 170.49 106.65l7.46 1.4c6.34 1.2 12.35 2.33 18.1 3.09zm-15.51-395c31.23 4.11 62.63 14 92.11 29.5 35.45 18.67 60.05 41.53 73.1 67.96 12.1 24.52 15.87 54.48 11.5 91.59-4.72 40.33-18.06 80.9-38.6 117.29-18.9 33.5-43.02 62.93-69.75 85.1-23.5 19.48-46.34 15.14-72.77 10.17l-7.38-1.39c-70.87-12.87-135.26-53.16-176.7-110.57-18.4-25.48-40.45-65.82-41.03-113.27-.83-69.05 47.22-136.48 116.9-163.97 34.33-13.56 73.32-17.57 112.62-12.4z"/><path d="M458.05 504.4c24.57-25.61 38.24-60.2 48.36-90.64 17.59-52.92 16.98-89.52-1.92-115.18-18.45-25.07-51.65-34.24-84.09-41.48-37.36-8.35-73.7-15.07-107.45-5.68-40.4 11.26-73.47 46.29-84.19 89.24-10.19 40.78-.38 86.6 26.25 122.57 29.66 40.05 79.14 68.92 123.3 71.68 31.1 2 58.66-8.55 79.74-30.51zm-80.4-265.36c14.78 1.95 29.76 5.06 44.9 8.45 34.24 7.64 69.39 17.43 89.86 45.23 27.54 37.42 15.09 88.77 3.32 124.15-10.46 31.5-24.66 67.33-50.6 94.37-23.14 24.09-53.37 35.69-87.44 33.5-47.56-3.02-98.81-32.72-130.57-75.64-28.36-38.3-38.78-87.22-27.88-130.84 11.55-46.33 47.3-84.13 91.08-96.32 21.86-6.08 44.36-5.92 67.34-2.9z"/><path d="M436.86 449.21c15.46-20.5 22.86-45.84 30.03-70.34 6.5-22.27 12.39-47.51-.34-65.32-8.74-12.19-23.9-17.75-41.36-23.27-24.13-7.62-51.5-16.27-78.16-14.04-35.54 2.98-69 26.92-83.23 59.57-14.23 32.66-9 73.42 13.05 101.42 20.02 25.43 57.81 42.27 94.1 41.9 28.18-.3 51.6-10.93 65.91-29.92zm-62.95-181.98c18.97 2.49 37.38 8.3 54.28 13.65 14.78 4.67 35.04 11.06 46.4 26.94 15.31 21.4 8.95 49.32 1.8 73.82-7.06 24.17-15.07 51.57-31.62 73.5-16.21 21.5-42.39 33.53-73.73 33.85-39.15.41-80.16-17.95-101.97-45.66-24.22-30.77-30-75.57-14.34-111.45 15.65-35.9 52.41-62.21 91.48-65.48 9.3-.79 18.56-.36 27.7.83z"/><path d="M420.97 399.02c9.03-16.7 16.3-31.78 13.61-47.08-2.45-13.96-13.79-26.58-29.6-32.93-13.09-5.28-28.94-6.6-48.44-4.1-18.14 2.33-32.52 7.01-43.95 14.34-13.67 8.74-22.83 21.46-25.14 34.9-3.14 18.34 6.72 39.18 25.15 53.1 23.7 17.9 45.24 24.98 64.04 20.98 17.33-3.68 32.24-16.87 44.33-39.21zm-32.63-94.17a82.14 82.14 0 0120.39 5.2c18.93 7.61 32.57 23.04 35.58 40.25 3.48 19.8-6.98 39.14-14.62 53.25-13.5 24.98-30.66 39.83-50.97 44.14-21.77 4.63-46.05-3.04-72.15-22.77-21.28-16.07-32.61-40.56-28.86-62.37 2.76-16.1 13.5-31.2 29.47-41.4 12.7-8.13 28.43-13.32 48.07-15.83 12.2-1.59 23.17-1.74 33.09-.47z"/></g></svg>