<?xml version="1.0" encoding="UTF-8"?>
<svg width="70px" height="70px" viewBox="0 0 70 70" version="1.1" xmlns="http://www.w3.org/2000/svg" xmlns:xlink="http://www.w3.org/1999/xlink">
    <!-- Generator: Sketch 63.1 (92452) - https://sketch.com -->
    <title>quote</title>
    <desc>Created with Sketch.</desc>
    <g id="Page-1" stroke="none" stroke-width="1" fill="none" fill-rule="evenodd">
        <g id="Blog" transform="translate(-74.000000, -503.000000)" fill="#E2DBD2" fill-rule="nonzero">
            <g id="quote" transform="translate(74.000000, 503.000000)">
                <path d="M23.3333333,1.75 C12.6333333,12.8166667 3.11666667,25.7166667 0.766666667,41.3333333 C-0.45,49.3666667 -0.7,72.3 13,68.5 C23.8166667,65.5 30.6666667,51.8333333 23.2333333,42.45 C20.5,39 15.55,36.55 11.2333333,38.1833333 C14.3166667,26.5166667 21.9333333,17.0333333 30.1666667,8.55 C34.4833333,4.11666667 27.6833333,-2.7 23.3333333,1.75 Z" id="Path"></path>
                <path d="M50.4333333,42.7833333 C50.5166667,42.1666667 50.6,41.6 50.6833333,41.1166667 C52.2732592,30.7731024 56.5039449,21.0143973 62.9666667,12.7833333 C66.7333333,7.95 59.9666667,1.11666667 56.15,5.98333333 C49.3798118,14.3850779 44.5941387,24.2071021 42.15,34.7166667 C40.3,43.05 38.0833333,56.5666667 42.35,64.4833333 C49.6166667,77.9833333 78.8333333,60.1 67.2333333,45.8833333 C63.205659,40.7789923 56.0174794,39.452602 50.4333333,42.7833333 L50.4333333,42.7833333 Z" id="Path"></path>
            </g>
        </g>
    </g>
</svg>