<svg xmlns="http://www.w3.org/2000/svg" width="1102" height="519"><path fill="#18777A" fill-rule="evenodd" d="M680.22 509.64c8.8-1.75 19.38-3.86 30.08-6.29 3.8-.88 7.73-1.73 11.66-2.58 15.33-3.4 31.15-6.9 45.68-11.62 26.33-8.52 51.5-18.56 74.04-27.56 23.74-9.48 48.2-19.28 67.83-31.67 4.2-2.6 8.5-5.17 12.7-7.72 3.1-1.86 6.22-3.73 9.21-5.62 7.43-4.58 14.85-9.15 22.16-13.8 9.34-6.01 18.21-12.11 24.81-16.77 5.28-3.64 10.2-7.49 15.12-11.2l3.6-2.8a271.93 271.93 0 0015.38-12.52 674.59 674.59 0 0017.58-16.08 367.47 367.47 0 0016.28-16.69c1.57-1.74 3.02-3.53 4.48-5.33l1.45-1.75 1.82-2.37a93.45 93.45 0 006.05-7.83l2.07-2.97c3.04-4.4 6.2-8.97 9-13.52a36.2 36.2 0 011.7-2.8 63.35 63.35 0 003.43-5.81c1.6-3.4 3.2-6.8 4.68-10.2 1.1-2.27 1.85-4.6 2.6-6.86l.25-.67.87-2.49c.63-1.8 1.25-3.62 1.64-5.43 3.18-12.37 5.64-24.8 7.72-35.32 5.07-25.48 6.46-51.23 7.08-73.06l.2-4.1c.05-3.24.22-6.5.28-9.73.1-5.89 0-13.64-.93-21.5-.73-5.52-2.05-11.1-3.38-16.48l-.22-1.04a112.93 112.93 0 00-4.81-16.14 163.44 163.44 0 00-9.49-19.93c-2.98-5.25-6.56-10.82-12.04-15.98-5.7-5.37-13.08-10.35-21.77-14.8-8.33-4.28-18.2-9.16-28.91-12.95-8.36-2.93-17.2-5.18-25.58-7.25a267.7 267.7 0 00-21.71-4.66c-18.31-2.94-36.77-3.97-50.86-4.55-15.15-.61-35.04-1.15-54.49.13-8.42.56-16.96 1.27-25.38 1.97l-8.66.7a2473 2473 0 00-56.71 5.42c-20.18 2.1-41.18 4.26-61.94 5.83l-3.55.26-7.59.09c-12.44.13-25.12.48-37.32.8-6.88.2-13.75.38-20.62.53-9.72.2-19.32.39-29.03.56-11.26.2-22.63.42-34 .68l-13.52.3c-14.22.31-28.44.63-42.66.92-10.54-.1-21.08-.24-31.5-.41l-15.98-.27c-11.73-.2-23.45-.4-35.17-.54-17.3-.2-34.94-.07-52 .07H390.07h.12c-18.13.05-36.13.17-54.14.33h-13.03l-1.42-.01h-1.3c-29.01-.65-58.02-1.42-87.03-2.2l-7.22-.19-16.22-.45c-36.82-1.05-74.94-2.13-112.28-.27-4.15.2-8.66.55-13.64 1.06-8.78.87-17.92 1.77-26.13 3.73l-2.97.68c-3.93.87-7.85 1.79-11.3 3.15-.73.3-1.44.6-2.28.9-2.14.84-4.4 1.73-6.32 2.82-3.83 2.3-8.26 5.1-11.05 8.34-5.2 6.1-9.1 12.4-11.46 18.77-.37 1.09-.86 2.18-1.36 3.27a69.33 69.33 0 00-2.36 6.65l-1.15 4.74-1.27 4.72a51.25 51.25 0 00-1.31 7.31v.38l-.53 2.92c-.4 2.67-.8 5.35-.97 8.04-1.48 23.33-1.99 45.82-2.46 72.81l-.61 35.04C.4 206.34.3 211.9.21 217.47l-.08 4.67-.04 2.2c-.15 8.33-.05 16.48 2.41 24.62a105.42 105.42 0 009.9 23.33l2.87 5 2.76 4.97c1.38 2.23 2.88 4.38 4.38 6.55l.35.59 1.73 2.58c1.27 1.76 2.43 3.53 3.82 5.24l2.2 2.8c3.48 4.37 6.95 8.88 11.02 13.2a443.36 443.36 0 0016.88 17.36 566.84 566.84 0 0031.36 28.3c6.77 5.75 12.84 10.93 19.27 16.09a674.64 674.64 0 0021.62 16.74c12.16 9.1 25.04 17.69 40.74 27.79a166.6 166.6 0 006.91 4.1l2.82 1.57 3.16 1.9a151.7 151.7 0 006.92 4l5.99 3.15c8.1 4.32 16.43 8.79 25.12 12.91a495.13 495.13 0 0073.9 28.06c15.2 4.4 31 8.19 46.34 11.86l2.95.7c16.51 3.96 34.93 7.77 57.95 12l4.6.88c3.07.6 6.14 1.2 9.21 1.66l2.49.36c4.37.65 8.74 1.3 13.23 1.94 10.63 1.56 20.68 2.95 30.72 4.22 11 1.4 22.93 2.75 36.18 4.13 11.23 1.19 22.82 2.1 33 2.9 8.15.64 17.27 1.12 27.68 1.45l8.88.31c15.04.55 30.66 1.12 45.83.47 19.68-.84 39.63-3.45 64.94-8.43z"/></svg>