<svg xmlns="http://www.w3.org/2000/svg" width="155" height="152"><g fill="#D2DE3C" fill-rule="evenodd"><path d="M28.8 21.11a2.98 2.98 0 011.84-5.16c.8 0 1.53.21 2.14.76.58.52.93 1.27.97 2.05.08 1.55-1.19 3.11-2.8 3.11-.8 0-1.54-.21-2.15-.76M46.17 11.2a2.98 2.98 0 01-.97-2.04c-.08-1.55 1.19-3.12 2.8-3.12.81 0 1.54.22 2.15.76a2.98 2.98 0 01-1.84 5.17c-.8 0-1.53-.21-2.14-.76M69.63 5.17A2.97 2.97 0 0171.46 0c.8 0 1.54.21 2.14.76a2.98 2.98 0 01-1.83 5.17c-.8 0-1.54-.22-2.14-.76M94.44 7.34a2.98 2.98 0 011.83-5.16c.8 0 1.54.21 2.14.76a2.98 2.98 0 01-1.83 5.16c-.8 0-1.54-.21-2.14-.76M115.24 16.62a2.98 2.98 0 011.83-5.17c.8 0 1.54.21 2.14.76.58.53.94 1.27.98 2.05.08 1.55-1.2 3.12-2.81 3.12-.8 0-1.54-.22-2.14-.76M132.5 31.94a2.97 2.97 0 011.83-5.17 2.98 2.98 0 01.3 5.93c-.8 0-1.53-.21-2.14-.76M142.95 52.2a2.98 2.98 0 011.84-5.16 2.98 2.98 0 01.3 5.93c-.8 0-1.53-.21-2.14-.76M149.3 73.96a2.98 2.98 0 01-.97-2.05c-.08-1.56 1.2-3.12 2.81-3.12.8 0 1.54.22 2.14.76.58.53.94 1.27.98 2.05.08 1.56-1.2 3.12-2.81 3.12-.8 0-1.54-.22-2.14-.76M145.43 98.4a2.98 2.98 0 01-.97-2.04c-.08-1.56 1.19-3.12 2.8-3.12.8 0 1.54.22 2.15.76a2.98 2.98 0 01-1.84 5.17c-.8 0-1.53-.22-2.14-.76M133.72 120.54a2.98 2.98 0 01-.97-2.05c-.08-1.55 1.19-3.12 2.8-3.12.81 0 1.54.22 2.15.76.58.53.93 1.27.97 2.05.08 1.56-1.19 3.12-2.8 3.12-.81 0-1.54-.21-2.15-.76M119.3 135.06a2.98 2.98 0 01-.97-2.05c-.08-1.55 1.2-3.11 2.81-3.11.8 0 1.54.21 2.14.76.58.52.94 1.27.98 2.05.08 1.55-1.2 3.11-2.81 3.11-.8 0-1.54-.21-2.15-.76M102.85 143.58a2.98 2.98 0 01-.97-2.05c-.08-1.55 1.2-3.12 2.8-3.12a2.98 2.98 0 013.11 2.81c.1 1.56-1.18 3.12-2.8 3.12-.8 0-1.53-.21-2.14-.76M81.96 150.27a2.98 2.98 0 01-.98-2.05c-.08-1.55 1.2-3.11 2.81-3.11.8 0 1.54.21 2.14.76a2.98 2.98 0 01-1.83 5.16c-.8 0-1.54-.2-2.14-.76M57.45 147.97a2.98 2.98 0 01-.98-2.05c-.08-1.55 1.2-3.12 2.81-3.12.8 0 1.54.22 2.14.76a2.98 2.98 0 01-1.83 5.17c-.8 0-1.54-.22-2.14-.76M40.1 140.51a2.98 2.98 0 011.84-5.16c.8 0 1.53.21 2.14.76a2.98 2.98 0 01-1.84 5.16c-.8 0-1.53-.21-2.14-.76M25.33 128.75a2.98 2.98 0 01-.98-2.05c-.08-1.55 1.2-3.12 2.81-3.12a2.98 2.98 0 013.12 2.81c.08 1.56-1.2 3.12-2.81 3.12-.8 0-1.54-.21-2.14-.76M12.51 114.1a2.98 2.98 0 01-.97-2.05c-.08-1.56 1.2-3.12 2.81-3.12.8 0 1.53.22 2.14.76a2.98 2.98 0 01-1.84 5.17c-.8 0-1.53-.22-2.14-.76M3.21 96.43a2.98 2.98 0 01-.97-2.05c-.08-1.55 1.2-3.11 2.81-3.11.8 0 1.53.2 2.14.76.58.52.93 1.26.97 2.05.08 1.55-1.19 3.11-2.8 3.11-.8 0-1.54-.21-2.15-.76M.98 75.03a2.98 2.98 0 011.83-5.17c.8 0 1.54.22 2.14.76a2.98 2.98 0 01-1.83 5.17c-.8 0-1.54-.22-2.14-.76M5.26 51.45A2.98 2.98 0 017.1 46.3c.8 0 1.53.21 2.14.76A2.98 2.98 0 017.4 52.2c-.8 0-1.53-.21-2.14-.76M16.12 33.8a2.98 2.98 0 011.83-5.17c.8 0 1.54.21 2.14.76.58.52.94 1.27.98 2.05.08 1.55-1.2 3.11-2.81 3.11-.8 0-1.54-.2-2.14-.76M82.53 15.35a2.97 2.97 0 011.84-5.16c.8 0 1.53.21 2.14.76a2.98 2.98 0 01-1.84 5.17c-.8 0-1.53-.22-2.14-.77M101.75 18.72a2.98 2.98 0 011.84-5.16c.8 0 1.53.21 2.14.76a2.97 2.97 0 01-1.84 5.16c-.8 0-1.53-.21-2.14-.76M118.46 30.75a2.98 2.98 0 011.84-5.17c.8 0 1.53.21 2.14.76.58.52.93 1.27.97 2.05.08 1.55-1.19 3.12-2.8 3.12-.81 0-1.54-.22-2.15-.77M130.23 44.53a2.98 2.98 0 01-.98-2.05c-.08-1.56 1.2-3.12 2.81-3.12.8 0 1.54.22 2.14.76a2.98 2.98 0 01-1.83 5.17c-.8 0-1.54-.22-2.14-.76M138.85 65.87a2.98 2.98 0 011.84-5.17c.8 0 1.53.21 2.14.76a2.98 2.98 0 01-1.84 5.17c-.8 0-1.53-.22-2.14-.76M138.76 85.5a2.98 2.98 0 01-.98-2.05c-.08-1.55 1.2-3.12 2.81-3.12a2.98 2.98 0 013.12 2.81c.08 1.56-1.2 3.12-2.81 3.12-.8 0-1.54-.21-2.14-.76M132.63 105.29a2.97 2.97 0 011.84-5.17 2.98 2.98 0 01.3 5.93c-.8 0-1.53-.21-2.14-.76M120.59 120.98a2.98 2.98 0 011.83-5.16c.8 0 1.54.21 2.14.76a2.98 2.98 0 01-1.83 5.16c-.8 0-1.54-.21-2.14-.76M106.1 130.92a2.98 2.98 0 011.83-5.16c.8 0 1.54.21 2.14.76a2.98 2.98 0 01-1.83 5.16c-.8 0-1.54-.21-2.14-.76M87.54 137.52a2.98 2.98 0 01-.97-2.05c-.08-1.56 1.2-3.12 2.81-3.12.8 0 1.53.22 2.14.76a2.98 2.98 0 01-1.84 5.17c-.8 0-1.53-.22-2.14-.76M68.56 136.63a2.98 2.98 0 011.84-5.16c.8 0 1.53.2 2.14.76a2.98 2.98 0 01-1.84 5.16c-.8 0-1.53-.21-2.14-.76M52.63 133.06a2.98 2.98 0 01-.98-2.05c-.08-1.55 1.2-3.12 2.82-3.12a2.98 2.98 0 013.11 2.81c.08 1.56-1.2 3.12-2.81 3.12-.8 0-1.53-.21-2.14-.76M37.32 127.3a2.98 2.98 0 01-.98-2.06c-.08-1.55 1.2-3.11 2.82-3.11.8 0 1.53.21 2.14.76.58.52.93 1.27.97 2.05.08 1.55-1.2 3.11-2.81 3.11-.8 0-1.53-.21-2.14-.76M28.02 114.74a2.98 2.98 0 01-.98-2.05c-.08-1.56 1.2-3.12 2.81-3.12.8 0 1.54.22 2.14.76a2.98 2.98 0 01-1.83 5.17c-.8 0-1.54-.22-2.14-.76M15.5 100a2.98 2.98 0 011.83-5.17c.8 0 1.54.21 2.14.76a2.98 2.98 0 01-1.83 5.17c-.8 0-1.54-.22-2.14-.77M12.24 81.98a2.98 2.98 0 011.83-5.17 2.98 2.98 0 013.11 2.81c.09 1.56-1.19 3.12-2.8 3.12-.8 0-1.54-.21-2.14-.76M11.97 63.22a2.98 2.98 0 011.83-5.16c.8 0 1.54.21 2.14.76a2.98 2.98 0 01-1.83 5.16c-.8 0-1.54-.21-2.14-.76M18.59 47.35a2.98 2.98 0 011.84-5.17c.8 0 1.53.22 2.14.76.58.53.93 1.27.97 2.05.08 1.56-1.2 3.12-2.81 3.12-.8 0-1.53-.22-2.14-.76M29.13 33.47a2.98 2.98 0 011.83-5.16c.8 0 1.54.21 2.14.76.59.52.94 1.27.98 2.05.08 1.55-1.2 3.11-2.81 3.11-.8 0-1.54-.21-2.14-.76M43.6 24a2.98 2.98 0 011.83-5.17c.8 0 1.53.21 2.14.76a2.97 2.97 0 01-1.84 5.16c-.8 0-1.53-.21-2.14-.76M60.04 17.1a2.97 2.97 0 011.84-5.16c.8 0 1.53.21 2.14.76.58.53.94 1.27.98 2.05.08 1.55-1.2 3.12-2.82 3.12-.8 0-1.53-.22-2.14-.77M73.08 26.33a2.98 2.98 0 01-.97-2.05c-.08-1.55 1.2-3.12 2.81-3.12a2.98 2.98 0 01.3 5.93c-.8 0-1.53-.21-2.14-.76M92.2 27.25a2.98 2.98 0 011.84-5.16c.8 0 1.54.21 2.14.76.59.53.94 1.27.98 2.05.08 1.55-1.2 3.12-2.81 3.12-.8 0-1.54-.22-2.14-.77M105.76 35.8a2.98 2.98 0 011.84-5.17c.8 0 1.53.21 2.14.76a2.98 2.98 0 01-1.84 5.16c-.8 0-1.53-.2-2.14-.76M116.88 47.56a2.98 2.98 0 011.83-5.16c.8 0 1.53.21 2.14.76a2.98 2.98 0 01-1.83 5.16c-.8 0-1.54-.21-2.14-.76M125.61 62.5a2.98 2.98 0 01-.98-2.05c-.08-1.56 1.2-3.12 2.82-3.12.8 0 1.53.22 2.14.76a2.98 2.98 0 01-1.84 5.17c-.8 0-1.53-.21-2.14-.76M128.68 79.66a2.98 2.98 0 011.84-5.16c.8 0 1.53.21 2.14.76a2.98 2.98 0 01-1.84 5.16c-.8 0-1.53-.2-2.14-.76M124.92 94.75a2.98 2.98 0 011.84-5.17c.8 0 1.53.22 2.14.76a2.98 2.98 0 01-1.84 5.17c-.8 0-1.53-.22-2.14-.76M117.37 106.87a2.98 2.98 0 011.84-5.17 2.98 2.98 0 01.3 5.93c-.8 0-1.53-.21-2.14-.76M106.46 114.72a2.98 2.98 0 011.84-5.16c.8 0 1.53.2 2.14.76.58.52.93 1.26.97 2.05.08 1.55-1.2 3.11-2.81 3.11-.8 0-1.53-.21-2.14-.76M92.41 122.53a2.98 2.98 0 01-.97-2.05c-.08-1.55 1.19-3.11 2.8-3.11.8 0 1.54.21 2.15.76a2.98 2.98 0 01-1.84 5.16c-.8 0-1.53-.21-2.14-.76M75.95 126.17a2.98 2.98 0 01-.97-2.05c-.08-1.55 1.19-3.11 2.8-3.11.81 0 1.54.21 2.15.76a2.98 2.98 0 01-1.84 5.16c-.8 0-1.53-.21-2.14-.76M61.15 121.53a2.97 2.97 0 011.84-5.16c.8 0 1.53.21 2.14.76a2.98 2.98 0 01-1.84 5.16c-.8 0-1.53-.21-2.14-.76M45.71 114.98a2.98 2.98 0 011.84-5.16c.8 0 1.53.21 2.14.76a2.98 2.98 0 01-1.84 5.16c-.8 0-1.53-.2-2.14-.76M34.78 104.6a2.98 2.98 0 011.83-5.16c.8 0 1.54.22 2.14.76.58.53.94 1.27.98 2.05.08 1.56-1.2 3.12-2.81 3.12-.8 0-1.54-.22-2.14-.76M27.3 93.9a2.98 2.98 0 011.83-5.17c.8 0 1.53.22 2.14.76a2.98 2.98 0 01-1.83 5.17c-.8 0-1.54-.21-2.14-.76M22.59 80.66a2.98 2.98 0 011.83-5.16c.8 0 1.54.21 2.14.76a2.98 2.98 0 01-1.83 5.16c-.8 0-1.54-.21-2.14-.76M23.66 64.82a2.98 2.98 0 011.83-5.16c.8 0 1.54.21 2.14.76a2.97 2.97 0 01-1.83 5.16c-.8 0-1.54-.2-2.14-.76M30.5 51.38a2.98 2.98 0 011.84-5.16c.8 0 1.53.21 2.14.76a2.97 2.97 0 01-1.84 5.16c-.8 0-1.53-.2-2.14-.76M44.6 40.72a2.98 2.98 0 01-.97-2.05c-.08-1.55 1.2-3.11 2.81-3.11.8 0 1.54.21 2.14.76.58.52.94 1.27.98 2.05.08 1.55-1.2 3.11-2.81 3.11-.8 0-1.54-.21-2.14-.76M60.26 31.03a2.98 2.98 0 011.83-5.16c.8 0 1.54.21 2.14.76a2.98 2.98 0 01-1.83 5.16c-.8 0-1.54-.21-2.14-.76M80.88 36.71a2.98 2.98 0 01-.98-2.05c-.08-1.55 1.2-3.11 2.82-3.11.8 0 1.53.21 2.14.76a2.98 2.98 0 01-1.84 5.17c-.8 0-1.53-.22-2.14-.77M94.9 42.69a2.98 2.98 0 011.83-5.17c.8 0 1.54.22 2.14.76a2.98 2.98 0 01-1.83 5.17c-.8 0-1.54-.21-2.14-.76M105.3 53.05a2.98 2.98 0 011.83-5.17c.8 0 1.53.22 2.14.76.58.53.94 1.27.98 2.05.08 1.56-1.2 3.12-2.81 3.12-.8 0-1.54-.22-2.14-.76M112.72 66.56a2.98 2.98 0 011.83-5.17c.8 0 1.54.21 2.14.76a2.98 2.98 0 01-1.83 5.17c-.8 0-1.54-.22-2.14-.76M114.05 80.01a2.98 2.98 0 011.84-5.16c.8 0 1.53.21 2.14.76.58.52.93 1.27.97 2.05.08 1.55-1.2 3.11-2.81 3.11-.8 0-1.53-.2-2.14-.76M108 94.17a2.98 2.98 0 01-.98-2.05c-.08-1.56 1.2-3.12 2.81-3.12.8 0 1.54.21 2.14.76.58.53.94 1.27.98 2.05.08 1.55-1.2 3.12-2.81 3.12-.8 0-1.54-.22-2.14-.76M94.78 104.87a2.98 2.98 0 01-.97-2.05c-.08-1.55 1.2-3.11 2.81-3.11.8 0 1.53.21 2.14.76.58.52.94 1.27.98 2.05.08 1.55-1.2 3.12-2.81 3.12-.8 0-1.54-.22-2.15-.77M80.5 107.2a2.98 2.98 0 01-.97-2.05c-.08-1.55 1.19-3.11 2.8-3.11.81 0 1.54.21 2.15.76a2.98 2.98 0 01-1.84 5.17c-.8 0-1.53-.22-2.14-.77M62.57 103.63a2.98 2.98 0 01-.97-2.05c-.08-1.55 1.2-3.11 2.81-3.11.8 0 1.54.2 2.14.76a2.98 2.98 0 01-1.83 5.16c-.8 0-1.54-.21-2.15-.76M50.16 96.48a2.98 2.98 0 01-.97-2.05c-.08-1.55 1.19-3.12 2.8-3.12a2.98 2.98 0 013.12 2.81c.08 1.56-1.2 3.12-2.8 3.12-.81 0-1.54-.21-2.15-.76M41.76 85.22a2.98 2.98 0 011.83-5.17 2.98 2.98 0 01.3 5.93c-.8 0-1.53-.21-2.13-.76M38.52 71.75a2.98 2.98 0 011.84-5.16c.8 0 1.53.21 2.14.76a2.98 2.98 0 01-1.84 5.17c-.8 0-1.53-.22-2.14-.77M45.8 56.45a2.98 2.98 0 011.84-5.17c.8 0 1.53.21 2.14.76a2.97 2.97 0 01-1.83 5.17c-.8 0-1.54-.22-2.15-.77M96.91 59.53a2.98 2.98 0 011.84-5.17c.8 0 1.53.22 2.14.76a2.98 2.98 0 01-1.84 5.17c-.8 0-1.53-.21-2.14-.76M101.51 73.62a2.98 2.98 0 011.84-5.17 2.98 2.98 0 01.3 5.93c-.8 0-1.53-.21-2.14-.76M97.82 87.1a2.98 2.98 0 01-.97-2.06c-.08-1.55 1.2-3.11 2.81-3.11.8 0 1.54.21 2.14.76.58.52.94 1.27.98 2.05.08 1.55-1.2 3.11-2.81 3.11-.8 0-1.54-.2-2.15-.76M85.29 93.4a2.98 2.98 0 011.83-5.16c.8 0 1.54.21 2.14.76a2.98 2.98 0 01-1.83 5.17c-.8 0-1.54-.22-2.14-.77M69.92 92.75a2.98 2.98 0 01-.97-2.05c-.08-1.55 1.2-3.11 2.8-3.11.81 0 1.54.2 2.15.76.58.52.93 1.26.97 2.05.08 1.55-1.19 3.11-2.8 3.11-.8 0-1.54-.21-2.15-.76M55.53 84.28a2.98 2.98 0 01-.97-2.05c-.08-1.55 1.2-3.12 2.81-3.12a2.98 2.98 0 01.3 5.93c-.8 0-1.53-.21-2.14-.76M50.52 70.65a2.97 2.97 0 011.84-5.16c.8 0 1.53.21 2.14.76.58.52.93 1.27.97 2.05.08 1.55-1.19 3.12-2.8 3.12-.8 0-1.54-.22-2.15-.77M89.17 78.83A2.98 2.98 0 0191 73.67c.8 0 1.54.21 2.14.76.58.52.94 1.26.98 2.05.08 1.55-1.2 3.11-2.81 3.11-.8 0-1.54-.21-2.14-.76M72.97 81.44a2.98 2.98 0 011.84-5.16c.8 0 1.53.21 2.14.76.58.52.93 1.27.97 2.05.08 1.55-1.2 3.11-2.81 3.11-.8 0-1.53-.21-2.14-.76M63.35 72.98a2.97 2.97 0 011.83-5.16c.8 0 1.54.21 2.14.76.58.53.94 1.27.98 2.05.08 1.55-1.2 3.12-2.81 3.12-.8 0-1.54-.22-2.14-.77M73.52 63.26a2.98 2.98 0 011.84-5.17c.8 0 1.53.21 2.14.76a2.98 2.98 0 01-1.84 5.17c-.8 0-1.53-.22-2.14-.76M79.83 71.94a2.97 2.97 0 011.83-5.16c.8 0 1.54.21 2.14.76.58.52.94 1.27.98 2.05.08 1.55-1.2 3.11-2.81 3.11-.8 0-1.54-.21-2.14-.76M85.86 50.83a2.98 2.98 0 01-.98-2.05c-.08-1.56 1.2-3.12 2.82-3.12.8 0 1.53.21 2.14.76.58.53.93 1.27.97 2.05.08 1.55-1.2 3.12-2.81 3.12-.8 0-1.53-.22-2.14-.77M67.33 40.43a2.98 2.98 0 011.84-5.17c.8 0 1.53.22 2.14.76.58.53.93 1.27.97 2.05.08 1.56-1.19 3.12-2.8 3.12-.81 0-1.54-.21-2.15-.76M54.02 47.42a2.98 2.98 0 011.83-5.17c.8 0 1.54.22 2.14.76a2.98 2.98 0 01-1.83 5.17c-.8 0-1.54-.22-2.14-.76M61.64 59.08a2.98 2.98 0 011.83-5.16c.8 0 1.54.21 2.14.76.59.52.94 1.27.98 2.05.08 1.55-1.2 3.11-2.81 3.11-.8 0-1.54-.21-2.14-.76M84.88 61.62a2.97 2.97 0 011.84-5.17c.8 0 1.53.21 2.14.76a2.98 2.98 0 01-1.84 5.17c-.8 0-1.53-.22-2.14-.76M69.66 50.23a2.97 2.97 0 011.84-5.16c.8 0 1.53.21 2.14.76a2.98 2.98 0 01-1.84 5.16c-.8 0-1.53-.21-2.14-.76"/></g></svg>