<svg xmlns="http://www.w3.org/2000/svg" width="144" height="90"><path fill="#D91E23" fill-rule="evenodd" d="M143.29 64.25c.02-1.66-.03-3.35-.07-4.97l-.02-.89c-.06-2.37-.15-4.45-.28-6.36a60.9 60.9 0 00-2.16-12.14 71.16 71.16 0 00-2.6-7.88 122.2 122.2 0 00-1.96-4.57 45.12 45.12 0 00-4.54-7.82 45.9 45.9 0 00-7.87-8.5c-3.77-3.1-7.12-5.06-10.55-6.22a91.17 91.17 0 00-12.15-2.94c-2.93-.54-5.6-.94-8.16-1.21L91.57.6c-1-.1-1.98-.22-2.98-.3l-3-.2-.6-.03C84.64.04 84.27 0 83.9 0h-4.9c-.33 0-.66.03-1 .05l-.4.03-2.74.16-.2.01c-1.33.08-2.66.27-4.04.46L69.24.9l-1.17.16c-.32.04-.64.12-.95.19l-.44.1c-.4.1-.8.18-1.2.26-.97.2-1.98.4-2.94.67l-2.9.8-.53.14c-.35.09-.7.18-1.05.29l-2.36.78-2.37.77c-1 .34-1.99.74-2.95 1.13l-.63.25-1.1.22-1.68.33-2.13.45-.35.08c-.5.1-1.02.2-1.5.36-1.26.4-2.62.86-3.96 1.4-1.47.6-2.85 1.3-4.38 2.06a107.5 107.5 0 00-7.45 4.2c-1.53.94-3.02 2-4.47 3.03a156.77 156.77 0 01-9.7 6.42 35.58 35.58 0 00-6.71 5.5 22 22 0 00-5.22 9.14c-.3 1.02-.5 1.87-.64 2.67-.15.8-.15 1.57-.16 2.39v.29c-.01.75.19 1.62.3 2.09.18.67.43 1.27.68 1.82l.05.11c.1.25.22.5.36.74l.83 1.35.13.2a95.03 95.03 0 005.19 7.41c.75.95 1.57 1.88 2.36 2.77l.44.5c.7.8 1.36 1.66 2 2.5l.23.3.27.38c.92 1.24 1.87 2.54 2.93 3.68.43.47.86.91 1.3 1.35.61.6 1.24 1.25 1.82 1.9.78.9 1.69 1.75 2.99 1.9.19.02.38.04.57.04.44 0 .83-.06 1.18-.18.8-.27 1.57-.68 2.3-1.08l.25-.14a117.54 117.54 0 005.25-3.08 51.07 51.07 0 003.53-2.47 149.75 149.75 0 0113.9-9.58 72.3 72.3 0 017.03-3.63c1.67-.7 3.27-1.3 4.9-1.85 1.48-.48 3.1-.9 5.1-1.3 1.9-.37 3.65-.67 5.35-.87 1.61-.2 3.23-.34 4.85-.5l.32-.02c.4-.03.8-.05 1.19-.05a14.14 14.14 0 012.87.4 23.83 23.83 0 018.03 3.47c1.07.87 1.95 1.96 2.67 2.88.69.95 1.3 1.8 1.88 2.7.49.76.94 1.61 1.43 2.7.44 1.25.83 2.53 1.21 3.78.36 1.16.71 2.32 1.11 3.47.44 1.26 1.01 2.5 1.57 3.68l.08.16c.46 1 .92 2.01 1.35 3.02.52 1.3.99 2.61 1.46 3.93l.6 1.67c.15.42.3.83.47 1.25a34.5 34.5 0 011.36 4.07l.03.21c.17 1.2.36 2.55 1.46 3.18.19.1.38.16.59.16.45 0 .9-.25 1.32-.48.15-.1.3-.18.45-.24 2.08-.91 4.2-1.66 6.58-2.5 2.47-.85 4.87-1.59 7.15-2.15 2.5-.63 5.04-1.2 7.54-1.7l1.87-.4c.63-.11 1.25-.25 1.88-.37 1.19-.23 2.4-.39 3.53-.52a31.78 31.78 0 012.66-.07l.31.02.57.02c.27 0 .48-.02.67-.06a2.62 2.62 0 001.7-1.33 5 5 0 00.55-2.47l.01-.68c.04-1.67.12-3.34.2-5 .08-1.9.17-3.86.19-5.79l.01.12.01-.7.02-1.28v-.17"/></svg>